<svg width="150" height="150" viewBox="0 0 150 150" fill="none" xmlns="http://www.w3.org/2000/svg">
<g clip-path="url(#clip0_107_434)" filter="url(#filter0_i_107_434)">
<path d="M75.0002 83.4578C68.6633 87.3397 61.4549 90.9102 53.5095 94.0961C53.5098 94.0971 53.5102 94.098 53.5102 94.098L53.5095 94.0993C53.7393 95.2793 54.0224 96.5006 54.3607 97.7486C54.3623 97.754 54.3633 97.7584 54.3649 97.7638C55.384 101.517 56.9496 105.524 59.2878 109.499C59.2919 109.506 59.2948 109.513 59.2986 109.52H59.2995C62.666 115.236 67.6416 120.88 75.0002 125.584C87.492 117.6 93.1586 106.924 95.6453 97.773C95.6485 97.7629 95.6507 97.7524 95.6535 97.7422C95.9906 96.4984 96.2731 95.2816 96.5016 94.1053C88.5607 90.9191 81.3447 87.3489 75.0002 83.4578Z" fill="#6B4529" fill-opacity="0.7"/>
<path d="M128.906 48.7078C130.156 44.864 130.625 40.958 130.344 36.4267C129.219 18.2705 113.063 3.39537 94.3126 3.27032H94.0314C78.9065 3.27032 65.4063 12.489 60.0939 25.8953C54.5315 21.4891 47.3751 19.3642 40.0626 20.0202C30 20.9889 21.1564 27.7076 17.0625 37.5826C14.9998 42.4576 15.4061 47.9264 15.8749 51.0514C6.15628 56.5513 0 66.9891 0 78.2702C0 95.3768 13.7916 108.413 32.4331 109.422C27.8834 96.2014 27.9684 84.6854 28.1706 80.7505L28.395 76.4138L32.533 75.1106C55.3833 67.9057 66.9983 59.2843 70.9316 55.9089L74.9998 52.4209L79.0681 55.9089C83.0014 59.2843 94.6167 67.9054 117.467 75.1106L121.605 76.4138L121.829 80.7505C122.032 84.6864 122.117 96.2048 117.564 109.428C136.777 108.487 150 95.9389 150 78.2698C150 64.8953 141.313 52.989 128.906 48.7078Z" fill="#2F4C1B"/>
<path d="M115.587 81.0714C92.0258 73.6434 79.7152 64.6986 75.0001 60.6551C70.2851 64.6986 57.9745 73.6434 34.4132 81.0714C33.9371 90.3212 34.5887 128.294 75.0001 146.73C115.414 128.285 116.063 90.3183 115.587 81.0714ZM103.099 92.5765C101.372 104.387 95.3692 120.802 76.5947 131.941L75.0001 132.887L73.4056 131.941C54.6422 120.808 48.6405 104.387 46.9117 92.5705L46.5487 90.0984L48.8817 89.2012C58.1087 85.6522 66.3318 81.5935 73.3202 77.1377L75.0001 76.0634L76.6801 77.1377C83.678 81.5992 91.9024 85.6611 101.129 89.2075L103.462 90.1047L103.099 92.5765Z" fill="#6B4529"/>
</g>
<defs>
<filter id="filter0_i_107_434" x="0" y="0" width="150" height="154" filterUnits="userSpaceOnUse" color-interpolation-filters="sRGB">
<feFlood flood-opacity="0" result="BackgroundImageFix"/>
<feBlend mode="normal" in="SourceGraphic" in2="BackgroundImageFix" result="shape"/>
<feColorMatrix in="SourceAlpha" type="matrix" values="0 0 0 0 0 0 0 0 0 0 0 0 0 0 0 0 0 0 127 0" result="hardAlpha"/>
<feOffset dy="7"/>
<feGaussianBlur stdDeviation="2"/>
<feComposite in2="hardAlpha" operator="arithmetic" k2="-1" k3="1"/>
<feColorMatrix type="matrix" values="0 0 0 0 0 0 0 0 0 0 0 0 0 0 0 0 0 0 0.9 0"/>
<feBlend mode="normal" in2="shape" result="effect1_innerShadow_107_434"/>
</filter>
<clipPath id="clip0_107_434">
<rect width="150" height="150" fill="white"/>
</clipPath>
</defs>
</svg>
