<svg width="307" height="220" viewBox="0 0 307 220" fill="none" xmlns="http://www.w3.org/2000/svg">
<g opacity="0.6">
<g style="mix-blend-mode:exclusion" clip-path="url(#clip0_131_1840)">
<path d="M153 94.5854C145.818 98.985 137.649 103.032 128.644 106.642C128.644 106.643 128.645 106.644 128.645 106.644L128.644 106.646C128.904 107.983 129.225 109.367 129.609 110.782C129.611 110.788 129.612 110.793 129.613 110.799C130.768 115.052 132.543 119.594 135.193 124.099C135.197 124.107 135.201 124.115 135.205 124.123H135.206C139.021 130.601 144.66 136.998 153 142.329C167.158 133.28 173.58 121.181 176.398 110.809C176.402 110.798 176.404 110.786 176.407 110.775C176.789 109.365 177.109 107.986 177.368 106.653C168.369 103.042 160.191 98.9954 153 94.5854Z" fill="white"/>
<path d="M214.094 55.2021C215.51 50.8458 216.042 46.419 215.723 41.2835C214.448 20.7065 196.138 3.84802 174.888 3.7063H174.569C157.427 3.7063 142.127 14.1542 136.106 29.3479C129.802 24.3542 121.692 21.946 113.404 22.6895C102 23.7873 91.9773 31.4018 87.3375 42.5936C84.9998 48.1186 85.4602 54.3166 85.9915 57.8582C74.9771 64.0914 68 75.9209 68 88.7061C68 108.094 83.6304 122.868 104.757 124.011C99.6012 109.028 99.6976 95.9768 99.9267 91.5172L100.181 86.6022L104.871 85.1253C130.768 76.9597 143.931 67.1888 148.389 63.3634L153 59.4103L157.61 63.3634C162.068 67.1888 175.232 76.9594 201.129 85.1253L205.819 86.6022L206.073 91.5172C206.302 95.9778 206.399 109.032 201.239 124.018C223.014 122.952 238 108.731 238 88.7058C238 73.548 228.154 60.0541 214.094 55.2021Z" fill="white"/>
<path d="M198.999 91.8809C172.296 83.4625 158.344 73.325 153 68.7424C147.657 73.325 133.704 83.4625 107.002 91.8809C106.462 102.364 107.201 145.4 153 166.294C198.803 145.39 199.538 102.361 198.999 91.8809ZM184.846 104.92C182.888 118.305 176.085 136.909 154.807 149.533L153 150.605L151.193 149.533C129.928 136.916 123.126 118.305 121.167 104.913L120.755 102.112L123.399 101.095C133.857 97.0725 143.176 92.4726 151.096 87.4228L153 86.2052L154.904 87.4228C162.835 92.4791 172.156 97.0825 182.613 101.102L185.257 102.119L184.846 104.92Z" fill="white"/>
</g>
<g style="mix-blend-mode:exclusion">
<mask id="path-4-outside-1_131_1840" maskUnits="userSpaceOnUse" x="0" y="187" width="127" height="33" fill="black">
<rect fill="white" y="187" width="127" height="33"/>
<path d="M4.44051 217.184H2V189.597H16.1765V191.946H4.44051V201.659H14.8486V204.007H4.44051V217.184ZM42.9862 203.37C42.9862 205.732 42.6752 207.816 42.0531 209.62C41.431 211.425 40.5864 212.929 39.5193 214.134C38.4569 215.344 37.2199 216.255 35.8083 216.865C34.3966 217.475 32.9012 217.781 31.322 217.781C29.7429 217.781 28.2475 217.475 26.8358 216.865C25.4241 216.255 24.1847 215.344 23.1176 214.134C22.0553 212.929 21.213 211.425 20.591 209.62C19.9689 207.816 19.6578 205.732 19.6578 203.37C19.6578 201.009 19.9689 198.931 20.591 197.137C21.213 195.348 22.0553 193.849 23.1176 192.638C24.1847 191.434 25.4241 190.526 26.8358 189.916C28.2475 189.305 29.7429 189 31.322 189C32.9012 189 34.3966 189.305 35.8083 189.916C37.2199 190.526 38.4569 191.434 39.5193 192.638C40.5864 193.849 41.431 195.348 42.0531 197.137C42.6752 198.931 42.9862 201.009 42.9862 203.37ZM40.4022 203.37C40.4022 201.513 40.1868 199.846 39.7562 198.371C39.3255 196.9 38.7153 195.648 37.9258 194.613C37.1362 193.578 36.1839 192.787 35.0689 192.24C33.9587 191.699 32.7098 191.428 31.322 191.428C29.9343 191.428 28.6829 191.699 27.5679 192.24C26.4578 192.787 25.5079 193.578 24.7183 194.613C23.9287 195.648 23.3186 196.9 22.8879 198.371C22.4572 199.846 22.2419 201.513 22.2419 203.37C22.2419 205.228 22.4572 206.892 22.8879 208.362C23.3186 209.838 23.9287 211.093 24.7183 212.128C25.5079 213.163 26.4578 213.959 27.5679 214.516C28.6829 215.074 29.9343 215.352 31.322 215.352C32.7098 215.352 33.9587 215.074 35.0689 214.516C36.1839 213.959 37.1362 213.163 37.9258 212.128C38.7153 211.093 39.3255 209.838 39.7562 208.362C40.1868 206.892 40.4022 205.228 40.4022 203.37ZM65.0226 197.877C65.0226 199.947 64.5321 201.579 63.5511 202.773C62.5702 203.968 61.2781 204.83 59.675 205.361C60.0579 205.892 60.5531 206.608 61.1609 207.51C61.7734 208.413 62.4027 209.4 63.0487 210.472C63.6947 211.549 64.3288 212.672 64.9508 213.84C65.5729 215.007 66.0993 216.122 66.53 217.184H63.91C63.4076 216.122 62.8621 215.06 62.2735 213.999C61.6897 212.937 61.0915 211.908 60.479 210.91C59.8712 209.917 59.2802 208.997 58.706 208.147C58.1318 207.298 57.6293 206.555 57.1986 205.918C56.433 205.998 55.6673 206.038 54.9017 206.038H50.882V217.184H48.4415V190.115C49.3029 189.849 50.3126 189.655 51.4706 189.533C52.6334 189.417 53.7054 189.358 54.6863 189.358C58.1078 189.358 60.6847 190.075 62.417 191.508C64.1541 192.941 65.0226 195.064 65.0226 197.877ZM54.9735 191.707C54.0643 191.707 53.2675 191.739 52.5832 191.802C51.9037 191.871 51.3366 191.932 50.882 191.986V203.729H54.2557C55.3802 203.729 56.4449 203.668 57.4499 203.546C58.4548 203.429 59.3281 203.163 60.0698 202.749C60.8116 202.341 61.3977 201.752 61.8284 200.982C62.2591 200.212 62.4744 199.164 62.4744 197.837C62.4744 196.616 62.2591 195.608 61.8284 194.812C61.3977 194.016 60.8355 193.384 60.1416 192.917C59.4477 192.455 58.651 192.137 57.7513 191.962C56.8565 191.792 55.9305 191.707 54.9735 191.707ZM85.9034 217.184H70.6143V189.597H84.9702V191.946H73.0548V201.539H83.6782V203.848H73.0548V214.835H85.9034V217.184ZM95.8807 215.432C97.8188 215.432 99.3262 215.039 100.403 214.254C101.48 213.474 102.018 212.208 102.018 210.456C102.018 209.448 101.846 208.604 101.501 207.924C101.152 207.25 100.69 206.68 100.116 206.213C99.5415 205.751 98.8835 205.353 98.1418 205.018C97.4001 204.689 96.6225 204.339 95.809 203.968C94.7801 203.516 93.8589 203.052 93.0454 202.574C92.2319 202.097 91.5381 201.558 90.9638 200.958C90.3896 200.364 89.9541 199.682 89.6574 198.912C89.356 198.142 89.2052 197.24 89.2052 196.205C89.2052 193.843 89.9111 192.052 91.3227 190.831C92.7344 189.61 94.6964 189 97.2087 189C97.8786 189 98.5366 189.053 99.1826 189.159C99.8286 189.265 100.434 189.403 100.999 189.573C101.559 189.748 102.073 189.942 102.542 190.154C103.006 190.367 103.394 190.592 103.705 190.831L102.843 193.1C102.15 192.569 101.307 192.145 100.317 191.826C99.3214 191.508 98.2495 191.349 97.101 191.349C96.3114 191.349 95.5888 191.434 94.9333 191.603C94.2729 191.779 93.7034 192.057 93.2249 192.439C92.7464 192.827 92.3707 193.312 92.098 193.896C91.8204 194.48 91.6816 195.183 91.6816 196.006C91.6816 196.855 91.8252 197.572 92.1123 198.156C92.3994 198.74 92.8014 199.244 93.3182 199.668C93.8302 200.093 94.4332 200.478 95.1271 200.823C95.8209 201.168 96.5746 201.526 97.3881 201.898C98.3691 202.349 99.2975 202.8 100.173 203.251C101.044 203.702 101.803 204.233 102.449 204.843C103.095 205.454 103.609 206.197 103.992 207.073C104.375 207.948 104.566 209.023 104.566 210.297C104.566 212.791 103.784 214.662 102.219 215.91C100.649 217.157 98.5246 217.781 95.8449 217.781C94.8878 217.781 94.0145 217.714 93.2249 217.582C92.4353 217.449 91.7295 217.282 91.1074 217.08C90.4853 216.884 89.9589 216.679 89.5282 216.467C89.0976 216.255 88.7626 216.069 88.5233 215.91L89.3129 213.561C89.5522 213.72 89.8752 213.906 90.2819 214.118C90.6887 214.331 91.1672 214.535 91.7175 214.731C92.2678 214.933 92.8899 215.1 93.5838 215.233C94.2777 215.366 95.0433 215.432 95.8807 215.432ZM106.504 189.597H124.88V191.946H116.912V217.184H114.472V191.946H106.504V189.597Z"/>
</mask>
<path d="M4.44051 217.184H2V189.597H16.1765V191.946H4.44051V201.659H14.8486V204.007H4.44051V217.184ZM42.9862 203.37C42.9862 205.732 42.6752 207.816 42.0531 209.62C41.431 211.425 40.5864 212.929 39.5193 214.134C38.4569 215.344 37.2199 216.255 35.8083 216.865C34.3966 217.475 32.9012 217.781 31.322 217.781C29.7429 217.781 28.2475 217.475 26.8358 216.865C25.4241 216.255 24.1847 215.344 23.1176 214.134C22.0553 212.929 21.213 211.425 20.591 209.62C19.9689 207.816 19.6578 205.732 19.6578 203.37C19.6578 201.009 19.9689 198.931 20.591 197.137C21.213 195.348 22.0553 193.849 23.1176 192.638C24.1847 191.434 25.4241 190.526 26.8358 189.916C28.2475 189.305 29.7429 189 31.322 189C32.9012 189 34.3966 189.305 35.8083 189.916C37.2199 190.526 38.4569 191.434 39.5193 192.638C40.5864 193.849 41.431 195.348 42.0531 197.137C42.6752 198.931 42.9862 201.009 42.9862 203.37ZM40.4022 203.37C40.4022 201.513 40.1868 199.846 39.7562 198.371C39.3255 196.9 38.7153 195.648 37.9258 194.613C37.1362 193.578 36.1839 192.787 35.0689 192.24C33.9587 191.699 32.7098 191.428 31.322 191.428C29.9343 191.428 28.6829 191.699 27.5679 192.24C26.4578 192.787 25.5079 193.578 24.7183 194.613C23.9287 195.648 23.3186 196.9 22.8879 198.371C22.4572 199.846 22.2419 201.513 22.2419 203.37C22.2419 205.228 22.4572 206.892 22.8879 208.362C23.3186 209.838 23.9287 211.093 24.7183 212.128C25.5079 213.163 26.4578 213.959 27.5679 214.516C28.6829 215.074 29.9343 215.352 31.322 215.352C32.7098 215.352 33.9587 215.074 35.0689 214.516C36.1839 213.959 37.1362 213.163 37.9258 212.128C38.7153 211.093 39.3255 209.838 39.7562 208.362C40.1868 206.892 40.4022 205.228 40.4022 203.37ZM65.0226 197.877C65.0226 199.947 64.5321 201.579 63.5511 202.773C62.5702 203.968 61.2781 204.83 59.675 205.361C60.0579 205.892 60.5531 206.608 61.1609 207.51C61.7734 208.413 62.4027 209.4 63.0487 210.472C63.6947 211.549 64.3288 212.672 64.9508 213.84C65.5729 215.007 66.0993 216.122 66.53 217.184H63.91C63.4076 216.122 62.8621 215.06 62.2735 213.999C61.6897 212.937 61.0915 211.908 60.479 210.91C59.8712 209.917 59.2802 208.997 58.706 208.147C58.1318 207.298 57.6293 206.555 57.1986 205.918C56.433 205.998 55.6673 206.038 54.9017 206.038H50.882V217.184H48.4415V190.115C49.3029 189.849 50.3126 189.655 51.4706 189.533C52.6334 189.417 53.7054 189.358 54.6863 189.358C58.1078 189.358 60.6847 190.075 62.417 191.508C64.1541 192.941 65.0226 195.064 65.0226 197.877ZM54.9735 191.707C54.0643 191.707 53.2675 191.739 52.5832 191.802C51.9037 191.871 51.3366 191.932 50.882 191.986V203.729H54.2557C55.3802 203.729 56.4449 203.668 57.4499 203.546C58.4548 203.429 59.3281 203.163 60.0698 202.749C60.8116 202.341 61.3977 201.752 61.8284 200.982C62.2591 200.212 62.4744 199.164 62.4744 197.837C62.4744 196.616 62.2591 195.608 61.8284 194.812C61.3977 194.016 60.8355 193.384 60.1416 192.917C59.4477 192.455 58.651 192.137 57.7513 191.962C56.8565 191.792 55.9305 191.707 54.9735 191.707ZM85.9034 217.184H70.6143V189.597H84.9702V191.946H73.0548V201.539H83.6782V203.848H73.0548V214.835H85.9034V217.184ZM95.8807 215.432C97.8188 215.432 99.3262 215.039 100.403 214.254C101.48 213.474 102.018 212.208 102.018 210.456C102.018 209.448 101.846 208.604 101.501 207.924C101.152 207.25 100.69 206.68 100.116 206.213C99.5415 205.751 98.8835 205.353 98.1418 205.018C97.4001 204.689 96.6225 204.339 95.809 203.968C94.7801 203.516 93.8589 203.052 93.0454 202.574C92.2319 202.097 91.5381 201.558 90.9638 200.958C90.3896 200.364 89.9541 199.682 89.6574 198.912C89.356 198.142 89.2052 197.24 89.2052 196.205C89.2052 193.843 89.9111 192.052 91.3227 190.831C92.7344 189.61 94.6964 189 97.2087 189C97.8786 189 98.5366 189.053 99.1826 189.159C99.8286 189.265 100.434 189.403 100.999 189.573C101.559 189.748 102.073 189.942 102.542 190.154C103.006 190.367 103.394 190.592 103.705 190.831L102.843 193.1C102.15 192.569 101.307 192.145 100.317 191.826C99.3214 191.508 98.2495 191.349 97.101 191.349C96.3114 191.349 95.5888 191.434 94.9333 191.603C94.2729 191.779 93.7034 192.057 93.2249 192.439C92.7464 192.827 92.3707 193.312 92.098 193.896C91.8204 194.48 91.6816 195.183 91.6816 196.006C91.6816 196.855 91.8252 197.572 92.1123 198.156C92.3994 198.74 92.8014 199.244 93.3182 199.668C93.8302 200.093 94.4332 200.478 95.1271 200.823C95.8209 201.168 96.5746 201.526 97.3881 201.898C98.3691 202.349 99.2975 202.8 100.173 203.251C101.044 203.702 101.803 204.233 102.449 204.843C103.095 205.454 103.609 206.197 103.992 207.073C104.375 207.948 104.566 209.023 104.566 210.297C104.566 212.791 103.784 214.662 102.219 215.91C100.649 217.157 98.5246 217.781 95.8449 217.781C94.8878 217.781 94.0145 217.714 93.2249 217.582C92.4353 217.449 91.7295 217.282 91.1074 217.08C90.4853 216.884 89.9589 216.679 89.5282 216.467C89.0976 216.255 88.7626 216.069 88.5233 215.91L89.3129 213.561C89.5522 213.72 89.8752 213.906 90.2819 214.118C90.6887 214.331 91.1672 214.535 91.7175 214.731C92.2678 214.933 92.8899 215.1 93.5838 215.233C94.2777 215.366 95.0433 215.432 95.8807 215.432ZM106.504 189.597H124.88V191.946H116.912V217.184H114.472V191.946H106.504V189.597Z" fill="white"/>
<path d="M4.44051 217.184H2V189.597H16.1765V191.946H4.44051V201.659H14.8486V204.007H4.44051V217.184ZM42.9862 203.37C42.9862 205.732 42.6752 207.816 42.0531 209.62C41.431 211.425 40.5864 212.929 39.5193 214.134C38.4569 215.344 37.2199 216.255 35.8083 216.865C34.3966 217.475 32.9012 217.781 31.322 217.781C29.7429 217.781 28.2475 217.475 26.8358 216.865C25.4241 216.255 24.1847 215.344 23.1176 214.134C22.0553 212.929 21.213 211.425 20.591 209.62C19.9689 207.816 19.6578 205.732 19.6578 203.37C19.6578 201.009 19.9689 198.931 20.591 197.137C21.213 195.348 22.0553 193.849 23.1176 192.638C24.1847 191.434 25.4241 190.526 26.8358 189.916C28.2475 189.305 29.7429 189 31.322 189C32.9012 189 34.3966 189.305 35.8083 189.916C37.2199 190.526 38.4569 191.434 39.5193 192.638C40.5864 193.849 41.431 195.348 42.0531 197.137C42.6752 198.931 42.9862 201.009 42.9862 203.37ZM40.4022 203.37C40.4022 201.513 40.1868 199.846 39.7562 198.371C39.3255 196.9 38.7153 195.648 37.9258 194.613C37.1362 193.578 36.1839 192.787 35.0689 192.24C33.9587 191.699 32.7098 191.428 31.322 191.428C29.9343 191.428 28.6829 191.699 27.5679 192.24C26.4578 192.787 25.5079 193.578 24.7183 194.613C23.9287 195.648 23.3186 196.9 22.8879 198.371C22.4572 199.846 22.2419 201.513 22.2419 203.37C22.2419 205.228 22.4572 206.892 22.8879 208.362C23.3186 209.838 23.9287 211.093 24.7183 212.128C25.5079 213.163 26.4578 213.959 27.5679 214.516C28.6829 215.074 29.9343 215.352 31.322 215.352C32.7098 215.352 33.9587 215.074 35.0689 214.516C36.1839 213.959 37.1362 213.163 37.9258 212.128C38.7153 211.093 39.3255 209.838 39.7562 208.362C40.1868 206.892 40.4022 205.228 40.4022 203.37ZM65.0226 197.877C65.0226 199.947 64.5321 201.579 63.5511 202.773C62.5702 203.968 61.2781 204.83 59.675 205.361C60.0579 205.892 60.5531 206.608 61.1609 207.51C61.7734 208.413 62.4027 209.4 63.0487 210.472C63.6947 211.549 64.3288 212.672 64.9508 213.84C65.5729 215.007 66.0993 216.122 66.53 217.184H63.91C63.4076 216.122 62.8621 215.06 62.2735 213.999C61.6897 212.937 61.0915 211.908 60.479 210.91C59.8712 209.917 59.2802 208.997 58.706 208.147C58.1318 207.298 57.6293 206.555 57.1986 205.918C56.433 205.998 55.6673 206.038 54.9017 206.038H50.882V217.184H48.4415V190.115C49.3029 189.849 50.3126 189.655 51.4706 189.533C52.6334 189.417 53.7054 189.358 54.6863 189.358C58.1078 189.358 60.6847 190.075 62.417 191.508C64.1541 192.941 65.0226 195.064 65.0226 197.877ZM54.9735 191.707C54.0643 191.707 53.2675 191.739 52.5832 191.802C51.9037 191.871 51.3366 191.932 50.882 191.986V203.729H54.2557C55.3802 203.729 56.4449 203.668 57.4499 203.546C58.4548 203.429 59.3281 203.163 60.0698 202.749C60.8116 202.341 61.3977 201.752 61.8284 200.982C62.2591 200.212 62.4744 199.164 62.4744 197.837C62.4744 196.616 62.2591 195.608 61.8284 194.812C61.3977 194.016 60.8355 193.384 60.1416 192.917C59.4477 192.455 58.651 192.137 57.7513 191.962C56.8565 191.792 55.9305 191.707 54.9735 191.707ZM85.9034 217.184H70.6143V189.597H84.9702V191.946H73.0548V201.539H83.6782V203.848H73.0548V214.835H85.9034V217.184ZM95.8807 215.432C97.8188 215.432 99.3262 215.039 100.403 214.254C101.48 213.474 102.018 212.208 102.018 210.456C102.018 209.448 101.846 208.604 101.501 207.924C101.152 207.25 100.69 206.68 100.116 206.213C99.5415 205.751 98.8835 205.353 98.1418 205.018C97.4001 204.689 96.6225 204.339 95.809 203.968C94.7801 203.516 93.8589 203.052 93.0454 202.574C92.2319 202.097 91.5381 201.558 90.9638 200.958C90.3896 200.364 89.9541 199.682 89.6574 198.912C89.356 198.142 89.2052 197.24 89.2052 196.205C89.2052 193.843 89.9111 192.052 91.3227 190.831C92.7344 189.61 94.6964 189 97.2087 189C97.8786 189 98.5366 189.053 99.1826 189.159C99.8286 189.265 100.434 189.403 100.999 189.573C101.559 189.748 102.073 189.942 102.542 190.154C103.006 190.367 103.394 190.592 103.705 190.831L102.843 193.1C102.15 192.569 101.307 192.145 100.317 191.826C99.3214 191.508 98.2495 191.349 97.101 191.349C96.3114 191.349 95.5888 191.434 94.9333 191.603C94.2729 191.779 93.7034 192.057 93.2249 192.439C92.7464 192.827 92.3707 193.312 92.098 193.896C91.8204 194.48 91.6816 195.183 91.6816 196.006C91.6816 196.855 91.8252 197.572 92.1123 198.156C92.3994 198.74 92.8014 199.244 93.3182 199.668C93.8302 200.093 94.4332 200.478 95.1271 200.823C95.8209 201.168 96.5746 201.526 97.3881 201.898C98.3691 202.349 99.2975 202.8 100.173 203.251C101.044 203.702 101.803 204.233 102.449 204.843C103.095 205.454 103.609 206.197 103.992 207.073C104.375 207.948 104.566 209.023 104.566 210.297C104.566 212.791 103.784 214.662 102.219 215.91C100.649 217.157 98.5246 217.781 95.8449 217.781C94.8878 217.781 94.0145 217.714 93.2249 217.582C92.4353 217.449 91.7295 217.282 91.1074 217.08C90.4853 216.884 89.9589 216.679 89.5282 216.467C89.0976 216.255 88.7626 216.069 88.5233 215.91L89.3129 213.561C89.5522 213.72 89.8752 213.906 90.2819 214.118C90.6887 214.331 91.1672 214.535 91.7175 214.731C92.2678 214.933 92.8899 215.1 93.5838 215.233C94.2777 215.366 95.0433 215.432 95.8807 215.432ZM106.504 189.597H124.88V191.946H116.912V217.184H114.472V191.946H106.504V189.597Z" stroke="white" stroke-width="4" mask="url(#path-4-outside-1_131_1840)"/>
<mask id="path-5-inside-2_131_1840" fill="white">
<path d="M152.436 214.716V204.127H154.876V216.427C154.422 216.64 153.532 216.913 152.206 217.247C150.876 217.576 149.242 217.741 147.304 217.741C145.677 217.741 144.169 217.422 142.782 216.785C141.394 216.149 140.193 215.225 139.178 214.015C138.159 212.81 137.362 211.311 136.788 209.517C136.214 207.728 135.927 205.679 135.927 203.37C135.927 201.062 136.238 199.01 136.86 197.216C137.482 195.428 138.326 193.928 139.394 192.718C140.456 191.513 141.693 190.592 143.105 189.955C144.516 189.318 146.024 189 147.627 189C149.469 189 150.988 189.218 152.185 189.653C153.381 190.093 154.254 190.513 154.805 190.911L153.979 193.22C153.309 192.689 152.4 192.256 151.252 191.922C150.103 191.593 148.859 191.428 147.519 191.428C146.275 191.428 145.102 191.68 144.002 192.185C142.901 192.689 141.944 193.445 141.131 194.454C140.317 195.462 139.678 196.709 139.214 198.195C138.745 199.682 138.511 201.407 138.511 203.37C138.511 205.202 138.702 206.852 139.085 208.322C139.468 209.798 140.049 211.059 140.829 212.104C141.604 213.155 142.566 213.959 143.715 214.516C144.863 215.074 146.191 215.352 147.699 215.352C148.919 215.352 149.943 215.278 150.771 215.129C151.594 214.986 152.149 214.848 152.436 214.716ZM169.52 217.781C167.869 217.781 166.464 217.502 165.306 216.945C164.143 216.387 163.203 215.618 162.485 214.636C161.767 213.654 161.248 212.505 160.928 211.189C160.602 209.878 160.439 208.466 160.439 206.953V189.597H162.88V206.595C162.88 208.107 163.043 209.413 163.368 210.512C163.689 211.616 164.136 212.526 164.71 213.243C165.285 213.959 165.978 214.49 166.792 214.835C167.605 215.18 168.515 215.352 169.52 215.352C170.524 215.352 171.434 215.18 172.247 214.835C173.061 214.49 173.755 213.959 174.329 213.243C174.903 212.526 175.353 211.616 175.678 210.512C175.999 209.413 176.159 208.107 176.159 206.595V189.597H178.6V206.953C178.6 208.466 178.439 209.878 178.119 211.189C177.793 212.505 177.272 213.654 176.554 214.636C175.836 215.618 174.898 216.387 173.74 216.945C172.577 217.502 171.17 217.781 169.52 217.781ZM204.369 217.184H201.677C201.222 215.83 200.792 214.53 200.385 213.282C199.978 212.035 199.583 210.814 199.201 209.62H187.106C186.699 210.814 186.292 212.035 185.885 213.282C185.479 214.53 185.06 215.83 184.629 217.184H182.081C183.038 214.317 183.935 211.642 184.773 209.158C185.61 206.68 186.428 204.331 187.228 202.113C188.032 199.899 188.828 197.771 189.618 195.727C190.407 193.684 191.245 191.641 192.13 189.597H194.284C195.169 191.641 196.006 193.684 196.796 195.727C197.585 197.771 198.38 199.899 199.179 202.113C199.983 204.331 200.804 206.68 201.641 209.158C202.478 211.642 203.388 214.317 204.369 217.184ZM193.135 192.702C192.226 194.984 191.345 197.306 190.494 199.668C189.647 202.03 188.768 204.578 187.859 207.311H198.447C197.538 204.578 196.652 202.03 195.791 199.668C194.93 197.306 194.044 194.984 193.135 192.702ZM224.539 197.877C224.539 199.947 224.048 201.579 223.067 202.773C222.086 203.968 220.794 204.83 219.191 205.361C219.574 205.892 220.069 206.608 220.677 207.51C221.29 208.413 221.919 209.4 222.565 210.472C223.211 211.549 223.845 212.672 224.467 213.84C225.089 215.007 225.615 216.122 226.046 217.184H223.426C222.924 216.122 222.378 215.06 221.79 213.999C221.206 212.937 220.608 211.908 219.995 210.91C219.387 209.917 218.796 208.997 218.222 208.147C217.648 207.298 217.145 206.555 216.715 205.918C215.949 205.998 215.183 206.038 214.418 206.038H210.398V217.184H207.958V190.115C208.819 189.849 209.829 189.655 210.987 189.533C212.15 189.417 213.221 189.358 214.202 189.358C217.624 189.358 220.201 190.075 221.933 191.508C223.67 192.941 224.539 195.064 224.539 197.877ZM214.49 191.707C213.58 191.707 212.784 191.739 212.099 191.802C211.42 191.871 210.853 191.932 210.398 191.986V203.729H213.772C214.896 203.729 215.961 203.668 216.966 203.546C217.971 203.429 218.844 203.163 219.586 202.749C220.328 202.341 220.914 201.752 221.345 200.982C221.775 200.212 221.991 199.164 221.991 197.837C221.991 196.616 221.775 195.608 221.345 194.812C220.914 194.016 220.352 193.384 219.658 192.917C218.964 192.455 218.167 192.137 217.267 191.962C216.373 191.792 215.447 191.707 214.49 191.707ZM249.87 203.37C249.87 205.732 249.535 207.789 248.865 209.541C248.195 211.292 247.257 212.752 246.051 213.919C244.84 215.087 243.398 215.963 241.723 216.547C240.048 217.13 238.206 217.422 236.196 217.422C235.191 217.422 234.138 217.364 233.037 217.247C231.937 217.125 230.968 216.945 230.13 216.706V190.115C230.968 189.849 231.937 189.655 233.037 189.533C234.138 189.417 235.191 189.358 236.196 189.358C238.206 189.358 240.048 189.65 241.723 190.234C243.398 190.818 244.84 191.694 246.051 192.861C247.257 194.029 248.195 195.489 248.865 197.24C249.535 198.992 249.87 201.035 249.87 203.37ZM232.571 191.986V214.795C232.714 214.822 233.081 214.875 233.669 214.954C234.253 215.034 235.191 215.074 236.483 215.074C238.277 215.074 239.845 214.8 241.184 214.254C242.524 213.712 243.649 212.937 244.558 211.929C245.467 210.921 246.149 209.692 246.604 208.243C247.058 206.799 247.286 205.175 247.286 203.37C247.286 201.566 247.058 199.947 246.604 198.514C246.149 197.081 245.467 195.86 244.558 194.852C243.649 193.843 242.524 193.066 241.184 192.519C239.845 191.978 238.277 191.707 236.483 191.707C235.191 191.707 234.253 191.747 233.669 191.826C233.081 191.906 232.714 191.959 232.571 191.986ZM255.325 217.184V189.597H257.766V217.184H255.325ZM283.642 217.184H280.95C280.496 215.83 280.065 214.53 279.658 213.282C279.252 212.035 278.857 210.814 278.474 209.62H266.379C265.972 210.814 265.566 212.035 265.159 213.282C264.752 214.53 264.333 215.83 263.903 217.184H261.355C262.312 214.317 263.209 211.642 264.046 209.158C264.884 206.68 265.702 204.331 266.501 202.113C267.305 199.899 268.102 197.771 268.891 195.727C269.681 193.684 270.518 191.641 271.404 189.597H273.557C274.442 191.641 275.28 193.684 276.069 195.727C276.859 197.771 277.653 199.899 278.453 202.113C279.256 204.331 280.077 206.68 280.915 209.158C281.752 211.642 282.661 214.317 283.642 217.184ZM272.409 192.702C271.499 194.984 270.619 197.306 269.767 199.668C268.92 202.03 268.042 204.578 267.133 207.311H277.72C276.811 204.578 275.926 202.03 275.065 199.668C274.203 197.306 273.318 194.984 272.409 192.702ZM306.217 217.184H304.171C303.717 216.255 303.135 215.167 302.427 213.919C301.724 212.672 300.953 211.337 300.116 209.915C299.278 208.498 298.393 207.038 297.46 205.536C296.527 204.039 295.598 202.58 294.675 201.157C293.756 199.74 292.859 198.408 291.983 197.16C291.112 195.913 290.33 194.838 289.636 193.936V217.184H287.231V189.597H289.169C290.39 191.11 291.698 192.853 293.096 194.828C294.498 196.808 295.869 198.824 297.209 200.878C298.548 202.938 299.797 204.949 300.955 206.913C302.118 208.877 303.071 210.589 303.812 212.048V189.597H306.217V217.184Z"/>
</mask>
<path d="M152.436 214.716V204.127H154.876V216.427C154.422 216.64 153.532 216.913 152.206 217.247C150.876 217.576 149.242 217.741 147.304 217.741C145.677 217.741 144.169 217.422 142.782 216.785C141.394 216.149 140.193 215.225 139.178 214.015C138.159 212.81 137.362 211.311 136.788 209.517C136.214 207.728 135.927 205.679 135.927 203.37C135.927 201.062 136.238 199.01 136.86 197.216C137.482 195.428 138.326 193.928 139.394 192.718C140.456 191.513 141.693 190.592 143.105 189.955C144.516 189.318 146.024 189 147.627 189C149.469 189 150.988 189.218 152.185 189.653C153.381 190.093 154.254 190.513 154.805 190.911L153.979 193.22C153.309 192.689 152.4 192.256 151.252 191.922C150.103 191.593 148.859 191.428 147.519 191.428C146.275 191.428 145.102 191.68 144.002 192.185C142.901 192.689 141.944 193.445 141.131 194.454C140.317 195.462 139.678 196.709 139.214 198.195C138.745 199.682 138.511 201.407 138.511 203.37C138.511 205.202 138.702 206.852 139.085 208.322C139.468 209.798 140.049 211.059 140.829 212.104C141.604 213.155 142.566 213.959 143.715 214.516C144.863 215.074 146.191 215.352 147.699 215.352C148.919 215.352 149.943 215.278 150.771 215.129C151.594 214.986 152.149 214.848 152.436 214.716ZM169.52 217.781C167.869 217.781 166.464 217.502 165.306 216.945C164.143 216.387 163.203 215.618 162.485 214.636C161.767 213.654 161.248 212.505 160.928 211.189C160.602 209.878 160.439 208.466 160.439 206.953V189.597H162.88V206.595C162.88 208.107 163.043 209.413 163.368 210.512C163.689 211.616 164.136 212.526 164.71 213.243C165.285 213.959 165.978 214.49 166.792 214.835C167.605 215.18 168.515 215.352 169.52 215.352C170.524 215.352 171.434 215.18 172.247 214.835C173.061 214.49 173.755 213.959 174.329 213.243C174.903 212.526 175.353 211.616 175.678 210.512C175.999 209.413 176.159 208.107 176.159 206.595V189.597H178.6V206.953C178.6 208.466 178.439 209.878 178.119 211.189C177.793 212.505 177.272 213.654 176.554 214.636C175.836 215.618 174.898 216.387 173.74 216.945C172.577 217.502 171.17 217.781 169.52 217.781ZM204.369 217.184H201.677C201.222 215.83 200.792 214.53 200.385 213.282C199.978 212.035 199.583 210.814 199.201 209.62H187.106C186.699 210.814 186.292 212.035 185.885 213.282C185.479 214.53 185.06 215.83 184.629 217.184H182.081C183.038 214.317 183.935 211.642 184.773 209.158C185.61 206.68 186.428 204.331 187.228 202.113C188.032 199.899 188.828 197.771 189.618 195.727C190.407 193.684 191.245 191.641 192.13 189.597H194.284C195.169 191.641 196.006 193.684 196.796 195.727C197.585 197.771 198.38 199.899 199.179 202.113C199.983 204.331 200.804 206.68 201.641 209.158C202.478 211.642 203.388 214.317 204.369 217.184ZM193.135 192.702C192.226 194.984 191.345 197.306 190.494 199.668C189.647 202.03 188.768 204.578 187.859 207.311H198.447C197.538 204.578 196.652 202.03 195.791 199.668C194.93 197.306 194.044 194.984 193.135 192.702ZM224.539 197.877C224.539 199.947 224.048 201.579 223.067 202.773C222.086 203.968 220.794 204.83 219.191 205.361C219.574 205.892 220.069 206.608 220.677 207.51C221.29 208.413 221.919 209.4 222.565 210.472C223.211 211.549 223.845 212.672 224.467 213.84C225.089 215.007 225.615 216.122 226.046 217.184H223.426C222.924 216.122 222.378 215.06 221.79 213.999C221.206 212.937 220.608 211.908 219.995 210.91C219.387 209.917 218.796 208.997 218.222 208.147C217.648 207.298 217.145 206.555 216.715 205.918C215.949 205.998 215.183 206.038 214.418 206.038H210.398V217.184H207.958V190.115C208.819 189.849 209.829 189.655 210.987 189.533C212.15 189.417 213.221 189.358 214.202 189.358C217.624 189.358 220.201 190.075 221.933 191.508C223.67 192.941 224.539 195.064 224.539 197.877ZM214.49 191.707C213.58 191.707 212.784 191.739 212.099 191.802C211.42 191.871 210.853 191.932 210.398 191.986V203.729H213.772C214.896 203.729 215.961 203.668 216.966 203.546C217.971 203.429 218.844 203.163 219.586 202.749C220.328 202.341 220.914 201.752 221.345 200.982C221.775 200.212 221.991 199.164 221.991 197.837C221.991 196.616 221.775 195.608 221.345 194.812C220.914 194.016 220.352 193.384 219.658 192.917C218.964 192.455 218.167 192.137 217.267 191.962C216.373 191.792 215.447 191.707 214.49 191.707ZM249.87 203.37C249.87 205.732 249.535 207.789 248.865 209.541C248.195 211.292 247.257 212.752 246.051 213.919C244.84 215.087 243.398 215.963 241.723 216.547C240.048 217.13 238.206 217.422 236.196 217.422C235.191 217.422 234.138 217.364 233.037 217.247C231.937 217.125 230.968 216.945 230.13 216.706V190.115C230.968 189.849 231.937 189.655 233.037 189.533C234.138 189.417 235.191 189.358 236.196 189.358C238.206 189.358 240.048 189.65 241.723 190.234C243.398 190.818 244.84 191.694 246.051 192.861C247.257 194.029 248.195 195.489 248.865 197.24C249.535 198.992 249.87 201.035 249.87 203.37ZM232.571 191.986V214.795C232.714 214.822 233.081 214.875 233.669 214.954C234.253 215.034 235.191 215.074 236.483 215.074C238.277 215.074 239.845 214.8 241.184 214.254C242.524 213.712 243.649 212.937 244.558 211.929C245.467 210.921 246.149 209.692 246.604 208.243C247.058 206.799 247.286 205.175 247.286 203.37C247.286 201.566 247.058 199.947 246.604 198.514C246.149 197.081 245.467 195.86 244.558 194.852C243.649 193.843 242.524 193.066 241.184 192.519C239.845 191.978 238.277 191.707 236.483 191.707C235.191 191.707 234.253 191.747 233.669 191.826C233.081 191.906 232.714 191.959 232.571 191.986ZM255.325 217.184V189.597H257.766V217.184H255.325ZM283.642 217.184H280.95C280.496 215.83 280.065 214.53 279.658 213.282C279.252 212.035 278.857 210.814 278.474 209.62H266.379C265.972 210.814 265.566 212.035 265.159 213.282C264.752 214.53 264.333 215.83 263.903 217.184H261.355C262.312 214.317 263.209 211.642 264.046 209.158C264.884 206.68 265.702 204.331 266.501 202.113C267.305 199.899 268.102 197.771 268.891 195.727C269.681 193.684 270.518 191.641 271.404 189.597H273.557C274.442 191.641 275.28 193.684 276.069 195.727C276.859 197.771 277.653 199.899 278.453 202.113C279.256 204.331 280.077 206.68 280.915 209.158C281.752 211.642 282.661 214.317 283.642 217.184ZM272.409 192.702C271.499 194.984 270.619 197.306 269.767 199.668C268.92 202.03 268.042 204.578 267.133 207.311H277.72C276.811 204.578 275.926 202.03 275.065 199.668C274.203 197.306 273.318 194.984 272.409 192.702ZM306.217 217.184H304.171C303.717 216.255 303.135 215.167 302.427 213.919C301.724 212.672 300.953 211.337 300.116 209.915C299.278 208.498 298.393 207.038 297.46 205.536C296.527 204.039 295.598 202.58 294.675 201.157C293.756 199.74 292.859 198.408 291.983 197.16C291.112 195.913 290.33 194.838 289.636 193.936V217.184H287.231V189.597H289.169C290.39 191.11 291.698 192.853 293.096 194.828C294.498 196.808 295.869 198.824 297.209 200.878C298.548 202.938 299.797 204.949 300.955 206.913C302.118 208.877 303.071 210.589 303.812 212.048V189.597H306.217V217.184Z" fill="white" stroke="white" stroke-width="2" mask="url(#path-5-inside-2_131_1840)"/>
</g>
</g>
<defs>
<clipPath id="clip0_131_1840">
<rect width="170" height="170" fill="white" transform="translate(68)"/>
</clipPath>
</defs>
</svg>
