<svg width="259" height="28" viewBox="0 0 259 28" fill="none" xmlns="http://www.w3.org/2000/svg">
<g filter="url(#filter0_d_106_420)">
<g style="mix-blend-mode:screen">
<path d="M6.00557 19.5851H4V0.414938H15.65V2.04703H6.00557V8.79668H14.5587V10.4288H6.00557V19.5851ZM37.6818 9.98617C37.6818 11.6275 37.4261 13.0752 36.9149 14.3292C36.4037 15.5832 35.7096 16.6289 34.8327 17.4661C33.9597 18.3071 32.9431 18.9396 31.783 19.3638C30.6229 19.7879 29.394 20 28.0963 20C26.7986 20 25.5697 19.7879 24.4096 19.3638C23.2495 18.9396 22.231 18.3071 21.3541 17.4661C20.4811 16.6289 19.7889 15.5832 19.2777 14.3292C18.7665 13.0752 18.5109 11.6275 18.5109 9.98617C18.5109 8.34486 18.7665 6.90088 19.2777 5.65422C19.7889 4.41125 20.4811 3.3693 21.3541 2.52835C22.231 1.6911 23.2495 1.0604 24.4096 0.636239C25.5697 0.21208 26.7986 0 28.0963 0C29.394 0 30.6229 0.21208 31.783 0.636239C32.9431 1.0604 33.9597 1.6911 34.8327 2.52835C35.7096 3.3693 36.4037 4.41125 36.9149 5.65422C37.4261 6.90088 37.6818 8.34486 37.6818 9.98617ZM35.5582 9.98617C35.5582 8.69525 35.3812 7.53711 35.0273 6.51176C34.6734 5.49009 34.172 4.61964 33.5231 3.90042C32.8743 3.18119 32.0917 2.63163 31.1755 2.25173C30.2631 1.87552 29.2367 1.68742 28.0963 1.68742C26.9559 1.68742 25.9275 1.87552 25.0113 2.25173C24.0989 2.63163 23.3183 3.18119 22.6695 3.90042C22.0206 4.61964 21.5192 5.49009 21.1653 6.51176C20.8114 7.53711 20.6344 8.69525 20.6344 9.98617C20.6344 11.2771 20.8114 12.4334 21.1653 13.455C21.5192 14.4804 22.0206 15.3527 22.6695 16.0719C23.3183 16.7911 24.0989 17.3444 25.0113 17.7317C25.9275 18.1189 26.9559 18.3126 28.0963 18.3126C29.2367 18.3126 30.2631 18.1189 31.1755 17.7317C32.0917 17.3444 32.8743 16.7911 33.5231 16.0719C34.172 15.3527 34.6734 14.4804 35.0273 13.455C35.3812 12.4334 35.5582 11.2771 35.5582 9.98617ZM55.7909 6.16874C55.7909 7.60719 55.3878 8.74136 54.5816 9.57123C53.7755 10.4011 52.7137 11.0005 51.3963 11.3693C51.7109 11.7381 52.1179 12.2361 52.6173 12.8631C53.1207 13.4901 53.6378 14.1761 54.1687 14.9212C54.6996 15.6699 55.2206 16.45 55.7319 17.2614C56.2431 18.0728 56.6757 18.8474 57.0296 19.5851H54.8766C54.4636 18.8474 54.0153 18.1097 53.5316 17.3721C53.0519 16.6344 52.5603 15.9189 52.057 15.2254C51.5575 14.5357 51.0719 13.8958 50.6 13.3057C50.1281 12.7155 49.7152 12.1992 49.3612 11.7566C48.732 11.8119 48.1028 11.8396 47.4736 11.8396H44.1704V19.5851H42.1648V0.774551C42.8726 0.590135 43.7024 0.455511 44.6541 0.370679C45.6096 0.289535 46.4905 0.248963 47.2967 0.248963C50.1084 0.248963 52.2261 0.746889 53.6496 1.74274C55.0771 2.73859 55.7909 4.21392 55.7909 6.16874ZM47.5326 1.88105C46.7855 1.88105 46.1307 1.90318 45.5684 1.94744C45.0099 1.99539 44.5439 2.03781 44.1704 2.07469V10.2351H46.9428C47.8669 10.2351 48.7419 10.1927 49.5677 10.1079C50.3935 10.0267 51.1112 9.84232 51.7207 9.55463C52.3303 9.27063 52.812 8.86123 53.1659 8.32642C53.5198 7.79161 53.6968 7.06316 53.6968 6.14108C53.6968 5.29276 53.5198 4.59198 53.1659 4.03873C52.812 3.48548 52.3499 3.04657 51.7797 2.72199C51.2095 2.40111 50.5547 2.17981 49.8154 2.05809C49.0801 1.94007 48.3191 1.88105 47.5326 1.88105ZM72.9503 19.5851H60.386V0.414938H72.1834V2.04703H62.3915V8.71369H71.1217V10.3181H62.3915V17.953H72.9503V19.5851ZM81.1495 18.3679C82.7422 18.3679 83.9809 18.095 84.8657 17.5491C85.7505 17.0069 86.1929 16.1272 86.1929 14.9101C86.1929 14.2093 86.0514 13.6229 85.7682 13.1508C85.4811 12.6823 85.1017 12.2858 84.6298 11.9613C84.1579 11.6404 83.6171 11.3638 83.0076 11.1314C82.3981 10.9027 81.759 10.6593 81.0905 10.4011C80.245 10.0876 79.488 9.76487 78.8195 9.43292C78.151 9.10097 77.5808 8.7266 77.1089 8.30982C76.637 7.89673 76.2791 7.42278 76.0353 6.88797C75.7876 6.35316 75.6637 5.72614 75.6637 5.00692C75.6637 3.36561 76.2437 2.12079 77.4038 1.27248C78.5639 0.42416 80.1762 0 82.2408 0C82.7913 0 83.332 0.0368838 83.8629 0.11065C84.3938 0.184417 84.8913 0.280314 85.3553 0.398341C85.8154 0.520056 86.2381 0.65468 86.6235 0.802213C87.005 0.949747 87.3235 1.1065 87.5791 1.27248L86.8713 2.84924C86.3011 2.48041 85.6089 2.18534 84.7949 1.96404C83.977 1.74274 83.0961 1.63209 82.1523 1.63209C81.5034 1.63209 80.9096 1.6911 80.3709 1.80913C79.8282 1.93084 79.3602 2.12448 78.967 2.39004C78.5737 2.65929 78.265 2.99677 78.0409 3.40249C77.8128 3.80821 77.6987 4.29691 77.6987 4.8686C77.6987 5.45874 77.8167 5.95666 78.0527 6.36238C78.2886 6.7681 78.6189 7.11849 79.0437 7.41356C79.4644 7.70862 79.9599 7.97603 80.5301 8.21577C81.1003 8.45551 81.7197 8.70447 82.3882 8.96266C83.1944 9.27616 83.9573 9.58967 84.6769 9.90318C85.3927 10.2167 86.016 10.5855 86.5468 11.0097C87.0777 11.4338 87.5005 11.9502 87.8151 12.5588C88.1297 13.1674 88.287 13.9142 88.287 14.7994C88.287 16.533 87.644 17.8331 86.3581 18.6999C85.0682 19.5666 83.3222 20 81.12 20C80.3335 20 79.6158 19.9539 78.967 19.8617C78.3181 19.7695 77.7381 19.6533 77.2269 19.5131C76.7156 19.3767 76.2831 19.2347 75.9291 19.0871C75.5752 18.9396 75.2999 18.8105 75.1033 18.6999L75.7522 17.0678C75.9488 17.1784 76.2142 17.3075 76.5485 17.455C76.8828 17.6026 77.276 17.7446 77.7282 17.8811C78.1805 18.0212 78.6917 18.1374 79.2619 18.2296C79.8321 18.3218 80.4613 18.3679 81.1495 18.3679ZM89.8796 0.414938H104.98V2.04703H98.4328V19.5851H96.4272V2.04703H89.8796V0.414938Z" fill="white"/>
</g>
<mask id="path-2-inside-1_106_420" fill="white">
<path d="M127.629 17.87V10.5118H129.634V19.0595C129.261 19.207 128.529 19.397 127.44 19.6293C126.347 19.858 125.004 19.9723 123.411 19.9723C122.074 19.9723 120.835 19.751 119.695 19.3084C118.555 18.8658 117.567 18.2241 116.734 17.3831C115.896 16.5459 115.241 15.5039 114.769 14.2573C114.298 13.0143 114.062 11.5906 114.062 9.98617C114.062 8.38174 114.317 6.9562 114.828 5.70954C115.34 4.46658 116.034 3.42462 116.911 2.58368C117.784 1.74643 118.8 1.1065 119.96 0.663901C121.12 0.221301 122.359 0 123.677 0C125.191 0 126.439 0.151222 127.422 0.453665C128.405 0.759797 129.123 1.05118 129.575 1.3278L128.897 2.93223C128.346 2.56339 127.599 2.26279 126.655 2.03043C125.712 1.80175 124.689 1.68742 123.588 1.68742C122.566 1.68742 121.602 1.86261 120.698 2.213C119.793 2.56339 119.007 3.08898 118.338 3.78977C117.67 4.49055 117.145 5.35731 116.763 6.39004C116.378 7.42278 116.185 8.62148 116.185 9.98617C116.185 11.2586 116.342 12.4057 116.657 13.4274C116.972 14.4527 117.449 15.3287 118.09 16.0553C118.728 16.7856 119.518 17.3444 120.462 17.7317C121.406 18.1189 122.497 18.3126 123.736 18.3126C124.738 18.3126 125.58 18.2609 126.26 18.1577C126.937 18.0581 127.393 17.9622 127.629 17.87ZM141.668 20C140.311 20 139.157 19.8064 138.205 19.4191C137.25 19.0318 136.477 18.497 135.887 17.8147C135.297 17.1323 134.87 16.3338 134.607 15.4191C134.34 14.5081 134.206 13.527 134.206 12.4758V0.414938H136.211V12.2268C136.211 13.278 136.345 14.1853 136.612 14.9488C136.876 15.716 137.244 16.3485 137.716 16.8465C138.187 17.3444 138.758 17.7132 139.426 17.953C140.095 18.1927 140.842 18.3126 141.668 18.3126C142.494 18.3126 143.241 18.1927 143.909 17.953C144.578 17.7132 145.148 17.3444 145.62 16.8465C146.092 16.3485 146.461 15.716 146.729 14.9488C146.992 14.1853 147.124 13.278 147.124 12.2268V0.414938H149.13V12.4758C149.13 13.527 148.998 14.5081 148.734 15.4191C148.467 16.3338 148.038 17.1323 147.448 17.8147C146.859 18.497 146.088 19.0318 145.136 19.4191C144.181 19.8064 143.024 20 141.668 20ZM170.306 19.5851H168.094C167.72 18.6445 167.367 17.7409 167.032 16.8741C166.698 16.0074 166.374 15.1591 166.059 14.3292H156.12C155.785 15.1591 155.451 16.0074 155.117 16.8741C154.783 17.7409 154.438 18.6445 154.085 19.5851H151.99C152.777 17.5934 153.514 15.7344 154.203 14.0083C154.891 12.2858 155.563 10.6538 156.22 9.11203C156.881 7.574 157.535 6.09497 158.184 4.67497C158.833 3.25496 159.521 1.83495 160.249 0.414938H162.018C162.746 1.83495 163.434 3.25496 164.083 4.67497C164.732 6.09497 165.385 7.574 166.041 9.11203C166.702 10.6538 167.376 12.2858 168.065 14.0083C168.753 15.7344 169.5 17.5934 170.306 19.5851ZM161.075 2.57261C160.327 4.1586 159.604 5.77225 158.904 7.41356C158.208 9.05486 157.486 10.8253 156.739 12.7248H165.44C164.692 10.8253 163.965 9.05486 163.257 7.41356C162.549 5.77225 161.822 4.1586 161.075 2.57261ZM186.881 6.16874C186.881 7.60719 186.478 8.74136 185.672 9.57123C184.866 10.4011 183.804 11.0005 182.487 11.3693C182.802 11.7381 183.209 12.2361 183.708 12.8631C184.211 13.4901 184.728 14.1761 185.259 14.9212C185.79 15.6699 186.311 16.45 186.822 17.2614C187.334 18.0728 187.766 18.8474 188.12 19.5851H185.967C185.554 18.8474 185.106 18.1097 184.622 17.3721C184.143 16.6344 183.651 15.9189 183.148 15.2254C182.648 14.5357 182.163 13.8958 181.691 13.3057C181.219 12.7155 180.806 12.1992 180.452 11.7566C179.823 11.8119 179.193 11.8396 178.564 11.8396H175.261V19.5851H173.255V0.774551C173.963 0.590135 174.793 0.455511 175.745 0.370679C176.7 0.289535 177.581 0.248963 178.387 0.248963C181.199 0.248963 183.317 0.746889 184.74 1.74274C186.168 2.73859 186.881 4.21392 186.881 6.16874ZM178.623 1.88105C177.876 1.88105 177.221 1.90318 176.659 1.94744C176.101 1.99539 175.635 2.03781 175.261 2.07469V10.2351H178.033C178.958 10.2351 179.833 10.1927 180.658 10.1079C181.484 10.0267 182.202 9.84232 182.811 9.55463C183.421 9.27063 183.903 8.86123 184.257 8.32642C184.61 7.79161 184.787 7.06316 184.787 6.14108C184.787 5.29276 184.61 4.59198 184.257 4.03873C183.903 3.48548 183.441 3.04657 182.87 2.72199C182.3 2.40111 181.645 2.17981 180.906 2.05809C180.171 1.94007 179.41 1.88105 178.623 1.88105ZM207.698 9.98617C207.698 11.6275 207.423 13.0567 206.872 14.2739C206.322 15.491 205.551 16.5053 204.56 17.3167C203.565 18.1282 202.379 18.7367 201.003 19.1425C199.627 19.5482 198.113 19.751 196.461 19.751C195.635 19.751 194.77 19.7105 193.866 19.6293C192.961 19.5445 192.165 19.4191 191.477 19.2531V0.774551C192.165 0.590135 192.961 0.455511 193.866 0.370679C194.77 0.289535 195.635 0.248963 196.461 0.248963C198.113 0.248963 199.627 0.451823 201.003 0.85754C202.379 1.26326 203.565 1.87183 204.56 2.68327C205.551 3.4947 206.322 4.50899 206.872 5.72614C207.423 6.94329 207.698 8.3633 207.698 9.98617ZM193.482 2.07469V17.9253C193.6 17.9438 193.901 17.9806 194.385 18.036C194.864 18.0913 195.635 18.1189 196.697 18.1189C198.172 18.1189 199.46 17.929 200.561 17.5491C201.662 17.1729 202.586 16.6344 203.333 15.9336C204.08 15.2328 204.641 14.379 205.014 13.3721C205.388 12.3688 205.575 11.2402 205.575 9.98617C205.575 8.73213 205.388 7.60719 205.014 6.61134C204.641 5.61549 204.08 4.76717 203.333 4.06639C202.586 3.36561 201.662 2.82527 200.561 2.44537C199.46 2.06916 198.172 1.88105 196.697 1.88105C195.635 1.88105 194.864 1.90871 194.385 1.96404C193.901 2.01936 193.6 2.05625 193.482 2.07469ZM212.181 19.5851V0.414938H214.187V19.5851H212.181ZM235.452 19.5851H233.24C232.866 18.6445 232.512 17.7409 232.178 16.8741C231.844 16.0074 231.519 15.1591 231.205 14.3292H221.265C220.931 15.1591 220.597 16.0074 220.262 16.8741C219.928 17.7409 219.584 18.6445 219.23 19.5851H217.136C217.923 17.5934 218.66 15.7344 219.348 14.0083C220.036 12.2858 220.709 10.6538 221.365 9.11203C222.026 7.574 222.681 6.09497 223.33 4.67497C223.979 3.25496 224.667 1.83495 225.394 0.414938H227.164C227.891 1.83495 228.58 3.25496 229.228 4.67497C229.877 6.09497 230.53 7.574 231.187 9.11203C231.848 10.6538 232.522 12.2858 233.21 14.0083C233.898 15.7344 234.645 17.5934 235.452 19.5851ZM226.22 2.57261C225.473 4.1586 224.749 5.77225 224.049 7.41356C223.353 9.05486 222.632 10.8253 221.885 12.7248H230.585C229.838 10.8253 229.111 9.05486 228.403 7.41356C227.695 5.77225 226.967 4.1586 226.22 2.57261ZM254.003 19.5851H252.322C251.948 18.9396 251.471 18.1835 250.889 17.3167C250.311 16.45 249.677 15.5224 248.989 14.5339C248.301 13.5491 247.574 12.5348 246.807 11.491C246.04 10.4509 245.277 9.43661 244.518 8.44813C243.763 7.46335 243.026 6.53758 242.306 5.67082C241.59 4.80406 240.947 4.05717 240.377 3.43015V19.5851H238.401V0.414938H239.994C240.996 1.46611 242.072 2.67773 243.22 4.04979C244.373 5.42554 245.499 6.82711 246.6 8.2545C247.701 9.68557 248.728 11.0834 249.679 12.4481C250.635 13.8128 251.418 15.0023 252.027 16.0166V0.414938H254.003V19.5851Z"/>
</mask>
<path d="M127.629 17.87V10.5118H129.634V19.0595C129.261 19.207 128.529 19.397 127.44 19.6293C126.347 19.858 125.004 19.9723 123.411 19.9723C122.074 19.9723 120.835 19.751 119.695 19.3084C118.555 18.8658 117.567 18.2241 116.734 17.3831C115.896 16.5459 115.241 15.5039 114.769 14.2573C114.298 13.0143 114.062 11.5906 114.062 9.98617C114.062 8.38174 114.317 6.9562 114.828 5.70954C115.34 4.46658 116.034 3.42462 116.911 2.58368C117.784 1.74643 118.8 1.1065 119.96 0.663901C121.12 0.221301 122.359 0 123.677 0C125.191 0 126.439 0.151222 127.422 0.453665C128.405 0.759797 129.123 1.05118 129.575 1.3278L128.897 2.93223C128.346 2.56339 127.599 2.26279 126.655 2.03043C125.712 1.80175 124.689 1.68742 123.588 1.68742C122.566 1.68742 121.602 1.86261 120.698 2.213C119.793 2.56339 119.007 3.08898 118.338 3.78977C117.67 4.49055 117.145 5.35731 116.763 6.39004C116.378 7.42278 116.185 8.62148 116.185 9.98617C116.185 11.2586 116.342 12.4057 116.657 13.4274C116.972 14.4527 117.449 15.3287 118.09 16.0553C118.728 16.7856 119.518 17.3444 120.462 17.7317C121.406 18.1189 122.497 18.3126 123.736 18.3126C124.738 18.3126 125.58 18.2609 126.26 18.1577C126.937 18.0581 127.393 17.9622 127.629 17.87ZM141.668 20C140.311 20 139.157 19.8064 138.205 19.4191C137.25 19.0318 136.477 18.497 135.887 17.8147C135.297 17.1323 134.87 16.3338 134.607 15.4191C134.34 14.5081 134.206 13.527 134.206 12.4758V0.414938H136.211V12.2268C136.211 13.278 136.345 14.1853 136.612 14.9488C136.876 15.716 137.244 16.3485 137.716 16.8465C138.187 17.3444 138.758 17.7132 139.426 17.953C140.095 18.1927 140.842 18.3126 141.668 18.3126C142.494 18.3126 143.241 18.1927 143.909 17.953C144.578 17.7132 145.148 17.3444 145.62 16.8465C146.092 16.3485 146.461 15.716 146.729 14.9488C146.992 14.1853 147.124 13.278 147.124 12.2268V0.414938H149.13V12.4758C149.13 13.527 148.998 14.5081 148.734 15.4191C148.467 16.3338 148.038 17.1323 147.448 17.8147C146.859 18.497 146.088 19.0318 145.136 19.4191C144.181 19.8064 143.024 20 141.668 20ZM170.306 19.5851H168.094C167.72 18.6445 167.367 17.7409 167.032 16.8741C166.698 16.0074 166.374 15.1591 166.059 14.3292H156.12C155.785 15.1591 155.451 16.0074 155.117 16.8741C154.783 17.7409 154.438 18.6445 154.085 19.5851H151.99C152.777 17.5934 153.514 15.7344 154.203 14.0083C154.891 12.2858 155.563 10.6538 156.22 9.11203C156.881 7.574 157.535 6.09497 158.184 4.67497C158.833 3.25496 159.521 1.83495 160.249 0.414938H162.018C162.746 1.83495 163.434 3.25496 164.083 4.67497C164.732 6.09497 165.385 7.574 166.041 9.11203C166.702 10.6538 167.376 12.2858 168.065 14.0083C168.753 15.7344 169.5 17.5934 170.306 19.5851ZM161.075 2.57261C160.327 4.1586 159.604 5.77225 158.904 7.41356C158.208 9.05486 157.486 10.8253 156.739 12.7248H165.44C164.692 10.8253 163.965 9.05486 163.257 7.41356C162.549 5.77225 161.822 4.1586 161.075 2.57261ZM186.881 6.16874C186.881 7.60719 186.478 8.74136 185.672 9.57123C184.866 10.4011 183.804 11.0005 182.487 11.3693C182.802 11.7381 183.209 12.2361 183.708 12.8631C184.211 13.4901 184.728 14.1761 185.259 14.9212C185.79 15.6699 186.311 16.45 186.822 17.2614C187.334 18.0728 187.766 18.8474 188.12 19.5851H185.967C185.554 18.8474 185.106 18.1097 184.622 17.3721C184.143 16.6344 183.651 15.9189 183.148 15.2254C182.648 14.5357 182.163 13.8958 181.691 13.3057C181.219 12.7155 180.806 12.1992 180.452 11.7566C179.823 11.8119 179.193 11.8396 178.564 11.8396H175.261V19.5851H173.255V0.774551C173.963 0.590135 174.793 0.455511 175.745 0.370679C176.7 0.289535 177.581 0.248963 178.387 0.248963C181.199 0.248963 183.317 0.746889 184.74 1.74274C186.168 2.73859 186.881 4.21392 186.881 6.16874ZM178.623 1.88105C177.876 1.88105 177.221 1.90318 176.659 1.94744C176.101 1.99539 175.635 2.03781 175.261 2.07469V10.2351H178.033C178.958 10.2351 179.833 10.1927 180.658 10.1079C181.484 10.0267 182.202 9.84232 182.811 9.55463C183.421 9.27063 183.903 8.86123 184.257 8.32642C184.61 7.79161 184.787 7.06316 184.787 6.14108C184.787 5.29276 184.61 4.59198 184.257 4.03873C183.903 3.48548 183.441 3.04657 182.87 2.72199C182.3 2.40111 181.645 2.17981 180.906 2.05809C180.171 1.94007 179.41 1.88105 178.623 1.88105ZM207.698 9.98617C207.698 11.6275 207.423 13.0567 206.872 14.2739C206.322 15.491 205.551 16.5053 204.56 17.3167C203.565 18.1282 202.379 18.7367 201.003 19.1425C199.627 19.5482 198.113 19.751 196.461 19.751C195.635 19.751 194.77 19.7105 193.866 19.6293C192.961 19.5445 192.165 19.4191 191.477 19.2531V0.774551C192.165 0.590135 192.961 0.455511 193.866 0.370679C194.77 0.289535 195.635 0.248963 196.461 0.248963C198.113 0.248963 199.627 0.451823 201.003 0.85754C202.379 1.26326 203.565 1.87183 204.56 2.68327C205.551 3.4947 206.322 4.50899 206.872 5.72614C207.423 6.94329 207.698 8.3633 207.698 9.98617ZM193.482 2.07469V17.9253C193.6 17.9438 193.901 17.9806 194.385 18.036C194.864 18.0913 195.635 18.1189 196.697 18.1189C198.172 18.1189 199.46 17.929 200.561 17.5491C201.662 17.1729 202.586 16.6344 203.333 15.9336C204.08 15.2328 204.641 14.379 205.014 13.3721C205.388 12.3688 205.575 11.2402 205.575 9.98617C205.575 8.73213 205.388 7.60719 205.014 6.61134C204.641 5.61549 204.08 4.76717 203.333 4.06639C202.586 3.36561 201.662 2.82527 200.561 2.44537C199.46 2.06916 198.172 1.88105 196.697 1.88105C195.635 1.88105 194.864 1.90871 194.385 1.96404C193.901 2.01936 193.6 2.05625 193.482 2.07469ZM212.181 19.5851V0.414938H214.187V19.5851H212.181ZM235.452 19.5851H233.24C232.866 18.6445 232.512 17.7409 232.178 16.8741C231.844 16.0074 231.519 15.1591 231.205 14.3292H221.265C220.931 15.1591 220.597 16.0074 220.262 16.8741C219.928 17.7409 219.584 18.6445 219.23 19.5851H217.136C217.923 17.5934 218.66 15.7344 219.348 14.0083C220.036 12.2858 220.709 10.6538 221.365 9.11203C222.026 7.574 222.681 6.09497 223.33 4.67497C223.979 3.25496 224.667 1.83495 225.394 0.414938H227.164C227.891 1.83495 228.58 3.25496 229.228 4.67497C229.877 6.09497 230.53 7.574 231.187 9.11203C231.848 10.6538 232.522 12.2858 233.21 14.0083C233.898 15.7344 234.645 17.5934 235.452 19.5851ZM226.22 2.57261C225.473 4.1586 224.749 5.77225 224.049 7.41356C223.353 9.05486 222.632 10.8253 221.885 12.7248H230.585C229.838 10.8253 229.111 9.05486 228.403 7.41356C227.695 5.77225 226.967 4.1586 226.22 2.57261ZM254.003 19.5851H252.322C251.948 18.9396 251.471 18.1835 250.889 17.3167C250.311 16.45 249.677 15.5224 248.989 14.5339C248.301 13.5491 247.574 12.5348 246.807 11.491C246.04 10.4509 245.277 9.43661 244.518 8.44813C243.763 7.46335 243.026 6.53758 242.306 5.67082C241.59 4.80406 240.947 4.05717 240.377 3.43015V19.5851H238.401V0.414938H239.994C240.996 1.46611 242.072 2.67773 243.22 4.04979C244.373 5.42554 245.499 6.82711 246.6 8.2545C247.701 9.68557 248.728 11.0834 249.679 12.4481C250.635 13.8128 251.418 15.0023 252.027 16.0166V0.414938H254.003V19.5851Z" fill="white" stroke="black" stroke-width="2" mask="url(#path-2-inside-1_106_420)"/>
</g>
<defs>
<filter id="filter0_d_106_420" x="0" y="0" width="258.003" height="28" filterUnits="userSpaceOnUse" color-interpolation-filters="sRGB">
<feFlood flood-opacity="0" result="BackgroundImageFix"/>
<feColorMatrix in="SourceAlpha" type="matrix" values="0 0 0 0 0 0 0 0 0 0 0 0 0 0 0 0 0 0 127 0" result="hardAlpha"/>
<feOffset dy="4"/>
<feGaussianBlur stdDeviation="2"/>
<feComposite in2="hardAlpha" operator="out"/>
<feColorMatrix type="matrix" values="0 0 0 0 0 0 0 0 0 0 0 0 0 0 0 0 0 0 0.25 0"/>
<feBlend mode="normal" in2="BackgroundImageFix" result="effect1_dropShadow_106_420"/>
<feBlend mode="normal" in="SourceGraphic" in2="effect1_dropShadow_106_420" result="shape"/>
</filter>
</defs>
</svg>
