<svg width="198" height="32" viewBox="0 0 198 32" fill="none" xmlns="http://www.w3.org/2000/svg">
<g clip-path="url(#clip0_255_882)">
<path d="M15.3453 17.7587C14.0487 18.5847 12.5739 19.3445 10.9482 20.0224C10.9483 20.0226 10.9484 20.0228 10.9484 20.0228L10.9482 20.0231C10.9953 20.2742 11.0532 20.534 11.1224 20.7996C11.1227 20.8007 11.1229 20.8017 11.1232 20.8028C11.3318 21.6014 11.6521 22.4541 12.1305 23.3C12.1313 23.3014 12.1319 23.3029 12.1327 23.3044H12.1329C12.8217 24.5208 13.8397 25.7217 15.3453 26.7226C17.9011 25.0236 19.0605 22.752 19.5693 20.8048C19.57 20.8026 19.5704 20.8004 19.571 20.7982C19.64 20.5336 19.6978 20.2746 19.7445 20.0244C18.1198 19.3464 16.6434 18.5867 15.3453 17.7587Z" fill="white"/>
<path d="M26.3746 10.3644C26.6303 9.54647 26.7262 8.71532 26.6687 7.75112C26.4385 3.88772 23.1329 0.722501 19.2966 0.695892H19.239C16.1445 0.695892 13.3823 2.65751 12.2954 5.51018C11.1573 4.57259 9.69307 4.12045 8.19691 4.26004C6.13807 4.46616 4.32866 5.8958 3.49103 7.99708C3.069 9.03442 3.15212 10.1981 3.24804 10.8631C1.25959 12.0334 0 14.2544 0 16.6548C0 20.2949 2.82179 23.0688 6.63588 23.2835C5.705 20.4704 5.72241 18.0199 5.76377 17.1826L5.80968 16.2598L6.65634 15.9825C11.3316 14.4494 13.708 12.6149 14.5128 11.8967L15.3451 11.1545L16.1775 11.8967C16.9823 12.6149 19.3588 14.4494 24.034 15.9825L24.8807 16.2598L24.9266 17.1826C24.9679 18.0201 24.9854 20.4711 24.0538 23.2848C27.9849 23.0846 30.6904 20.4145 30.6904 16.6548C30.6904 13.8089 28.9129 11.2754 26.3746 10.3644Z" fill="white"/>
<path d="M23.6495 17.2509C18.8288 15.6703 16.31 13.767 15.3453 12.9066C14.3806 13.767 11.8618 15.6703 7.04111 17.2509C6.9437 19.2192 7.07702 27.2993 15.3453 31.2222C23.6142 27.2974 23.7468 19.2186 23.6495 17.2509ZM21.0944 19.6991C20.741 22.2122 19.5128 25.7051 15.6715 28.0753L15.3453 28.2766L15.019 28.0753C11.18 25.7064 9.95205 22.2122 9.59834 19.6978L9.52405 19.1718L10.0014 18.9808C11.8893 18.2257 13.5717 17.362 15.0016 16.4139L15.3453 16.1853L15.689 16.4139C17.1208 17.3632 18.8035 18.2275 20.6913 18.9822L21.1687 19.1731L21.0944 19.6991Z" fill="white"/>
</g>
<mask id="path-4-outside-1_255_882" maskUnits="userSpaceOnUse" x="38.9028" y="8.82092" width="66" height="17" fill="black">
<rect fill="white" x="38.9028" y="8.82092" width="66" height="17"/>
<path d="M41.1711 24.0997H39.9028V10.1234H47.2701V11.3133H41.1711V16.2343H46.58V17.4242H41.1711V24.0997ZM61.2028 17.1015C61.2028 18.2981 61.0411 19.3535 60.7178 20.2678C60.3945 21.1821 59.9556 21.9444 59.401 22.5548C58.849 23.1679 58.2061 23.6291 57.4725 23.9383C56.7389 24.2476 55.9617 24.4022 55.1411 24.4022C54.3204 24.4022 53.5432 24.2476 52.8096 23.9383C52.076 23.6291 51.4319 23.1679 50.8773 22.5548C50.3253 21.9444 49.8876 21.1821 49.5643 20.2678C49.241 19.3535 49.0793 18.2981 49.0793 17.1015C49.0793 15.9049 49.241 14.8521 49.5643 13.9432C49.8876 13.037 50.3253 12.2774 50.8773 11.6643C51.4319 11.0538 52.076 10.594 52.8096 10.2848C53.5432 9.97554 54.3204 9.82092 55.1411 9.82092C55.9617 9.82092 56.7389 9.97554 57.4725 10.2848C58.2061 10.594 58.849 11.0538 59.401 11.6643C59.9556 12.2774 60.3945 13.037 60.7178 13.9432C61.0411 14.8521 61.2028 15.9049 61.2028 17.1015ZM59.8599 17.1015C59.8599 16.1603 59.748 15.316 59.5241 14.5684C59.3003 13.8235 58.9832 13.1889 58.5729 12.6646C58.1626 12.1402 57.6677 11.7395 57.0883 11.4626C56.5113 11.1883 55.8622 11.0512 55.1411 11.0512C54.4199 11.0512 53.7696 11.1883 53.1901 11.4626C52.6132 11.7395 52.1195 12.1402 51.7092 12.6646C51.2989 13.1889 50.9818 13.8235 50.758 14.5684C50.5341 15.316 50.4222 16.1603 50.4222 17.1015C50.4222 18.0426 50.5341 18.8856 50.758 19.6305C50.9818 20.3781 51.2989 21.014 51.7092 21.5384C52.1195 22.0627 52.6132 22.4661 53.1901 22.7484C53.7696 23.0308 54.4199 23.172 55.1411 23.172C55.8622 23.172 56.5113 23.0308 57.0883 22.7484C57.6677 22.4661 58.1626 22.0627 58.5729 21.5384C58.9832 21.014 59.3003 20.3781 59.5241 19.6305C59.748 18.8856 59.8599 18.0426 59.8599 17.1015ZM72.6548 14.3183C72.6548 15.3671 72.3998 16.1939 71.89 16.799C71.3802 17.404 70.7088 17.841 69.8757 18.1099C70.0746 18.3788 70.332 18.7418 70.6479 19.1989C70.9662 19.6561 71.2932 20.1562 71.6289 20.6994C71.9646 21.2453 72.2942 21.814 72.6174 22.4056C72.9407 22.9972 73.2143 23.5619 73.4381 24.0997H72.0766C71.8154 23.5619 71.5319 23.0241 71.226 22.4863C70.9227 21.9485 70.6118 21.4268 70.2935 20.9212C69.9776 20.4184 69.6705 19.9518 69.3721 19.5216C69.0737 19.0914 68.8126 18.7149 68.5887 18.3922C68.1908 18.4325 67.7929 18.4527 67.395 18.4527H65.3061V24.0997H64.0378V10.3856C64.4854 10.2512 65.0101 10.153 65.612 10.0912C66.2163 10.032 66.7733 10.0024 67.2831 10.0024C69.0612 10.0024 70.4004 10.3655 71.3007 11.0915C72.2034 11.8175 72.6548 12.8931 72.6548 14.3183ZM67.4323 11.1923C66.9598 11.1923 66.5458 11.2085 66.1902 11.2407C65.837 11.2757 65.5423 11.3066 65.3061 11.3335V17.283H67.0593C67.6437 17.283 68.1971 17.2521 68.7193 17.1902C69.2415 17.1311 69.6954 16.9966 70.0809 16.7869C70.4663 16.5798 70.771 16.2813 70.9948 15.8914C71.2186 15.5015 71.3305 14.9704 71.3305 14.2982C71.3305 13.6797 71.2186 13.1688 70.9948 12.7654C70.771 12.3621 70.4788 12.0421 70.1182 11.8054C69.7576 11.5715 69.3435 11.4101 68.876 11.3214C68.4109 11.2354 67.9297 11.1923 67.4323 11.1923ZM83.5062 24.0997H75.5606V10.1234H83.0212V11.3133H76.8289V16.1738H82.3498V17.3435H76.8289V22.9098H83.5062V24.0997ZM88.6912 23.2123C89.6984 23.2123 90.4818 23.0133 91.0413 22.6153C91.6009 22.22 91.8806 21.5787 91.8806 20.6913C91.8806 20.1804 91.7911 19.7529 91.6121 19.4087C91.4305 19.0672 91.1905 18.7781 90.8921 18.5415C90.5937 18.3075 90.2518 18.1058 89.8663 17.9364C89.4808 17.7697 89.0767 17.5922 88.6539 17.404C88.1193 17.1754 87.6406 16.9401 87.2178 16.6981C86.795 16.4561 86.4344 16.1832 86.136 15.8793C85.8376 15.5781 85.6113 15.2326 85.4571 14.8427C85.3004 14.4528 85.2221 13.9956 85.2221 13.4713C85.2221 12.2747 85.5889 11.3671 86.3225 10.7486C87.0561 10.1302 88.0758 9.82092 89.3814 9.82092C89.7295 9.82092 90.0715 9.84781 90.4072 9.90159C90.7429 9.95537 91.0575 10.0253 91.3509 10.1113C91.6419 10.2001 91.9092 10.2982 92.153 10.4058C92.3942 10.5133 92.5956 10.6276 92.7573 10.7486L92.3096 11.8982C91.949 11.6293 91.5113 11.4142 90.9966 11.2528C90.4793 11.0915 89.9222 11.0108 89.3254 11.0108C88.9151 11.0108 88.5396 11.0538 88.1989 11.1399C87.8557 11.2286 87.5597 11.3698 87.311 11.5634C87.0624 11.7597 86.8671 12.0058 86.7254 12.3016C86.5812 12.5973 86.509 12.9536 86.509 13.3704C86.509 13.8007 86.5836 14.1637 86.7328 14.4595C86.8821 14.7553 87.091 15.0108 87.3595 15.2259C87.6256 15.441 87.939 15.636 88.2996 15.8107C88.6602 15.9855 89.0518 16.167 89.4746 16.3553C89.9844 16.5838 90.4669 16.8124 90.922 17.041C91.3746 17.2695 91.7687 17.5384 92.1045 17.8477C92.4402 18.1569 92.7075 18.5334 92.9065 18.9771C93.1054 19.4208 93.2049 19.9653 93.2049 20.6107C93.2049 21.8745 92.7983 22.8224 91.9851 23.4543C91.1694 24.0862 90.0652 24.4022 88.6726 24.4022C88.1752 24.4022 87.7214 24.3686 87.311 24.3014C86.9007 24.2341 86.5339 24.1494 86.2106 24.0472C85.8873 23.9478 85.6138 23.8442 85.3899 23.7367C85.1661 23.6291 84.9921 23.535 84.8677 23.4543L85.278 22.2644C85.4024 22.3451 85.5702 22.4392 85.7816 22.5468C85.993 22.6543 86.2417 22.7579 86.5277 22.8573C86.8137 22.9595 87.137 23.0442 87.4976 23.1115C87.8582 23.1787 88.2561 23.2123 88.6912 23.2123ZM94.2121 10.1234H103.762V11.3133H99.621V24.0997H98.3527V11.3133H94.2121V10.1234Z"/>
</mask>
<path d="M41.1711 24.0997H39.9028V10.1234H47.2701V11.3133H41.1711V16.2343H46.58V17.4242H41.1711V24.0997ZM61.2028 17.1015C61.2028 18.2981 61.0411 19.3535 60.7178 20.2678C60.3945 21.1821 59.9556 21.9444 59.401 22.5548C58.849 23.1679 58.2061 23.6291 57.4725 23.9383C56.7389 24.2476 55.9617 24.4022 55.1411 24.4022C54.3204 24.4022 53.5432 24.2476 52.8096 23.9383C52.076 23.6291 51.4319 23.1679 50.8773 22.5548C50.3253 21.9444 49.8876 21.1821 49.5643 20.2678C49.241 19.3535 49.0793 18.2981 49.0793 17.1015C49.0793 15.9049 49.241 14.8521 49.5643 13.9432C49.8876 13.037 50.3253 12.2774 50.8773 11.6643C51.4319 11.0538 52.076 10.594 52.8096 10.2848C53.5432 9.97554 54.3204 9.82092 55.1411 9.82092C55.9617 9.82092 56.7389 9.97554 57.4725 10.2848C58.2061 10.594 58.849 11.0538 59.401 11.6643C59.9556 12.2774 60.3945 13.037 60.7178 13.9432C61.0411 14.8521 61.2028 15.9049 61.2028 17.1015ZM59.8599 17.1015C59.8599 16.1603 59.748 15.316 59.5241 14.5684C59.3003 13.8235 58.9832 13.1889 58.5729 12.6646C58.1626 12.1402 57.6677 11.7395 57.0883 11.4626C56.5113 11.1883 55.8622 11.0512 55.1411 11.0512C54.4199 11.0512 53.7696 11.1883 53.1901 11.4626C52.6132 11.7395 52.1195 12.1402 51.7092 12.6646C51.2989 13.1889 50.9818 13.8235 50.758 14.5684C50.5341 15.316 50.4222 16.1603 50.4222 17.1015C50.4222 18.0426 50.5341 18.8856 50.758 19.6305C50.9818 20.3781 51.2989 21.014 51.7092 21.5384C52.1195 22.0627 52.6132 22.4661 53.1901 22.7484C53.7696 23.0308 54.4199 23.172 55.1411 23.172C55.8622 23.172 56.5113 23.0308 57.0883 22.7484C57.6677 22.4661 58.1626 22.0627 58.5729 21.5384C58.9832 21.014 59.3003 20.3781 59.5241 19.6305C59.748 18.8856 59.8599 18.0426 59.8599 17.1015ZM72.6548 14.3183C72.6548 15.3671 72.3998 16.1939 71.89 16.799C71.3802 17.404 70.7088 17.841 69.8757 18.1099C70.0746 18.3788 70.332 18.7418 70.6479 19.1989C70.9662 19.6561 71.2932 20.1562 71.6289 20.6994C71.9646 21.2453 72.2942 21.814 72.6174 22.4056C72.9407 22.9972 73.2143 23.5619 73.4381 24.0997H72.0766C71.8154 23.5619 71.5319 23.0241 71.226 22.4863C70.9227 21.9485 70.6118 21.4268 70.2935 20.9212C69.9776 20.4184 69.6705 19.9518 69.3721 19.5216C69.0737 19.0914 68.8126 18.7149 68.5887 18.3922C68.1908 18.4325 67.7929 18.4527 67.395 18.4527H65.3061V24.0997H64.0378V10.3856C64.4854 10.2512 65.0101 10.153 65.612 10.0912C66.2163 10.032 66.7733 10.0024 67.2831 10.0024C69.0612 10.0024 70.4004 10.3655 71.3007 11.0915C72.2034 11.8175 72.6548 12.8931 72.6548 14.3183ZM67.4323 11.1923C66.9598 11.1923 66.5458 11.2085 66.1902 11.2407C65.837 11.2757 65.5423 11.3066 65.3061 11.3335V17.283H67.0593C67.6437 17.283 68.1971 17.2521 68.7193 17.1902C69.2415 17.1311 69.6954 16.9966 70.0809 16.7869C70.4663 16.5798 70.771 16.2813 70.9948 15.8914C71.2186 15.5015 71.3305 14.9704 71.3305 14.2982C71.3305 13.6797 71.2186 13.1688 70.9948 12.7654C70.771 12.3621 70.4788 12.0421 70.1182 11.8054C69.7576 11.5715 69.3435 11.4101 68.876 11.3214C68.4109 11.2354 67.9297 11.1923 67.4323 11.1923ZM83.5062 24.0997H75.5606V10.1234H83.0212V11.3133H76.8289V16.1738H82.3498V17.3435H76.8289V22.9098H83.5062V24.0997ZM88.6912 23.2123C89.6984 23.2123 90.4818 23.0133 91.0413 22.6153C91.6009 22.22 91.8806 21.5787 91.8806 20.6913C91.8806 20.1804 91.7911 19.7529 91.6121 19.4087C91.4305 19.0672 91.1905 18.7781 90.8921 18.5415C90.5937 18.3075 90.2518 18.1058 89.8663 17.9364C89.4808 17.7697 89.0767 17.5922 88.6539 17.404C88.1193 17.1754 87.6406 16.9401 87.2178 16.6981C86.795 16.4561 86.4344 16.1832 86.136 15.8793C85.8376 15.5781 85.6113 15.2326 85.4571 14.8427C85.3004 14.4528 85.2221 13.9956 85.2221 13.4713C85.2221 12.2747 85.5889 11.3671 86.3225 10.7486C87.0561 10.1302 88.0758 9.82092 89.3814 9.82092C89.7295 9.82092 90.0715 9.84781 90.4072 9.90159C90.7429 9.95537 91.0575 10.0253 91.3509 10.1113C91.6419 10.2001 91.9092 10.2982 92.153 10.4058C92.3942 10.5133 92.5956 10.6276 92.7573 10.7486L92.3096 11.8982C91.949 11.6293 91.5113 11.4142 90.9966 11.2528C90.4793 11.0915 89.9222 11.0108 89.3254 11.0108C88.9151 11.0108 88.5396 11.0538 88.1989 11.1399C87.8557 11.2286 87.5597 11.3698 87.311 11.5634C87.0624 11.7597 86.8671 12.0058 86.7254 12.3016C86.5812 12.5973 86.509 12.9536 86.509 13.3704C86.509 13.8007 86.5836 14.1637 86.7328 14.4595C86.8821 14.7553 87.091 15.0108 87.3595 15.2259C87.6256 15.441 87.939 15.636 88.2996 15.8107C88.6602 15.9855 89.0518 16.167 89.4746 16.3553C89.9844 16.5838 90.4669 16.8124 90.922 17.041C91.3746 17.2695 91.7687 17.5384 92.1045 17.8477C92.4402 18.1569 92.7075 18.5334 92.9065 18.9771C93.1054 19.4208 93.2049 19.9653 93.2049 20.6107C93.2049 21.8745 92.7983 22.8224 91.9851 23.4543C91.1694 24.0862 90.0652 24.4022 88.6726 24.4022C88.1752 24.4022 87.7214 24.3686 87.311 24.3014C86.9007 24.2341 86.5339 24.1494 86.2106 24.0472C85.8873 23.9478 85.6138 23.8442 85.3899 23.7367C85.1661 23.6291 84.9921 23.535 84.8677 23.4543L85.278 22.2644C85.4024 22.3451 85.5702 22.4392 85.7816 22.5468C85.993 22.6543 86.2417 22.7579 86.5277 22.8573C86.8137 22.9595 87.137 23.0442 87.4976 23.1115C87.8582 23.1787 88.2561 23.2123 88.6912 23.2123ZM94.2121 10.1234H103.762V11.3133H99.621V24.0997H98.3527V11.3133H94.2121V10.1234Z" fill="white"/>
<path d="M41.1711 24.0997H39.9028V10.1234H47.2701V11.3133H41.1711V16.2343H46.58V17.4242H41.1711V24.0997ZM61.2028 17.1015C61.2028 18.2981 61.0411 19.3535 60.7178 20.2678C60.3945 21.1821 59.9556 21.9444 59.401 22.5548C58.849 23.1679 58.2061 23.6291 57.4725 23.9383C56.7389 24.2476 55.9617 24.4022 55.1411 24.4022C54.3204 24.4022 53.5432 24.2476 52.8096 23.9383C52.076 23.6291 51.4319 23.1679 50.8773 22.5548C50.3253 21.9444 49.8876 21.1821 49.5643 20.2678C49.241 19.3535 49.0793 18.2981 49.0793 17.1015C49.0793 15.9049 49.241 14.8521 49.5643 13.9432C49.8876 13.037 50.3253 12.2774 50.8773 11.6643C51.4319 11.0538 52.076 10.594 52.8096 10.2848C53.5432 9.97554 54.3204 9.82092 55.1411 9.82092C55.9617 9.82092 56.7389 9.97554 57.4725 10.2848C58.2061 10.594 58.849 11.0538 59.401 11.6643C59.9556 12.2774 60.3945 13.037 60.7178 13.9432C61.0411 14.8521 61.2028 15.9049 61.2028 17.1015ZM59.8599 17.1015C59.8599 16.1603 59.748 15.316 59.5241 14.5684C59.3003 13.8235 58.9832 13.1889 58.5729 12.6646C58.1626 12.1402 57.6677 11.7395 57.0883 11.4626C56.5113 11.1883 55.8622 11.0512 55.1411 11.0512C54.4199 11.0512 53.7696 11.1883 53.1901 11.4626C52.6132 11.7395 52.1195 12.1402 51.7092 12.6646C51.2989 13.1889 50.9818 13.8235 50.758 14.5684C50.5341 15.316 50.4222 16.1603 50.4222 17.1015C50.4222 18.0426 50.5341 18.8856 50.758 19.6305C50.9818 20.3781 51.2989 21.014 51.7092 21.5384C52.1195 22.0627 52.6132 22.4661 53.1901 22.7484C53.7696 23.0308 54.4199 23.172 55.1411 23.172C55.8622 23.172 56.5113 23.0308 57.0883 22.7484C57.6677 22.4661 58.1626 22.0627 58.5729 21.5384C58.9832 21.014 59.3003 20.3781 59.5241 19.6305C59.748 18.8856 59.8599 18.0426 59.8599 17.1015ZM72.6548 14.3183C72.6548 15.3671 72.3998 16.1939 71.89 16.799C71.3802 17.404 70.7088 17.841 69.8757 18.1099C70.0746 18.3788 70.332 18.7418 70.6479 19.1989C70.9662 19.6561 71.2932 20.1562 71.6289 20.6994C71.9646 21.2453 72.2942 21.814 72.6174 22.4056C72.9407 22.9972 73.2143 23.5619 73.4381 24.0997H72.0766C71.8154 23.5619 71.5319 23.0241 71.226 22.4863C70.9227 21.9485 70.6118 21.4268 70.2935 20.9212C69.9776 20.4184 69.6705 19.9518 69.3721 19.5216C69.0737 19.0914 68.8126 18.7149 68.5887 18.3922C68.1908 18.4325 67.7929 18.4527 67.395 18.4527H65.3061V24.0997H64.0378V10.3856C64.4854 10.2512 65.0101 10.153 65.612 10.0912C66.2163 10.032 66.7733 10.0024 67.2831 10.0024C69.0612 10.0024 70.4004 10.3655 71.3007 11.0915C72.2034 11.8175 72.6548 12.8931 72.6548 14.3183ZM67.4323 11.1923C66.9598 11.1923 66.5458 11.2085 66.1902 11.2407C65.837 11.2757 65.5423 11.3066 65.3061 11.3335V17.283H67.0593C67.6437 17.283 68.1971 17.2521 68.7193 17.1902C69.2415 17.1311 69.6954 16.9966 70.0809 16.7869C70.4663 16.5798 70.771 16.2813 70.9948 15.8914C71.2186 15.5015 71.3305 14.9704 71.3305 14.2982C71.3305 13.6797 71.2186 13.1688 70.9948 12.7654C70.771 12.3621 70.4788 12.0421 70.1182 11.8054C69.7576 11.5715 69.3435 11.4101 68.876 11.3214C68.4109 11.2354 67.9297 11.1923 67.4323 11.1923ZM83.5062 24.0997H75.5606V10.1234H83.0212V11.3133H76.8289V16.1738H82.3498V17.3435H76.8289V22.9098H83.5062V24.0997ZM88.6912 23.2123C89.6984 23.2123 90.4818 23.0133 91.0413 22.6153C91.6009 22.22 91.8806 21.5787 91.8806 20.6913C91.8806 20.1804 91.7911 19.7529 91.6121 19.4087C91.4305 19.0672 91.1905 18.7781 90.8921 18.5415C90.5937 18.3075 90.2518 18.1058 89.8663 17.9364C89.4808 17.7697 89.0767 17.5922 88.6539 17.404C88.1193 17.1754 87.6406 16.9401 87.2178 16.6981C86.795 16.4561 86.4344 16.1832 86.136 15.8793C85.8376 15.5781 85.6113 15.2326 85.4571 14.8427C85.3004 14.4528 85.2221 13.9956 85.2221 13.4713C85.2221 12.2747 85.5889 11.3671 86.3225 10.7486C87.0561 10.1302 88.0758 9.82092 89.3814 9.82092C89.7295 9.82092 90.0715 9.84781 90.4072 9.90159C90.7429 9.95537 91.0575 10.0253 91.3509 10.1113C91.6419 10.2001 91.9092 10.2982 92.153 10.4058C92.3942 10.5133 92.5956 10.6276 92.7573 10.7486L92.3096 11.8982C91.949 11.6293 91.5113 11.4142 90.9966 11.2528C90.4793 11.0915 89.9222 11.0108 89.3254 11.0108C88.9151 11.0108 88.5396 11.0538 88.1989 11.1399C87.8557 11.2286 87.5597 11.3698 87.311 11.5634C87.0624 11.7597 86.8671 12.0058 86.7254 12.3016C86.5812 12.5973 86.509 12.9536 86.509 13.3704C86.509 13.8007 86.5836 14.1637 86.7328 14.4595C86.8821 14.7553 87.091 15.0108 87.3595 15.2259C87.6256 15.441 87.939 15.636 88.2996 15.8107C88.6602 15.9855 89.0518 16.167 89.4746 16.3553C89.9844 16.5838 90.4669 16.8124 90.922 17.041C91.3746 17.2695 91.7687 17.5384 92.1045 17.8477C92.4402 18.1569 92.7075 18.5334 92.9065 18.9771C93.1054 19.4208 93.2049 19.9653 93.2049 20.6107C93.2049 21.8745 92.7983 22.8224 91.9851 23.4543C91.1694 24.0862 90.0652 24.4022 88.6726 24.4022C88.1752 24.4022 87.7214 24.3686 87.311 24.3014C86.9007 24.2341 86.5339 24.1494 86.2106 24.0472C85.8873 23.9478 85.6138 23.8442 85.3899 23.7367C85.1661 23.6291 84.9921 23.535 84.8677 23.4543L85.278 22.2644C85.4024 22.3451 85.5702 22.4392 85.7816 22.5468C85.993 22.6543 86.2417 22.7579 86.5277 22.8573C86.8137 22.9595 87.137 23.0442 87.4976 23.1115C87.8582 23.1787 88.2561 23.2123 88.6912 23.2123ZM94.2121 10.1234H103.762V11.3133H99.621V24.0997H98.3527V11.3133H94.2121V10.1234Z" stroke="white" stroke-width="1.22761" mask="url(#path-4-outside-1_255_882)"/>
<mask id="path-5-inside-2_255_882" fill="white">
<path d="M118.082 22.8493V17.4847H119.351V23.7165C119.114 23.8241 118.652 23.9625 117.963 24.132C117.272 24.2987 116.422 24.382 115.415 24.382C114.57 24.382 113.786 24.2207 113.065 23.898C112.344 23.5753 111.72 23.1074 111.193 22.4943C110.663 21.8839 110.249 21.1243 109.95 20.2154C109.652 19.3092 109.503 18.2712 109.503 17.1015C109.503 15.9317 109.664 14.8924 109.988 13.9835C110.311 13.0773 110.75 12.3177 111.304 11.7046C111.856 11.0942 112.499 10.6276 113.233 10.3049C113.967 9.98227 114.75 9.82092 115.583 9.82092C116.54 9.82092 117.33 9.93117 117.952 10.1517C118.573 10.3749 119.027 10.5873 119.313 10.789L118.884 11.9587C118.536 11.6898 118.064 11.4706 117.467 11.3012C116.87 11.1345 116.223 11.0512 115.527 11.0512C114.881 11.0512 114.271 11.1789 113.699 11.4343C113.127 11.6898 112.63 12.073 112.207 12.5839C111.784 13.0948 111.452 13.7267 111.211 14.4797C110.967 15.2326 110.846 16.1065 110.846 17.1015C110.846 18.0292 110.945 18.8655 111.144 19.6103C111.343 20.3579 111.645 20.9965 112.05 21.5263C112.453 22.0587 112.953 22.4661 113.55 22.7484C114.147 23.0308 114.837 23.172 115.62 23.172C116.255 23.172 116.787 23.1343 117.217 23.059C117.645 22.9864 117.933 22.9165 118.082 22.8493ZM126.96 24.4022C126.102 24.4022 125.373 24.261 124.771 23.9787C124.166 23.6963 123.678 23.3064 123.305 22.8089C122.932 22.3115 122.662 21.7293 122.495 21.0624C122.326 20.3982 122.242 19.6829 122.242 18.9166V10.1234H123.51V18.7351C123.51 19.5014 123.594 20.1629 123.764 20.7196C123.93 21.2789 124.163 21.7401 124.461 22.1031C124.76 22.4661 125.12 22.735 125.543 22.9098C125.966 23.0846 126.438 23.172 126.96 23.172C127.483 23.172 127.955 23.0846 128.378 22.9098C128.801 22.735 129.161 22.4661 129.46 22.1031C129.758 21.7401 129.992 21.2789 130.161 20.7196C130.328 20.1629 130.411 19.5014 130.411 18.7351V10.1234H131.679V18.9166C131.679 19.6829 131.596 20.3982 131.429 21.0624C131.26 21.7293 130.989 22.3115 130.616 22.8089C130.243 23.3064 129.756 23.6963 129.154 23.9787C128.55 24.261 127.818 24.4022 126.96 24.4022ZM145.071 24.0997H143.672C143.436 23.414 143.212 22.7552 143.001 22.1232C142.789 21.4913 142.584 20.8728 142.385 20.2678H136.1C135.888 20.8728 135.677 21.4913 135.465 22.1232C135.254 22.7552 135.036 23.414 134.813 24.0997H133.488C133.986 22.6476 134.452 21.2923 134.887 20.0339C135.322 18.7781 135.748 17.5882 136.163 16.4642C136.581 15.3429 136.995 14.2645 137.405 13.2293C137.816 12.194 138.251 11.1587 138.711 10.1234H139.83C140.29 11.1587 140.725 12.194 141.136 13.2293C141.546 14.2645 141.959 15.3429 142.374 16.4642C142.792 17.5882 143.218 18.7781 143.653 20.0339C144.089 21.2923 144.561 22.6476 145.071 24.0997ZM139.233 11.6965C138.761 12.8528 138.303 14.0293 137.86 15.2259C137.42 16.4225 136.964 17.7132 136.491 19.0981H141.993C141.521 17.7132 141.061 16.4225 140.613 15.2259C140.166 14.0293 139.706 12.8528 139.233 11.6965ZM155.553 14.3183C155.553 15.3671 155.298 16.1939 154.788 16.799C154.279 17.404 153.607 17.841 152.774 18.1099C152.973 18.3788 153.23 18.7418 153.546 19.1989C153.864 19.6561 154.192 20.1562 154.527 20.6994C154.863 21.2453 155.192 21.814 155.516 22.4056C155.839 22.9972 156.113 23.5619 156.336 24.0997H154.975C154.714 23.5619 154.43 23.0241 154.124 22.4863C153.821 21.9485 153.51 21.4268 153.192 20.9212C152.876 20.4184 152.569 19.9518 152.27 19.5216C151.972 19.0914 151.711 18.7149 151.487 18.3922C151.089 18.4325 150.691 18.4527 150.293 18.4527H148.204V24.0997H146.936V10.3856C147.384 10.2512 147.908 10.153 148.51 10.0912C149.115 10.032 149.672 10.0024 150.181 10.0024C151.96 10.0024 153.299 10.3655 154.199 11.0915C155.102 11.8175 155.553 12.8931 155.553 14.3183ZM150.331 11.1923C149.858 11.1923 149.444 11.2085 149.088 11.2407C148.735 11.2757 148.441 11.3066 148.204 11.3335V17.283H149.958C150.542 17.283 151.095 17.2521 151.618 17.1902C152.14 17.1311 152.594 16.9966 152.979 16.7869C153.365 16.5798 153.669 16.2813 153.893 15.8914C154.117 15.5015 154.229 14.9704 154.229 14.2982C154.229 13.6797 154.117 13.1688 153.893 12.7654C153.669 12.3621 153.377 12.0421 153.016 11.8054C152.656 11.5715 152.242 11.4101 151.774 11.3214C151.309 11.2354 150.828 11.1923 150.331 11.1923ZM168.717 17.1015C168.717 18.2981 168.543 19.3401 168.195 20.2275C167.847 21.1149 167.359 21.8543 166.733 22.4459C166.104 23.0375 165.354 23.4812 164.483 23.777C163.613 24.0728 162.656 24.2207 161.611 24.2207C161.089 24.2207 160.542 24.1911 159.97 24.132C159.398 24.0701 158.894 23.9787 158.459 23.8577V10.3856C158.894 10.2512 159.398 10.153 159.97 10.0912C160.542 10.032 161.089 10.0024 161.611 10.0024C162.656 10.0024 163.613 10.1503 164.483 10.4461C165.354 10.7419 166.104 11.1856 166.733 11.7772C167.359 12.3688 167.847 13.1083 168.195 13.9956C168.543 14.883 168.717 15.9183 168.717 17.1015ZM159.727 11.3335V22.8896C159.802 22.9031 159.992 22.93 160.298 22.9703C160.601 23.0106 161.089 23.0308 161.76 23.0308C162.693 23.0308 163.507 22.8923 164.204 22.6153C164.9 22.3411 165.484 21.9485 165.957 21.4375C166.429 20.9266 166.784 20.3041 167.02 19.57C167.256 18.8386 167.374 18.0157 167.374 17.1015C167.374 16.1872 167.256 15.3671 167.02 14.641C166.784 13.915 166.429 13.2965 165.957 12.7856C165.484 12.2747 164.9 11.8807 164.204 11.6038C163.507 11.3295 162.693 11.1923 161.76 11.1923C161.089 11.1923 160.601 11.2125 160.298 11.2528C159.992 11.2932 159.802 11.3201 159.727 11.3335ZM171.552 24.0997V10.1234H172.821V24.0997H171.552ZM186.268 24.0997H184.869C184.633 23.414 184.409 22.7552 184.198 22.1232C183.987 21.4913 183.781 20.8728 183.582 20.2678H177.297C177.086 20.8728 176.874 21.4913 176.663 22.1232C176.451 22.7552 176.234 23.414 176.01 24.0997H174.686C175.183 22.6476 175.649 21.2923 176.085 20.0339C176.52 18.7781 176.945 17.5882 177.36 16.4642C177.778 15.3429 178.192 14.2645 178.603 13.2293C179.013 12.194 179.448 11.1587 179.908 10.1234H181.027C181.487 11.1587 181.922 12.194 182.333 13.2293C182.743 14.2645 183.156 15.3429 183.571 16.4642C183.989 17.5882 184.416 18.7781 184.851 20.0339C185.286 21.2923 185.758 22.6476 186.268 24.0997ZM180.43 11.6965C179.958 12.8528 179.5 14.0293 179.058 15.2259C178.617 16.4225 178.161 17.7132 177.689 19.0981H183.191C182.718 17.7132 182.258 16.4225 181.811 15.2259C181.363 14.0293 180.903 12.8528 180.43 11.6965ZM198 24.0997H196.937C196.701 23.6291 196.398 23.0778 196.03 22.4459C195.665 21.814 195.264 21.1377 194.829 20.4171C194.394 19.6991 193.934 18.9596 193.449 18.1986C192.964 17.4403 192.482 16.7008 192.002 15.9802C191.524 15.2622 191.058 14.5872 190.603 13.9553C190.15 13.3234 189.744 12.7789 189.383 12.3217V24.0997H188.133V10.1234H189.141C189.775 10.8898 190.455 11.7732 191.181 12.7735C191.91 13.7765 192.622 14.7983 193.318 15.839C194.015 16.8823 194.664 17.9015 195.266 18.8964C195.87 19.8913 196.365 20.7586 196.75 21.498V10.1234H198V24.0997Z"/>
</mask>
<path d="M118.082 22.8493V17.4847H119.351V23.7165C119.114 23.8241 118.652 23.9625 117.963 24.132C117.272 24.2987 116.422 24.382 115.415 24.382C114.57 24.382 113.786 24.2207 113.065 23.898C112.344 23.5753 111.72 23.1074 111.193 22.4943C110.663 21.8839 110.249 21.1243 109.95 20.2154C109.652 19.3092 109.503 18.2712 109.503 17.1015C109.503 15.9317 109.664 14.8924 109.988 13.9835C110.311 13.0773 110.75 12.3177 111.304 11.7046C111.856 11.0942 112.499 10.6276 113.233 10.3049C113.967 9.98227 114.75 9.82092 115.583 9.82092C116.54 9.82092 117.33 9.93117 117.952 10.1517C118.573 10.3749 119.027 10.5873 119.313 10.789L118.884 11.9587C118.536 11.6898 118.064 11.4706 117.467 11.3012C116.87 11.1345 116.223 11.0512 115.527 11.0512C114.881 11.0512 114.271 11.1789 113.699 11.4343C113.127 11.6898 112.63 12.073 112.207 12.5839C111.784 13.0948 111.452 13.7267 111.211 14.4797C110.967 15.2326 110.846 16.1065 110.846 17.1015C110.846 18.0292 110.945 18.8655 111.144 19.6103C111.343 20.3579 111.645 20.9965 112.05 21.5263C112.453 22.0587 112.953 22.4661 113.55 22.7484C114.147 23.0308 114.837 23.172 115.62 23.172C116.255 23.172 116.787 23.1343 117.217 23.059C117.645 22.9864 117.933 22.9165 118.082 22.8493ZM126.96 24.4022C126.102 24.4022 125.373 24.261 124.771 23.9787C124.166 23.6963 123.678 23.3064 123.305 22.8089C122.932 22.3115 122.662 21.7293 122.495 21.0624C122.326 20.3982 122.242 19.6829 122.242 18.9166V10.1234H123.51V18.7351C123.51 19.5014 123.594 20.1629 123.764 20.7196C123.93 21.2789 124.163 21.7401 124.461 22.1031C124.76 22.4661 125.12 22.735 125.543 22.9098C125.966 23.0846 126.438 23.172 126.96 23.172C127.483 23.172 127.955 23.0846 128.378 22.9098C128.801 22.735 129.161 22.4661 129.46 22.1031C129.758 21.7401 129.992 21.2789 130.161 20.7196C130.328 20.1629 130.411 19.5014 130.411 18.7351V10.1234H131.679V18.9166C131.679 19.6829 131.596 20.3982 131.429 21.0624C131.26 21.7293 130.989 22.3115 130.616 22.8089C130.243 23.3064 129.756 23.6963 129.154 23.9787C128.55 24.261 127.818 24.4022 126.96 24.4022ZM145.071 24.0997H143.672C143.436 23.414 143.212 22.7552 143.001 22.1232C142.789 21.4913 142.584 20.8728 142.385 20.2678H136.1C135.888 20.8728 135.677 21.4913 135.465 22.1232C135.254 22.7552 135.036 23.414 134.813 24.0997H133.488C133.986 22.6476 134.452 21.2923 134.887 20.0339C135.322 18.7781 135.748 17.5882 136.163 16.4642C136.581 15.3429 136.995 14.2645 137.405 13.2293C137.816 12.194 138.251 11.1587 138.711 10.1234H139.83C140.29 11.1587 140.725 12.194 141.136 13.2293C141.546 14.2645 141.959 15.3429 142.374 16.4642C142.792 17.5882 143.218 18.7781 143.653 20.0339C144.089 21.2923 144.561 22.6476 145.071 24.0997ZM139.233 11.6965C138.761 12.8528 138.303 14.0293 137.86 15.2259C137.42 16.4225 136.964 17.7132 136.491 19.0981H141.993C141.521 17.7132 141.061 16.4225 140.613 15.2259C140.166 14.0293 139.706 12.8528 139.233 11.6965ZM155.553 14.3183C155.553 15.3671 155.298 16.1939 154.788 16.799C154.279 17.404 153.607 17.841 152.774 18.1099C152.973 18.3788 153.23 18.7418 153.546 19.1989C153.864 19.6561 154.192 20.1562 154.527 20.6994C154.863 21.2453 155.192 21.814 155.516 22.4056C155.839 22.9972 156.113 23.5619 156.336 24.0997H154.975C154.714 23.5619 154.43 23.0241 154.124 22.4863C153.821 21.9485 153.51 21.4268 153.192 20.9212C152.876 20.4184 152.569 19.9518 152.27 19.5216C151.972 19.0914 151.711 18.7149 151.487 18.3922C151.089 18.4325 150.691 18.4527 150.293 18.4527H148.204V24.0997H146.936V10.3856C147.384 10.2512 147.908 10.153 148.51 10.0912C149.115 10.032 149.672 10.0024 150.181 10.0024C151.96 10.0024 153.299 10.3655 154.199 11.0915C155.102 11.8175 155.553 12.8931 155.553 14.3183ZM150.331 11.1923C149.858 11.1923 149.444 11.2085 149.088 11.2407C148.735 11.2757 148.441 11.3066 148.204 11.3335V17.283H149.958C150.542 17.283 151.095 17.2521 151.618 17.1902C152.14 17.1311 152.594 16.9966 152.979 16.7869C153.365 16.5798 153.669 16.2813 153.893 15.8914C154.117 15.5015 154.229 14.9704 154.229 14.2982C154.229 13.6797 154.117 13.1688 153.893 12.7654C153.669 12.3621 153.377 12.0421 153.016 11.8054C152.656 11.5715 152.242 11.4101 151.774 11.3214C151.309 11.2354 150.828 11.1923 150.331 11.1923ZM168.717 17.1015C168.717 18.2981 168.543 19.3401 168.195 20.2275C167.847 21.1149 167.359 21.8543 166.733 22.4459C166.104 23.0375 165.354 23.4812 164.483 23.777C163.613 24.0728 162.656 24.2207 161.611 24.2207C161.089 24.2207 160.542 24.1911 159.97 24.132C159.398 24.0701 158.894 23.9787 158.459 23.8577V10.3856C158.894 10.2512 159.398 10.153 159.97 10.0912C160.542 10.032 161.089 10.0024 161.611 10.0024C162.656 10.0024 163.613 10.1503 164.483 10.4461C165.354 10.7419 166.104 11.1856 166.733 11.7772C167.359 12.3688 167.847 13.1083 168.195 13.9956C168.543 14.883 168.717 15.9183 168.717 17.1015ZM159.727 11.3335V22.8896C159.802 22.9031 159.992 22.93 160.298 22.9703C160.601 23.0106 161.089 23.0308 161.76 23.0308C162.693 23.0308 163.507 22.8923 164.204 22.6153C164.9 22.3411 165.484 21.9485 165.957 21.4375C166.429 20.9266 166.784 20.3041 167.02 19.57C167.256 18.8386 167.374 18.0157 167.374 17.1015C167.374 16.1872 167.256 15.3671 167.02 14.641C166.784 13.915 166.429 13.2965 165.957 12.7856C165.484 12.2747 164.9 11.8807 164.204 11.6038C163.507 11.3295 162.693 11.1923 161.76 11.1923C161.089 11.1923 160.601 11.2125 160.298 11.2528C159.992 11.2932 159.802 11.3201 159.727 11.3335ZM171.552 24.0997V10.1234H172.821V24.0997H171.552ZM186.268 24.0997H184.869C184.633 23.414 184.409 22.7552 184.198 22.1232C183.987 21.4913 183.781 20.8728 183.582 20.2678H177.297C177.086 20.8728 176.874 21.4913 176.663 22.1232C176.451 22.7552 176.234 23.414 176.01 24.0997H174.686C175.183 22.6476 175.649 21.2923 176.085 20.0339C176.52 18.7781 176.945 17.5882 177.36 16.4642C177.778 15.3429 178.192 14.2645 178.603 13.2293C179.013 12.194 179.448 11.1587 179.908 10.1234H181.027C181.487 11.1587 181.922 12.194 182.333 13.2293C182.743 14.2645 183.156 15.3429 183.571 16.4642C183.989 17.5882 184.416 18.7781 184.851 20.0339C185.286 21.2923 185.758 22.6476 186.268 24.0997ZM180.43 11.6965C179.958 12.8528 179.5 14.0293 179.058 15.2259C178.617 16.4225 178.161 17.7132 177.689 19.0981H183.191C182.718 17.7132 182.258 16.4225 181.811 15.2259C181.363 14.0293 180.903 12.8528 180.43 11.6965ZM198 24.0997H196.937C196.701 23.6291 196.398 23.0778 196.03 22.4459C195.665 21.814 195.264 21.1377 194.829 20.4171C194.394 19.6991 193.934 18.9596 193.449 18.1986C192.964 17.4403 192.482 16.7008 192.002 15.9802C191.524 15.2622 191.058 14.5872 190.603 13.9553C190.15 13.3234 189.744 12.7789 189.383 12.3217V24.0997H188.133V10.1234H189.141C189.775 10.8898 190.455 11.7732 191.181 12.7735C191.91 13.7765 192.622 14.7983 193.318 15.839C194.015 16.8823 194.664 17.9015 195.266 18.8964C195.87 19.8913 196.365 20.7586 196.75 21.498V10.1234H198V24.0997Z" fill="white" stroke="white" stroke-width="0.613807" mask="url(#path-5-inside-2_255_882)"/>
<defs>
<clipPath id="clip0_255_882">
<rect width="30.6904" height="31.918" fill="white"/>
</clipPath>
</defs>
</svg>
