<svg width="253" height="24" viewBox="0 0 253 24" fill="none" xmlns="http://www.w3.org/2000/svg">
<g style="mix-blend-mode:screen">
<mask id="path-1-outside-1_106_431" maskUnits="userSpaceOnUse" x="0" y="0" width="105" height="24" fill="black">
<rect fill="white" width="105" height="24"/>
<path d="M4.00557 21.5851H2V2.41494H13.65V4.04703H4.00557V10.7967H12.5587V12.4288H4.00557V21.5851ZM35.6818 11.9862C35.6818 13.6275 35.4261 15.0752 34.9149 16.3292C34.4037 17.5832 33.7096 18.6289 32.8327 19.4661C31.9597 20.3071 30.9431 20.9396 29.783 21.3638C28.6229 21.7879 27.394 22 26.0963 22C24.7986 22 23.5697 21.7879 22.4096 21.3638C21.2495 20.9396 20.231 20.3071 19.3541 19.4661C18.4811 18.6289 17.7889 17.5832 17.2777 16.3292C16.7665 15.0752 16.5109 13.6275 16.5109 11.9862C16.5109 10.3449 16.7665 8.90088 17.2777 7.65422C17.7889 6.41125 18.4811 5.3693 19.3541 4.52835C20.231 3.6911 21.2495 3.0604 22.4096 2.63624C23.5697 2.21208 24.7986 2 26.0963 2C27.394 2 28.6229 2.21208 29.783 2.63624C30.9431 3.0604 31.9597 3.6911 32.8327 4.52835C33.7096 5.3693 34.4037 6.41125 34.9149 7.65422C35.4261 8.90088 35.6818 10.3449 35.6818 11.9862ZM33.5582 11.9862C33.5582 10.6953 33.3812 9.53712 33.0273 8.51176C32.6734 7.49009 32.172 6.61964 31.5231 5.90042C30.8743 5.18119 30.0917 4.63163 29.1755 4.25173C28.2631 3.87552 27.2367 3.68742 26.0963 3.68742C24.9559 3.68742 23.9275 3.87552 23.0113 4.25173C22.0989 4.63163 21.3183 5.18119 20.6695 5.90042C20.0206 6.61964 19.5192 7.49009 19.1653 8.51176C18.8114 9.53712 18.6344 10.6953 18.6344 11.9862C18.6344 13.2771 18.8114 14.4334 19.1653 15.455C19.5192 16.4804 20.0206 17.3527 20.6695 18.0719C21.3183 18.7911 22.0989 19.3444 23.0113 19.7317C23.9275 20.1189 24.9559 20.3126 26.0963 20.3126C27.2367 20.3126 28.2631 20.1189 29.1755 19.7317C30.0917 19.3444 30.8743 18.7911 31.5231 18.0719C32.172 17.3527 32.6734 16.4804 33.0273 15.455C33.3812 14.4334 33.5582 13.2771 33.5582 11.9862ZM53.7909 8.16874C53.7909 9.60719 53.3878 10.7414 52.5816 11.5712C51.7755 12.4011 50.7137 13.0005 49.3963 13.3693C49.7109 13.7381 50.1179 14.2361 50.6173 14.8631C51.1207 15.4901 51.6378 16.1761 52.1687 16.9212C52.6996 17.6699 53.2206 18.45 53.7319 19.2614C54.2431 20.0728 54.6757 20.8474 55.0296 21.5851H52.8766C52.4636 20.8474 52.0153 20.1097 51.5316 19.3721C51.0519 18.6344 50.5603 17.9189 50.057 17.2254C49.5575 16.5357 49.0719 15.8958 48.6 15.3057C48.1281 14.7155 47.7152 14.1992 47.3612 13.7566C46.732 13.8119 46.1028 13.8396 45.4736 13.8396H42.1704V21.5851H40.1648V2.77455C40.8726 2.59013 41.7024 2.45551 42.6541 2.37068C43.6096 2.28954 44.4905 2.24896 45.2967 2.24896C48.1084 2.24896 50.2261 2.74689 51.6496 3.74274C53.0771 4.73859 53.7909 6.21392 53.7909 8.16874ZM45.5326 3.88105C44.7855 3.88105 44.1307 3.90318 43.5684 3.94744C43.0099 3.99539 42.5439 4.03781 42.1704 4.07469V12.2351H44.9428C45.8669 12.2351 46.7419 12.1927 47.5677 12.1079C48.3935 12.0267 49.1112 11.8423 49.7207 11.5546C50.3303 11.2706 50.812 10.8612 51.1659 10.3264C51.5198 9.79161 51.6968 9.06316 51.6968 8.14108C51.6968 7.29276 51.5198 6.59198 51.1659 6.03873C50.812 5.48548 50.3499 5.04657 49.7797 4.72199C49.2095 4.40111 48.5547 4.17981 47.8154 4.05809C47.0801 3.94007 46.3191 3.88105 45.5326 3.88105ZM70.9503 21.5851H58.386V2.41494H70.1834V4.04703H60.3915V10.7137H69.1217V12.3181H60.3915V19.953H70.9503V21.5851ZM79.1495 20.3679C80.7422 20.3679 81.9809 20.095 82.8657 19.5491C83.7505 19.0069 84.1929 18.1272 84.1929 16.9101C84.1929 16.2093 84.0513 15.6229 83.7682 15.1508C83.4811 14.6823 83.1017 14.2858 82.6298 13.9613C82.1579 13.6404 81.6171 13.3638 81.0076 13.1314C80.3981 12.9027 79.759 12.6593 79.0905 12.4011C78.245 12.0876 77.488 11.7649 76.8195 11.4329C76.151 11.101 75.5808 10.7266 75.1089 10.3098C74.637 9.89673 74.2791 9.42278 74.0353 8.88797C73.7876 8.35316 73.6637 7.72614 73.6637 7.00692C73.6637 5.36561 74.2437 4.12079 75.4038 3.27248C76.5639 2.42416 78.1762 2 80.2408 2C80.7913 2 81.332 2.03688 81.8629 2.11065C82.3938 2.18442 82.8913 2.28031 83.3553 2.39834C83.8154 2.52006 84.2381 2.65468 84.6235 2.80221C85.005 2.94975 85.3235 3.1065 85.5791 3.27248L84.8713 4.84924C84.3011 4.48041 83.6089 4.18534 82.7949 3.96404C81.977 3.74274 81.0961 3.63209 80.1523 3.63209C79.5034 3.63209 78.9096 3.6911 78.3709 3.80913C77.8282 3.93084 77.3602 4.12448 76.967 4.39004C76.5737 4.65929 76.265 4.99677 76.0409 5.40249C75.8128 5.80821 75.6987 6.29691 75.6987 6.8686C75.6987 7.45874 75.8167 7.95666 76.0527 8.36238C76.2886 8.7681 76.6189 9.11849 77.0437 9.41356C77.4644 9.70862 77.9599 9.97603 78.5301 10.2158C79.1003 10.4555 79.7197 10.7045 80.3882 10.9627C81.1944 11.2762 81.9573 11.5897 82.6769 11.9032C83.3927 12.2167 84.016 12.5855 84.5468 13.0097C85.0777 13.4338 85.5005 13.9502 85.8151 14.5588C86.1297 15.1674 86.287 15.9142 86.287 16.7994C86.287 18.533 85.644 19.8331 84.3581 20.6999C83.0682 21.5666 81.3222 22 79.12 22C78.3335 22 77.6158 21.9539 76.967 21.8617C76.3181 21.7695 75.7381 21.6533 75.2269 21.5131C74.7156 21.3767 74.2831 21.2347 73.9291 21.0871C73.5752 20.9396 73.2999 20.8105 73.1033 20.6999L73.7522 19.0678C73.9488 19.1784 74.2142 19.3075 74.5485 19.455C74.8828 19.6026 75.276 19.7446 75.7282 19.8811C76.1805 20.0212 76.6917 20.1374 77.2619 20.2296C77.8321 20.3218 78.4613 20.3679 79.1495 20.3679ZM87.8796 2.41494H102.98V4.04703H96.4328V21.5851H94.4272V4.04703H87.8796V2.41494Z"/>
</mask>
<path d="M4.00557 21.5851H2V2.41494H13.65V4.04703H4.00557V10.7967H12.5587V12.4288H4.00557V21.5851ZM35.6818 11.9862C35.6818 13.6275 35.4261 15.0752 34.9149 16.3292C34.4037 17.5832 33.7096 18.6289 32.8327 19.4661C31.9597 20.3071 30.9431 20.9396 29.783 21.3638C28.6229 21.7879 27.394 22 26.0963 22C24.7986 22 23.5697 21.7879 22.4096 21.3638C21.2495 20.9396 20.231 20.3071 19.3541 19.4661C18.4811 18.6289 17.7889 17.5832 17.2777 16.3292C16.7665 15.0752 16.5109 13.6275 16.5109 11.9862C16.5109 10.3449 16.7665 8.90088 17.2777 7.65422C17.7889 6.41125 18.4811 5.3693 19.3541 4.52835C20.231 3.6911 21.2495 3.0604 22.4096 2.63624C23.5697 2.21208 24.7986 2 26.0963 2C27.394 2 28.6229 2.21208 29.783 2.63624C30.9431 3.0604 31.9597 3.6911 32.8327 4.52835C33.7096 5.3693 34.4037 6.41125 34.9149 7.65422C35.4261 8.90088 35.6818 10.3449 35.6818 11.9862ZM33.5582 11.9862C33.5582 10.6953 33.3812 9.53712 33.0273 8.51176C32.6734 7.49009 32.172 6.61964 31.5231 5.90042C30.8743 5.18119 30.0917 4.63163 29.1755 4.25173C28.2631 3.87552 27.2367 3.68742 26.0963 3.68742C24.9559 3.68742 23.9275 3.87552 23.0113 4.25173C22.0989 4.63163 21.3183 5.18119 20.6695 5.90042C20.0206 6.61964 19.5192 7.49009 19.1653 8.51176C18.8114 9.53712 18.6344 10.6953 18.6344 11.9862C18.6344 13.2771 18.8114 14.4334 19.1653 15.455C19.5192 16.4804 20.0206 17.3527 20.6695 18.0719C21.3183 18.7911 22.0989 19.3444 23.0113 19.7317C23.9275 20.1189 24.9559 20.3126 26.0963 20.3126C27.2367 20.3126 28.2631 20.1189 29.1755 19.7317C30.0917 19.3444 30.8743 18.7911 31.5231 18.0719C32.172 17.3527 32.6734 16.4804 33.0273 15.455C33.3812 14.4334 33.5582 13.2771 33.5582 11.9862ZM53.7909 8.16874C53.7909 9.60719 53.3878 10.7414 52.5816 11.5712C51.7755 12.4011 50.7137 13.0005 49.3963 13.3693C49.7109 13.7381 50.1179 14.2361 50.6173 14.8631C51.1207 15.4901 51.6378 16.1761 52.1687 16.9212C52.6996 17.6699 53.2206 18.45 53.7319 19.2614C54.2431 20.0728 54.6757 20.8474 55.0296 21.5851H52.8766C52.4636 20.8474 52.0153 20.1097 51.5316 19.3721C51.0519 18.6344 50.5603 17.9189 50.057 17.2254C49.5575 16.5357 49.0719 15.8958 48.6 15.3057C48.1281 14.7155 47.7152 14.1992 47.3612 13.7566C46.732 13.8119 46.1028 13.8396 45.4736 13.8396H42.1704V21.5851H40.1648V2.77455C40.8726 2.59013 41.7024 2.45551 42.6541 2.37068C43.6096 2.28954 44.4905 2.24896 45.2967 2.24896C48.1084 2.24896 50.2261 2.74689 51.6496 3.74274C53.0771 4.73859 53.7909 6.21392 53.7909 8.16874ZM45.5326 3.88105C44.7855 3.88105 44.1307 3.90318 43.5684 3.94744C43.0099 3.99539 42.5439 4.03781 42.1704 4.07469V12.2351H44.9428C45.8669 12.2351 46.7419 12.1927 47.5677 12.1079C48.3935 12.0267 49.1112 11.8423 49.7207 11.5546C50.3303 11.2706 50.812 10.8612 51.1659 10.3264C51.5198 9.79161 51.6968 9.06316 51.6968 8.14108C51.6968 7.29276 51.5198 6.59198 51.1659 6.03873C50.812 5.48548 50.3499 5.04657 49.7797 4.72199C49.2095 4.40111 48.5547 4.17981 47.8154 4.05809C47.0801 3.94007 46.3191 3.88105 45.5326 3.88105ZM70.9503 21.5851H58.386V2.41494H70.1834V4.04703H60.3915V10.7137H69.1217V12.3181H60.3915V19.953H70.9503V21.5851ZM79.1495 20.3679C80.7422 20.3679 81.9809 20.095 82.8657 19.5491C83.7505 19.0069 84.1929 18.1272 84.1929 16.9101C84.1929 16.2093 84.0513 15.6229 83.7682 15.1508C83.4811 14.6823 83.1017 14.2858 82.6298 13.9613C82.1579 13.6404 81.6171 13.3638 81.0076 13.1314C80.3981 12.9027 79.759 12.6593 79.0905 12.4011C78.245 12.0876 77.488 11.7649 76.8195 11.4329C76.151 11.101 75.5808 10.7266 75.1089 10.3098C74.637 9.89673 74.2791 9.42278 74.0353 8.88797C73.7876 8.35316 73.6637 7.72614 73.6637 7.00692C73.6637 5.36561 74.2437 4.12079 75.4038 3.27248C76.5639 2.42416 78.1762 2 80.2408 2C80.7913 2 81.332 2.03688 81.8629 2.11065C82.3938 2.18442 82.8913 2.28031 83.3553 2.39834C83.8154 2.52006 84.2381 2.65468 84.6235 2.80221C85.005 2.94975 85.3235 3.1065 85.5791 3.27248L84.8713 4.84924C84.3011 4.48041 83.6089 4.18534 82.7949 3.96404C81.977 3.74274 81.0961 3.63209 80.1523 3.63209C79.5034 3.63209 78.9096 3.6911 78.3709 3.80913C77.8282 3.93084 77.3602 4.12448 76.967 4.39004C76.5737 4.65929 76.265 4.99677 76.0409 5.40249C75.8128 5.80821 75.6987 6.29691 75.6987 6.8686C75.6987 7.45874 75.8167 7.95666 76.0527 8.36238C76.2886 8.7681 76.6189 9.11849 77.0437 9.41356C77.4644 9.70862 77.9599 9.97603 78.5301 10.2158C79.1003 10.4555 79.7197 10.7045 80.3882 10.9627C81.1944 11.2762 81.9573 11.5897 82.6769 11.9032C83.3927 12.2167 84.016 12.5855 84.5468 13.0097C85.0777 13.4338 85.5005 13.9502 85.8151 14.5588C86.1297 15.1674 86.287 15.9142 86.287 16.7994C86.287 18.533 85.644 19.8331 84.3581 20.6999C83.0682 21.5666 81.3222 22 79.12 22C78.3335 22 77.6158 21.9539 76.967 21.8617C76.3181 21.7695 75.7381 21.6533 75.2269 21.5131C74.7156 21.3767 74.2831 21.2347 73.9291 21.0871C73.5752 20.9396 73.2999 20.8105 73.1033 20.6999L73.7522 19.0678C73.9488 19.1784 74.2142 19.3075 74.5485 19.455C74.8828 19.6026 75.276 19.7446 75.7282 19.8811C76.1805 20.0212 76.6917 20.1374 77.2619 20.2296C77.8321 20.3218 78.4613 20.3679 79.1495 20.3679ZM87.8796 2.41494H102.98V4.04703H96.4328V21.5851H94.4272V4.04703H87.8796V2.41494Z" fill="white"/>
<path d="M4.00557 21.5851H2V2.41494H13.65V4.04703H4.00557V10.7967H12.5587V12.4288H4.00557V21.5851ZM35.6818 11.9862C35.6818 13.6275 35.4261 15.0752 34.9149 16.3292C34.4037 17.5832 33.7096 18.6289 32.8327 19.4661C31.9597 20.3071 30.9431 20.9396 29.783 21.3638C28.6229 21.7879 27.394 22 26.0963 22C24.7986 22 23.5697 21.7879 22.4096 21.3638C21.2495 20.9396 20.231 20.3071 19.3541 19.4661C18.4811 18.6289 17.7889 17.5832 17.2777 16.3292C16.7665 15.0752 16.5109 13.6275 16.5109 11.9862C16.5109 10.3449 16.7665 8.90088 17.2777 7.65422C17.7889 6.41125 18.4811 5.3693 19.3541 4.52835C20.231 3.6911 21.2495 3.0604 22.4096 2.63624C23.5697 2.21208 24.7986 2 26.0963 2C27.394 2 28.6229 2.21208 29.783 2.63624C30.9431 3.0604 31.9597 3.6911 32.8327 4.52835C33.7096 5.3693 34.4037 6.41125 34.9149 7.65422C35.4261 8.90088 35.6818 10.3449 35.6818 11.9862ZM33.5582 11.9862C33.5582 10.6953 33.3812 9.53712 33.0273 8.51176C32.6734 7.49009 32.172 6.61964 31.5231 5.90042C30.8743 5.18119 30.0917 4.63163 29.1755 4.25173C28.2631 3.87552 27.2367 3.68742 26.0963 3.68742C24.9559 3.68742 23.9275 3.87552 23.0113 4.25173C22.0989 4.63163 21.3183 5.18119 20.6695 5.90042C20.0206 6.61964 19.5192 7.49009 19.1653 8.51176C18.8114 9.53712 18.6344 10.6953 18.6344 11.9862C18.6344 13.2771 18.8114 14.4334 19.1653 15.455C19.5192 16.4804 20.0206 17.3527 20.6695 18.0719C21.3183 18.7911 22.0989 19.3444 23.0113 19.7317C23.9275 20.1189 24.9559 20.3126 26.0963 20.3126C27.2367 20.3126 28.2631 20.1189 29.1755 19.7317C30.0917 19.3444 30.8743 18.7911 31.5231 18.0719C32.172 17.3527 32.6734 16.4804 33.0273 15.455C33.3812 14.4334 33.5582 13.2771 33.5582 11.9862ZM53.7909 8.16874C53.7909 9.60719 53.3878 10.7414 52.5816 11.5712C51.7755 12.4011 50.7137 13.0005 49.3963 13.3693C49.7109 13.7381 50.1179 14.2361 50.6173 14.8631C51.1207 15.4901 51.6378 16.1761 52.1687 16.9212C52.6996 17.6699 53.2206 18.45 53.7319 19.2614C54.2431 20.0728 54.6757 20.8474 55.0296 21.5851H52.8766C52.4636 20.8474 52.0153 20.1097 51.5316 19.3721C51.0519 18.6344 50.5603 17.9189 50.057 17.2254C49.5575 16.5357 49.0719 15.8958 48.6 15.3057C48.1281 14.7155 47.7152 14.1992 47.3612 13.7566C46.732 13.8119 46.1028 13.8396 45.4736 13.8396H42.1704V21.5851H40.1648V2.77455C40.8726 2.59013 41.7024 2.45551 42.6541 2.37068C43.6096 2.28954 44.4905 2.24896 45.2967 2.24896C48.1084 2.24896 50.2261 2.74689 51.6496 3.74274C53.0771 4.73859 53.7909 6.21392 53.7909 8.16874ZM45.5326 3.88105C44.7855 3.88105 44.1307 3.90318 43.5684 3.94744C43.0099 3.99539 42.5439 4.03781 42.1704 4.07469V12.2351H44.9428C45.8669 12.2351 46.7419 12.1927 47.5677 12.1079C48.3935 12.0267 49.1112 11.8423 49.7207 11.5546C50.3303 11.2706 50.812 10.8612 51.1659 10.3264C51.5198 9.79161 51.6968 9.06316 51.6968 8.14108C51.6968 7.29276 51.5198 6.59198 51.1659 6.03873C50.812 5.48548 50.3499 5.04657 49.7797 4.72199C49.2095 4.40111 48.5547 4.17981 47.8154 4.05809C47.0801 3.94007 46.3191 3.88105 45.5326 3.88105ZM70.9503 21.5851H58.386V2.41494H70.1834V4.04703H60.3915V10.7137H69.1217V12.3181H60.3915V19.953H70.9503V21.5851ZM79.1495 20.3679C80.7422 20.3679 81.9809 20.095 82.8657 19.5491C83.7505 19.0069 84.1929 18.1272 84.1929 16.9101C84.1929 16.2093 84.0513 15.6229 83.7682 15.1508C83.4811 14.6823 83.1017 14.2858 82.6298 13.9613C82.1579 13.6404 81.6171 13.3638 81.0076 13.1314C80.3981 12.9027 79.759 12.6593 79.0905 12.4011C78.245 12.0876 77.488 11.7649 76.8195 11.4329C76.151 11.101 75.5808 10.7266 75.1089 10.3098C74.637 9.89673 74.2791 9.42278 74.0353 8.88797C73.7876 8.35316 73.6637 7.72614 73.6637 7.00692C73.6637 5.36561 74.2437 4.12079 75.4038 3.27248C76.5639 2.42416 78.1762 2 80.2408 2C80.7913 2 81.332 2.03688 81.8629 2.11065C82.3938 2.18442 82.8913 2.28031 83.3553 2.39834C83.8154 2.52006 84.2381 2.65468 84.6235 2.80221C85.005 2.94975 85.3235 3.1065 85.5791 3.27248L84.8713 4.84924C84.3011 4.48041 83.6089 4.18534 82.7949 3.96404C81.977 3.74274 81.0961 3.63209 80.1523 3.63209C79.5034 3.63209 78.9096 3.6911 78.3709 3.80913C77.8282 3.93084 77.3602 4.12448 76.967 4.39004C76.5737 4.65929 76.265 4.99677 76.0409 5.40249C75.8128 5.80821 75.6987 6.29691 75.6987 6.8686C75.6987 7.45874 75.8167 7.95666 76.0527 8.36238C76.2886 8.7681 76.6189 9.11849 77.0437 9.41356C77.4644 9.70862 77.9599 9.97603 78.5301 10.2158C79.1003 10.4555 79.7197 10.7045 80.3882 10.9627C81.1944 11.2762 81.9573 11.5897 82.6769 11.9032C83.3927 12.2167 84.016 12.5855 84.5468 13.0097C85.0777 13.4338 85.5005 13.9502 85.8151 14.5588C86.1297 15.1674 86.287 15.9142 86.287 16.7994C86.287 18.533 85.644 19.8331 84.3581 20.6999C83.0682 21.5666 81.3222 22 79.12 22C78.3335 22 77.6158 21.9539 76.967 21.8617C76.3181 21.7695 75.7381 21.6533 75.2269 21.5131C74.7156 21.3767 74.2831 21.2347 73.9291 21.0871C73.5752 20.9396 73.2999 20.8105 73.1033 20.6999L73.7522 19.0678C73.9488 19.1784 74.2142 19.3075 74.5485 19.455C74.8828 19.6026 75.276 19.7446 75.7282 19.8811C76.1805 20.0212 76.6917 20.1374 77.2619 20.2296C77.8321 20.3218 78.4613 20.3679 79.1495 20.3679ZM87.8796 2.41494H102.98V4.04703H96.4328V21.5851H94.4272V4.04703H87.8796V2.41494Z" stroke="black" stroke-width="4" mask="url(#path-1-outside-1_106_431)"/>
</g>
<mask id="path-2-inside-2_106_431" fill="white">
<path d="M125.629 19.87V12.5118H127.634V21.0595C127.261 21.207 126.529 21.397 125.44 21.6293C124.347 21.858 123.004 21.9723 121.411 21.9723C120.074 21.9723 118.835 21.751 117.695 21.3084C116.555 20.8658 115.567 20.2241 114.734 19.3831C113.896 18.5459 113.241 17.5039 112.769 16.2573C112.298 15.0143 112.062 13.5906 112.062 11.9862C112.062 10.3817 112.317 8.9562 112.828 7.70954C113.34 6.46658 114.034 5.42462 114.911 4.58368C115.784 3.74643 116.8 3.1065 117.96 2.6639C119.12 2.2213 120.359 2 121.677 2C123.191 2 124.439 2.15122 125.422 2.45367C126.405 2.7598 127.123 3.05118 127.575 3.3278L126.897 4.93223C126.346 4.56339 125.599 4.26279 124.655 4.03043C123.712 3.80175 122.689 3.68742 121.588 3.68742C120.566 3.68742 119.602 3.86261 118.698 4.213C117.793 4.56339 117.007 5.08898 116.338 5.78977C115.67 6.49055 115.145 7.35731 114.763 8.39004C114.378 9.42278 114.185 10.6215 114.185 11.9862C114.185 13.2586 114.342 14.4057 114.657 15.4274C114.972 16.4527 115.449 17.3287 116.09 18.0553C116.728 18.7856 117.518 19.3444 118.462 19.7317C119.406 20.1189 120.497 20.3126 121.736 20.3126C122.738 20.3126 123.58 20.2609 124.26 20.1577C124.937 20.0581 125.393 19.9622 125.629 19.87ZM139.668 22C138.311 22 137.157 21.8064 136.205 21.4191C135.25 21.0318 134.477 20.497 133.887 19.8147C133.297 19.1323 132.87 18.3338 132.607 17.4191C132.34 16.5081 132.206 15.527 132.206 14.4758V2.41494H134.211V14.2268C134.211 15.278 134.345 16.1853 134.612 16.9488C134.876 17.716 135.244 18.3485 135.716 18.8465C136.187 19.3444 136.758 19.7132 137.426 19.953C138.095 20.1927 138.842 20.3126 139.668 20.3126C140.494 20.3126 141.241 20.1927 141.909 19.953C142.578 19.7132 143.148 19.3444 143.62 18.8465C144.092 18.3485 144.461 17.716 144.729 16.9488C144.992 16.1853 145.124 15.278 145.124 14.2268V2.41494H147.13V14.4758C147.13 15.527 146.998 16.5081 146.734 17.4191C146.467 18.3338 146.038 19.1323 145.448 19.8147C144.859 20.497 144.088 21.0318 143.136 21.4191C142.181 21.8064 141.024 22 139.668 22ZM168.306 21.5851H166.094C165.72 20.6445 165.367 19.7409 165.032 18.8741C164.698 18.0074 164.374 17.1591 164.059 16.3292H154.12C153.785 17.1591 153.451 18.0074 153.117 18.8741C152.783 19.7409 152.438 20.6445 152.085 21.5851H149.99C150.777 19.5934 151.514 17.7344 152.203 16.0083C152.891 14.2858 153.563 12.6538 154.22 11.112C154.881 9.574 155.535 8.09497 156.184 6.67497C156.833 5.25496 157.521 3.83495 158.249 2.41494H160.018C160.746 3.83495 161.434 5.25496 162.083 6.67497C162.732 8.09497 163.385 9.574 164.041 11.112C164.702 12.6538 165.376 14.2858 166.065 16.0083C166.753 17.7344 167.5 19.5934 168.306 21.5851ZM159.075 4.57261C158.327 6.1586 157.604 7.77225 156.904 9.41356C156.208 11.0549 155.486 12.8253 154.739 14.7248H163.44C162.692 12.8253 161.965 11.0549 161.257 9.41356C160.549 7.77225 159.822 6.1586 159.075 4.57261ZM184.881 8.16874C184.881 9.60719 184.478 10.7414 183.672 11.5712C182.866 12.4011 181.804 13.0005 180.487 13.3693C180.802 13.7381 181.209 14.2361 181.708 14.8631C182.211 15.4901 182.728 16.1761 183.259 16.9212C183.79 17.6699 184.311 18.45 184.822 19.2614C185.334 20.0728 185.766 20.8474 186.12 21.5851H183.967C183.554 20.8474 183.106 20.1097 182.622 19.3721C182.143 18.6344 181.651 17.9189 181.148 17.2254C180.648 16.5357 180.163 15.8958 179.691 15.3057C179.219 14.7155 178.806 14.1992 178.452 13.7566C177.823 13.8119 177.193 13.8396 176.564 13.8396H173.261V21.5851H171.255V2.77455C171.963 2.59013 172.793 2.45551 173.745 2.37068C174.7 2.28954 175.581 2.24896 176.387 2.24896C179.199 2.24896 181.317 2.74689 182.74 3.74274C184.168 4.73859 184.881 6.21392 184.881 8.16874ZM176.623 3.88105C175.876 3.88105 175.221 3.90318 174.659 3.94744C174.101 3.99539 173.635 4.03781 173.261 4.07469V12.2351H176.033C176.958 12.2351 177.833 12.1927 178.658 12.1079C179.484 12.0267 180.202 11.8423 180.811 11.5546C181.421 11.2706 181.903 10.8612 182.257 10.3264C182.61 9.79161 182.787 9.06316 182.787 8.14108C182.787 7.29276 182.61 6.59198 182.257 6.03873C181.903 5.48548 181.441 5.04657 180.87 4.72199C180.3 4.40111 179.645 4.17981 178.906 4.05809C178.171 3.94007 177.41 3.88105 176.623 3.88105ZM205.698 11.9862C205.698 13.6275 205.423 15.0567 204.872 16.2739C204.322 17.491 203.551 18.5053 202.56 19.3167C201.565 20.1282 200.379 20.7367 199.003 21.1425C197.627 21.5482 196.113 21.751 194.461 21.751C193.635 21.751 192.77 21.7105 191.866 21.6293C190.961 21.5445 190.165 21.4191 189.477 21.2531V2.77455C190.165 2.59013 190.961 2.45551 191.866 2.37068C192.77 2.28954 193.635 2.24896 194.461 2.24896C196.113 2.24896 197.627 2.45182 199.003 2.85754C200.379 3.26326 201.565 3.87183 202.56 4.68327C203.551 5.4947 204.322 6.50899 204.872 7.72614C205.423 8.94329 205.698 10.3633 205.698 11.9862ZM191.482 4.07469V19.9253C191.6 19.9438 191.901 19.9806 192.385 20.036C192.864 20.0913 193.635 20.1189 194.697 20.1189C196.172 20.1189 197.46 19.929 198.561 19.5491C199.662 19.1729 200.586 18.6344 201.333 17.9336C202.08 17.2328 202.641 16.379 203.014 15.3721C203.388 14.3688 203.575 13.2402 203.575 11.9862C203.575 10.7321 203.388 9.60719 203.014 8.61134C202.641 7.61549 202.08 6.76717 201.333 6.06639C200.586 5.36561 199.662 4.82527 198.561 4.44537C197.46 4.06916 196.172 3.88105 194.697 3.88105C193.635 3.88105 192.864 3.90871 192.385 3.96404C191.901 4.01936 191.6 4.05625 191.482 4.07469ZM210.181 21.5851V2.41494H212.187V21.5851H210.181ZM233.452 21.5851H231.24C230.866 20.6445 230.512 19.7409 230.178 18.8741C229.844 18.0074 229.519 17.1591 229.205 16.3292H219.265C218.931 17.1591 218.597 18.0074 218.262 18.8741C217.928 19.7409 217.584 20.6445 217.23 21.5851H215.136C215.923 19.5934 216.66 17.7344 217.348 16.0083C218.036 14.2858 218.709 12.6538 219.365 11.112C220.026 9.574 220.681 8.09497 221.33 6.67497C221.979 5.25496 222.667 3.83495 223.394 2.41494H225.164C225.891 3.83495 226.58 5.25496 227.228 6.67497C227.877 8.09497 228.53 9.574 229.187 11.112C229.848 12.6538 230.522 14.2858 231.21 16.0083C231.898 17.7344 232.645 19.5934 233.452 21.5851ZM224.22 4.57261C223.473 6.1586 222.749 7.77225 222.049 9.41356C221.353 11.0549 220.632 12.8253 219.885 14.7248H228.585C227.838 12.8253 227.111 11.0549 226.403 9.41356C225.695 7.77225 224.967 6.1586 224.22 4.57261ZM252.003 21.5851H250.322C249.948 20.9396 249.471 20.1835 248.889 19.3167C248.311 18.45 247.677 17.5224 246.989 16.5339C246.301 15.5491 245.574 14.5348 244.807 13.491C244.04 12.4509 243.277 11.4366 242.518 10.4481C241.763 9.46335 241.026 8.53758 240.306 7.67082C239.59 6.80406 238.947 6.05717 238.377 5.43015V21.5851H236.401V2.41494H237.994C238.996 3.46611 240.072 4.67773 241.22 6.04979C242.373 7.42554 243.499 8.82711 244.6 10.2545C245.701 11.6856 246.728 13.0834 247.679 14.4481C248.635 15.8128 249.418 17.0023 250.027 18.0166V2.41494H252.003V21.5851Z"/>
</mask>
<path d="M125.629 19.87V12.5118H127.634V21.0595C127.261 21.207 126.529 21.397 125.44 21.6293C124.347 21.858 123.004 21.9723 121.411 21.9723C120.074 21.9723 118.835 21.751 117.695 21.3084C116.555 20.8658 115.567 20.2241 114.734 19.3831C113.896 18.5459 113.241 17.5039 112.769 16.2573C112.298 15.0143 112.062 13.5906 112.062 11.9862C112.062 10.3817 112.317 8.9562 112.828 7.70954C113.34 6.46658 114.034 5.42462 114.911 4.58368C115.784 3.74643 116.8 3.1065 117.96 2.6639C119.12 2.2213 120.359 2 121.677 2C123.191 2 124.439 2.15122 125.422 2.45367C126.405 2.7598 127.123 3.05118 127.575 3.3278L126.897 4.93223C126.346 4.56339 125.599 4.26279 124.655 4.03043C123.712 3.80175 122.689 3.68742 121.588 3.68742C120.566 3.68742 119.602 3.86261 118.698 4.213C117.793 4.56339 117.007 5.08898 116.338 5.78977C115.67 6.49055 115.145 7.35731 114.763 8.39004C114.378 9.42278 114.185 10.6215 114.185 11.9862C114.185 13.2586 114.342 14.4057 114.657 15.4274C114.972 16.4527 115.449 17.3287 116.09 18.0553C116.728 18.7856 117.518 19.3444 118.462 19.7317C119.406 20.1189 120.497 20.3126 121.736 20.3126C122.738 20.3126 123.58 20.2609 124.26 20.1577C124.937 20.0581 125.393 19.9622 125.629 19.87ZM139.668 22C138.311 22 137.157 21.8064 136.205 21.4191C135.25 21.0318 134.477 20.497 133.887 19.8147C133.297 19.1323 132.87 18.3338 132.607 17.4191C132.34 16.5081 132.206 15.527 132.206 14.4758V2.41494H134.211V14.2268C134.211 15.278 134.345 16.1853 134.612 16.9488C134.876 17.716 135.244 18.3485 135.716 18.8465C136.187 19.3444 136.758 19.7132 137.426 19.953C138.095 20.1927 138.842 20.3126 139.668 20.3126C140.494 20.3126 141.241 20.1927 141.909 19.953C142.578 19.7132 143.148 19.3444 143.62 18.8465C144.092 18.3485 144.461 17.716 144.729 16.9488C144.992 16.1853 145.124 15.278 145.124 14.2268V2.41494H147.13V14.4758C147.13 15.527 146.998 16.5081 146.734 17.4191C146.467 18.3338 146.038 19.1323 145.448 19.8147C144.859 20.497 144.088 21.0318 143.136 21.4191C142.181 21.8064 141.024 22 139.668 22ZM168.306 21.5851H166.094C165.72 20.6445 165.367 19.7409 165.032 18.8741C164.698 18.0074 164.374 17.1591 164.059 16.3292H154.12C153.785 17.1591 153.451 18.0074 153.117 18.8741C152.783 19.7409 152.438 20.6445 152.085 21.5851H149.99C150.777 19.5934 151.514 17.7344 152.203 16.0083C152.891 14.2858 153.563 12.6538 154.22 11.112C154.881 9.574 155.535 8.09497 156.184 6.67497C156.833 5.25496 157.521 3.83495 158.249 2.41494H160.018C160.746 3.83495 161.434 5.25496 162.083 6.67497C162.732 8.09497 163.385 9.574 164.041 11.112C164.702 12.6538 165.376 14.2858 166.065 16.0083C166.753 17.7344 167.5 19.5934 168.306 21.5851ZM159.075 4.57261C158.327 6.1586 157.604 7.77225 156.904 9.41356C156.208 11.0549 155.486 12.8253 154.739 14.7248H163.44C162.692 12.8253 161.965 11.0549 161.257 9.41356C160.549 7.77225 159.822 6.1586 159.075 4.57261ZM184.881 8.16874C184.881 9.60719 184.478 10.7414 183.672 11.5712C182.866 12.4011 181.804 13.0005 180.487 13.3693C180.802 13.7381 181.209 14.2361 181.708 14.8631C182.211 15.4901 182.728 16.1761 183.259 16.9212C183.79 17.6699 184.311 18.45 184.822 19.2614C185.334 20.0728 185.766 20.8474 186.12 21.5851H183.967C183.554 20.8474 183.106 20.1097 182.622 19.3721C182.143 18.6344 181.651 17.9189 181.148 17.2254C180.648 16.5357 180.163 15.8958 179.691 15.3057C179.219 14.7155 178.806 14.1992 178.452 13.7566C177.823 13.8119 177.193 13.8396 176.564 13.8396H173.261V21.5851H171.255V2.77455C171.963 2.59013 172.793 2.45551 173.745 2.37068C174.7 2.28954 175.581 2.24896 176.387 2.24896C179.199 2.24896 181.317 2.74689 182.74 3.74274C184.168 4.73859 184.881 6.21392 184.881 8.16874ZM176.623 3.88105C175.876 3.88105 175.221 3.90318 174.659 3.94744C174.101 3.99539 173.635 4.03781 173.261 4.07469V12.2351H176.033C176.958 12.2351 177.833 12.1927 178.658 12.1079C179.484 12.0267 180.202 11.8423 180.811 11.5546C181.421 11.2706 181.903 10.8612 182.257 10.3264C182.61 9.79161 182.787 9.06316 182.787 8.14108C182.787 7.29276 182.61 6.59198 182.257 6.03873C181.903 5.48548 181.441 5.04657 180.87 4.72199C180.3 4.40111 179.645 4.17981 178.906 4.05809C178.171 3.94007 177.41 3.88105 176.623 3.88105ZM205.698 11.9862C205.698 13.6275 205.423 15.0567 204.872 16.2739C204.322 17.491 203.551 18.5053 202.56 19.3167C201.565 20.1282 200.379 20.7367 199.003 21.1425C197.627 21.5482 196.113 21.751 194.461 21.751C193.635 21.751 192.77 21.7105 191.866 21.6293C190.961 21.5445 190.165 21.4191 189.477 21.2531V2.77455C190.165 2.59013 190.961 2.45551 191.866 2.37068C192.77 2.28954 193.635 2.24896 194.461 2.24896C196.113 2.24896 197.627 2.45182 199.003 2.85754C200.379 3.26326 201.565 3.87183 202.56 4.68327C203.551 5.4947 204.322 6.50899 204.872 7.72614C205.423 8.94329 205.698 10.3633 205.698 11.9862ZM191.482 4.07469V19.9253C191.6 19.9438 191.901 19.9806 192.385 20.036C192.864 20.0913 193.635 20.1189 194.697 20.1189C196.172 20.1189 197.46 19.929 198.561 19.5491C199.662 19.1729 200.586 18.6344 201.333 17.9336C202.08 17.2328 202.641 16.379 203.014 15.3721C203.388 14.3688 203.575 13.2402 203.575 11.9862C203.575 10.7321 203.388 9.60719 203.014 8.61134C202.641 7.61549 202.08 6.76717 201.333 6.06639C200.586 5.36561 199.662 4.82527 198.561 4.44537C197.46 4.06916 196.172 3.88105 194.697 3.88105C193.635 3.88105 192.864 3.90871 192.385 3.96404C191.901 4.01936 191.6 4.05625 191.482 4.07469ZM210.181 21.5851V2.41494H212.187V21.5851H210.181ZM233.452 21.5851H231.24C230.866 20.6445 230.512 19.7409 230.178 18.8741C229.844 18.0074 229.519 17.1591 229.205 16.3292H219.265C218.931 17.1591 218.597 18.0074 218.262 18.8741C217.928 19.7409 217.584 20.6445 217.23 21.5851H215.136C215.923 19.5934 216.66 17.7344 217.348 16.0083C218.036 14.2858 218.709 12.6538 219.365 11.112C220.026 9.574 220.681 8.09497 221.33 6.67497C221.979 5.25496 222.667 3.83495 223.394 2.41494H225.164C225.891 3.83495 226.58 5.25496 227.228 6.67497C227.877 8.09497 228.53 9.574 229.187 11.112C229.848 12.6538 230.522 14.2858 231.21 16.0083C231.898 17.7344 232.645 19.5934 233.452 21.5851ZM224.22 4.57261C223.473 6.1586 222.749 7.77225 222.049 9.41356C221.353 11.0549 220.632 12.8253 219.885 14.7248H228.585C227.838 12.8253 227.111 11.0549 226.403 9.41356C225.695 7.77225 224.967 6.1586 224.22 4.57261ZM252.003 21.5851H250.322C249.948 20.9396 249.471 20.1835 248.889 19.3167C248.311 18.45 247.677 17.5224 246.989 16.5339C246.301 15.5491 245.574 14.5348 244.807 13.491C244.04 12.4509 243.277 11.4366 242.518 10.4481C241.763 9.46335 241.026 8.53758 240.306 7.67082C239.59 6.80406 238.947 6.05717 238.377 5.43015V21.5851H236.401V2.41494H237.994C238.996 3.46611 240.072 4.67773 241.22 6.04979C242.373 7.42554 243.499 8.82711 244.6 10.2545C245.701 11.6856 246.728 13.0834 247.679 14.4481C248.635 15.8128 249.418 17.0023 250.027 18.0166V2.41494H252.003V21.5851Z" fill="white" stroke="black" stroke-width="2" mask="url(#path-2-inside-2_106_431)"/>
</svg>
