<svg width="261" height="32" viewBox="0 0 261 32" fill="none" xmlns="http://www.w3.org/2000/svg">
<g filter="url(#filter0_d_113_348)">
<g style="mix-blend-mode:screen">
<mask id="path-1-outside-1_113_348" maskUnits="userSpaceOnUse" x="4" y="0" width="105" height="24" fill="black">
<rect fill="white" x="4" width="105" height="24"/>
<path d="M8.00557 21.5851H6V2.41494H17.65V4.04703H8.00557V10.7967H16.5587V12.4288H8.00557V21.5851ZM39.6818 11.9862C39.6818 13.6275 39.4261 15.0752 38.9149 16.3292C38.4037 17.5832 37.7096 18.6289 36.8327 19.4661C35.9597 20.3071 34.9431 20.9396 33.783 21.3638C32.6229 21.7879 31.394 22 30.0963 22C28.7986 22 27.5697 21.7879 26.4096 21.3638C25.2495 20.9396 24.231 20.3071 23.3541 19.4661C22.4811 18.6289 21.7889 17.5832 21.2777 16.3292C20.7665 15.0752 20.5109 13.6275 20.5109 11.9862C20.5109 10.3449 20.7665 8.90088 21.2777 7.65422C21.7889 6.41125 22.4811 5.3693 23.3541 4.52835C24.231 3.6911 25.2495 3.0604 26.4096 2.63624C27.5697 2.21208 28.7986 2 30.0963 2C31.394 2 32.6229 2.21208 33.783 2.63624C34.9431 3.0604 35.9597 3.6911 36.8327 4.52835C37.7096 5.3693 38.4037 6.41125 38.9149 7.65422C39.4261 8.90088 39.6818 10.3449 39.6818 11.9862ZM37.5582 11.9862C37.5582 10.6953 37.3812 9.53712 37.0273 8.51176C36.6734 7.49009 36.172 6.61964 35.5231 5.90042C34.8743 5.18119 34.0917 4.63163 33.1755 4.25173C32.2631 3.87552 31.2367 3.68742 30.0963 3.68742C28.9559 3.68742 27.9275 3.87552 27.0113 4.25173C26.0989 4.63163 25.3183 5.18119 24.6695 5.90042C24.0206 6.61964 23.5192 7.49009 23.1653 8.51176C22.8114 9.53712 22.6344 10.6953 22.6344 11.9862C22.6344 13.2771 22.8114 14.4334 23.1653 15.455C23.5192 16.4804 24.0206 17.3527 24.6695 18.0719C25.3183 18.7911 26.0989 19.3444 27.0113 19.7317C27.9275 20.1189 28.9559 20.3126 30.0963 20.3126C31.2367 20.3126 32.2631 20.1189 33.1755 19.7317C34.0917 19.3444 34.8743 18.7911 35.5231 18.0719C36.172 17.3527 36.6734 16.4804 37.0273 15.455C37.3812 14.4334 37.5582 13.2771 37.5582 11.9862ZM57.7909 8.16874C57.7909 9.60719 57.3878 10.7414 56.5816 11.5712C55.7755 12.4011 54.7137 13.0005 53.3963 13.3693C53.7109 13.7381 54.1179 14.2361 54.6173 14.8631C55.1207 15.4901 55.6378 16.1761 56.1687 16.9212C56.6996 17.6699 57.2206 18.45 57.7319 19.2614C58.2431 20.0728 58.6757 20.8474 59.0296 21.5851H56.8766C56.4636 20.8474 56.0153 20.1097 55.5316 19.3721C55.0519 18.6344 54.5603 17.9189 54.057 17.2254C53.5575 16.5357 53.0719 15.8958 52.6 15.3057C52.1281 14.7155 51.7152 14.1992 51.3612 13.7566C50.732 13.8119 50.1028 13.8396 49.4736 13.8396H46.1704V21.5851H44.1648V2.77455C44.8726 2.59013 45.7024 2.45551 46.6541 2.37068C47.6096 2.28954 48.4905 2.24896 49.2967 2.24896C52.1084 2.24896 54.2261 2.74689 55.6496 3.74274C57.0771 4.73859 57.7909 6.21392 57.7909 8.16874ZM49.5326 3.88105C48.7855 3.88105 48.1307 3.90318 47.5684 3.94744C47.0099 3.99539 46.5439 4.03781 46.1704 4.07469V12.2351H48.9428C49.8669 12.2351 50.7419 12.1927 51.5677 12.1079C52.3935 12.0267 53.1112 11.8423 53.7207 11.5546C54.3303 11.2706 54.812 10.8612 55.1659 10.3264C55.5198 9.79161 55.6968 9.06316 55.6968 8.14108C55.6968 7.29276 55.5198 6.59198 55.1659 6.03873C54.812 5.48548 54.3499 5.04657 53.7797 4.72199C53.2095 4.40111 52.5547 4.17981 51.8154 4.05809C51.0801 3.94007 50.3191 3.88105 49.5326 3.88105ZM74.9503 21.5851H62.386V2.41494H74.1834V4.04703H64.3915V10.7137H73.1217V12.3181H64.3915V19.953H74.9503V21.5851ZM83.1495 20.3679C84.7422 20.3679 85.9809 20.095 86.8657 19.5491C87.7505 19.0069 88.1929 18.1272 88.1929 16.9101C88.1929 16.2093 88.0513 15.6229 87.7682 15.1508C87.4811 14.6823 87.1017 14.2858 86.6298 13.9613C86.1579 13.6404 85.6171 13.3638 85.0076 13.1314C84.3981 12.9027 83.759 12.6593 83.0905 12.4011C82.245 12.0876 81.488 11.7649 80.8195 11.4329C80.151 11.101 79.5808 10.7266 79.1089 10.3098C78.637 9.89673 78.2791 9.42278 78.0353 8.88797C77.7876 8.35316 77.6637 7.72614 77.6637 7.00692C77.6637 5.36561 78.2437 4.12079 79.4038 3.27248C80.5639 2.42416 82.1762 2 84.2408 2C84.7913 2 85.332 2.03688 85.8629 2.11065C86.3938 2.18442 86.8913 2.28031 87.3553 2.39834C87.8154 2.52006 88.2381 2.65468 88.6235 2.80221C89.005 2.94975 89.3235 3.1065 89.5791 3.27248L88.8713 4.84924C88.3011 4.48041 87.6089 4.18534 86.7949 3.96404C85.977 3.74274 85.0961 3.63209 84.1523 3.63209C83.5034 3.63209 82.9096 3.6911 82.3709 3.80913C81.8282 3.93084 81.3602 4.12448 80.967 4.39004C80.5737 4.65929 80.265 4.99677 80.0409 5.40249C79.8128 5.80821 79.6987 6.29691 79.6987 6.8686C79.6987 7.45874 79.8167 7.95666 80.0527 8.36238C80.2886 8.7681 80.6189 9.11849 81.0437 9.41356C81.4644 9.70862 81.9599 9.97603 82.5301 10.2158C83.1003 10.4555 83.7197 10.7045 84.3882 10.9627C85.1944 11.2762 85.9573 11.5897 86.6769 11.9032C87.3927 12.2167 88.016 12.5855 88.5468 13.0097C89.0777 13.4338 89.5005 13.9502 89.8151 14.5588C90.1297 15.1674 90.287 15.9142 90.287 16.7994C90.287 18.533 89.644 19.8331 88.3581 20.6999C87.0682 21.5666 85.3222 22 83.12 22C82.3335 22 81.6158 21.9539 80.967 21.8617C80.3181 21.7695 79.7381 21.6533 79.2269 21.5131C78.7156 21.3767 78.2831 21.2347 77.9291 21.0871C77.5752 20.9396 77.2999 20.8105 77.1033 20.6999L77.7522 19.0678C77.9488 19.1784 78.2142 19.3075 78.5485 19.455C78.8828 19.6026 79.276 19.7446 79.7282 19.8811C80.1805 20.0212 80.6917 20.1374 81.2619 20.2296C81.8321 20.3218 82.4613 20.3679 83.1495 20.3679ZM91.8796 2.41494H106.98V4.04703H100.433V21.5851H98.4272V4.04703H91.8796V2.41494Z"/>
</mask>
<path d="M8.00557 21.5851H6V2.41494H17.65V4.04703H8.00557V10.7967H16.5587V12.4288H8.00557V21.5851ZM39.6818 11.9862C39.6818 13.6275 39.4261 15.0752 38.9149 16.3292C38.4037 17.5832 37.7096 18.6289 36.8327 19.4661C35.9597 20.3071 34.9431 20.9396 33.783 21.3638C32.6229 21.7879 31.394 22 30.0963 22C28.7986 22 27.5697 21.7879 26.4096 21.3638C25.2495 20.9396 24.231 20.3071 23.3541 19.4661C22.4811 18.6289 21.7889 17.5832 21.2777 16.3292C20.7665 15.0752 20.5109 13.6275 20.5109 11.9862C20.5109 10.3449 20.7665 8.90088 21.2777 7.65422C21.7889 6.41125 22.4811 5.3693 23.3541 4.52835C24.231 3.6911 25.2495 3.0604 26.4096 2.63624C27.5697 2.21208 28.7986 2 30.0963 2C31.394 2 32.6229 2.21208 33.783 2.63624C34.9431 3.0604 35.9597 3.6911 36.8327 4.52835C37.7096 5.3693 38.4037 6.41125 38.9149 7.65422C39.4261 8.90088 39.6818 10.3449 39.6818 11.9862ZM37.5582 11.9862C37.5582 10.6953 37.3812 9.53712 37.0273 8.51176C36.6734 7.49009 36.172 6.61964 35.5231 5.90042C34.8743 5.18119 34.0917 4.63163 33.1755 4.25173C32.2631 3.87552 31.2367 3.68742 30.0963 3.68742C28.9559 3.68742 27.9275 3.87552 27.0113 4.25173C26.0989 4.63163 25.3183 5.18119 24.6695 5.90042C24.0206 6.61964 23.5192 7.49009 23.1653 8.51176C22.8114 9.53712 22.6344 10.6953 22.6344 11.9862C22.6344 13.2771 22.8114 14.4334 23.1653 15.455C23.5192 16.4804 24.0206 17.3527 24.6695 18.0719C25.3183 18.7911 26.0989 19.3444 27.0113 19.7317C27.9275 20.1189 28.9559 20.3126 30.0963 20.3126C31.2367 20.3126 32.2631 20.1189 33.1755 19.7317C34.0917 19.3444 34.8743 18.7911 35.5231 18.0719C36.172 17.3527 36.6734 16.4804 37.0273 15.455C37.3812 14.4334 37.5582 13.2771 37.5582 11.9862ZM57.7909 8.16874C57.7909 9.60719 57.3878 10.7414 56.5816 11.5712C55.7755 12.4011 54.7137 13.0005 53.3963 13.3693C53.7109 13.7381 54.1179 14.2361 54.6173 14.8631C55.1207 15.4901 55.6378 16.1761 56.1687 16.9212C56.6996 17.6699 57.2206 18.45 57.7319 19.2614C58.2431 20.0728 58.6757 20.8474 59.0296 21.5851H56.8766C56.4636 20.8474 56.0153 20.1097 55.5316 19.3721C55.0519 18.6344 54.5603 17.9189 54.057 17.2254C53.5575 16.5357 53.0719 15.8958 52.6 15.3057C52.1281 14.7155 51.7152 14.1992 51.3612 13.7566C50.732 13.8119 50.1028 13.8396 49.4736 13.8396H46.1704V21.5851H44.1648V2.77455C44.8726 2.59013 45.7024 2.45551 46.6541 2.37068C47.6096 2.28954 48.4905 2.24896 49.2967 2.24896C52.1084 2.24896 54.2261 2.74689 55.6496 3.74274C57.0771 4.73859 57.7909 6.21392 57.7909 8.16874ZM49.5326 3.88105C48.7855 3.88105 48.1307 3.90318 47.5684 3.94744C47.0099 3.99539 46.5439 4.03781 46.1704 4.07469V12.2351H48.9428C49.8669 12.2351 50.7419 12.1927 51.5677 12.1079C52.3935 12.0267 53.1112 11.8423 53.7207 11.5546C54.3303 11.2706 54.812 10.8612 55.1659 10.3264C55.5198 9.79161 55.6968 9.06316 55.6968 8.14108C55.6968 7.29276 55.5198 6.59198 55.1659 6.03873C54.812 5.48548 54.3499 5.04657 53.7797 4.72199C53.2095 4.40111 52.5547 4.17981 51.8154 4.05809C51.0801 3.94007 50.3191 3.88105 49.5326 3.88105ZM74.9503 21.5851H62.386V2.41494H74.1834V4.04703H64.3915V10.7137H73.1217V12.3181H64.3915V19.953H74.9503V21.5851ZM83.1495 20.3679C84.7422 20.3679 85.9809 20.095 86.8657 19.5491C87.7505 19.0069 88.1929 18.1272 88.1929 16.9101C88.1929 16.2093 88.0513 15.6229 87.7682 15.1508C87.4811 14.6823 87.1017 14.2858 86.6298 13.9613C86.1579 13.6404 85.6171 13.3638 85.0076 13.1314C84.3981 12.9027 83.759 12.6593 83.0905 12.4011C82.245 12.0876 81.488 11.7649 80.8195 11.4329C80.151 11.101 79.5808 10.7266 79.1089 10.3098C78.637 9.89673 78.2791 9.42278 78.0353 8.88797C77.7876 8.35316 77.6637 7.72614 77.6637 7.00692C77.6637 5.36561 78.2437 4.12079 79.4038 3.27248C80.5639 2.42416 82.1762 2 84.2408 2C84.7913 2 85.332 2.03688 85.8629 2.11065C86.3938 2.18442 86.8913 2.28031 87.3553 2.39834C87.8154 2.52006 88.2381 2.65468 88.6235 2.80221C89.005 2.94975 89.3235 3.1065 89.5791 3.27248L88.8713 4.84924C88.3011 4.48041 87.6089 4.18534 86.7949 3.96404C85.977 3.74274 85.0961 3.63209 84.1523 3.63209C83.5034 3.63209 82.9096 3.6911 82.3709 3.80913C81.8282 3.93084 81.3602 4.12448 80.967 4.39004C80.5737 4.65929 80.265 4.99677 80.0409 5.40249C79.8128 5.80821 79.6987 6.29691 79.6987 6.8686C79.6987 7.45874 79.8167 7.95666 80.0527 8.36238C80.2886 8.7681 80.6189 9.11849 81.0437 9.41356C81.4644 9.70862 81.9599 9.97603 82.5301 10.2158C83.1003 10.4555 83.7197 10.7045 84.3882 10.9627C85.1944 11.2762 85.9573 11.5897 86.6769 11.9032C87.3927 12.2167 88.016 12.5855 88.5468 13.0097C89.0777 13.4338 89.5005 13.9502 89.8151 14.5588C90.1297 15.1674 90.287 15.9142 90.287 16.7994C90.287 18.533 89.644 19.8331 88.3581 20.6999C87.0682 21.5666 85.3222 22 83.12 22C82.3335 22 81.6158 21.9539 80.967 21.8617C80.3181 21.7695 79.7381 21.6533 79.2269 21.5131C78.7156 21.3767 78.2831 21.2347 77.9291 21.0871C77.5752 20.9396 77.2999 20.8105 77.1033 20.6999L77.7522 19.0678C77.9488 19.1784 78.2142 19.3075 78.5485 19.455C78.8828 19.6026 79.276 19.7446 79.7282 19.8811C80.1805 20.0212 80.6917 20.1374 81.2619 20.2296C81.8321 20.3218 82.4613 20.3679 83.1495 20.3679ZM91.8796 2.41494H106.98V4.04703H100.433V21.5851H98.4272V4.04703H91.8796V2.41494Z" fill="white"/>
<path d="M8.00557 21.5851H6V2.41494H17.65V4.04703H8.00557V10.7967H16.5587V12.4288H8.00557V21.5851ZM39.6818 11.9862C39.6818 13.6275 39.4261 15.0752 38.9149 16.3292C38.4037 17.5832 37.7096 18.6289 36.8327 19.4661C35.9597 20.3071 34.9431 20.9396 33.783 21.3638C32.6229 21.7879 31.394 22 30.0963 22C28.7986 22 27.5697 21.7879 26.4096 21.3638C25.2495 20.9396 24.231 20.3071 23.3541 19.4661C22.4811 18.6289 21.7889 17.5832 21.2777 16.3292C20.7665 15.0752 20.5109 13.6275 20.5109 11.9862C20.5109 10.3449 20.7665 8.90088 21.2777 7.65422C21.7889 6.41125 22.4811 5.3693 23.3541 4.52835C24.231 3.6911 25.2495 3.0604 26.4096 2.63624C27.5697 2.21208 28.7986 2 30.0963 2C31.394 2 32.6229 2.21208 33.783 2.63624C34.9431 3.0604 35.9597 3.6911 36.8327 4.52835C37.7096 5.3693 38.4037 6.41125 38.9149 7.65422C39.4261 8.90088 39.6818 10.3449 39.6818 11.9862ZM37.5582 11.9862C37.5582 10.6953 37.3812 9.53712 37.0273 8.51176C36.6734 7.49009 36.172 6.61964 35.5231 5.90042C34.8743 5.18119 34.0917 4.63163 33.1755 4.25173C32.2631 3.87552 31.2367 3.68742 30.0963 3.68742C28.9559 3.68742 27.9275 3.87552 27.0113 4.25173C26.0989 4.63163 25.3183 5.18119 24.6695 5.90042C24.0206 6.61964 23.5192 7.49009 23.1653 8.51176C22.8114 9.53712 22.6344 10.6953 22.6344 11.9862C22.6344 13.2771 22.8114 14.4334 23.1653 15.455C23.5192 16.4804 24.0206 17.3527 24.6695 18.0719C25.3183 18.7911 26.0989 19.3444 27.0113 19.7317C27.9275 20.1189 28.9559 20.3126 30.0963 20.3126C31.2367 20.3126 32.2631 20.1189 33.1755 19.7317C34.0917 19.3444 34.8743 18.7911 35.5231 18.0719C36.172 17.3527 36.6734 16.4804 37.0273 15.455C37.3812 14.4334 37.5582 13.2771 37.5582 11.9862ZM57.7909 8.16874C57.7909 9.60719 57.3878 10.7414 56.5816 11.5712C55.7755 12.4011 54.7137 13.0005 53.3963 13.3693C53.7109 13.7381 54.1179 14.2361 54.6173 14.8631C55.1207 15.4901 55.6378 16.1761 56.1687 16.9212C56.6996 17.6699 57.2206 18.45 57.7319 19.2614C58.2431 20.0728 58.6757 20.8474 59.0296 21.5851H56.8766C56.4636 20.8474 56.0153 20.1097 55.5316 19.3721C55.0519 18.6344 54.5603 17.9189 54.057 17.2254C53.5575 16.5357 53.0719 15.8958 52.6 15.3057C52.1281 14.7155 51.7152 14.1992 51.3612 13.7566C50.732 13.8119 50.1028 13.8396 49.4736 13.8396H46.1704V21.5851H44.1648V2.77455C44.8726 2.59013 45.7024 2.45551 46.6541 2.37068C47.6096 2.28954 48.4905 2.24896 49.2967 2.24896C52.1084 2.24896 54.2261 2.74689 55.6496 3.74274C57.0771 4.73859 57.7909 6.21392 57.7909 8.16874ZM49.5326 3.88105C48.7855 3.88105 48.1307 3.90318 47.5684 3.94744C47.0099 3.99539 46.5439 4.03781 46.1704 4.07469V12.2351H48.9428C49.8669 12.2351 50.7419 12.1927 51.5677 12.1079C52.3935 12.0267 53.1112 11.8423 53.7207 11.5546C54.3303 11.2706 54.812 10.8612 55.1659 10.3264C55.5198 9.79161 55.6968 9.06316 55.6968 8.14108C55.6968 7.29276 55.5198 6.59198 55.1659 6.03873C54.812 5.48548 54.3499 5.04657 53.7797 4.72199C53.2095 4.40111 52.5547 4.17981 51.8154 4.05809C51.0801 3.94007 50.3191 3.88105 49.5326 3.88105ZM74.9503 21.5851H62.386V2.41494H74.1834V4.04703H64.3915V10.7137H73.1217V12.3181H64.3915V19.953H74.9503V21.5851ZM83.1495 20.3679C84.7422 20.3679 85.9809 20.095 86.8657 19.5491C87.7505 19.0069 88.1929 18.1272 88.1929 16.9101C88.1929 16.2093 88.0513 15.6229 87.7682 15.1508C87.4811 14.6823 87.1017 14.2858 86.6298 13.9613C86.1579 13.6404 85.6171 13.3638 85.0076 13.1314C84.3981 12.9027 83.759 12.6593 83.0905 12.4011C82.245 12.0876 81.488 11.7649 80.8195 11.4329C80.151 11.101 79.5808 10.7266 79.1089 10.3098C78.637 9.89673 78.2791 9.42278 78.0353 8.88797C77.7876 8.35316 77.6637 7.72614 77.6637 7.00692C77.6637 5.36561 78.2437 4.12079 79.4038 3.27248C80.5639 2.42416 82.1762 2 84.2408 2C84.7913 2 85.332 2.03688 85.8629 2.11065C86.3938 2.18442 86.8913 2.28031 87.3553 2.39834C87.8154 2.52006 88.2381 2.65468 88.6235 2.80221C89.005 2.94975 89.3235 3.1065 89.5791 3.27248L88.8713 4.84924C88.3011 4.48041 87.6089 4.18534 86.7949 3.96404C85.977 3.74274 85.0961 3.63209 84.1523 3.63209C83.5034 3.63209 82.9096 3.6911 82.3709 3.80913C81.8282 3.93084 81.3602 4.12448 80.967 4.39004C80.5737 4.65929 80.265 4.99677 80.0409 5.40249C79.8128 5.80821 79.6987 6.29691 79.6987 6.8686C79.6987 7.45874 79.8167 7.95666 80.0527 8.36238C80.2886 8.7681 80.6189 9.11849 81.0437 9.41356C81.4644 9.70862 81.9599 9.97603 82.5301 10.2158C83.1003 10.4555 83.7197 10.7045 84.3882 10.9627C85.1944 11.2762 85.9573 11.5897 86.6769 11.9032C87.3927 12.2167 88.016 12.5855 88.5468 13.0097C89.0777 13.4338 89.5005 13.9502 89.8151 14.5588C90.1297 15.1674 90.287 15.9142 90.287 16.7994C90.287 18.533 89.644 19.8331 88.3581 20.6999C87.0682 21.5666 85.3222 22 83.12 22C82.3335 22 81.6158 21.9539 80.967 21.8617C80.3181 21.7695 79.7381 21.6533 79.2269 21.5131C78.7156 21.3767 78.2831 21.2347 77.9291 21.0871C77.5752 20.9396 77.2999 20.8105 77.1033 20.6999L77.7522 19.0678C77.9488 19.1784 78.2142 19.3075 78.5485 19.455C78.8828 19.6026 79.276 19.7446 79.7282 19.8811C80.1805 20.0212 80.6917 20.1374 81.2619 20.2296C81.8321 20.3218 82.4613 20.3679 83.1495 20.3679ZM91.8796 2.41494H106.98V4.04703H100.433V21.5851H98.4272V4.04703H91.8796V2.41494Z" stroke="black" stroke-width="4" mask="url(#path-1-outside-1_113_348)"/>
</g>
<mask id="path-2-inside-2_113_348" fill="white">
<path d="M129.629 19.87V12.5118H131.634V21.0595C131.261 21.207 130.529 21.397 129.44 21.6293C128.347 21.858 127.004 21.9723 125.411 21.9723C124.074 21.9723 122.835 21.751 121.695 21.3084C120.555 20.8658 119.567 20.2241 118.734 19.3831C117.896 18.5459 117.241 17.5039 116.769 16.2573C116.298 15.0143 116.062 13.5906 116.062 11.9862C116.062 10.3817 116.317 8.9562 116.828 7.70954C117.34 6.46658 118.034 5.42462 118.911 4.58368C119.784 3.74643 120.8 3.1065 121.96 2.6639C123.12 2.2213 124.359 2 125.677 2C127.191 2 128.439 2.15122 129.422 2.45367C130.405 2.7598 131.123 3.05118 131.575 3.3278L130.897 4.93223C130.346 4.56339 129.599 4.26279 128.655 4.03043C127.712 3.80175 126.689 3.68742 125.588 3.68742C124.566 3.68742 123.602 3.86261 122.698 4.213C121.793 4.56339 121.007 5.08898 120.338 5.78977C119.67 6.49055 119.145 7.35731 118.763 8.39004C118.378 9.42278 118.185 10.6215 118.185 11.9862C118.185 13.2586 118.342 14.4057 118.657 15.4274C118.972 16.4527 119.449 17.3287 120.09 18.0553C120.728 18.7856 121.518 19.3444 122.462 19.7317C123.406 20.1189 124.497 20.3126 125.736 20.3126C126.738 20.3126 127.58 20.2609 128.26 20.1577C128.937 20.0581 129.393 19.9622 129.629 19.87ZM143.668 22C142.311 22 141.157 21.8064 140.205 21.4191C139.25 21.0318 138.477 20.497 137.887 19.8147C137.297 19.1323 136.87 18.3338 136.607 17.4191C136.34 16.5081 136.206 15.527 136.206 14.4758V2.41494H138.211V14.2268C138.211 15.278 138.345 16.1853 138.612 16.9488C138.876 17.716 139.244 18.3485 139.716 18.8465C140.187 19.3444 140.758 19.7132 141.426 19.953C142.095 20.1927 142.842 20.3126 143.668 20.3126C144.494 20.3126 145.241 20.1927 145.909 19.953C146.578 19.7132 147.148 19.3444 147.62 18.8465C148.092 18.3485 148.461 17.716 148.729 16.9488C148.992 16.1853 149.124 15.278 149.124 14.2268V2.41494H151.13V14.4758C151.13 15.527 150.998 16.5081 150.734 17.4191C150.467 18.3338 150.038 19.1323 149.448 19.8147C148.859 20.497 148.088 21.0318 147.136 21.4191C146.181 21.8064 145.024 22 143.668 22ZM172.306 21.5851H170.094C169.72 20.6445 169.367 19.7409 169.032 18.8741C168.698 18.0074 168.374 17.1591 168.059 16.3292H158.12C157.785 17.1591 157.451 18.0074 157.117 18.8741C156.783 19.7409 156.438 20.6445 156.085 21.5851H153.99C154.777 19.5934 155.514 17.7344 156.203 16.0083C156.891 14.2858 157.563 12.6538 158.22 11.112C158.881 9.574 159.535 8.09497 160.184 6.67497C160.833 5.25496 161.521 3.83495 162.249 2.41494H164.018C164.746 3.83495 165.434 5.25496 166.083 6.67497C166.732 8.09497 167.385 9.574 168.041 11.112C168.702 12.6538 169.376 14.2858 170.065 16.0083C170.753 17.7344 171.5 19.5934 172.306 21.5851ZM163.075 4.57261C162.327 6.1586 161.604 7.77225 160.904 9.41356C160.208 11.0549 159.486 12.8253 158.739 14.7248H167.44C166.692 12.8253 165.965 11.0549 165.257 9.41356C164.549 7.77225 163.822 6.1586 163.075 4.57261ZM188.881 8.16874C188.881 9.60719 188.478 10.7414 187.672 11.5712C186.866 12.4011 185.804 13.0005 184.487 13.3693C184.802 13.7381 185.209 14.2361 185.708 14.8631C186.211 15.4901 186.728 16.1761 187.259 16.9212C187.79 17.6699 188.311 18.45 188.822 19.2614C189.334 20.0728 189.766 20.8474 190.12 21.5851H187.967C187.554 20.8474 187.106 20.1097 186.622 19.3721C186.143 18.6344 185.651 17.9189 185.148 17.2254C184.648 16.5357 184.163 15.8958 183.691 15.3057C183.219 14.7155 182.806 14.1992 182.452 13.7566C181.823 13.8119 181.193 13.8396 180.564 13.8396H177.261V21.5851H175.255V2.77455C175.963 2.59013 176.793 2.45551 177.745 2.37068C178.7 2.28954 179.581 2.24896 180.387 2.24896C183.199 2.24896 185.317 2.74689 186.74 3.74274C188.168 4.73859 188.881 6.21392 188.881 8.16874ZM180.623 3.88105C179.876 3.88105 179.221 3.90318 178.659 3.94744C178.101 3.99539 177.635 4.03781 177.261 4.07469V12.2351H180.033C180.958 12.2351 181.833 12.1927 182.658 12.1079C183.484 12.0267 184.202 11.8423 184.811 11.5546C185.421 11.2706 185.903 10.8612 186.257 10.3264C186.61 9.79161 186.787 9.06316 186.787 8.14108C186.787 7.29276 186.61 6.59198 186.257 6.03873C185.903 5.48548 185.441 5.04657 184.87 4.72199C184.3 4.40111 183.645 4.17981 182.906 4.05809C182.171 3.94007 181.41 3.88105 180.623 3.88105ZM209.698 11.9862C209.698 13.6275 209.423 15.0567 208.872 16.2739C208.322 17.491 207.551 18.5053 206.56 19.3167C205.565 20.1282 204.379 20.7367 203.003 21.1425C201.627 21.5482 200.113 21.751 198.461 21.751C197.635 21.751 196.77 21.7105 195.866 21.6293C194.961 21.5445 194.165 21.4191 193.477 21.2531V2.77455C194.165 2.59013 194.961 2.45551 195.866 2.37068C196.77 2.28954 197.635 2.24896 198.461 2.24896C200.113 2.24896 201.627 2.45182 203.003 2.85754C204.379 3.26326 205.565 3.87183 206.56 4.68327C207.551 5.4947 208.322 6.50899 208.872 7.72614C209.423 8.94329 209.698 10.3633 209.698 11.9862ZM195.482 4.07469V19.9253C195.6 19.9438 195.901 19.9806 196.385 20.036C196.864 20.0913 197.635 20.1189 198.697 20.1189C200.172 20.1189 201.46 19.929 202.561 19.5491C203.662 19.1729 204.586 18.6344 205.333 17.9336C206.08 17.2328 206.641 16.379 207.014 15.3721C207.388 14.3688 207.575 13.2402 207.575 11.9862C207.575 10.7321 207.388 9.60719 207.014 8.61134C206.641 7.61549 206.08 6.76717 205.333 6.06639C204.586 5.36561 203.662 4.82527 202.561 4.44537C201.46 4.06916 200.172 3.88105 198.697 3.88105C197.635 3.88105 196.864 3.90871 196.385 3.96404C195.901 4.01936 195.6 4.05625 195.482 4.07469ZM214.181 21.5851V2.41494H216.187V21.5851H214.181ZM237.452 21.5851H235.24C234.866 20.6445 234.512 19.7409 234.178 18.8741C233.844 18.0074 233.519 17.1591 233.205 16.3292H223.265C222.931 17.1591 222.597 18.0074 222.262 18.8741C221.928 19.7409 221.584 20.6445 221.23 21.5851H219.136C219.923 19.5934 220.66 17.7344 221.348 16.0083C222.036 14.2858 222.709 12.6538 223.365 11.112C224.026 9.574 224.681 8.09497 225.33 6.67497C225.979 5.25496 226.667 3.83495 227.394 2.41494H229.164C229.891 3.83495 230.58 5.25496 231.228 6.67497C231.877 8.09497 232.53 9.574 233.187 11.112C233.848 12.6538 234.522 14.2858 235.21 16.0083C235.898 17.7344 236.645 19.5934 237.452 21.5851ZM228.22 4.57261C227.473 6.1586 226.749 7.77225 226.049 9.41356C225.353 11.0549 224.632 12.8253 223.885 14.7248H232.585C231.838 12.8253 231.111 11.0549 230.403 9.41356C229.695 7.77225 228.967 6.1586 228.22 4.57261ZM256.003 21.5851H254.322C253.948 20.9396 253.471 20.1835 252.889 19.3167C252.311 18.45 251.677 17.5224 250.989 16.5339C250.301 15.5491 249.574 14.5348 248.807 13.491C248.04 12.4509 247.277 11.4366 246.518 10.4481C245.763 9.46335 245.026 8.53758 244.306 7.67082C243.59 6.80406 242.947 6.05717 242.377 5.43015V21.5851H240.401V2.41494H241.994C242.996 3.46611 244.072 4.67773 245.22 6.04979C246.373 7.42554 247.499 8.82711 248.6 10.2545C249.701 11.6856 250.728 13.0834 251.679 14.4481C252.635 15.8128 253.418 17.0023 254.027 18.0166V2.41494H256.003V21.5851Z"/>
</mask>
<path d="M129.629 19.87V12.5118H131.634V21.0595C131.261 21.207 130.529 21.397 129.44 21.6293C128.347 21.858 127.004 21.9723 125.411 21.9723C124.074 21.9723 122.835 21.751 121.695 21.3084C120.555 20.8658 119.567 20.2241 118.734 19.3831C117.896 18.5459 117.241 17.5039 116.769 16.2573C116.298 15.0143 116.062 13.5906 116.062 11.9862C116.062 10.3817 116.317 8.9562 116.828 7.70954C117.34 6.46658 118.034 5.42462 118.911 4.58368C119.784 3.74643 120.8 3.1065 121.96 2.6639C123.12 2.2213 124.359 2 125.677 2C127.191 2 128.439 2.15122 129.422 2.45367C130.405 2.7598 131.123 3.05118 131.575 3.3278L130.897 4.93223C130.346 4.56339 129.599 4.26279 128.655 4.03043C127.712 3.80175 126.689 3.68742 125.588 3.68742C124.566 3.68742 123.602 3.86261 122.698 4.213C121.793 4.56339 121.007 5.08898 120.338 5.78977C119.67 6.49055 119.145 7.35731 118.763 8.39004C118.378 9.42278 118.185 10.6215 118.185 11.9862C118.185 13.2586 118.342 14.4057 118.657 15.4274C118.972 16.4527 119.449 17.3287 120.09 18.0553C120.728 18.7856 121.518 19.3444 122.462 19.7317C123.406 20.1189 124.497 20.3126 125.736 20.3126C126.738 20.3126 127.58 20.2609 128.26 20.1577C128.937 20.0581 129.393 19.9622 129.629 19.87ZM143.668 22C142.311 22 141.157 21.8064 140.205 21.4191C139.25 21.0318 138.477 20.497 137.887 19.8147C137.297 19.1323 136.87 18.3338 136.607 17.4191C136.34 16.5081 136.206 15.527 136.206 14.4758V2.41494H138.211V14.2268C138.211 15.278 138.345 16.1853 138.612 16.9488C138.876 17.716 139.244 18.3485 139.716 18.8465C140.187 19.3444 140.758 19.7132 141.426 19.953C142.095 20.1927 142.842 20.3126 143.668 20.3126C144.494 20.3126 145.241 20.1927 145.909 19.953C146.578 19.7132 147.148 19.3444 147.62 18.8465C148.092 18.3485 148.461 17.716 148.729 16.9488C148.992 16.1853 149.124 15.278 149.124 14.2268V2.41494H151.13V14.4758C151.13 15.527 150.998 16.5081 150.734 17.4191C150.467 18.3338 150.038 19.1323 149.448 19.8147C148.859 20.497 148.088 21.0318 147.136 21.4191C146.181 21.8064 145.024 22 143.668 22ZM172.306 21.5851H170.094C169.72 20.6445 169.367 19.7409 169.032 18.8741C168.698 18.0074 168.374 17.1591 168.059 16.3292H158.12C157.785 17.1591 157.451 18.0074 157.117 18.8741C156.783 19.7409 156.438 20.6445 156.085 21.5851H153.99C154.777 19.5934 155.514 17.7344 156.203 16.0083C156.891 14.2858 157.563 12.6538 158.22 11.112C158.881 9.574 159.535 8.09497 160.184 6.67497C160.833 5.25496 161.521 3.83495 162.249 2.41494H164.018C164.746 3.83495 165.434 5.25496 166.083 6.67497C166.732 8.09497 167.385 9.574 168.041 11.112C168.702 12.6538 169.376 14.2858 170.065 16.0083C170.753 17.7344 171.5 19.5934 172.306 21.5851ZM163.075 4.57261C162.327 6.1586 161.604 7.77225 160.904 9.41356C160.208 11.0549 159.486 12.8253 158.739 14.7248H167.44C166.692 12.8253 165.965 11.0549 165.257 9.41356C164.549 7.77225 163.822 6.1586 163.075 4.57261ZM188.881 8.16874C188.881 9.60719 188.478 10.7414 187.672 11.5712C186.866 12.4011 185.804 13.0005 184.487 13.3693C184.802 13.7381 185.209 14.2361 185.708 14.8631C186.211 15.4901 186.728 16.1761 187.259 16.9212C187.79 17.6699 188.311 18.45 188.822 19.2614C189.334 20.0728 189.766 20.8474 190.12 21.5851H187.967C187.554 20.8474 187.106 20.1097 186.622 19.3721C186.143 18.6344 185.651 17.9189 185.148 17.2254C184.648 16.5357 184.163 15.8958 183.691 15.3057C183.219 14.7155 182.806 14.1992 182.452 13.7566C181.823 13.8119 181.193 13.8396 180.564 13.8396H177.261V21.5851H175.255V2.77455C175.963 2.59013 176.793 2.45551 177.745 2.37068C178.7 2.28954 179.581 2.24896 180.387 2.24896C183.199 2.24896 185.317 2.74689 186.74 3.74274C188.168 4.73859 188.881 6.21392 188.881 8.16874ZM180.623 3.88105C179.876 3.88105 179.221 3.90318 178.659 3.94744C178.101 3.99539 177.635 4.03781 177.261 4.07469V12.2351H180.033C180.958 12.2351 181.833 12.1927 182.658 12.1079C183.484 12.0267 184.202 11.8423 184.811 11.5546C185.421 11.2706 185.903 10.8612 186.257 10.3264C186.61 9.79161 186.787 9.06316 186.787 8.14108C186.787 7.29276 186.61 6.59198 186.257 6.03873C185.903 5.48548 185.441 5.04657 184.87 4.72199C184.3 4.40111 183.645 4.17981 182.906 4.05809C182.171 3.94007 181.41 3.88105 180.623 3.88105ZM209.698 11.9862C209.698 13.6275 209.423 15.0567 208.872 16.2739C208.322 17.491 207.551 18.5053 206.56 19.3167C205.565 20.1282 204.379 20.7367 203.003 21.1425C201.627 21.5482 200.113 21.751 198.461 21.751C197.635 21.751 196.77 21.7105 195.866 21.6293C194.961 21.5445 194.165 21.4191 193.477 21.2531V2.77455C194.165 2.59013 194.961 2.45551 195.866 2.37068C196.77 2.28954 197.635 2.24896 198.461 2.24896C200.113 2.24896 201.627 2.45182 203.003 2.85754C204.379 3.26326 205.565 3.87183 206.56 4.68327C207.551 5.4947 208.322 6.50899 208.872 7.72614C209.423 8.94329 209.698 10.3633 209.698 11.9862ZM195.482 4.07469V19.9253C195.6 19.9438 195.901 19.9806 196.385 20.036C196.864 20.0913 197.635 20.1189 198.697 20.1189C200.172 20.1189 201.46 19.929 202.561 19.5491C203.662 19.1729 204.586 18.6344 205.333 17.9336C206.08 17.2328 206.641 16.379 207.014 15.3721C207.388 14.3688 207.575 13.2402 207.575 11.9862C207.575 10.7321 207.388 9.60719 207.014 8.61134C206.641 7.61549 206.08 6.76717 205.333 6.06639C204.586 5.36561 203.662 4.82527 202.561 4.44537C201.46 4.06916 200.172 3.88105 198.697 3.88105C197.635 3.88105 196.864 3.90871 196.385 3.96404C195.901 4.01936 195.6 4.05625 195.482 4.07469ZM214.181 21.5851V2.41494H216.187V21.5851H214.181ZM237.452 21.5851H235.24C234.866 20.6445 234.512 19.7409 234.178 18.8741C233.844 18.0074 233.519 17.1591 233.205 16.3292H223.265C222.931 17.1591 222.597 18.0074 222.262 18.8741C221.928 19.7409 221.584 20.6445 221.23 21.5851H219.136C219.923 19.5934 220.66 17.7344 221.348 16.0083C222.036 14.2858 222.709 12.6538 223.365 11.112C224.026 9.574 224.681 8.09497 225.33 6.67497C225.979 5.25496 226.667 3.83495 227.394 2.41494H229.164C229.891 3.83495 230.58 5.25496 231.228 6.67497C231.877 8.09497 232.53 9.574 233.187 11.112C233.848 12.6538 234.522 14.2858 235.21 16.0083C235.898 17.7344 236.645 19.5934 237.452 21.5851ZM228.22 4.57261C227.473 6.1586 226.749 7.77225 226.049 9.41356C225.353 11.0549 224.632 12.8253 223.885 14.7248H232.585C231.838 12.8253 231.111 11.0549 230.403 9.41356C229.695 7.77225 228.967 6.1586 228.22 4.57261ZM256.003 21.5851H254.322C253.948 20.9396 253.471 20.1835 252.889 19.3167C252.311 18.45 251.677 17.5224 250.989 16.5339C250.301 15.5491 249.574 14.5348 248.807 13.491C248.04 12.4509 247.277 11.4366 246.518 10.4481C245.763 9.46335 245.026 8.53758 244.306 7.67082C243.59 6.80406 242.947 6.05717 242.377 5.43015V21.5851H240.401V2.41494H241.994C242.996 3.46611 244.072 4.67773 245.22 6.04979C246.373 7.42554 247.499 8.82711 248.6 10.2545C249.701 11.6856 250.728 13.0834 251.679 14.4481C252.635 15.8128 253.418 17.0023 254.027 18.0166V2.41494H256.003V21.5851Z" fill="white" stroke="black" stroke-width="2" mask="url(#path-2-inside-2_113_348)"/>
</g>
<defs>
<filter id="filter0_d_113_348" x="0" y="0" width="260.003" height="32" filterUnits="userSpaceOnUse" color-interpolation-filters="sRGB">
<feFlood flood-opacity="0" result="BackgroundImageFix"/>
<feColorMatrix in="SourceAlpha" type="matrix" values="0 0 0 0 0 0 0 0 0 0 0 0 0 0 0 0 0 0 127 0" result="hardAlpha"/>
<feOffset dy="4"/>
<feGaussianBlur stdDeviation="2"/>
<feComposite in2="hardAlpha" operator="out"/>
<feColorMatrix type="matrix" values="0 0 0 0 0 0 0 0 0 0 0 0 0 0 0 0 0 0 0.25 0"/>
<feBlend mode="normal" in2="BackgroundImageFix" result="effect1_dropShadow_113_348"/>
<feBlend mode="normal" in="SourceGraphic" in2="effect1_dropShadow_113_348" result="shape"/>
</filter>
</defs>
</svg>
