<svg width="1363" height="163" viewBox="0 0 1363 163" fill="none" xmlns="http://www.w3.org/2000/svg">
<path d="M0 15C0 6.71573 6.71573 0 15 0H37V163H15C6.71573 163 0 156.284 0 148V15Z" fill="#424242"/>
<rect width="1097" height="163" transform="translate(37)" fill="#F0F0F0"/>
<path d="M101.906 53.9219L94.3945 51.2383V48.0859L104.602 52.375V54.6367L101.906 53.9219ZM94.3945 56.1719L101.918 53.4297L104.602 52.7852V55.0352L94.3945 59.3242V56.1719ZM116.414 43.9375V61H112.898V43.9375H116.414ZM123.211 51.2266V53.9688H115.453V51.2266H123.211ZM124.031 43.9375V46.6914H115.453V43.9375H124.031ZM125.062 54.7891V54.543C125.062 53.6133 125.195 52.7578 125.461 51.9766C125.727 51.1875 126.113 50.5039 126.621 49.9258C127.129 49.3477 127.754 48.8984 128.496 48.5781C129.238 48.25 130.09 48.0859 131.051 48.0859C132.012 48.0859 132.867 48.25 133.617 48.5781C134.367 48.8984 134.996 49.3477 135.504 49.9258C136.02 50.5039 136.41 51.1875 136.676 51.9766C136.941 52.7578 137.074 53.6133 137.074 54.543V54.7891C137.074 55.7109 136.941 56.5664 136.676 57.3555C136.41 58.1367 136.02 58.8203 135.504 59.4062C134.996 59.9844 134.371 60.4336 133.629 60.7539C132.887 61.0742 132.035 61.2344 131.074 61.2344C130.113 61.2344 129.258 61.0742 128.508 60.7539C127.766 60.4336 127.137 59.9844 126.621 59.4062C126.113 58.8203 125.727 58.1367 125.461 57.3555C125.195 56.5664 125.062 55.7109 125.062 54.7891ZM128.438 54.543V54.7891C128.438 55.3203 128.484 55.8164 128.578 56.2773C128.672 56.7383 128.82 57.1445 129.023 57.4961C129.234 57.8398 129.508 58.1094 129.844 58.3047C130.18 58.5 130.59 58.5977 131.074 58.5977C131.543 58.5977 131.945 58.5 132.281 58.3047C132.617 58.1094 132.887 57.8398 133.09 57.4961C133.293 57.1445 133.441 56.7383 133.535 56.2773C133.637 55.8164 133.688 55.3203 133.688 54.7891V54.543C133.688 54.0273 133.637 53.543 133.535 53.0898C133.441 52.6289 133.289 52.2227 133.078 51.8711C132.875 51.5117 132.605 51.2305 132.27 51.0273C131.934 50.8242 131.527 50.7227 131.051 50.7227C130.574 50.7227 130.168 50.8242 129.832 51.0273C129.504 51.2305 129.234 51.5117 129.023 51.8711C128.82 52.2227 128.672 52.6289 128.578 53.0898C128.484 53.543 128.438 54.0273 128.438 54.543ZM142.523 51.0859V61H139.148V48.3203H142.324L142.523 51.0859ZM146.344 48.2383L146.285 51.3672C146.121 51.3438 145.922 51.3242 145.688 51.3086C145.461 51.2852 145.254 51.2734 145.066 51.2734C144.59 51.2734 144.176 51.3359 143.824 51.4609C143.48 51.5781 143.191 51.7539 142.957 51.9883C142.73 52.2227 142.559 52.5078 142.441 52.8438C142.332 53.1797 142.27 53.5625 142.254 53.9922L141.574 53.7812C141.574 52.9609 141.656 52.207 141.82 51.5195C141.984 50.8242 142.223 50.2188 142.535 49.7031C142.855 49.1875 143.246 48.7891 143.707 48.5078C144.168 48.2266 144.695 48.0859 145.289 48.0859C145.477 48.0859 145.668 48.1016 145.863 48.1328C146.059 48.1562 146.219 48.1914 146.344 48.2383ZM153.539 61.2344C152.555 61.2344 151.672 61.0781 150.891 60.7656C150.109 60.4453 149.445 60.0039 148.898 59.4414C148.359 58.8789 147.945 58.2266 147.656 57.4844C147.367 56.7344 147.223 55.9375 147.223 55.0938V54.625C147.223 53.6641 147.359 52.7852 147.633 51.9883C147.906 51.1914 148.297 50.5 148.805 49.9141C149.32 49.3281 149.945 48.8789 150.68 48.5664C151.414 48.2461 152.242 48.0859 153.164 48.0859C154.062 48.0859 154.859 48.2344 155.555 48.5312C156.25 48.8281 156.832 49.25 157.301 49.7969C157.777 50.3438 158.137 51 158.379 51.7656C158.621 52.5234 158.742 53.3672 158.742 54.2969V55.7031H148.664V53.4531H155.426V53.1953C155.426 52.7266 155.34 52.3086 155.168 51.9414C155.004 51.5664 154.754 51.2695 154.418 51.0508C154.082 50.832 153.652 50.7227 153.129 50.7227C152.684 50.7227 152.301 50.8203 151.98 51.0156C151.66 51.2109 151.398 51.4844 151.195 51.8359C151 52.1875 150.852 52.6016 150.75 53.0781C150.656 53.5469 150.609 54.0625 150.609 54.625V55.0938C150.609 55.6016 150.68 56.0703 150.82 56.5C150.969 56.9297 151.176 57.3008 151.441 57.6133C151.715 57.9258 152.043 58.168 152.426 58.3398C152.816 58.5117 153.258 58.5977 153.75 58.5977C154.359 58.5977 154.926 58.4805 155.449 58.2461C155.98 58.0039 156.438 57.6406 156.82 57.1562L158.461 58.9375C158.195 59.3203 157.832 59.6875 157.371 60.0391C156.918 60.3906 156.371 60.6797 155.73 60.9062C155.09 61.125 154.359 61.2344 153.539 61.2344ZM167.52 57.4961C167.52 57.2539 167.449 57.0352 167.309 56.8398C167.168 56.6445 166.906 56.4648 166.523 56.3008C166.148 56.1289 165.605 55.9727 164.895 55.832C164.254 55.6914 163.656 55.5156 163.102 55.3047C162.555 55.0859 162.078 54.8242 161.672 54.5195C161.273 54.2148 160.961 53.8555 160.734 53.4414C160.508 53.0195 160.395 52.5391 160.395 52C160.395 51.4688 160.508 50.9688 160.734 50.5C160.969 50.0312 161.301 49.6172 161.73 49.2578C162.168 48.8906 162.699 48.6055 163.324 48.4023C163.957 48.1914 164.668 48.0859 165.457 48.0859C166.559 48.0859 167.504 48.2617 168.293 48.6133C169.09 48.9648 169.699 49.4492 170.121 50.0664C170.551 50.6758 170.766 51.3711 170.766 52.1523H167.391C167.391 51.8242 167.32 51.5312 167.18 51.2734C167.047 51.0078 166.836 50.8008 166.547 50.6523C166.266 50.4961 165.898 50.418 165.445 50.418C165.07 50.418 164.746 50.4844 164.473 50.6172C164.199 50.7422 163.988 50.9141 163.84 51.1328C163.699 51.3438 163.629 51.5781 163.629 51.8359C163.629 52.0312 163.668 52.207 163.746 52.3633C163.832 52.5117 163.969 52.6484 164.156 52.7734C164.344 52.8984 164.586 53.0156 164.883 53.125C165.188 53.2266 165.562 53.3203 166.008 53.4062C166.922 53.5938 167.738 53.8398 168.457 54.1445C169.176 54.4414 169.746 54.8477 170.168 55.3633C170.59 55.8711 170.801 56.5391 170.801 57.3672C170.801 57.9297 170.676 58.4453 170.426 58.9141C170.176 59.3828 169.816 59.793 169.348 60.1445C168.879 60.4883 168.316 60.7578 167.66 60.9531C167.012 61.1406 166.281 61.2344 165.469 61.2344C164.289 61.2344 163.289 61.0234 162.469 60.6016C161.656 60.1797 161.039 59.6445 160.617 58.9961C160.203 58.3398 159.996 57.668 159.996 56.9805H163.195C163.211 57.4414 163.328 57.8125 163.547 58.0938C163.773 58.375 164.059 58.5781 164.402 58.7031C164.754 58.8281 165.133 58.8906 165.539 58.8906C165.977 58.8906 166.34 58.832 166.629 58.7148C166.918 58.5898 167.137 58.4258 167.285 58.2227C167.441 58.0117 167.52 57.7695 167.52 57.4961ZM179.203 48.3203V50.7109H171.82V48.3203H179.203ZM173.648 45.1914H177.023V57.1797C177.023 57.5469 177.07 57.8281 177.164 58.0234C177.266 58.2188 177.414 58.3555 177.609 58.4336C177.805 58.5039 178.051 58.5391 178.348 58.5391C178.559 58.5391 178.746 58.5312 178.91 58.5156C179.082 58.4922 179.227 58.4688 179.344 58.4453L179.355 60.9297C179.066 61.0234 178.754 61.0977 178.418 61.1523C178.082 61.207 177.711 61.2344 177.305 61.2344C176.562 61.2344 175.914 61.1133 175.359 60.8711C174.812 60.6211 174.391 60.2227 174.094 59.6758C173.797 59.1289 173.648 58.4102 173.648 57.5195V45.1914ZM200.836 52.082V58.8438C200.57 59.1641 200.16 59.5117 199.605 59.8867C199.051 60.2539 198.336 60.5703 197.461 60.8359C196.586 61.1016 195.527 61.2344 194.285 61.2344C193.184 61.2344 192.18 61.0547 191.273 60.6953C190.367 60.3281 189.586 59.793 188.93 59.0898C188.281 58.3867 187.781 57.5273 187.43 56.5117C187.078 55.4883 186.902 54.3203 186.902 53.0078V51.9414C186.902 50.6289 187.07 49.4609 187.406 48.4375C187.75 47.4141 188.238 46.5508 188.871 45.8477C189.504 45.1445 190.258 44.6094 191.133 44.2422C192.008 43.875 192.98 43.6914 194.051 43.6914C195.535 43.6914 196.754 43.9336 197.707 44.418C198.66 44.8945 199.387 45.5586 199.887 46.4102C200.395 47.2539 200.707 48.2227 200.824 49.3164H197.414C197.328 48.7383 197.164 48.2344 196.922 47.8047C196.68 47.375 196.332 47.0391 195.879 46.7969C195.434 46.5547 194.855 46.4336 194.145 46.4336C193.559 46.4336 193.035 46.5547 192.574 46.7969C192.121 47.0312 191.738 47.3789 191.426 47.8398C191.113 48.3008 190.875 48.8711 190.711 49.5508C190.547 50.2305 190.465 51.0195 190.465 51.918V53.0078C190.465 53.8984 190.551 54.6875 190.723 55.375C190.895 56.0547 191.148 56.6289 191.484 57.0977C191.828 57.5586 192.25 57.9062 192.75 58.1406C193.25 58.375 193.832 58.4922 194.496 58.4922C195.051 58.4922 195.512 58.4453 195.879 58.3516C196.254 58.2578 196.555 58.1445 196.781 58.0117C197.016 57.8711 197.195 57.7383 197.32 57.6133V54.5898H194.109V52.082H200.836ZM210.961 57.9648V48.3203H214.336V61H211.16L210.961 57.9648ZM211.336 55.3633L212.332 55.3398C212.332 56.1836 212.234 56.9688 212.039 57.6953C211.844 58.4141 211.551 59.0391 211.16 59.5703C210.77 60.0938 210.277 60.5039 209.684 60.8008C209.09 61.0898 208.391 61.2344 207.586 61.2344C206.969 61.2344 206.398 61.1484 205.875 60.9766C205.359 60.7969 204.914 60.5195 204.539 60.1445C204.172 59.7617 203.883 59.2734 203.672 58.6797C203.469 58.0781 203.367 57.3555 203.367 56.5117V48.3203H206.742V56.5352C206.742 56.9102 206.785 57.2266 206.871 57.4844C206.965 57.7422 207.094 57.9531 207.258 58.1172C207.422 58.2812 207.613 58.3984 207.832 58.4688C208.059 58.5391 208.309 58.5742 208.582 58.5742C209.277 58.5742 209.824 58.4336 210.223 58.1523C210.629 57.8711 210.914 57.4883 211.078 57.0039C211.25 56.5117 211.336 55.9648 211.336 55.3633ZM223.758 58.1406V52.4922C223.758 52.0859 223.691 51.7383 223.559 51.4492C223.426 51.1523 223.219 50.9219 222.938 50.7578C222.664 50.5938 222.309 50.5117 221.871 50.5117C221.496 50.5117 221.172 50.5781 220.898 50.7109C220.625 50.8359 220.414 51.0195 220.266 51.2617C220.117 51.4961 220.043 51.7734 220.043 52.0938H216.668C216.668 51.5547 216.793 51.043 217.043 50.5586C217.293 50.0742 217.656 49.6484 218.133 49.2812C218.609 48.9062 219.176 48.6133 219.832 48.4023C220.496 48.1914 221.238 48.0859 222.059 48.0859C223.043 48.0859 223.918 48.25 224.684 48.5781C225.449 48.9062 226.051 49.3984 226.488 50.0547C226.934 50.7109 227.156 51.5312 227.156 52.5156V57.9414C227.156 58.6367 227.199 59.207 227.285 59.6523C227.371 60.0898 227.496 60.4727 227.66 60.8008V61H224.25C224.086 60.6562 223.961 60.2266 223.875 59.7109C223.797 59.1875 223.758 58.6641 223.758 58.1406ZM224.203 53.2773L224.227 55.1875H222.34C221.895 55.1875 221.508 55.2383 221.18 55.3398C220.852 55.4414 220.582 55.5859 220.371 55.7734C220.16 55.9531 220.004 56.1641 219.902 56.4062C219.809 56.6484 219.762 56.9141 219.762 57.2031C219.762 57.4922 219.828 57.7539 219.961 57.9883C220.094 58.2148 220.285 58.3945 220.535 58.5273C220.785 58.6523 221.078 58.7148 221.414 58.7148C221.922 58.7148 222.363 58.6133 222.738 58.4102C223.113 58.207 223.402 57.957 223.605 57.6602C223.816 57.3633 223.926 57.082 223.934 56.8164L224.824 58.2461C224.699 58.5664 224.527 58.8984 224.309 59.2422C224.098 59.5859 223.828 59.9102 223.5 60.2148C223.172 60.5117 222.777 60.7578 222.316 60.9531C221.855 61.1406 221.309 61.2344 220.676 61.2344C219.871 61.2344 219.141 61.0742 218.484 60.7539C217.836 60.4258 217.32 59.9766 216.938 59.4062C216.562 58.8281 216.375 58.1719 216.375 57.4375C216.375 56.7734 216.5 56.1836 216.75 55.668C217 55.1523 217.367 54.7188 217.852 54.3672C218.344 54.0078 218.957 53.7383 219.691 53.5586C220.426 53.3711 221.277 53.2773 222.246 53.2773H224.203ZM233.133 51.0859V61H229.758V48.3203H232.934L233.133 51.0859ZM236.953 48.2383L236.895 51.3672C236.73 51.3438 236.531 51.3242 236.297 51.3086C236.07 51.2852 235.863 51.2734 235.676 51.2734C235.199 51.2734 234.785 51.3359 234.434 51.4609C234.09 51.5781 233.801 51.7539 233.566 51.9883C233.34 52.2227 233.168 52.5078 233.051 52.8438C232.941 53.1797 232.879 53.5625 232.863 53.9922L232.184 53.7812C232.184 52.9609 232.266 52.207 232.43 51.5195C232.594 50.8242 232.832 50.2188 233.145 49.7031C233.465 49.1875 233.855 48.7891 234.316 48.5078C234.777 48.2266 235.305 48.0859 235.898 48.0859C236.086 48.0859 236.277 48.1016 236.473 48.1328C236.668 48.1562 236.828 48.1914 236.953 48.2383ZM245.801 58.2344V43H249.199V61H246.141L245.801 58.2344ZM237.785 54.8125V54.5664C237.785 53.5977 237.895 52.7188 238.113 51.9297C238.332 51.1328 238.652 50.4492 239.074 49.8789C239.496 49.3086 240.016 48.8672 240.633 48.5547C241.25 48.2422 241.953 48.0859 242.742 48.0859C243.484 48.0859 244.133 48.2422 244.688 48.5547C245.25 48.8672 245.727 49.3125 246.117 49.8906C246.516 50.4609 246.836 51.1367 247.078 51.918C247.32 52.6914 247.496 53.5391 247.605 54.4609V55C247.496 55.8828 247.32 56.7031 247.078 57.4609C246.836 58.2188 246.516 58.8828 246.117 59.4531C245.727 60.0156 245.25 60.4531 244.688 60.7656C244.125 61.0781 243.469 61.2344 242.719 61.2344C241.93 61.2344 241.227 61.0742 240.609 60.7539C240 60.4336 239.484 59.9844 239.062 59.4062C238.648 58.8281 238.332 58.1484 238.113 57.3672C237.895 56.5859 237.785 55.7344 237.785 54.8125ZM241.16 54.5664V54.8125C241.16 55.3359 241.199 55.8242 241.277 56.2773C241.363 56.7305 241.5 57.1328 241.688 57.4844C241.883 57.8281 242.133 58.0977 242.438 58.293C242.75 58.4805 243.129 58.5742 243.574 58.5742C244.152 58.5742 244.629 58.4453 245.004 58.1875C245.379 57.9219 245.664 57.5586 245.859 57.0977C246.062 56.6367 246.18 56.1055 246.211 55.5039V53.9688C246.188 53.4766 246.117 53.0352 246 52.6445C245.891 52.2461 245.727 51.9062 245.508 51.625C245.297 51.3438 245.031 51.125 244.711 50.9688C244.398 50.8125 244.027 50.7344 243.598 50.7344C243.16 50.7344 242.785 50.8359 242.473 51.0391C242.16 51.2344 241.906 51.5039 241.711 51.8477C241.523 52.1914 241.383 52.5977 241.289 53.0664C241.203 53.5273 241.16 54.0273 241.16 54.5664ZM255.398 48.3203V61H252.012V48.3203H255.398ZM251.801 45.0156C251.801 44.5234 251.973 44.1172 252.316 43.7969C252.66 43.4766 253.121 43.3164 253.699 43.3164C254.27 43.3164 254.727 43.4766 255.07 43.7969C255.422 44.1172 255.598 44.5234 255.598 45.0156C255.598 45.5078 255.422 45.9141 255.07 46.2344C254.727 46.5547 254.27 46.7148 253.699 46.7148C253.121 46.7148 252.66 46.5547 252.316 46.2344C251.973 45.9141 251.801 45.5078 251.801 45.0156ZM265.031 58.1406V52.4922C265.031 52.0859 264.965 51.7383 264.832 51.4492C264.699 51.1523 264.492 50.9219 264.211 50.7578C263.938 50.5938 263.582 50.5117 263.145 50.5117C262.77 50.5117 262.445 50.5781 262.172 50.7109C261.898 50.8359 261.688 51.0195 261.539 51.2617C261.391 51.4961 261.316 51.7734 261.316 52.0938H257.941C257.941 51.5547 258.066 51.043 258.316 50.5586C258.566 50.0742 258.93 49.6484 259.406 49.2812C259.883 48.9062 260.449 48.6133 261.105 48.4023C261.77 48.1914 262.512 48.0859 263.332 48.0859C264.316 48.0859 265.191 48.25 265.957 48.5781C266.723 48.9062 267.324 49.3984 267.762 50.0547C268.207 50.7109 268.43 51.5312 268.43 52.5156V57.9414C268.43 58.6367 268.473 59.207 268.559 59.6523C268.645 60.0898 268.77 60.4727 268.934 60.8008V61H265.523C265.359 60.6562 265.234 60.2266 265.148 59.7109C265.07 59.1875 265.031 58.6641 265.031 58.1406ZM265.477 53.2773L265.5 55.1875H263.613C263.168 55.1875 262.781 55.2383 262.453 55.3398C262.125 55.4414 261.855 55.5859 261.645 55.7734C261.434 55.9531 261.277 56.1641 261.176 56.4062C261.082 56.6484 261.035 56.9141 261.035 57.2031C261.035 57.4922 261.102 57.7539 261.234 57.9883C261.367 58.2148 261.559 58.3945 261.809 58.5273C262.059 58.6523 262.352 58.7148 262.688 58.7148C263.195 58.7148 263.637 58.6133 264.012 58.4102C264.387 58.207 264.676 57.957 264.879 57.6602C265.09 57.3633 265.199 57.082 265.207 56.8164L266.098 58.2461C265.973 58.5664 265.801 58.8984 265.582 59.2422C265.371 59.5859 265.102 59.9102 264.773 60.2148C264.445 60.5117 264.051 60.7578 263.59 60.9531C263.129 61.1406 262.582 61.2344 261.949 61.2344C261.145 61.2344 260.414 61.0742 259.758 60.7539C259.109 60.4258 258.594 59.9766 258.211 59.4062C257.836 58.8281 257.648 58.1719 257.648 57.4375C257.648 56.7734 257.773 56.1836 258.023 55.668C258.273 55.1523 258.641 54.7188 259.125 54.3672C259.617 54.0078 260.23 53.7383 260.965 53.5586C261.699 53.3711 262.551 53.2773 263.52 53.2773H265.477ZM274.336 51.0273V61H270.961V48.3203H274.125L274.336 51.0273ZM273.844 54.2148H272.93C272.93 53.2773 273.051 52.4336 273.293 51.6836C273.535 50.9258 273.875 50.2812 274.312 49.75C274.75 49.2109 275.27 48.8008 275.871 48.5195C276.48 48.2305 277.16 48.0859 277.91 48.0859C278.504 48.0859 279.047 48.1719 279.539 48.3438C280.031 48.5156 280.453 48.7891 280.805 49.1641C281.164 49.5391 281.438 50.0352 281.625 50.6523C281.82 51.2695 281.918 52.0234 281.918 52.9141V61H278.52V52.9023C278.52 52.3398 278.441 51.9023 278.285 51.5898C278.129 51.2773 277.898 51.0586 277.594 50.9336C277.297 50.8008 276.93 50.7344 276.492 50.7344C276.039 50.7344 275.645 50.8242 275.309 51.0039C274.98 51.1836 274.707 51.4336 274.488 51.7539C274.277 52.0664 274.117 52.4336 274.008 52.8555C273.898 53.2773 273.844 53.7305 273.844 54.2148Z" fill="#888888"/>
<path d="M104.344 84.875V119H96.1406V84.875H104.344ZM117.727 99.0078V119H109.828V93.6406H117.234L117.727 99.0078ZM116.766 105.453L114.961 105.5C114.961 103.719 115.172 102.078 115.594 100.578C116.016 99.0781 116.641 97.7734 117.469 96.6641C118.297 95.5547 119.312 94.6953 120.516 94.0859C121.734 93.4766 123.141 93.1719 124.734 93.1719C125.844 93.1719 126.852 93.3438 127.758 93.6875C128.664 94.0156 129.445 94.5391 130.102 95.2578C130.758 95.9609 131.258 96.8828 131.602 98.0234C131.961 99.1484 132.141 100.5 132.141 102.078V119H124.242V103.086C124.242 102.008 124.117 101.195 123.867 100.648C123.633 100.102 123.289 99.7344 122.836 99.5469C122.383 99.3594 121.828 99.2656 121.172 99.2656C120.484 99.2656 119.867 99.4219 119.32 99.7344C118.773 100.047 118.305 100.484 117.914 101.047C117.539 101.594 117.25 102.242 117.047 102.992C116.859 103.742 116.766 104.562 116.766 105.453ZM131.25 105.453L129.047 105.5C129.047 103.719 129.242 102.078 129.633 100.578C130.039 99.0781 130.641 97.7734 131.438 96.6641C132.25 95.5547 133.258 94.6953 134.461 94.0859C135.664 93.4766 137.062 93.1719 138.656 93.1719C139.812 93.1719 140.875 93.3438 141.844 93.6875C142.812 94.0312 143.648 94.5859 144.352 95.3516C145.055 96.1172 145.602 97.1328 145.992 98.3984C146.383 99.6484 146.578 101.195 146.578 103.039V119H138.656V103.039C138.656 101.992 138.531 101.203 138.281 100.672C138.047 100.125 137.703 99.7578 137.25 99.5703C136.797 99.3672 136.258 99.2656 135.633 99.2656C134.883 99.2656 134.234 99.4219 133.688 99.7344C133.141 100.047 132.68 100.484 132.305 101.047C131.945 101.594 131.68 102.242 131.508 102.992C131.336 103.742 131.25 104.562 131.25 105.453ZM159.07 98.5156V128.75H151.172V93.6406H158.531L159.07 98.5156ZM174.633 106.016V106.508C174.633 108.352 174.422 110.062 174 111.641C173.578 113.219 172.953 114.594 172.125 115.766C171.297 116.938 170.266 117.852 169.031 118.508C167.812 119.148 166.398 119.469 164.789 119.469C163.273 119.469 161.969 119.133 160.875 118.461C159.781 117.789 158.867 116.859 158.133 115.672C157.398 114.484 156.805 113.125 156.352 111.594C155.898 110.062 155.539 108.445 155.273 106.742V106.109C155.539 104.281 155.898 102.586 156.352 101.023C156.805 99.4453 157.398 98.0703 158.133 96.8984C158.867 95.7266 159.773 94.8125 160.852 94.1562C161.945 93.5 163.25 93.1719 164.766 93.1719C166.375 93.1719 167.789 93.4766 169.008 94.0859C170.242 94.6953 171.273 95.5703 172.102 96.7109C172.945 97.8359 173.578 99.1875 174 100.766C174.422 102.344 174.633 104.094 174.633 106.016ZM166.734 106.508V106.016C166.734 105.031 166.664 104.133 166.523 103.32C166.383 102.492 166.156 101.773 165.844 101.164C165.547 100.555 165.148 100.086 164.648 99.7578C164.148 99.4297 163.531 99.2656 162.797 99.2656C161.953 99.2656 161.242 99.3984 160.664 99.6641C160.102 99.9141 159.648 100.305 159.305 100.836C158.977 101.352 158.742 102 158.602 102.781C158.477 103.547 158.422 104.445 158.438 105.477V107.398C158.406 108.586 158.523 109.633 158.789 110.539C159.055 111.43 159.516 112.125 160.172 112.625C160.828 113.125 161.719 113.375 162.844 113.375C163.594 113.375 164.219 113.203 164.719 112.859C165.219 112.5 165.617 112.008 165.914 111.383C166.211 110.742 166.422 110.008 166.547 109.18C166.672 108.352 166.734 107.461 166.734 106.508ZM186.492 83V119H178.57V83H186.492ZM203.648 119.469C201.586 119.469 199.742 119.148 198.117 118.508C196.492 117.852 195.117 116.953 193.992 115.812C192.883 114.672 192.031 113.359 191.438 111.875C190.859 110.391 190.57 108.82 190.57 107.164V106.273C190.57 104.414 190.828 102.695 191.344 101.117C191.859 99.5234 192.625 98.1328 193.641 96.9453C194.656 95.7578 195.93 94.8359 197.461 94.1797C198.992 93.5078 200.773 93.1719 202.805 93.1719C204.602 93.1719 206.211 93.4609 207.633 94.0391C209.055 94.6172 210.258 95.4453 211.242 96.5234C212.242 97.6016 213 98.9062 213.516 100.438C214.047 101.969 214.312 103.688 214.312 105.594V108.805H193.594V103.859H206.602V103.25C206.617 102.406 206.469 101.688 206.156 101.094C205.859 100.5 205.422 100.047 204.844 99.7344C204.266 99.4219 203.562 99.2656 202.734 99.2656C201.875 99.2656 201.164 99.4531 200.602 99.8281C200.055 100.203 199.625 100.719 199.312 101.375C199.016 102.016 198.805 102.758 198.68 103.602C198.555 104.445 198.492 105.336 198.492 106.273V107.164C198.492 108.102 198.617 108.953 198.867 109.719C199.133 110.484 199.508 111.141 199.992 111.688C200.492 112.219 201.086 112.633 201.773 112.93C202.477 113.227 203.273 113.375 204.164 113.375C205.242 113.375 206.305 113.172 207.352 112.766C208.398 112.359 209.297 111.688 210.047 110.75L213.633 115.016C213.117 115.75 212.383 116.461 211.43 117.148C210.492 117.836 209.367 118.398 208.055 118.836C206.742 119.258 205.273 119.469 203.648 119.469ZM225.492 99.0078V119H217.594V93.6406H225L225.492 99.0078ZM224.531 105.453L222.727 105.5C222.727 103.719 222.938 102.078 223.359 100.578C223.781 99.0781 224.406 97.7734 225.234 96.6641C226.062 95.5547 227.078 94.6953 228.281 94.0859C229.5 93.4766 230.906 93.1719 232.5 93.1719C233.609 93.1719 234.617 93.3438 235.523 93.6875C236.43 94.0156 237.211 94.5391 237.867 95.2578C238.523 95.9609 239.023 96.8828 239.367 98.0234C239.727 99.1484 239.906 100.5 239.906 102.078V119H232.008V103.086C232.008 102.008 231.883 101.195 231.633 100.648C231.398 100.102 231.055 99.7344 230.602 99.5469C230.148 99.3594 229.594 99.2656 228.938 99.2656C228.25 99.2656 227.633 99.4219 227.086 99.7344C226.539 100.047 226.07 100.484 225.68 101.047C225.305 101.594 225.016 102.242 224.812 102.992C224.625 103.742 224.531 104.562 224.531 105.453ZM239.016 105.453L236.812 105.5C236.812 103.719 237.008 102.078 237.398 100.578C237.805 99.0781 238.406 97.7734 239.203 96.6641C240.016 95.5547 241.023 94.6953 242.227 94.0859C243.43 93.4766 244.828 93.1719 246.422 93.1719C247.578 93.1719 248.641 93.3438 249.609 93.6875C250.578 94.0312 251.414 94.5859 252.117 95.3516C252.82 96.1172 253.367 97.1328 253.758 98.3984C254.148 99.6484 254.344 101.195 254.344 103.039V119H246.422V103.039C246.422 101.992 246.297 101.203 246.047 100.672C245.812 100.125 245.469 99.7578 245.016 99.5703C244.562 99.3672 244.023 99.2656 243.398 99.2656C242.648 99.2656 242 99.4219 241.453 99.7344C240.906 100.047 240.445 100.484 240.07 101.047C239.711 101.594 239.445 102.242 239.273 102.992C239.102 103.742 239.016 104.562 239.016 105.453ZM271.148 119.469C269.086 119.469 267.242 119.148 265.617 118.508C263.992 117.852 262.617 116.953 261.492 115.812C260.383 114.672 259.531 113.359 258.938 111.875C258.359 110.391 258.07 108.82 258.07 107.164V106.273C258.07 104.414 258.328 102.695 258.844 101.117C259.359 99.5234 260.125 98.1328 261.141 96.9453C262.156 95.7578 263.43 94.8359 264.961 94.1797C266.492 93.5078 268.273 93.1719 270.305 93.1719C272.102 93.1719 273.711 93.4609 275.133 94.0391C276.555 94.6172 277.758 95.4453 278.742 96.5234C279.742 97.6016 280.5 98.9062 281.016 100.438C281.547 101.969 281.812 103.688 281.812 105.594V108.805H261.094V103.859H274.102V103.25C274.117 102.406 273.969 101.688 273.656 101.094C273.359 100.5 272.922 100.047 272.344 99.7344C271.766 99.4219 271.062 99.2656 270.234 99.2656C269.375 99.2656 268.664 99.4531 268.102 99.8281C267.555 100.203 267.125 100.719 266.812 101.375C266.516 102.016 266.305 102.758 266.18 103.602C266.055 104.445 265.992 105.336 265.992 106.273V107.164C265.992 108.102 266.117 108.953 266.367 109.719C266.633 110.484 267.008 111.141 267.492 111.688C267.992 112.219 268.586 112.633 269.273 112.93C269.977 113.227 270.773 113.375 271.664 113.375C272.742 113.375 273.805 113.172 274.852 112.766C275.898 112.359 276.797 111.688 277.547 110.75L281.133 115.016C280.617 115.75 279.883 116.461 278.93 117.148C277.992 117.836 276.867 118.398 275.555 118.836C274.242 119.258 272.773 119.469 271.148 119.469ZM292.781 99.0547V119H284.883V93.6406H292.289L292.781 99.0547ZM291.844 105.453L289.992 105.5C289.992 103.562 290.227 101.836 290.695 100.32C291.164 98.7891 291.828 97.4922 292.688 96.4297C293.547 95.3672 294.57 94.5625 295.758 94.0156C296.961 93.4531 298.297 93.1719 299.766 93.1719C300.938 93.1719 302.008 93.3438 302.977 93.6875C303.961 94.0312 304.805 94.5859 305.508 95.3516C306.227 96.1172 306.773 97.1328 307.148 98.3984C307.539 99.6484 307.734 101.195 307.734 103.039V119H299.789V103.016C299.789 102 299.648 101.227 299.367 100.695C299.086 100.148 298.68 99.7734 298.148 99.5703C297.617 99.3672 296.969 99.2656 296.203 99.2656C295.391 99.2656 294.703 99.4219 294.141 99.7344C293.578 100.047 293.125 100.484 292.781 101.047C292.453 101.594 292.211 102.242 292.055 102.992C291.914 103.742 291.844 104.562 291.844 105.453ZM325.477 93.6406V99.125H310.195V93.6406H325.477ZM313.406 87.3359H321.305V110.727C321.305 111.398 321.383 111.922 321.539 112.297C321.695 112.656 321.961 112.914 322.336 113.07C322.727 113.211 323.242 113.281 323.883 113.281C324.336 113.281 324.711 113.273 325.008 113.258C325.305 113.227 325.586 113.188 325.852 113.141V118.789C325.18 119.008 324.477 119.172 323.742 119.281C323.008 119.406 322.227 119.469 321.398 119.469C319.711 119.469 318.266 119.203 317.062 118.672C315.875 118.141 314.969 117.305 314.344 116.164C313.719 115.023 313.406 113.539 313.406 111.711V87.3359ZM341.789 112.625V102.172C341.789 101.453 341.688 100.836 341.484 100.32C341.281 99.8047 340.961 99.4062 340.523 99.125C340.086 98.8281 339.5 98.6797 338.766 98.6797C338.172 98.6797 337.664 98.7812 337.242 98.9844C336.82 99.1875 336.5 99.4922 336.281 99.8984C336.062 100.305 335.953 100.82 335.953 101.445H328.055C328.055 100.273 328.312 99.1875 328.828 98.1875C329.359 97.1719 330.109 96.2891 331.078 95.5391C332.062 94.7891 333.234 94.2109 334.594 93.8047C335.969 93.3828 337.5 93.1719 339.188 93.1719C341.203 93.1719 343 93.5078 344.578 94.1797C346.172 94.8516 347.43 95.8594 348.352 97.2031C349.273 98.5312 349.734 100.203 349.734 102.219V112.602C349.734 114.258 349.828 115.516 350.016 116.375C350.203 117.219 350.469 117.961 350.812 118.602V119H342.891C342.516 118.219 342.234 117.266 342.047 116.141C341.875 115 341.789 113.828 341.789 112.625ZM342.75 103.508L342.797 107.727H339.305C338.57 107.727 337.945 107.828 337.43 108.031C336.93 108.234 336.523 108.516 336.211 108.875C335.914 109.219 335.695 109.609 335.555 110.047C335.43 110.484 335.367 110.945 335.367 111.43C335.367 111.898 335.477 112.32 335.695 112.695C335.93 113.055 336.242 113.336 336.633 113.539C337.023 113.742 337.461 113.844 337.945 113.844C338.82 113.844 339.562 113.68 340.172 113.352C340.797 113.008 341.273 112.594 341.602 112.109C341.93 111.625 342.094 111.172 342.094 110.75L343.828 113.984C343.516 114.609 343.156 115.242 342.75 115.883C342.359 116.523 341.867 117.117 341.273 117.664C340.695 118.195 339.984 118.633 339.141 118.977C338.297 119.305 337.273 119.469 336.07 119.469C334.508 119.469 333.07 119.148 331.758 118.508C330.461 117.867 329.422 116.977 328.641 115.836C327.859 114.68 327.469 113.352 327.469 111.852C327.469 110.539 327.703 109.367 328.172 108.336C328.656 107.305 329.383 106.43 330.352 105.711C331.32 104.992 332.555 104.445 334.055 104.07C335.555 103.695 337.32 103.508 339.352 103.508H342.75ZM367.477 93.6406V99.125H352.195V93.6406H367.477ZM355.406 87.3359H363.305V110.727C363.305 111.398 363.383 111.922 363.539 112.297C363.695 112.656 363.961 112.914 364.336 113.07C364.727 113.211 365.242 113.281 365.883 113.281C366.336 113.281 366.711 113.273 367.008 113.258C367.305 113.227 367.586 113.188 367.852 113.141V118.789C367.18 119.008 366.477 119.172 365.742 119.281C365.008 119.406 364.227 119.469 363.398 119.469C361.711 119.469 360.266 119.203 359.062 118.672C357.875 118.141 356.969 117.305 356.344 116.164C355.719 115.023 355.406 113.539 355.406 111.711V87.3359ZM378.961 93.6406V119H371.039V93.6406H378.961ZM370.57 87.1016C370.57 85.9766 370.977 85.0547 371.789 84.3359C372.602 83.6172 373.656 83.2578 374.953 83.2578C376.25 83.2578 377.305 83.6172 378.117 84.3359C378.93 85.0547 379.336 85.9766 379.336 87.1016C379.336 88.2266 378.93 89.1484 378.117 89.8672C377.305 90.5859 376.25 90.9453 374.953 90.9453C373.656 90.9453 372.602 90.5859 371.789 89.8672C370.977 89.1484 370.57 88.2266 370.57 87.1016ZM382.852 106.578V106.086C382.852 104.227 383.117 102.516 383.648 100.953C384.18 99.375 384.961 98.0078 385.992 96.8516C387.023 95.6953 388.297 94.7969 389.812 94.1562C391.328 93.5 393.078 93.1719 395.062 93.1719C397.062 93.1719 398.82 93.5 400.336 94.1562C401.867 94.7969 403.148 95.6953 404.18 96.8516C405.211 98.0078 405.992 99.375 406.523 100.953C407.055 102.516 407.32 104.227 407.32 106.086V106.578C407.32 108.422 407.055 110.133 406.523 111.711C405.992 113.273 405.211 114.641 404.18 115.812C403.148 116.969 401.875 117.867 400.359 118.508C398.844 119.148 397.094 119.469 395.109 119.469C393.125 119.469 391.367 119.148 389.836 118.508C388.305 117.867 387.023 116.969 385.992 115.812C384.961 114.641 384.18 113.273 383.648 111.711C383.117 110.133 382.852 108.422 382.852 106.578ZM390.75 106.086V106.578C390.75 107.531 390.82 108.422 390.961 109.25C391.102 110.078 391.336 110.805 391.664 111.43C391.992 112.039 392.438 112.516 393 112.859C393.562 113.203 394.266 113.375 395.109 113.375C395.938 113.375 396.625 113.203 397.172 112.859C397.734 112.516 398.18 112.039 398.508 111.43C398.836 110.805 399.07 110.078 399.211 109.25C399.352 108.422 399.422 107.531 399.422 106.578V106.086C399.422 105.164 399.352 104.297 399.211 103.484C399.07 102.656 398.836 101.93 398.508 101.305C398.18 100.664 397.734 100.164 397.172 99.8047C396.609 99.4453 395.906 99.2656 395.062 99.2656C394.234 99.2656 393.539 99.4453 392.977 99.8047C392.43 100.164 391.992 100.664 391.664 101.305C391.336 101.93 391.102 102.656 390.961 103.484C390.82 104.297 390.75 105.164 390.75 106.086ZM418.594 99.0547V119H410.695V93.6406H418.102L418.594 99.0547ZM417.656 105.453L415.805 105.5C415.805 103.562 416.039 101.836 416.508 100.32C416.977 98.7891 417.641 97.4922 418.5 96.4297C419.359 95.3672 420.383 94.5625 421.57 94.0156C422.773 93.4531 424.109 93.1719 425.578 93.1719C426.75 93.1719 427.82 93.3438 428.789 93.6875C429.773 94.0312 430.617 94.5859 431.32 95.3516C432.039 96.1172 432.586 97.1328 432.961 98.3984C433.352 99.6484 433.547 101.195 433.547 103.039V119H425.602V103.016C425.602 102 425.461 101.227 425.18 100.695C424.898 100.148 424.492 99.7734 423.961 99.5703C423.43 99.3672 422.781 99.2656 422.016 99.2656C421.203 99.2656 420.516 99.4219 419.953 99.7344C419.391 100.047 418.938 100.484 418.594 101.047C418.266 101.594 418.023 102.242 417.867 102.992C417.727 103.742 417.656 104.562 417.656 105.453Z" fill="black"/>
<path d="M1134 0H1348C1356.28 0 1363 6.71573 1363 15V148C1363 156.284 1356.28 163 1348 163H1134V0Z" fill="#3E6751"/>
<path d="M1281 46.5H1216L1213.5 49V114L1216 116.5H1281L1283.5 114V49L1281 46.5ZM1278.5 111.5H1233.5V101.5H1245C1246.5 104.5 1250 106.5 1253.5 106.5C1259 106.5 1263.5 102 1263.5 96.5C1263.5 91 1259 86.5 1253.5 86.5C1248 86.5 1243.5 91 1243.5 96.5H1228.5V111.5H1218.5V51.5H1228.5V63C1225.5 64.5 1223.5 68 1223.5 71.5C1223.5 77 1228 81.5 1233.5 81.5C1239 81.5 1243.5 77 1243.5 71.5H1253.5C1253.5 77 1258 81.5 1263.5 81.5C1269 81.5 1273.5 77 1273.5 71.5C1273.5 66 1269 61.5 1263.5 61.5C1260 61.5 1256.5 63.5 1255 66.5H1242C1240.5 63.5 1237 61.5 1233.5 61.5V51.5H1278.5V111.5ZM1248.5 96.5C1248.5 93.5 1250.5 91.5 1253.5 91.5C1256.5 91.5 1258.5 93.5 1258.5 96.5C1258.5 99.5 1256.5 101.5 1253.5 101.5C1250.5 101.5 1248.5 99.5 1248.5 96.5ZM1233.5 66.5C1236.5 66.5 1238.5 68.5 1238.5 71.5C1238.5 74.5 1236.5 76.5 1233.5 76.5C1230.5 76.5 1228.5 74.5 1228.5 71.5C1228.5 68.5 1230.5 66.5 1233.5 66.5ZM1263.5 66.5C1266.5 66.5 1268.5 68.5 1268.5 71.5C1268.5 74.5 1266.5 76.5 1263.5 76.5C1260.5 76.5 1258.5 74.5 1258.5 71.5C1258.5 68.5 1260.5 66.5 1263.5 66.5Z" fill="white"/>
</svg>
