<svg width="1363" height="163" viewBox="0 0 1363 163" fill="none" xmlns="http://www.w3.org/2000/svg">
<path d="M0 15C0 6.71573 6.71573 0 15 0H37V163H15C6.71573 163 0 156.284 0 148V15Z" fill="#424242"/>
<rect width="1097" height="163" transform="translate(37)" fill="#F0F0F0"/>
<path d="M101.906 53.9219L94.3945 51.2383V48.0859L104.602 52.375V54.6367L101.906 53.9219ZM94.3945 56.1719L101.918 53.4297L104.602 52.7852V55.0352L94.3945 59.3242V56.1719ZM116.414 43.9375V61H112.898V43.9375H116.414ZM123.211 51.2266V53.9688H115.453V51.2266H123.211ZM124.031 43.9375V46.6914H115.453V43.9375H124.031ZM125.062 54.7891V54.543C125.062 53.6133 125.195 52.7578 125.461 51.9766C125.727 51.1875 126.113 50.5039 126.621 49.9258C127.129 49.3477 127.754 48.8984 128.496 48.5781C129.238 48.25 130.09 48.0859 131.051 48.0859C132.012 48.0859 132.867 48.25 133.617 48.5781C134.367 48.8984 134.996 49.3477 135.504 49.9258C136.02 50.5039 136.41 51.1875 136.676 51.9766C136.941 52.7578 137.074 53.6133 137.074 54.543V54.7891C137.074 55.7109 136.941 56.5664 136.676 57.3555C136.41 58.1367 136.02 58.8203 135.504 59.4062C134.996 59.9844 134.371 60.4336 133.629 60.7539C132.887 61.0742 132.035 61.2344 131.074 61.2344C130.113 61.2344 129.258 61.0742 128.508 60.7539C127.766 60.4336 127.137 59.9844 126.621 59.4062C126.113 58.8203 125.727 58.1367 125.461 57.3555C125.195 56.5664 125.062 55.7109 125.062 54.7891ZM128.438 54.543V54.7891C128.438 55.3203 128.484 55.8164 128.578 56.2773C128.672 56.7383 128.82 57.1445 129.023 57.4961C129.234 57.8398 129.508 58.1094 129.844 58.3047C130.18 58.5 130.59 58.5977 131.074 58.5977C131.543 58.5977 131.945 58.5 132.281 58.3047C132.617 58.1094 132.887 57.8398 133.09 57.4961C133.293 57.1445 133.441 56.7383 133.535 56.2773C133.637 55.8164 133.688 55.3203 133.688 54.7891V54.543C133.688 54.0273 133.637 53.543 133.535 53.0898C133.441 52.6289 133.289 52.2227 133.078 51.8711C132.875 51.5117 132.605 51.2305 132.27 51.0273C131.934 50.8242 131.527 50.7227 131.051 50.7227C130.574 50.7227 130.168 50.8242 129.832 51.0273C129.504 51.2305 129.234 51.5117 129.023 51.8711C128.82 52.2227 128.672 52.6289 128.578 53.0898C128.484 53.543 128.438 54.0273 128.438 54.543ZM142.523 51.0859V61H139.148V48.3203H142.324L142.523 51.0859ZM146.344 48.2383L146.285 51.3672C146.121 51.3438 145.922 51.3242 145.688 51.3086C145.461 51.2852 145.254 51.2734 145.066 51.2734C144.59 51.2734 144.176 51.3359 143.824 51.4609C143.48 51.5781 143.191 51.7539 142.957 51.9883C142.73 52.2227 142.559 52.5078 142.441 52.8438C142.332 53.1797 142.27 53.5625 142.254 53.9922L141.574 53.7812C141.574 52.9609 141.656 52.207 141.82 51.5195C141.984 50.8242 142.223 50.2188 142.535 49.7031C142.855 49.1875 143.246 48.7891 143.707 48.5078C144.168 48.2266 144.695 48.0859 145.289 48.0859C145.477 48.0859 145.668 48.1016 145.863 48.1328C146.059 48.1562 146.219 48.1914 146.344 48.2383ZM153.539 61.2344C152.555 61.2344 151.672 61.0781 150.891 60.7656C150.109 60.4453 149.445 60.0039 148.898 59.4414C148.359 58.8789 147.945 58.2266 147.656 57.4844C147.367 56.7344 147.223 55.9375 147.223 55.0938V54.625C147.223 53.6641 147.359 52.7852 147.633 51.9883C147.906 51.1914 148.297 50.5 148.805 49.9141C149.32 49.3281 149.945 48.8789 150.68 48.5664C151.414 48.2461 152.242 48.0859 153.164 48.0859C154.062 48.0859 154.859 48.2344 155.555 48.5312C156.25 48.8281 156.832 49.25 157.301 49.7969C157.777 50.3438 158.137 51 158.379 51.7656C158.621 52.5234 158.742 53.3672 158.742 54.2969V55.7031H148.664V53.4531H155.426V53.1953C155.426 52.7266 155.34 52.3086 155.168 51.9414C155.004 51.5664 154.754 51.2695 154.418 51.0508C154.082 50.832 153.652 50.7227 153.129 50.7227C152.684 50.7227 152.301 50.8203 151.98 51.0156C151.66 51.2109 151.398 51.4844 151.195 51.8359C151 52.1875 150.852 52.6016 150.75 53.0781C150.656 53.5469 150.609 54.0625 150.609 54.625V55.0938C150.609 55.6016 150.68 56.0703 150.82 56.5C150.969 56.9297 151.176 57.3008 151.441 57.6133C151.715 57.9258 152.043 58.168 152.426 58.3398C152.816 58.5117 153.258 58.5977 153.75 58.5977C154.359 58.5977 154.926 58.4805 155.449 58.2461C155.98 58.0039 156.438 57.6406 156.82 57.1562L158.461 58.9375C158.195 59.3203 157.832 59.6875 157.371 60.0391C156.918 60.3906 156.371 60.6797 155.73 60.9062C155.09 61.125 154.359 61.2344 153.539 61.2344ZM167.52 57.4961C167.52 57.2539 167.449 57.0352 167.309 56.8398C167.168 56.6445 166.906 56.4648 166.523 56.3008C166.148 56.1289 165.605 55.9727 164.895 55.832C164.254 55.6914 163.656 55.5156 163.102 55.3047C162.555 55.0859 162.078 54.8242 161.672 54.5195C161.273 54.2148 160.961 53.8555 160.734 53.4414C160.508 53.0195 160.395 52.5391 160.395 52C160.395 51.4688 160.508 50.9688 160.734 50.5C160.969 50.0312 161.301 49.6172 161.73 49.2578C162.168 48.8906 162.699 48.6055 163.324 48.4023C163.957 48.1914 164.668 48.0859 165.457 48.0859C166.559 48.0859 167.504 48.2617 168.293 48.6133C169.09 48.9648 169.699 49.4492 170.121 50.0664C170.551 50.6758 170.766 51.3711 170.766 52.1523H167.391C167.391 51.8242 167.32 51.5312 167.18 51.2734C167.047 51.0078 166.836 50.8008 166.547 50.6523C166.266 50.4961 165.898 50.418 165.445 50.418C165.07 50.418 164.746 50.4844 164.473 50.6172C164.199 50.7422 163.988 50.9141 163.84 51.1328C163.699 51.3438 163.629 51.5781 163.629 51.8359C163.629 52.0312 163.668 52.207 163.746 52.3633C163.832 52.5117 163.969 52.6484 164.156 52.7734C164.344 52.8984 164.586 53.0156 164.883 53.125C165.188 53.2266 165.562 53.3203 166.008 53.4062C166.922 53.5938 167.738 53.8398 168.457 54.1445C169.176 54.4414 169.746 54.8477 170.168 55.3633C170.59 55.8711 170.801 56.5391 170.801 57.3672C170.801 57.9297 170.676 58.4453 170.426 58.9141C170.176 59.3828 169.816 59.793 169.348 60.1445C168.879 60.4883 168.316 60.7578 167.66 60.9531C167.012 61.1406 166.281 61.2344 165.469 61.2344C164.289 61.2344 163.289 61.0234 162.469 60.6016C161.656 60.1797 161.039 59.6445 160.617 58.9961C160.203 58.3398 159.996 57.668 159.996 56.9805H163.195C163.211 57.4414 163.328 57.8125 163.547 58.0938C163.773 58.375 164.059 58.5781 164.402 58.7031C164.754 58.8281 165.133 58.8906 165.539 58.8906C165.977 58.8906 166.34 58.832 166.629 58.7148C166.918 58.5898 167.137 58.4258 167.285 58.2227C167.441 58.0117 167.52 57.7695 167.52 57.4961ZM179.203 48.3203V50.7109H171.82V48.3203H179.203ZM173.648 45.1914H177.023V57.1797C177.023 57.5469 177.07 57.8281 177.164 58.0234C177.266 58.2188 177.414 58.3555 177.609 58.4336C177.805 58.5039 178.051 58.5391 178.348 58.5391C178.559 58.5391 178.746 58.5312 178.91 58.5156C179.082 58.4922 179.227 58.4688 179.344 58.4453L179.355 60.9297C179.066 61.0234 178.754 61.0977 178.418 61.1523C178.082 61.207 177.711 61.2344 177.305 61.2344C176.562 61.2344 175.914 61.1133 175.359 60.8711C174.812 60.6211 174.391 60.2227 174.094 59.6758C173.797 59.1289 173.648 58.4102 173.648 57.5195V45.1914ZM200.836 52.082V58.8438C200.57 59.1641 200.16 59.5117 199.605 59.8867C199.051 60.2539 198.336 60.5703 197.461 60.8359C196.586 61.1016 195.527 61.2344 194.285 61.2344C193.184 61.2344 192.18 61.0547 191.273 60.6953C190.367 60.3281 189.586 59.793 188.93 59.0898C188.281 58.3867 187.781 57.5273 187.43 56.5117C187.078 55.4883 186.902 54.3203 186.902 53.0078V51.9414C186.902 50.6289 187.07 49.4609 187.406 48.4375C187.75 47.4141 188.238 46.5508 188.871 45.8477C189.504 45.1445 190.258 44.6094 191.133 44.2422C192.008 43.875 192.98 43.6914 194.051 43.6914C195.535 43.6914 196.754 43.9336 197.707 44.418C198.66 44.8945 199.387 45.5586 199.887 46.4102C200.395 47.2539 200.707 48.2227 200.824 49.3164H197.414C197.328 48.7383 197.164 48.2344 196.922 47.8047C196.68 47.375 196.332 47.0391 195.879 46.7969C195.434 46.5547 194.855 46.4336 194.145 46.4336C193.559 46.4336 193.035 46.5547 192.574 46.7969C192.121 47.0312 191.738 47.3789 191.426 47.8398C191.113 48.3008 190.875 48.8711 190.711 49.5508C190.547 50.2305 190.465 51.0195 190.465 51.918V53.0078C190.465 53.8984 190.551 54.6875 190.723 55.375C190.895 56.0547 191.148 56.6289 191.484 57.0977C191.828 57.5586 192.25 57.9062 192.75 58.1406C193.25 58.375 193.832 58.4922 194.496 58.4922C195.051 58.4922 195.512 58.4453 195.879 58.3516C196.254 58.2578 196.555 58.1445 196.781 58.0117C197.016 57.8711 197.195 57.7383 197.32 57.6133V54.5898H194.109V52.082H200.836ZM210.961 57.9648V48.3203H214.336V61H211.16L210.961 57.9648ZM211.336 55.3633L212.332 55.3398C212.332 56.1836 212.234 56.9688 212.039 57.6953C211.844 58.4141 211.551 59.0391 211.16 59.5703C210.77 60.0938 210.277 60.5039 209.684 60.8008C209.09 61.0898 208.391 61.2344 207.586 61.2344C206.969 61.2344 206.398 61.1484 205.875 60.9766C205.359 60.7969 204.914 60.5195 204.539 60.1445C204.172 59.7617 203.883 59.2734 203.672 58.6797C203.469 58.0781 203.367 57.3555 203.367 56.5117V48.3203H206.742V56.5352C206.742 56.9102 206.785 57.2266 206.871 57.4844C206.965 57.7422 207.094 57.9531 207.258 58.1172C207.422 58.2812 207.613 58.3984 207.832 58.4688C208.059 58.5391 208.309 58.5742 208.582 58.5742C209.277 58.5742 209.824 58.4336 210.223 58.1523C210.629 57.8711 210.914 57.4883 211.078 57.0039C211.25 56.5117 211.336 55.9648 211.336 55.3633ZM223.758 58.1406V52.4922C223.758 52.0859 223.691 51.7383 223.559 51.4492C223.426 51.1523 223.219 50.9219 222.938 50.7578C222.664 50.5938 222.309 50.5117 221.871 50.5117C221.496 50.5117 221.172 50.5781 220.898 50.7109C220.625 50.8359 220.414 51.0195 220.266 51.2617C220.117 51.4961 220.043 51.7734 220.043 52.0938H216.668C216.668 51.5547 216.793 51.043 217.043 50.5586C217.293 50.0742 217.656 49.6484 218.133 49.2812C218.609 48.9062 219.176 48.6133 219.832 48.4023C220.496 48.1914 221.238 48.0859 222.059 48.0859C223.043 48.0859 223.918 48.25 224.684 48.5781C225.449 48.9062 226.051 49.3984 226.488 50.0547C226.934 50.7109 227.156 51.5312 227.156 52.5156V57.9414C227.156 58.6367 227.199 59.207 227.285 59.6523C227.371 60.0898 227.496 60.4727 227.66 60.8008V61H224.25C224.086 60.6562 223.961 60.2266 223.875 59.7109C223.797 59.1875 223.758 58.6641 223.758 58.1406ZM224.203 53.2773L224.227 55.1875H222.34C221.895 55.1875 221.508 55.2383 221.18 55.3398C220.852 55.4414 220.582 55.5859 220.371 55.7734C220.16 55.9531 220.004 56.1641 219.902 56.4062C219.809 56.6484 219.762 56.9141 219.762 57.2031C219.762 57.4922 219.828 57.7539 219.961 57.9883C220.094 58.2148 220.285 58.3945 220.535 58.5273C220.785 58.6523 221.078 58.7148 221.414 58.7148C221.922 58.7148 222.363 58.6133 222.738 58.4102C223.113 58.207 223.402 57.957 223.605 57.6602C223.816 57.3633 223.926 57.082 223.934 56.8164L224.824 58.2461C224.699 58.5664 224.527 58.8984 224.309 59.2422C224.098 59.5859 223.828 59.9102 223.5 60.2148C223.172 60.5117 222.777 60.7578 222.316 60.9531C221.855 61.1406 221.309 61.2344 220.676 61.2344C219.871 61.2344 219.141 61.0742 218.484 60.7539C217.836 60.4258 217.32 59.9766 216.938 59.4062C216.562 58.8281 216.375 58.1719 216.375 57.4375C216.375 56.7734 216.5 56.1836 216.75 55.668C217 55.1523 217.367 54.7188 217.852 54.3672C218.344 54.0078 218.957 53.7383 219.691 53.5586C220.426 53.3711 221.277 53.2773 222.246 53.2773H224.203ZM233.133 51.0859V61H229.758V48.3203H232.934L233.133 51.0859ZM236.953 48.2383L236.895 51.3672C236.73 51.3438 236.531 51.3242 236.297 51.3086C236.07 51.2852 235.863 51.2734 235.676 51.2734C235.199 51.2734 234.785 51.3359 234.434 51.4609C234.09 51.5781 233.801 51.7539 233.566 51.9883C233.34 52.2227 233.168 52.5078 233.051 52.8438C232.941 53.1797 232.879 53.5625 232.863 53.9922L232.184 53.7812C232.184 52.9609 232.266 52.207 232.43 51.5195C232.594 50.8242 232.832 50.2188 233.145 49.7031C233.465 49.1875 233.855 48.7891 234.316 48.5078C234.777 48.2266 235.305 48.0859 235.898 48.0859C236.086 48.0859 236.277 48.1016 236.473 48.1328C236.668 48.1562 236.828 48.1914 236.953 48.2383ZM245.801 58.2344V43H249.199V61H246.141L245.801 58.2344ZM237.785 54.8125V54.5664C237.785 53.5977 237.895 52.7188 238.113 51.9297C238.332 51.1328 238.652 50.4492 239.074 49.8789C239.496 49.3086 240.016 48.8672 240.633 48.5547C241.25 48.2422 241.953 48.0859 242.742 48.0859C243.484 48.0859 244.133 48.2422 244.688 48.5547C245.25 48.8672 245.727 49.3125 246.117 49.8906C246.516 50.4609 246.836 51.1367 247.078 51.918C247.32 52.6914 247.496 53.5391 247.605 54.4609V55C247.496 55.8828 247.32 56.7031 247.078 57.4609C246.836 58.2188 246.516 58.8828 246.117 59.4531C245.727 60.0156 245.25 60.4531 244.688 60.7656C244.125 61.0781 243.469 61.2344 242.719 61.2344C241.93 61.2344 241.227 61.0742 240.609 60.7539C240 60.4336 239.484 59.9844 239.062 59.4062C238.648 58.8281 238.332 58.1484 238.113 57.3672C237.895 56.5859 237.785 55.7344 237.785 54.8125ZM241.16 54.5664V54.8125C241.16 55.3359 241.199 55.8242 241.277 56.2773C241.363 56.7305 241.5 57.1328 241.688 57.4844C241.883 57.8281 242.133 58.0977 242.438 58.293C242.75 58.4805 243.129 58.5742 243.574 58.5742C244.152 58.5742 244.629 58.4453 245.004 58.1875C245.379 57.9219 245.664 57.5586 245.859 57.0977C246.062 56.6367 246.18 56.1055 246.211 55.5039V53.9688C246.188 53.4766 246.117 53.0352 246 52.6445C245.891 52.2461 245.727 51.9062 245.508 51.625C245.297 51.3438 245.031 51.125 244.711 50.9688C244.398 50.8125 244.027 50.7344 243.598 50.7344C243.16 50.7344 242.785 50.8359 242.473 51.0391C242.16 51.2344 241.906 51.5039 241.711 51.8477C241.523 52.1914 241.383 52.5977 241.289 53.0664C241.203 53.5273 241.16 54.0273 241.16 54.5664ZM255.398 48.3203V61H252.012V48.3203H255.398ZM251.801 45.0156C251.801 44.5234 251.973 44.1172 252.316 43.7969C252.66 43.4766 253.121 43.3164 253.699 43.3164C254.27 43.3164 254.727 43.4766 255.07 43.7969C255.422 44.1172 255.598 44.5234 255.598 45.0156C255.598 45.5078 255.422 45.9141 255.07 46.2344C254.727 46.5547 254.27 46.7148 253.699 46.7148C253.121 46.7148 252.66 46.5547 252.316 46.2344C251.973 45.9141 251.801 45.5078 251.801 45.0156ZM265.031 58.1406V52.4922C265.031 52.0859 264.965 51.7383 264.832 51.4492C264.699 51.1523 264.492 50.9219 264.211 50.7578C263.938 50.5938 263.582 50.5117 263.145 50.5117C262.77 50.5117 262.445 50.5781 262.172 50.7109C261.898 50.8359 261.688 51.0195 261.539 51.2617C261.391 51.4961 261.316 51.7734 261.316 52.0938H257.941C257.941 51.5547 258.066 51.043 258.316 50.5586C258.566 50.0742 258.93 49.6484 259.406 49.2812C259.883 48.9062 260.449 48.6133 261.105 48.4023C261.77 48.1914 262.512 48.0859 263.332 48.0859C264.316 48.0859 265.191 48.25 265.957 48.5781C266.723 48.9062 267.324 49.3984 267.762 50.0547C268.207 50.7109 268.43 51.5312 268.43 52.5156V57.9414C268.43 58.6367 268.473 59.207 268.559 59.6523C268.645 60.0898 268.77 60.4727 268.934 60.8008V61H265.523C265.359 60.6562 265.234 60.2266 265.148 59.7109C265.07 59.1875 265.031 58.6641 265.031 58.1406ZM265.477 53.2773L265.5 55.1875H263.613C263.168 55.1875 262.781 55.2383 262.453 55.3398C262.125 55.4414 261.855 55.5859 261.645 55.7734C261.434 55.9531 261.277 56.1641 261.176 56.4062C261.082 56.6484 261.035 56.9141 261.035 57.2031C261.035 57.4922 261.102 57.7539 261.234 57.9883C261.367 58.2148 261.559 58.3945 261.809 58.5273C262.059 58.6523 262.352 58.7148 262.688 58.7148C263.195 58.7148 263.637 58.6133 264.012 58.4102C264.387 58.207 264.676 57.957 264.879 57.6602C265.09 57.3633 265.199 57.082 265.207 56.8164L266.098 58.2461C265.973 58.5664 265.801 58.8984 265.582 59.2422C265.371 59.5859 265.102 59.9102 264.773 60.2148C264.445 60.5117 264.051 60.7578 263.59 60.9531C263.129 61.1406 262.582 61.2344 261.949 61.2344C261.145 61.2344 260.414 61.0742 259.758 60.7539C259.109 60.4258 258.594 59.9766 258.211 59.4062C257.836 58.8281 257.648 58.1719 257.648 57.4375C257.648 56.7734 257.773 56.1836 258.023 55.668C258.273 55.1523 258.641 54.7188 259.125 54.3672C259.617 54.0078 260.23 53.7383 260.965 53.5586C261.699 53.3711 262.551 53.2773 263.52 53.2773H265.477ZM274.336 51.0273V61H270.961V48.3203H274.125L274.336 51.0273ZM273.844 54.2148H272.93C272.93 53.2773 273.051 52.4336 273.293 51.6836C273.535 50.9258 273.875 50.2812 274.312 49.75C274.75 49.2109 275.27 48.8008 275.871 48.5195C276.48 48.2305 277.16 48.0859 277.91 48.0859C278.504 48.0859 279.047 48.1719 279.539 48.3438C280.031 48.5156 280.453 48.7891 280.805 49.1641C281.164 49.5391 281.438 50.0352 281.625 50.6523C281.82 51.2695 281.918 52.0234 281.918 52.9141V61H278.52V52.9023C278.52 52.3398 278.441 51.9023 278.285 51.5898C278.129 51.2773 277.898 51.0586 277.594 50.9336C277.297 50.8008 276.93 50.7344 276.492 50.7344C276.039 50.7344 275.645 50.8242 275.309 51.0039C274.98 51.1836 274.707 51.4336 274.488 51.7539C274.277 52.0664 274.117 52.4336 274.008 52.8555C273.898 53.2773 273.844 53.7305 273.844 54.2148Z" fill="#888888"/>
<path d="M106.688 119H99.1172L99.1641 112.672H106.688C108.25 112.672 109.57 112.297 110.648 111.547C111.742 110.797 112.57 109.68 113.133 108.195C113.711 106.695 114 104.852 114 102.664V101.188C114 99.5469 113.836 98.1094 113.508 96.875C113.195 95.625 112.727 94.5859 112.102 93.7578C111.477 92.9141 110.695 92.2812 109.758 91.8594C108.836 91.4375 107.773 91.2266 106.57 91.2266H98.9766V84.875H106.57C108.883 84.875 111 85.2734 112.922 86.0703C114.859 86.8516 116.531 87.9766 117.938 89.4453C119.359 90.8984 120.453 92.625 121.219 94.625C122 96.6094 122.391 98.8125 122.391 101.234V102.664C122.391 105.07 122 107.273 121.219 109.273C120.453 111.273 119.367 113 117.961 114.453C116.555 115.906 114.891 117.031 112.969 117.828C111.062 118.609 108.969 119 106.688 119ZM103.828 84.875V119H95.6016V84.875H103.828ZM138.586 119.469C136.523 119.469 134.68 119.148 133.055 118.508C131.43 117.852 130.055 116.953 128.93 115.812C127.82 114.672 126.969 113.359 126.375 111.875C125.797 110.391 125.508 108.82 125.508 107.164V106.273C125.508 104.414 125.766 102.695 126.281 101.117C126.797 99.5234 127.562 98.1328 128.578 96.9453C129.594 95.7578 130.867 94.8359 132.398 94.1797C133.93 93.5078 135.711 93.1719 137.742 93.1719C139.539 93.1719 141.148 93.4609 142.57 94.0391C143.992 94.6172 145.195 95.4453 146.18 96.5234C147.18 97.6016 147.938 98.9062 148.453 100.438C148.984 101.969 149.25 103.688 149.25 105.594V108.805H128.531V103.859H141.539V103.25C141.555 102.406 141.406 101.688 141.094 101.094C140.797 100.5 140.359 100.047 139.781 99.7344C139.203 99.4219 138.5 99.2656 137.672 99.2656C136.812 99.2656 136.102 99.4531 135.539 99.8281C134.992 100.203 134.562 100.719 134.25 101.375C133.953 102.016 133.742 102.758 133.617 103.602C133.492 104.445 133.43 105.336 133.43 106.273V107.164C133.43 108.102 133.555 108.953 133.805 109.719C134.07 110.484 134.445 111.141 134.93 111.688C135.43 112.219 136.023 112.633 136.711 112.93C137.414 113.227 138.211 113.375 139.102 113.375C140.18 113.375 141.242 113.172 142.289 112.766C143.336 112.359 144.234 111.688 144.984 110.75L148.57 115.016C148.055 115.75 147.32 116.461 146.367 117.148C145.43 117.836 144.305 118.398 142.992 118.836C141.68 119.258 140.211 119.469 138.586 119.469ZM160.43 99.0078V119H152.531V93.6406H159.938L160.43 99.0078ZM159.469 105.453L157.664 105.5C157.664 103.719 157.875 102.078 158.297 100.578C158.719 99.0781 159.344 97.7734 160.172 96.6641C161 95.5547 162.016 94.6953 163.219 94.0859C164.438 93.4766 165.844 93.1719 167.438 93.1719C168.547 93.1719 169.555 93.3438 170.461 93.6875C171.367 94.0156 172.148 94.5391 172.805 95.2578C173.461 95.9609 173.961 96.8828 174.305 98.0234C174.664 99.1484 174.844 100.5 174.844 102.078V119H166.945V103.086C166.945 102.008 166.82 101.195 166.57 100.648C166.336 100.102 165.992 99.7344 165.539 99.5469C165.086 99.3594 164.531 99.2656 163.875 99.2656C163.188 99.2656 162.57 99.4219 162.023 99.7344C161.477 100.047 161.008 100.484 160.617 101.047C160.242 101.594 159.953 102.242 159.75 102.992C159.562 103.742 159.469 104.562 159.469 105.453ZM173.953 105.453L171.75 105.5C171.75 103.719 171.945 102.078 172.336 100.578C172.742 99.0781 173.344 97.7734 174.141 96.6641C174.953 95.5547 175.961 94.6953 177.164 94.0859C178.367 93.4766 179.766 93.1719 181.359 93.1719C182.516 93.1719 183.578 93.3438 184.547 93.6875C185.516 94.0312 186.352 94.5859 187.055 95.3516C187.758 96.1172 188.305 97.1328 188.695 98.3984C189.086 99.6484 189.281 101.195 189.281 103.039V119H181.359V103.039C181.359 101.992 181.234 101.203 180.984 100.672C180.75 100.125 180.406 99.7578 179.953 99.5703C179.5 99.3672 178.961 99.2656 178.336 99.2656C177.586 99.2656 176.938 99.4219 176.391 99.7344C175.844 100.047 175.383 100.484 175.008 101.047C174.648 101.594 174.383 102.242 174.211 102.992C174.039 103.742 173.953 104.562 173.953 105.453ZM192.82 106.578V106.086C192.82 104.227 193.086 102.516 193.617 100.953C194.148 99.375 194.93 98.0078 195.961 96.8516C196.992 95.6953 198.266 94.7969 199.781 94.1562C201.297 93.5 203.047 93.1719 205.031 93.1719C207.031 93.1719 208.789 93.5 210.305 94.1562C211.836 94.7969 213.117 95.6953 214.148 96.8516C215.18 98.0078 215.961 99.375 216.492 100.953C217.023 102.516 217.289 104.227 217.289 106.086V106.578C217.289 108.422 217.023 110.133 216.492 111.711C215.961 113.273 215.18 114.641 214.148 115.812C213.117 116.969 211.844 117.867 210.328 118.508C208.812 119.148 207.062 119.469 205.078 119.469C203.094 119.469 201.336 119.148 199.805 118.508C198.273 117.867 196.992 116.969 195.961 115.812C194.93 114.641 194.148 113.273 193.617 111.711C193.086 110.133 192.82 108.422 192.82 106.578ZM200.719 106.086V106.578C200.719 107.531 200.789 108.422 200.93 109.25C201.07 110.078 201.305 110.805 201.633 111.43C201.961 112.039 202.406 112.516 202.969 112.859C203.531 113.203 204.234 113.375 205.078 113.375C205.906 113.375 206.594 113.203 207.141 112.859C207.703 112.516 208.148 112.039 208.477 111.43C208.805 110.805 209.039 110.078 209.18 109.25C209.32 108.422 209.391 107.531 209.391 106.578V106.086C209.391 105.164 209.32 104.297 209.18 103.484C209.039 102.656 208.805 101.93 208.477 101.305C208.148 100.664 207.703 100.164 207.141 99.8047C206.578 99.4453 205.875 99.2656 205.031 99.2656C204.203 99.2656 203.508 99.4453 202.945 99.8047C202.398 100.164 201.961 100.664 201.633 101.305C201.305 101.93 201.07 102.656 200.93 103.484C200.789 104.297 200.719 105.164 200.719 106.086Z" fill="black"/>
<path d="M1134 0H1348C1356.28 0 1363 6.71573 1363 15V148C1363 156.284 1356.28 163 1348 163H1134V0Z" fill="#3E6751"/>
<path d="M1281 46.5H1216L1213.5 49V114L1216 116.5H1281L1283.5 114V49L1281 46.5ZM1278.5 111.5H1233.5V101.5H1245C1246.5 104.5 1250 106.5 1253.5 106.5C1259 106.5 1263.5 102 1263.5 96.5C1263.5 91 1259 86.5 1253.5 86.5C1248 86.5 1243.5 91 1243.5 96.5H1228.5V111.5H1218.5V51.5H1228.5V63C1225.5 64.5 1223.5 68 1223.5 71.5C1223.5 77 1228 81.5 1233.5 81.5C1239 81.5 1243.5 77 1243.5 71.5H1253.5C1253.5 77 1258 81.5 1263.5 81.5C1269 81.5 1273.5 77 1273.5 71.5C1273.5 66 1269 61.5 1263.5 61.5C1260 61.5 1256.5 63.5 1255 66.5H1242C1240.5 63.5 1237 61.5 1233.5 61.5V51.5H1278.5V111.5ZM1248.5 96.5C1248.5 93.5 1250.5 91.5 1253.5 91.5C1256.5 91.5 1258.5 93.5 1258.5 96.5C1258.5 99.5 1256.5 101.5 1253.5 101.5C1250.5 101.5 1248.5 99.5 1248.5 96.5ZM1233.5 66.5C1236.5 66.5 1238.5 68.5 1238.5 71.5C1238.5 74.5 1236.5 76.5 1233.5 76.5C1230.5 76.5 1228.5 74.5 1228.5 71.5C1228.5 68.5 1230.5 66.5 1233.5 66.5ZM1263.5 66.5C1266.5 66.5 1268.5 68.5 1268.5 71.5C1268.5 74.5 1266.5 76.5 1263.5 76.5C1260.5 76.5 1258.5 74.5 1258.5 71.5C1258.5 68.5 1260.5 66.5 1263.5 66.5Z" fill="white"/>
</svg>
