<svg width="1363" height="163" viewBox="0 0 1363 163" fill="none" xmlns="http://www.w3.org/2000/svg">
<path d="M0 15C0 6.71573 6.71573 0 15 0H37V163H15C6.71573 163 0 156.284 0 148V15Z" fill="#424242"/>
<rect width="1097" height="163" transform="translate(37)" fill="#F0F0F0"/>
<path d="M101.906 53.9219L94.3945 51.2383V48.0859L104.602 52.375V54.6367L101.906 53.9219ZM94.3945 56.1719L101.918 53.4297L104.602 52.7852V55.0352L94.3945 59.3242V56.1719ZM116.414 43.9375V61H112.898V43.9375H116.414ZM123.211 51.2266V53.9688H115.453V51.2266H123.211ZM124.031 43.9375V46.6914H115.453V43.9375H124.031ZM125.062 54.7891V54.543C125.062 53.6133 125.195 52.7578 125.461 51.9766C125.727 51.1875 126.113 50.5039 126.621 49.9258C127.129 49.3477 127.754 48.8984 128.496 48.5781C129.238 48.25 130.09 48.0859 131.051 48.0859C132.012 48.0859 132.867 48.25 133.617 48.5781C134.367 48.8984 134.996 49.3477 135.504 49.9258C136.02 50.5039 136.41 51.1875 136.676 51.9766C136.941 52.7578 137.074 53.6133 137.074 54.543V54.7891C137.074 55.7109 136.941 56.5664 136.676 57.3555C136.41 58.1367 136.02 58.8203 135.504 59.4062C134.996 59.9844 134.371 60.4336 133.629 60.7539C132.887 61.0742 132.035 61.2344 131.074 61.2344C130.113 61.2344 129.258 61.0742 128.508 60.7539C127.766 60.4336 127.137 59.9844 126.621 59.4062C126.113 58.8203 125.727 58.1367 125.461 57.3555C125.195 56.5664 125.062 55.7109 125.062 54.7891ZM128.438 54.543V54.7891C128.438 55.3203 128.484 55.8164 128.578 56.2773C128.672 56.7383 128.82 57.1445 129.023 57.4961C129.234 57.8398 129.508 58.1094 129.844 58.3047C130.18 58.5 130.59 58.5977 131.074 58.5977C131.543 58.5977 131.945 58.5 132.281 58.3047C132.617 58.1094 132.887 57.8398 133.09 57.4961C133.293 57.1445 133.441 56.7383 133.535 56.2773C133.637 55.8164 133.688 55.3203 133.688 54.7891V54.543C133.688 54.0273 133.637 53.543 133.535 53.0898C133.441 52.6289 133.289 52.2227 133.078 51.8711C132.875 51.5117 132.605 51.2305 132.27 51.0273C131.934 50.8242 131.527 50.7227 131.051 50.7227C130.574 50.7227 130.168 50.8242 129.832 51.0273C129.504 51.2305 129.234 51.5117 129.023 51.8711C128.82 52.2227 128.672 52.6289 128.578 53.0898C128.484 53.543 128.438 54.0273 128.438 54.543ZM142.523 51.0859V61H139.148V48.3203H142.324L142.523 51.0859ZM146.344 48.2383L146.285 51.3672C146.121 51.3438 145.922 51.3242 145.688 51.3086C145.461 51.2852 145.254 51.2734 145.066 51.2734C144.59 51.2734 144.176 51.3359 143.824 51.4609C143.48 51.5781 143.191 51.7539 142.957 51.9883C142.73 52.2227 142.559 52.5078 142.441 52.8438C142.332 53.1797 142.27 53.5625 142.254 53.9922L141.574 53.7812C141.574 52.9609 141.656 52.207 141.82 51.5195C141.984 50.8242 142.223 50.2188 142.535 49.7031C142.855 49.1875 143.246 48.7891 143.707 48.5078C144.168 48.2266 144.695 48.0859 145.289 48.0859C145.477 48.0859 145.668 48.1016 145.863 48.1328C146.059 48.1562 146.219 48.1914 146.344 48.2383ZM153.539 61.2344C152.555 61.2344 151.672 61.0781 150.891 60.7656C150.109 60.4453 149.445 60.0039 148.898 59.4414C148.359 58.8789 147.945 58.2266 147.656 57.4844C147.367 56.7344 147.223 55.9375 147.223 55.0938V54.625C147.223 53.6641 147.359 52.7852 147.633 51.9883C147.906 51.1914 148.297 50.5 148.805 49.9141C149.32 49.3281 149.945 48.8789 150.68 48.5664C151.414 48.2461 152.242 48.0859 153.164 48.0859C154.062 48.0859 154.859 48.2344 155.555 48.5312C156.25 48.8281 156.832 49.25 157.301 49.7969C157.777 50.3438 158.137 51 158.379 51.7656C158.621 52.5234 158.742 53.3672 158.742 54.2969V55.7031H148.664V53.4531H155.426V53.1953C155.426 52.7266 155.34 52.3086 155.168 51.9414C155.004 51.5664 154.754 51.2695 154.418 51.0508C154.082 50.832 153.652 50.7227 153.129 50.7227C152.684 50.7227 152.301 50.8203 151.98 51.0156C151.66 51.2109 151.398 51.4844 151.195 51.8359C151 52.1875 150.852 52.6016 150.75 53.0781C150.656 53.5469 150.609 54.0625 150.609 54.625V55.0938C150.609 55.6016 150.68 56.0703 150.82 56.5C150.969 56.9297 151.176 57.3008 151.441 57.6133C151.715 57.9258 152.043 58.168 152.426 58.3398C152.816 58.5117 153.258 58.5977 153.75 58.5977C154.359 58.5977 154.926 58.4805 155.449 58.2461C155.98 58.0039 156.438 57.6406 156.82 57.1562L158.461 58.9375C158.195 59.3203 157.832 59.6875 157.371 60.0391C156.918 60.3906 156.371 60.6797 155.73 60.9062C155.09 61.125 154.359 61.2344 153.539 61.2344ZM167.52 57.4961C167.52 57.2539 167.449 57.0352 167.309 56.8398C167.168 56.6445 166.906 56.4648 166.523 56.3008C166.148 56.1289 165.605 55.9727 164.895 55.832C164.254 55.6914 163.656 55.5156 163.102 55.3047C162.555 55.0859 162.078 54.8242 161.672 54.5195C161.273 54.2148 160.961 53.8555 160.734 53.4414C160.508 53.0195 160.395 52.5391 160.395 52C160.395 51.4688 160.508 50.9688 160.734 50.5C160.969 50.0312 161.301 49.6172 161.73 49.2578C162.168 48.8906 162.699 48.6055 163.324 48.4023C163.957 48.1914 164.668 48.0859 165.457 48.0859C166.559 48.0859 167.504 48.2617 168.293 48.6133C169.09 48.9648 169.699 49.4492 170.121 50.0664C170.551 50.6758 170.766 51.3711 170.766 52.1523H167.391C167.391 51.8242 167.32 51.5312 167.18 51.2734C167.047 51.0078 166.836 50.8008 166.547 50.6523C166.266 50.4961 165.898 50.418 165.445 50.418C165.07 50.418 164.746 50.4844 164.473 50.6172C164.199 50.7422 163.988 50.9141 163.84 51.1328C163.699 51.3438 163.629 51.5781 163.629 51.8359C163.629 52.0312 163.668 52.207 163.746 52.3633C163.832 52.5117 163.969 52.6484 164.156 52.7734C164.344 52.8984 164.586 53.0156 164.883 53.125C165.188 53.2266 165.562 53.3203 166.008 53.4062C166.922 53.5938 167.738 53.8398 168.457 54.1445C169.176 54.4414 169.746 54.8477 170.168 55.3633C170.59 55.8711 170.801 56.5391 170.801 57.3672C170.801 57.9297 170.676 58.4453 170.426 58.9141C170.176 59.3828 169.816 59.793 169.348 60.1445C168.879 60.4883 168.316 60.7578 167.66 60.9531C167.012 61.1406 166.281 61.2344 165.469 61.2344C164.289 61.2344 163.289 61.0234 162.469 60.6016C161.656 60.1797 161.039 59.6445 160.617 58.9961C160.203 58.3398 159.996 57.668 159.996 56.9805H163.195C163.211 57.4414 163.328 57.8125 163.547 58.0938C163.773 58.375 164.059 58.5781 164.402 58.7031C164.754 58.8281 165.133 58.8906 165.539 58.8906C165.977 58.8906 166.34 58.832 166.629 58.7148C166.918 58.5898 167.137 58.4258 167.285 58.2227C167.441 58.0117 167.52 57.7695 167.52 57.4961ZM179.203 48.3203V50.7109H171.82V48.3203H179.203ZM173.648 45.1914H177.023V57.1797C177.023 57.5469 177.07 57.8281 177.164 58.0234C177.266 58.2188 177.414 58.3555 177.609 58.4336C177.805 58.5039 178.051 58.5391 178.348 58.5391C178.559 58.5391 178.746 58.5312 178.91 58.5156C179.082 58.4922 179.227 58.4688 179.344 58.4453L179.355 60.9297C179.066 61.0234 178.754 61.0977 178.418 61.1523C178.082 61.207 177.711 61.2344 177.305 61.2344C176.562 61.2344 175.914 61.1133 175.359 60.8711C174.812 60.6211 174.391 60.2227 174.094 59.6758C173.797 59.1289 173.648 58.4102 173.648 57.5195V45.1914ZM200.836 52.082V58.8438C200.57 59.1641 200.16 59.5117 199.605 59.8867C199.051 60.2539 198.336 60.5703 197.461 60.8359C196.586 61.1016 195.527 61.2344 194.285 61.2344C193.184 61.2344 192.18 61.0547 191.273 60.6953C190.367 60.3281 189.586 59.793 188.93 59.0898C188.281 58.3867 187.781 57.5273 187.43 56.5117C187.078 55.4883 186.902 54.3203 186.902 53.0078V51.9414C186.902 50.6289 187.07 49.4609 187.406 48.4375C187.75 47.4141 188.238 46.5508 188.871 45.8477C189.504 45.1445 190.258 44.6094 191.133 44.2422C192.008 43.875 192.98 43.6914 194.051 43.6914C195.535 43.6914 196.754 43.9336 197.707 44.418C198.66 44.8945 199.387 45.5586 199.887 46.4102C200.395 47.2539 200.707 48.2227 200.824 49.3164H197.414C197.328 48.7383 197.164 48.2344 196.922 47.8047C196.68 47.375 196.332 47.0391 195.879 46.7969C195.434 46.5547 194.855 46.4336 194.145 46.4336C193.559 46.4336 193.035 46.5547 192.574 46.7969C192.121 47.0312 191.738 47.3789 191.426 47.8398C191.113 48.3008 190.875 48.8711 190.711 49.5508C190.547 50.2305 190.465 51.0195 190.465 51.918V53.0078C190.465 53.8984 190.551 54.6875 190.723 55.375C190.895 56.0547 191.148 56.6289 191.484 57.0977C191.828 57.5586 192.25 57.9062 192.75 58.1406C193.25 58.375 193.832 58.4922 194.496 58.4922C195.051 58.4922 195.512 58.4453 195.879 58.3516C196.254 58.2578 196.555 58.1445 196.781 58.0117C197.016 57.8711 197.195 57.7383 197.32 57.6133V54.5898H194.109V52.082H200.836ZM210.961 57.9648V48.3203H214.336V61H211.16L210.961 57.9648ZM211.336 55.3633L212.332 55.3398C212.332 56.1836 212.234 56.9688 212.039 57.6953C211.844 58.4141 211.551 59.0391 211.16 59.5703C210.77 60.0938 210.277 60.5039 209.684 60.8008C209.09 61.0898 208.391 61.2344 207.586 61.2344C206.969 61.2344 206.398 61.1484 205.875 60.9766C205.359 60.7969 204.914 60.5195 204.539 60.1445C204.172 59.7617 203.883 59.2734 203.672 58.6797C203.469 58.0781 203.367 57.3555 203.367 56.5117V48.3203H206.742V56.5352C206.742 56.9102 206.785 57.2266 206.871 57.4844C206.965 57.7422 207.094 57.9531 207.258 58.1172C207.422 58.2812 207.613 58.3984 207.832 58.4688C208.059 58.5391 208.309 58.5742 208.582 58.5742C209.277 58.5742 209.824 58.4336 210.223 58.1523C210.629 57.8711 210.914 57.4883 211.078 57.0039C211.25 56.5117 211.336 55.9648 211.336 55.3633ZM223.758 58.1406V52.4922C223.758 52.0859 223.691 51.7383 223.559 51.4492C223.426 51.1523 223.219 50.9219 222.938 50.7578C222.664 50.5938 222.309 50.5117 221.871 50.5117C221.496 50.5117 221.172 50.5781 220.898 50.7109C220.625 50.8359 220.414 51.0195 220.266 51.2617C220.117 51.4961 220.043 51.7734 220.043 52.0938H216.668C216.668 51.5547 216.793 51.043 217.043 50.5586C217.293 50.0742 217.656 49.6484 218.133 49.2812C218.609 48.9062 219.176 48.6133 219.832 48.4023C220.496 48.1914 221.238 48.0859 222.059 48.0859C223.043 48.0859 223.918 48.25 224.684 48.5781C225.449 48.9062 226.051 49.3984 226.488 50.0547C226.934 50.7109 227.156 51.5312 227.156 52.5156V57.9414C227.156 58.6367 227.199 59.207 227.285 59.6523C227.371 60.0898 227.496 60.4727 227.66 60.8008V61H224.25C224.086 60.6562 223.961 60.2266 223.875 59.7109C223.797 59.1875 223.758 58.6641 223.758 58.1406ZM224.203 53.2773L224.227 55.1875H222.34C221.895 55.1875 221.508 55.2383 221.18 55.3398C220.852 55.4414 220.582 55.5859 220.371 55.7734C220.16 55.9531 220.004 56.1641 219.902 56.4062C219.809 56.6484 219.762 56.9141 219.762 57.2031C219.762 57.4922 219.828 57.7539 219.961 57.9883C220.094 58.2148 220.285 58.3945 220.535 58.5273C220.785 58.6523 221.078 58.7148 221.414 58.7148C221.922 58.7148 222.363 58.6133 222.738 58.4102C223.113 58.207 223.402 57.957 223.605 57.6602C223.816 57.3633 223.926 57.082 223.934 56.8164L224.824 58.2461C224.699 58.5664 224.527 58.8984 224.309 59.2422C224.098 59.5859 223.828 59.9102 223.5 60.2148C223.172 60.5117 222.777 60.7578 222.316 60.9531C221.855 61.1406 221.309 61.2344 220.676 61.2344C219.871 61.2344 219.141 61.0742 218.484 60.7539C217.836 60.4258 217.32 59.9766 216.938 59.4062C216.562 58.8281 216.375 58.1719 216.375 57.4375C216.375 56.7734 216.5 56.1836 216.75 55.668C217 55.1523 217.367 54.7188 217.852 54.3672C218.344 54.0078 218.957 53.7383 219.691 53.5586C220.426 53.3711 221.277 53.2773 222.246 53.2773H224.203ZM233.133 51.0859V61H229.758V48.3203H232.934L233.133 51.0859ZM236.953 48.2383L236.895 51.3672C236.73 51.3438 236.531 51.3242 236.297 51.3086C236.07 51.2852 235.863 51.2734 235.676 51.2734C235.199 51.2734 234.785 51.3359 234.434 51.4609C234.09 51.5781 233.801 51.7539 233.566 51.9883C233.34 52.2227 233.168 52.5078 233.051 52.8438C232.941 53.1797 232.879 53.5625 232.863 53.9922L232.184 53.7812C232.184 52.9609 232.266 52.207 232.43 51.5195C232.594 50.8242 232.832 50.2188 233.145 49.7031C233.465 49.1875 233.855 48.7891 234.316 48.5078C234.777 48.2266 235.305 48.0859 235.898 48.0859C236.086 48.0859 236.277 48.1016 236.473 48.1328C236.668 48.1562 236.828 48.1914 236.953 48.2383ZM245.801 58.2344V43H249.199V61H246.141L245.801 58.2344ZM237.785 54.8125V54.5664C237.785 53.5977 237.895 52.7188 238.113 51.9297C238.332 51.1328 238.652 50.4492 239.074 49.8789C239.496 49.3086 240.016 48.8672 240.633 48.5547C241.25 48.2422 241.953 48.0859 242.742 48.0859C243.484 48.0859 244.133 48.2422 244.688 48.5547C245.25 48.8672 245.727 49.3125 246.117 49.8906C246.516 50.4609 246.836 51.1367 247.078 51.918C247.32 52.6914 247.496 53.5391 247.605 54.4609V55C247.496 55.8828 247.32 56.7031 247.078 57.4609C246.836 58.2188 246.516 58.8828 246.117 59.4531C245.727 60.0156 245.25 60.4531 244.688 60.7656C244.125 61.0781 243.469 61.2344 242.719 61.2344C241.93 61.2344 241.227 61.0742 240.609 60.7539C240 60.4336 239.484 59.9844 239.062 59.4062C238.648 58.8281 238.332 58.1484 238.113 57.3672C237.895 56.5859 237.785 55.7344 237.785 54.8125ZM241.16 54.5664V54.8125C241.16 55.3359 241.199 55.8242 241.277 56.2773C241.363 56.7305 241.5 57.1328 241.688 57.4844C241.883 57.8281 242.133 58.0977 242.438 58.293C242.75 58.4805 243.129 58.5742 243.574 58.5742C244.152 58.5742 244.629 58.4453 245.004 58.1875C245.379 57.9219 245.664 57.5586 245.859 57.0977C246.062 56.6367 246.18 56.1055 246.211 55.5039V53.9688C246.188 53.4766 246.117 53.0352 246 52.6445C245.891 52.2461 245.727 51.9062 245.508 51.625C245.297 51.3438 245.031 51.125 244.711 50.9688C244.398 50.8125 244.027 50.7344 243.598 50.7344C243.16 50.7344 242.785 50.8359 242.473 51.0391C242.16 51.2344 241.906 51.5039 241.711 51.8477C241.523 52.1914 241.383 52.5977 241.289 53.0664C241.203 53.5273 241.16 54.0273 241.16 54.5664ZM255.398 48.3203V61H252.012V48.3203H255.398ZM251.801 45.0156C251.801 44.5234 251.973 44.1172 252.316 43.7969C252.66 43.4766 253.121 43.3164 253.699 43.3164C254.27 43.3164 254.727 43.4766 255.07 43.7969C255.422 44.1172 255.598 44.5234 255.598 45.0156C255.598 45.5078 255.422 45.9141 255.07 46.2344C254.727 46.5547 254.27 46.7148 253.699 46.7148C253.121 46.7148 252.66 46.5547 252.316 46.2344C251.973 45.9141 251.801 45.5078 251.801 45.0156ZM265.031 58.1406V52.4922C265.031 52.0859 264.965 51.7383 264.832 51.4492C264.699 51.1523 264.492 50.9219 264.211 50.7578C263.938 50.5938 263.582 50.5117 263.145 50.5117C262.77 50.5117 262.445 50.5781 262.172 50.7109C261.898 50.8359 261.688 51.0195 261.539 51.2617C261.391 51.4961 261.316 51.7734 261.316 52.0938H257.941C257.941 51.5547 258.066 51.043 258.316 50.5586C258.566 50.0742 258.93 49.6484 259.406 49.2812C259.883 48.9062 260.449 48.6133 261.105 48.4023C261.77 48.1914 262.512 48.0859 263.332 48.0859C264.316 48.0859 265.191 48.25 265.957 48.5781C266.723 48.9062 267.324 49.3984 267.762 50.0547C268.207 50.7109 268.43 51.5312 268.43 52.5156V57.9414C268.43 58.6367 268.473 59.207 268.559 59.6523C268.645 60.0898 268.77 60.4727 268.934 60.8008V61H265.523C265.359 60.6562 265.234 60.2266 265.148 59.7109C265.07 59.1875 265.031 58.6641 265.031 58.1406ZM265.477 53.2773L265.5 55.1875H263.613C263.168 55.1875 262.781 55.2383 262.453 55.3398C262.125 55.4414 261.855 55.5859 261.645 55.7734C261.434 55.9531 261.277 56.1641 261.176 56.4062C261.082 56.6484 261.035 56.9141 261.035 57.2031C261.035 57.4922 261.102 57.7539 261.234 57.9883C261.367 58.2148 261.559 58.3945 261.809 58.5273C262.059 58.6523 262.352 58.7148 262.688 58.7148C263.195 58.7148 263.637 58.6133 264.012 58.4102C264.387 58.207 264.676 57.957 264.879 57.6602C265.09 57.3633 265.199 57.082 265.207 56.8164L266.098 58.2461C265.973 58.5664 265.801 58.8984 265.582 59.2422C265.371 59.5859 265.102 59.9102 264.773 60.2148C264.445 60.5117 264.051 60.7578 263.59 60.9531C263.129 61.1406 262.582 61.2344 261.949 61.2344C261.145 61.2344 260.414 61.0742 259.758 60.7539C259.109 60.4258 258.594 59.9766 258.211 59.4062C257.836 58.8281 257.648 58.1719 257.648 57.4375C257.648 56.7734 257.773 56.1836 258.023 55.668C258.273 55.1523 258.641 54.7188 259.125 54.3672C259.617 54.0078 260.23 53.7383 260.965 53.5586C261.699 53.3711 262.551 53.2773 263.52 53.2773H265.477ZM274.336 51.0273V61H270.961V48.3203H274.125L274.336 51.0273ZM273.844 54.2148H272.93C272.93 53.2773 273.051 52.4336 273.293 51.6836C273.535 50.9258 273.875 50.2812 274.312 49.75C274.75 49.2109 275.27 48.8008 275.871 48.5195C276.48 48.2305 277.16 48.0859 277.91 48.0859C278.504 48.0859 279.047 48.1719 279.539 48.3438C280.031 48.5156 280.453 48.7891 280.805 49.1641C281.164 49.5391 281.438 50.0352 281.625 50.6523C281.82 51.2695 281.918 52.0234 281.918 52.9141V61H278.52V52.9023C278.52 52.3398 278.441 51.9023 278.285 51.5898C278.129 51.2773 277.898 51.0586 277.594 50.9336C277.297 50.8008 276.93 50.7344 276.492 50.7344C276.039 50.7344 275.645 50.8242 275.309 51.0039C274.98 51.1836 274.707 51.4336 274.488 51.7539C274.277 52.0664 274.117 52.4336 274.008 52.8555C273.898 53.2773 273.844 53.7305 273.844 54.2148Z" fill="#888888"/>
<path d="M109.219 107.422H100.734V101.07H109.219C110.375 101.07 111.312 100.875 112.031 100.484C112.75 100.094 113.273 99.5547 113.602 98.8672C113.945 98.1641 114.117 97.375 114.117 96.5C114.117 95.5625 113.945 94.6953 113.602 93.8984C113.273 93.1016 112.75 92.4609 112.031 91.9766C111.312 91.4766 110.375 91.2266 109.219 91.2266H103.828V119H95.6016V84.875H109.219C111.953 84.875 114.305 85.375 116.273 86.375C118.258 87.375 119.781 88.75 120.844 90.5C121.906 92.2344 122.438 94.2188 122.438 96.4531C122.438 98.6562 121.906 100.578 120.844 102.219C119.781 103.859 118.258 105.141 116.273 106.062C114.305 106.969 111.953 107.422 109.219 107.422ZM134.461 99.9219V119H126.562V93.6406H133.945L134.461 99.9219ZM141.961 93.4531L141.82 100.789C141.508 100.758 141.086 100.719 140.555 100.672C140.023 100.625 139.578 100.602 139.219 100.602C138.297 100.602 137.5 100.711 136.828 100.93C136.172 101.133 135.625 101.445 135.188 101.867C134.766 102.273 134.453 102.789 134.25 103.414C134.062 104.039 133.977 104.766 133.992 105.594L132.562 104.656C132.562 102.953 132.727 101.406 133.055 100.016C133.398 98.6094 133.883 97.3984 134.508 96.3828C135.133 95.3516 135.891 94.5625 136.781 94.0156C137.672 93.4531 138.672 93.1719 139.781 93.1719C140.172 93.1719 140.555 93.1953 140.93 93.2422C141.32 93.2891 141.664 93.3594 141.961 93.4531ZM142.852 106.578V106.086C142.852 104.227 143.117 102.516 143.648 100.953C144.18 99.375 144.961 98.0078 145.992 96.8516C147.023 95.6953 148.297 94.7969 149.812 94.1562C151.328 93.5 153.078 93.1719 155.062 93.1719C157.062 93.1719 158.82 93.5 160.336 94.1562C161.867 94.7969 163.148 95.6953 164.18 96.8516C165.211 98.0078 165.992 99.375 166.523 100.953C167.055 102.516 167.32 104.227 167.32 106.086V106.578C167.32 108.422 167.055 110.133 166.523 111.711C165.992 113.273 165.211 114.641 164.18 115.812C163.148 116.969 161.875 117.867 160.359 118.508C158.844 119.148 157.094 119.469 155.109 119.469C153.125 119.469 151.367 119.148 149.836 118.508C148.305 117.867 147.023 116.969 145.992 115.812C144.961 114.641 144.18 113.273 143.648 111.711C143.117 110.133 142.852 108.422 142.852 106.578ZM150.75 106.086V106.578C150.75 107.531 150.82 108.422 150.961 109.25C151.102 110.078 151.336 110.805 151.664 111.43C151.992 112.039 152.438 112.516 153 112.859C153.562 113.203 154.266 113.375 155.109 113.375C155.938 113.375 156.625 113.203 157.172 112.859C157.734 112.516 158.18 112.039 158.508 111.43C158.836 110.805 159.07 110.078 159.211 109.25C159.352 108.422 159.422 107.531 159.422 106.578V106.086C159.422 105.164 159.352 104.297 159.211 103.484C159.07 102.656 158.836 101.93 158.508 101.305C158.18 100.664 157.734 100.164 157.172 99.8047C156.609 99.4453 155.906 99.2656 155.062 99.2656C154.234 99.2656 153.539 99.4453 152.977 99.8047C152.43 100.164 151.992 100.664 151.664 101.305C151.336 101.93 151.102 102.656 150.961 103.484C150.82 104.297 150.75 105.164 150.75 106.086ZM184.195 93.6406V99.125H168.914V93.6406H184.195ZM172.125 87.3359H180.023V110.727C180.023 111.398 180.102 111.922 180.258 112.297C180.414 112.656 180.68 112.914 181.055 113.07C181.445 113.211 181.961 113.281 182.602 113.281C183.055 113.281 183.43 113.273 183.727 113.258C184.023 113.227 184.305 113.188 184.57 113.141V118.789C183.898 119.008 183.195 119.172 182.461 119.281C181.727 119.406 180.945 119.469 180.117 119.469C178.43 119.469 176.984 119.203 175.781 118.672C174.594 118.141 173.688 117.305 173.062 116.164C172.438 115.023 172.125 113.539 172.125 111.711V87.3359ZM185.648 106.578V106.086C185.648 104.227 185.914 102.516 186.445 100.953C186.977 99.375 187.758 98.0078 188.789 96.8516C189.82 95.6953 191.094 94.7969 192.609 94.1562C194.125 93.5 195.875 93.1719 197.859 93.1719C199.859 93.1719 201.617 93.5 203.133 94.1562C204.664 94.7969 205.945 95.6953 206.977 96.8516C208.008 98.0078 208.789 99.375 209.32 100.953C209.852 102.516 210.117 104.227 210.117 106.086V106.578C210.117 108.422 209.852 110.133 209.32 111.711C208.789 113.273 208.008 114.641 206.977 115.812C205.945 116.969 204.672 117.867 203.156 118.508C201.641 119.148 199.891 119.469 197.906 119.469C195.922 119.469 194.164 119.148 192.633 118.508C191.102 117.867 189.82 116.969 188.789 115.812C187.758 114.641 186.977 113.273 186.445 111.711C185.914 110.133 185.648 108.422 185.648 106.578ZM193.547 106.086V106.578C193.547 107.531 193.617 108.422 193.758 109.25C193.898 110.078 194.133 110.805 194.461 111.43C194.789 112.039 195.234 112.516 195.797 112.859C196.359 113.203 197.062 113.375 197.906 113.375C198.734 113.375 199.422 113.203 199.969 112.859C200.531 112.516 200.977 112.039 201.305 111.43C201.633 110.805 201.867 110.078 202.008 109.25C202.148 108.422 202.219 107.531 202.219 106.578V106.086C202.219 105.164 202.148 104.297 202.008 103.484C201.867 102.656 201.633 101.93 201.305 101.305C200.977 100.664 200.531 100.164 199.969 99.8047C199.406 99.4453 198.703 99.2656 197.859 99.2656C197.031 99.2656 196.336 99.4453 195.773 99.8047C195.227 100.164 194.789 100.664 194.461 101.305C194.133 101.93 193.898 102.656 193.758 103.484C193.617 104.297 193.547 105.164 193.547 106.086ZM226.992 93.6406V99.125H211.711V93.6406H226.992ZM214.922 87.3359H222.82V110.727C222.82 111.398 222.898 111.922 223.055 112.297C223.211 112.656 223.477 112.914 223.852 113.07C224.242 113.211 224.758 113.281 225.398 113.281C225.852 113.281 226.227 113.273 226.523 113.258C226.82 113.227 227.102 113.188 227.367 113.141V118.789C226.695 119.008 225.992 119.172 225.258 119.281C224.523 119.406 223.742 119.469 222.914 119.469C221.227 119.469 219.781 119.203 218.578 118.672C217.391 118.141 216.484 117.305 215.859 116.164C215.234 115.023 214.922 113.539 214.922 111.711V87.3359ZM237.914 116.023L244.477 93.6406H252.961L242.766 122.773C242.547 123.414 242.258 124.102 241.898 124.836C241.539 125.586 241.047 126.297 240.422 126.969C239.797 127.641 238.992 128.188 238.008 128.609C237.039 129.031 235.836 129.242 234.398 129.242C233.633 129.242 233.07 129.203 232.711 129.125C232.367 129.062 231.836 128.945 231.117 128.773V123.125C231.32 123.125 231.492 123.125 231.633 123.125C231.789 123.125 231.961 123.125 232.148 123.125C232.992 123.125 233.664 123.039 234.164 122.867C234.68 122.695 235.07 122.445 235.336 122.117C235.617 121.789 235.836 121.391 235.992 120.922L237.914 116.023ZM236.25 93.6406L241.242 111.383L242.109 119.75H236.812L227.789 93.6406H236.25ZM262.992 98.5156V128.75H255.094V93.6406H262.453L262.992 98.5156ZM278.555 106.016V106.508C278.555 108.352 278.344 110.062 277.922 111.641C277.5 113.219 276.875 114.594 276.047 115.766C275.219 116.938 274.188 117.852 272.953 118.508C271.734 119.148 270.32 119.469 268.711 119.469C267.195 119.469 265.891 119.133 264.797 118.461C263.703 117.789 262.789 116.859 262.055 115.672C261.32 114.484 260.727 113.125 260.273 111.594C259.82 110.062 259.461 108.445 259.195 106.742V106.109C259.461 104.281 259.82 102.586 260.273 101.023C260.727 99.4453 261.32 98.0703 262.055 96.8984C262.789 95.7266 263.695 94.8125 264.773 94.1562C265.867 93.5 267.172 93.1719 268.688 93.1719C270.297 93.1719 271.711 93.4766 272.93 94.0859C274.164 94.6953 275.195 95.5703 276.023 96.7109C276.867 97.8359 277.5 99.1875 277.922 100.766C278.344 102.344 278.555 104.094 278.555 106.016ZM270.656 106.508V106.016C270.656 105.031 270.586 104.133 270.445 103.32C270.305 102.492 270.078 101.773 269.766 101.164C269.469 100.555 269.07 100.086 268.57 99.7578C268.07 99.4297 267.453 99.2656 266.719 99.2656C265.875 99.2656 265.164 99.3984 264.586 99.6641C264.023 99.9141 263.57 100.305 263.227 100.836C262.898 101.352 262.664 102 262.523 102.781C262.398 103.547 262.344 104.445 262.359 105.477V107.398C262.328 108.586 262.445 109.633 262.711 110.539C262.977 111.43 263.438 112.125 264.094 112.625C264.75 113.125 265.641 113.375 266.766 113.375C267.516 113.375 268.141 113.203 268.641 112.859C269.141 112.5 269.539 112.008 269.836 111.383C270.133 110.742 270.344 110.008 270.469 109.18C270.594 108.352 270.656 107.461 270.656 106.508ZM290.414 93.6406V119H282.492V93.6406H290.414ZM282.023 87.1016C282.023 85.9766 282.43 85.0547 283.242 84.3359C284.055 83.6172 285.109 83.2578 286.406 83.2578C287.703 83.2578 288.758 83.6172 289.57 84.3359C290.383 85.0547 290.789 85.9766 290.789 87.1016C290.789 88.2266 290.383 89.1484 289.57 89.8672C288.758 90.5859 287.703 90.9453 286.406 90.9453C285.109 90.9453 284.055 90.5859 283.242 89.8672C282.43 89.1484 282.023 88.2266 282.023 87.1016ZM303.047 99.0547V119H295.148V93.6406H302.555L303.047 99.0547ZM302.109 105.453L300.258 105.5C300.258 103.562 300.492 101.836 300.961 100.32C301.43 98.7891 302.094 97.4922 302.953 96.4297C303.812 95.3672 304.836 94.5625 306.023 94.0156C307.227 93.4531 308.562 93.1719 310.031 93.1719C311.203 93.1719 312.273 93.3438 313.242 93.6875C314.227 94.0312 315.07 94.5859 315.773 95.3516C316.492 96.1172 317.039 97.1328 317.414 98.3984C317.805 99.6484 318 101.195 318 103.039V119H310.055V103.016C310.055 102 309.914 101.227 309.633 100.695C309.352 100.148 308.945 99.7734 308.414 99.5703C307.883 99.3672 307.234 99.2656 306.469 99.2656C305.656 99.2656 304.969 99.4219 304.406 99.7344C303.844 100.047 303.391 100.484 303.047 101.047C302.719 101.594 302.477 102.242 302.32 102.992C302.18 103.742 302.109 104.562 302.109 105.453ZM338.32 93.6406H345.492V118.016C345.492 120.359 344.953 122.344 343.875 123.969C342.797 125.609 341.289 126.852 339.352 127.695C337.43 128.555 335.18 128.984 332.602 128.984C331.461 128.984 330.297 128.836 329.109 128.539C327.922 128.258 326.812 127.836 325.781 127.273C324.75 126.711 323.883 126.016 323.18 125.188L326.484 120.547C327.125 121.266 327.93 121.875 328.898 122.375C329.867 122.891 331.008 123.148 332.32 123.148C333.461 123.148 334.414 122.945 335.18 122.539C335.961 122.133 336.555 121.539 336.961 120.758C337.367 119.992 337.57 119.062 337.57 117.969V99.6406L338.32 93.6406ZM321.469 106.625V106.133C321.469 104.211 321.703 102.461 322.172 100.883C322.656 99.2891 323.344 97.9219 324.234 96.7812C325.141 95.625 326.234 94.7344 327.516 94.1094C328.797 93.4844 330.242 93.1719 331.852 93.1719C333.586 93.1719 335.008 93.5078 336.117 94.1797C337.242 94.8359 338.141 95.7578 338.812 96.9453C339.5 98.1328 340.031 99.5234 340.406 101.117C340.797 102.695 341.125 104.398 341.391 106.227V106.812C341.125 108.531 340.758 110.156 340.289 111.688C339.836 113.203 339.242 114.547 338.508 115.719C337.773 116.891 336.852 117.812 335.742 118.484C334.648 119.141 333.336 119.469 331.805 119.469C330.211 119.469 328.773 119.148 327.492 118.508C326.227 117.867 325.141 116.969 324.234 115.812C323.344 114.656 322.656 113.297 322.172 111.734C321.703 110.172 321.469 108.469 321.469 106.625ZM329.367 106.133V106.625C329.367 107.578 329.453 108.461 329.625 109.273C329.812 110.086 330.094 110.805 330.469 111.43C330.844 112.039 331.305 112.516 331.852 112.859C332.414 113.203 333.07 113.375 333.82 113.375C334.961 113.375 335.883 113.133 336.586 112.648C337.289 112.164 337.797 111.477 338.109 110.586C338.422 109.695 338.555 108.648 338.508 107.445V105.594C338.539 104.562 338.469 103.656 338.297 102.875C338.125 102.078 337.852 101.414 337.477 100.883C337.117 100.352 336.633 99.9531 336.023 99.6875C335.43 99.4062 334.711 99.2656 333.867 99.2656C333.133 99.2656 332.484 99.4375 331.922 99.7812C331.359 100.125 330.891 100.609 330.516 101.234C330.141 101.844 329.852 102.57 329.648 103.414C329.461 104.242 329.367 105.148 329.367 106.133Z" fill="black"/>
<path d="M1134 0H1348C1356.28 0 1363 6.71573 1363 15V148C1363 156.284 1356.28 163 1348 163H1134V0Z" fill="#3E6751"/>
<path fill-rule="evenodd" clip-rule="evenodd" d="M1202.75 46.5018C1202.75 45.3973 1203.65 44.5018 1204.75 44.5018H1292.25C1293.35 44.5018 1294.25 45.3973 1294.25 46.5018V116.498C1294.25 117.603 1293.35 118.498 1292.25 118.498H1204.75C1203.65 118.498 1202.75 117.603 1202.75 116.498V46.5018ZM1206.75 48.5018V52.9963H1290.25V48.5018H1206.75ZM1290.25 56.9963H1235.19V114.498H1290.25V56.9963ZM1231.19 114.498V56.9963H1206.75V114.498H1231.19Z" fill="white"/>
<path fill-rule="evenodd" clip-rule="evenodd" d="M1209.72 62.3022C1209.72 61.1976 1210.62 60.3022 1211.72 60.3022H1225.72C1226.83 60.3022 1227.72 61.1976 1227.72 62.3022V81.6974C1227.72 82.802 1226.83 83.6974 1225.72 83.6974H1211.72C1210.62 83.6974 1209.72 82.802 1209.72 81.6974V62.3022ZM1213.72 64.3022V79.6974H1223.72V64.3022H1213.72ZM1239.33 63.1982C1239.33 62.0936 1240.22 61.1982 1241.33 61.1982H1284.25C1285.36 61.1982 1286.25 62.0936 1286.25 63.1982V109.407C1286.25 110.511 1285.36 111.407 1284.25 111.407H1241.33C1240.22 111.407 1239.33 110.511 1239.33 109.407V63.1982ZM1243.33 65.1982V107.407H1282.25V65.1982H1243.33ZM1209.56 93.4381C1209.56 92.3336 1210.46 91.4381 1211.56 91.4381H1220.48C1221.59 91.4381 1222.48 92.3336 1222.48 93.4381C1222.48 94.5427 1221.59 95.4381 1220.48 95.4381H1211.56C1210.46 95.4381 1209.56 94.5427 1209.56 93.4381ZM1209.56 100.438C1209.56 99.3335 1210.46 98.4381 1211.56 98.4381H1226.1C1227.21 98.4381 1228.1 99.3335 1228.1 100.438C1228.1 101.543 1227.21 102.438 1226.1 102.438H1211.56C1210.46 102.438 1209.56 101.543 1209.56 100.438ZM1209.56 107.438C1209.56 106.334 1210.46 105.438 1211.56 105.438H1220.48C1221.59 105.438 1222.48 106.334 1222.48 107.438C1222.48 108.543 1221.59 109.438 1220.48 109.438H1211.56C1210.46 109.438 1209.56 108.543 1209.56 107.438Z" fill="white"/>
</svg>
