<svg width="1363" height="163" viewBox="0 0 1363 163" fill="none" xmlns="http://www.w3.org/2000/svg">
<path d="M0 15C0 6.71573 6.71573 0 15 0H37V163H15C6.71573 163 0 156.284 0 148V15Z" fill="#424242"/>
<rect width="1097" height="163" transform="translate(37)" fill="#F0F0F0"/>
<path d="M101.906 53.9219L94.3945 51.2383V48.0859L104.602 52.375V54.6367L101.906 53.9219ZM94.3945 56.1719L101.918 53.4297L104.602 52.7852V55.0352L94.3945 59.3242V56.1719ZM116.414 43.9375V61H112.898V43.9375H116.414ZM123.211 51.2266V53.9688H115.453V51.2266H123.211ZM124.031 43.9375V46.6914H115.453V43.9375H124.031ZM125.062 54.7891V54.543C125.062 53.6133 125.195 52.7578 125.461 51.9766C125.727 51.1875 126.113 50.5039 126.621 49.9258C127.129 49.3477 127.754 48.8984 128.496 48.5781C129.238 48.25 130.09 48.0859 131.051 48.0859C132.012 48.0859 132.867 48.25 133.617 48.5781C134.367 48.8984 134.996 49.3477 135.504 49.9258C136.02 50.5039 136.41 51.1875 136.676 51.9766C136.941 52.7578 137.074 53.6133 137.074 54.543V54.7891C137.074 55.7109 136.941 56.5664 136.676 57.3555C136.41 58.1367 136.02 58.8203 135.504 59.4062C134.996 59.9844 134.371 60.4336 133.629 60.7539C132.887 61.0742 132.035 61.2344 131.074 61.2344C130.113 61.2344 129.258 61.0742 128.508 60.7539C127.766 60.4336 127.137 59.9844 126.621 59.4062C126.113 58.8203 125.727 58.1367 125.461 57.3555C125.195 56.5664 125.062 55.7109 125.062 54.7891ZM128.438 54.543V54.7891C128.438 55.3203 128.484 55.8164 128.578 56.2773C128.672 56.7383 128.82 57.1445 129.023 57.4961C129.234 57.8398 129.508 58.1094 129.844 58.3047C130.18 58.5 130.59 58.5977 131.074 58.5977C131.543 58.5977 131.945 58.5 132.281 58.3047C132.617 58.1094 132.887 57.8398 133.09 57.4961C133.293 57.1445 133.441 56.7383 133.535 56.2773C133.637 55.8164 133.688 55.3203 133.688 54.7891V54.543C133.688 54.0273 133.637 53.543 133.535 53.0898C133.441 52.6289 133.289 52.2227 133.078 51.8711C132.875 51.5117 132.605 51.2305 132.27 51.0273C131.934 50.8242 131.527 50.7227 131.051 50.7227C130.574 50.7227 130.168 50.8242 129.832 51.0273C129.504 51.2305 129.234 51.5117 129.023 51.8711C128.82 52.2227 128.672 52.6289 128.578 53.0898C128.484 53.543 128.438 54.0273 128.438 54.543ZM142.523 51.0859V61H139.148V48.3203H142.324L142.523 51.0859ZM146.344 48.2383L146.285 51.3672C146.121 51.3438 145.922 51.3242 145.688 51.3086C145.461 51.2852 145.254 51.2734 145.066 51.2734C144.59 51.2734 144.176 51.3359 143.824 51.4609C143.48 51.5781 143.191 51.7539 142.957 51.9883C142.73 52.2227 142.559 52.5078 142.441 52.8438C142.332 53.1797 142.27 53.5625 142.254 53.9922L141.574 53.7812C141.574 52.9609 141.656 52.207 141.82 51.5195C141.984 50.8242 142.223 50.2188 142.535 49.7031C142.855 49.1875 143.246 48.7891 143.707 48.5078C144.168 48.2266 144.695 48.0859 145.289 48.0859C145.477 48.0859 145.668 48.1016 145.863 48.1328C146.059 48.1562 146.219 48.1914 146.344 48.2383ZM153.539 61.2344C152.555 61.2344 151.672 61.0781 150.891 60.7656C150.109 60.4453 149.445 60.0039 148.898 59.4414C148.359 58.8789 147.945 58.2266 147.656 57.4844C147.367 56.7344 147.223 55.9375 147.223 55.0938V54.625C147.223 53.6641 147.359 52.7852 147.633 51.9883C147.906 51.1914 148.297 50.5 148.805 49.9141C149.32 49.3281 149.945 48.8789 150.68 48.5664C151.414 48.2461 152.242 48.0859 153.164 48.0859C154.062 48.0859 154.859 48.2344 155.555 48.5312C156.25 48.8281 156.832 49.25 157.301 49.7969C157.777 50.3438 158.137 51 158.379 51.7656C158.621 52.5234 158.742 53.3672 158.742 54.2969V55.7031H148.664V53.4531H155.426V53.1953C155.426 52.7266 155.34 52.3086 155.168 51.9414C155.004 51.5664 154.754 51.2695 154.418 51.0508C154.082 50.832 153.652 50.7227 153.129 50.7227C152.684 50.7227 152.301 50.8203 151.98 51.0156C151.66 51.2109 151.398 51.4844 151.195 51.8359C151 52.1875 150.852 52.6016 150.75 53.0781C150.656 53.5469 150.609 54.0625 150.609 54.625V55.0938C150.609 55.6016 150.68 56.0703 150.82 56.5C150.969 56.9297 151.176 57.3008 151.441 57.6133C151.715 57.9258 152.043 58.168 152.426 58.3398C152.816 58.5117 153.258 58.5977 153.75 58.5977C154.359 58.5977 154.926 58.4805 155.449 58.2461C155.98 58.0039 156.438 57.6406 156.82 57.1562L158.461 58.9375C158.195 59.3203 157.832 59.6875 157.371 60.0391C156.918 60.3906 156.371 60.6797 155.73 60.9062C155.09 61.125 154.359 61.2344 153.539 61.2344ZM167.52 57.4961C167.52 57.2539 167.449 57.0352 167.309 56.8398C167.168 56.6445 166.906 56.4648 166.523 56.3008C166.148 56.1289 165.605 55.9727 164.895 55.832C164.254 55.6914 163.656 55.5156 163.102 55.3047C162.555 55.0859 162.078 54.8242 161.672 54.5195C161.273 54.2148 160.961 53.8555 160.734 53.4414C160.508 53.0195 160.395 52.5391 160.395 52C160.395 51.4688 160.508 50.9688 160.734 50.5C160.969 50.0312 161.301 49.6172 161.73 49.2578C162.168 48.8906 162.699 48.6055 163.324 48.4023C163.957 48.1914 164.668 48.0859 165.457 48.0859C166.559 48.0859 167.504 48.2617 168.293 48.6133C169.09 48.9648 169.699 49.4492 170.121 50.0664C170.551 50.6758 170.766 51.3711 170.766 52.1523H167.391C167.391 51.8242 167.32 51.5312 167.18 51.2734C167.047 51.0078 166.836 50.8008 166.547 50.6523C166.266 50.4961 165.898 50.418 165.445 50.418C165.07 50.418 164.746 50.4844 164.473 50.6172C164.199 50.7422 163.988 50.9141 163.84 51.1328C163.699 51.3438 163.629 51.5781 163.629 51.8359C163.629 52.0312 163.668 52.207 163.746 52.3633C163.832 52.5117 163.969 52.6484 164.156 52.7734C164.344 52.8984 164.586 53.0156 164.883 53.125C165.188 53.2266 165.562 53.3203 166.008 53.4062C166.922 53.5938 167.738 53.8398 168.457 54.1445C169.176 54.4414 169.746 54.8477 170.168 55.3633C170.59 55.8711 170.801 56.5391 170.801 57.3672C170.801 57.9297 170.676 58.4453 170.426 58.9141C170.176 59.3828 169.816 59.793 169.348 60.1445C168.879 60.4883 168.316 60.7578 167.66 60.9531C167.012 61.1406 166.281 61.2344 165.469 61.2344C164.289 61.2344 163.289 61.0234 162.469 60.6016C161.656 60.1797 161.039 59.6445 160.617 58.9961C160.203 58.3398 159.996 57.668 159.996 56.9805H163.195C163.211 57.4414 163.328 57.8125 163.547 58.0938C163.773 58.375 164.059 58.5781 164.402 58.7031C164.754 58.8281 165.133 58.8906 165.539 58.8906C165.977 58.8906 166.34 58.832 166.629 58.7148C166.918 58.5898 167.137 58.4258 167.285 58.2227C167.441 58.0117 167.52 57.7695 167.52 57.4961ZM179.203 48.3203V50.7109H171.82V48.3203H179.203ZM173.648 45.1914H177.023V57.1797C177.023 57.5469 177.07 57.8281 177.164 58.0234C177.266 58.2188 177.414 58.3555 177.609 58.4336C177.805 58.5039 178.051 58.5391 178.348 58.5391C178.559 58.5391 178.746 58.5312 178.91 58.5156C179.082 58.4922 179.227 58.4688 179.344 58.4453L179.355 60.9297C179.066 61.0234 178.754 61.0977 178.418 61.1523C178.082 61.207 177.711 61.2344 177.305 61.2344C176.562 61.2344 175.914 61.1133 175.359 60.8711C174.812 60.6211 174.391 60.2227 174.094 59.6758C173.797 59.1289 173.648 58.4102 173.648 57.5195V45.1914ZM200.836 52.082V58.8438C200.57 59.1641 200.16 59.5117 199.605 59.8867C199.051 60.2539 198.336 60.5703 197.461 60.8359C196.586 61.1016 195.527 61.2344 194.285 61.2344C193.184 61.2344 192.18 61.0547 191.273 60.6953C190.367 60.3281 189.586 59.793 188.93 59.0898C188.281 58.3867 187.781 57.5273 187.43 56.5117C187.078 55.4883 186.902 54.3203 186.902 53.0078V51.9414C186.902 50.6289 187.07 49.4609 187.406 48.4375C187.75 47.4141 188.238 46.5508 188.871 45.8477C189.504 45.1445 190.258 44.6094 191.133 44.2422C192.008 43.875 192.98 43.6914 194.051 43.6914C195.535 43.6914 196.754 43.9336 197.707 44.418C198.66 44.8945 199.387 45.5586 199.887 46.4102C200.395 47.2539 200.707 48.2227 200.824 49.3164H197.414C197.328 48.7383 197.164 48.2344 196.922 47.8047C196.68 47.375 196.332 47.0391 195.879 46.7969C195.434 46.5547 194.855 46.4336 194.145 46.4336C193.559 46.4336 193.035 46.5547 192.574 46.7969C192.121 47.0312 191.738 47.3789 191.426 47.8398C191.113 48.3008 190.875 48.8711 190.711 49.5508C190.547 50.2305 190.465 51.0195 190.465 51.918V53.0078C190.465 53.8984 190.551 54.6875 190.723 55.375C190.895 56.0547 191.148 56.6289 191.484 57.0977C191.828 57.5586 192.25 57.9062 192.75 58.1406C193.25 58.375 193.832 58.4922 194.496 58.4922C195.051 58.4922 195.512 58.4453 195.879 58.3516C196.254 58.2578 196.555 58.1445 196.781 58.0117C197.016 57.8711 197.195 57.7383 197.32 57.6133V54.5898H194.109V52.082H200.836ZM210.961 57.9648V48.3203H214.336V61H211.16L210.961 57.9648ZM211.336 55.3633L212.332 55.3398C212.332 56.1836 212.234 56.9688 212.039 57.6953C211.844 58.4141 211.551 59.0391 211.16 59.5703C210.77 60.0938 210.277 60.5039 209.684 60.8008C209.09 61.0898 208.391 61.2344 207.586 61.2344C206.969 61.2344 206.398 61.1484 205.875 60.9766C205.359 60.7969 204.914 60.5195 204.539 60.1445C204.172 59.7617 203.883 59.2734 203.672 58.6797C203.469 58.0781 203.367 57.3555 203.367 56.5117V48.3203H206.742V56.5352C206.742 56.9102 206.785 57.2266 206.871 57.4844C206.965 57.7422 207.094 57.9531 207.258 58.1172C207.422 58.2812 207.613 58.3984 207.832 58.4688C208.059 58.5391 208.309 58.5742 208.582 58.5742C209.277 58.5742 209.824 58.4336 210.223 58.1523C210.629 57.8711 210.914 57.4883 211.078 57.0039C211.25 56.5117 211.336 55.9648 211.336 55.3633ZM223.758 58.1406V52.4922C223.758 52.0859 223.691 51.7383 223.559 51.4492C223.426 51.1523 223.219 50.9219 222.938 50.7578C222.664 50.5938 222.309 50.5117 221.871 50.5117C221.496 50.5117 221.172 50.5781 220.898 50.7109C220.625 50.8359 220.414 51.0195 220.266 51.2617C220.117 51.4961 220.043 51.7734 220.043 52.0938H216.668C216.668 51.5547 216.793 51.043 217.043 50.5586C217.293 50.0742 217.656 49.6484 218.133 49.2812C218.609 48.9062 219.176 48.6133 219.832 48.4023C220.496 48.1914 221.238 48.0859 222.059 48.0859C223.043 48.0859 223.918 48.25 224.684 48.5781C225.449 48.9062 226.051 49.3984 226.488 50.0547C226.934 50.7109 227.156 51.5312 227.156 52.5156V57.9414C227.156 58.6367 227.199 59.207 227.285 59.6523C227.371 60.0898 227.496 60.4727 227.66 60.8008V61H224.25C224.086 60.6562 223.961 60.2266 223.875 59.7109C223.797 59.1875 223.758 58.6641 223.758 58.1406ZM224.203 53.2773L224.227 55.1875H222.34C221.895 55.1875 221.508 55.2383 221.18 55.3398C220.852 55.4414 220.582 55.5859 220.371 55.7734C220.16 55.9531 220.004 56.1641 219.902 56.4062C219.809 56.6484 219.762 56.9141 219.762 57.2031C219.762 57.4922 219.828 57.7539 219.961 57.9883C220.094 58.2148 220.285 58.3945 220.535 58.5273C220.785 58.6523 221.078 58.7148 221.414 58.7148C221.922 58.7148 222.363 58.6133 222.738 58.4102C223.113 58.207 223.402 57.957 223.605 57.6602C223.816 57.3633 223.926 57.082 223.934 56.8164L224.824 58.2461C224.699 58.5664 224.527 58.8984 224.309 59.2422C224.098 59.5859 223.828 59.9102 223.5 60.2148C223.172 60.5117 222.777 60.7578 222.316 60.9531C221.855 61.1406 221.309 61.2344 220.676 61.2344C219.871 61.2344 219.141 61.0742 218.484 60.7539C217.836 60.4258 217.32 59.9766 216.938 59.4062C216.562 58.8281 216.375 58.1719 216.375 57.4375C216.375 56.7734 216.5 56.1836 216.75 55.668C217 55.1523 217.367 54.7188 217.852 54.3672C218.344 54.0078 218.957 53.7383 219.691 53.5586C220.426 53.3711 221.277 53.2773 222.246 53.2773H224.203ZM233.133 51.0859V61H229.758V48.3203H232.934L233.133 51.0859ZM236.953 48.2383L236.895 51.3672C236.73 51.3438 236.531 51.3242 236.297 51.3086C236.07 51.2852 235.863 51.2734 235.676 51.2734C235.199 51.2734 234.785 51.3359 234.434 51.4609C234.09 51.5781 233.801 51.7539 233.566 51.9883C233.34 52.2227 233.168 52.5078 233.051 52.8438C232.941 53.1797 232.879 53.5625 232.863 53.9922L232.184 53.7812C232.184 52.9609 232.266 52.207 232.43 51.5195C232.594 50.8242 232.832 50.2188 233.145 49.7031C233.465 49.1875 233.855 48.7891 234.316 48.5078C234.777 48.2266 235.305 48.0859 235.898 48.0859C236.086 48.0859 236.277 48.1016 236.473 48.1328C236.668 48.1562 236.828 48.1914 236.953 48.2383ZM245.801 58.2344V43H249.199V61H246.141L245.801 58.2344ZM237.785 54.8125V54.5664C237.785 53.5977 237.895 52.7188 238.113 51.9297C238.332 51.1328 238.652 50.4492 239.074 49.8789C239.496 49.3086 240.016 48.8672 240.633 48.5547C241.25 48.2422 241.953 48.0859 242.742 48.0859C243.484 48.0859 244.133 48.2422 244.688 48.5547C245.25 48.8672 245.727 49.3125 246.117 49.8906C246.516 50.4609 246.836 51.1367 247.078 51.918C247.32 52.6914 247.496 53.5391 247.605 54.4609V55C247.496 55.8828 247.32 56.7031 247.078 57.4609C246.836 58.2188 246.516 58.8828 246.117 59.4531C245.727 60.0156 245.25 60.4531 244.688 60.7656C244.125 61.0781 243.469 61.2344 242.719 61.2344C241.93 61.2344 241.227 61.0742 240.609 60.7539C240 60.4336 239.484 59.9844 239.062 59.4062C238.648 58.8281 238.332 58.1484 238.113 57.3672C237.895 56.5859 237.785 55.7344 237.785 54.8125ZM241.16 54.5664V54.8125C241.16 55.3359 241.199 55.8242 241.277 56.2773C241.363 56.7305 241.5 57.1328 241.688 57.4844C241.883 57.8281 242.133 58.0977 242.438 58.293C242.75 58.4805 243.129 58.5742 243.574 58.5742C244.152 58.5742 244.629 58.4453 245.004 58.1875C245.379 57.9219 245.664 57.5586 245.859 57.0977C246.062 56.6367 246.18 56.1055 246.211 55.5039V53.9688C246.188 53.4766 246.117 53.0352 246 52.6445C245.891 52.2461 245.727 51.9062 245.508 51.625C245.297 51.3438 245.031 51.125 244.711 50.9688C244.398 50.8125 244.027 50.7344 243.598 50.7344C243.16 50.7344 242.785 50.8359 242.473 51.0391C242.16 51.2344 241.906 51.5039 241.711 51.8477C241.523 52.1914 241.383 52.5977 241.289 53.0664C241.203 53.5273 241.16 54.0273 241.16 54.5664ZM255.398 48.3203V61H252.012V48.3203H255.398ZM251.801 45.0156C251.801 44.5234 251.973 44.1172 252.316 43.7969C252.66 43.4766 253.121 43.3164 253.699 43.3164C254.27 43.3164 254.727 43.4766 255.07 43.7969C255.422 44.1172 255.598 44.5234 255.598 45.0156C255.598 45.5078 255.422 45.9141 255.07 46.2344C254.727 46.5547 254.27 46.7148 253.699 46.7148C253.121 46.7148 252.66 46.5547 252.316 46.2344C251.973 45.9141 251.801 45.5078 251.801 45.0156ZM265.031 58.1406V52.4922C265.031 52.0859 264.965 51.7383 264.832 51.4492C264.699 51.1523 264.492 50.9219 264.211 50.7578C263.938 50.5938 263.582 50.5117 263.145 50.5117C262.77 50.5117 262.445 50.5781 262.172 50.7109C261.898 50.8359 261.688 51.0195 261.539 51.2617C261.391 51.4961 261.316 51.7734 261.316 52.0938H257.941C257.941 51.5547 258.066 51.043 258.316 50.5586C258.566 50.0742 258.93 49.6484 259.406 49.2812C259.883 48.9062 260.449 48.6133 261.105 48.4023C261.77 48.1914 262.512 48.0859 263.332 48.0859C264.316 48.0859 265.191 48.25 265.957 48.5781C266.723 48.9062 267.324 49.3984 267.762 50.0547C268.207 50.7109 268.43 51.5312 268.43 52.5156V57.9414C268.43 58.6367 268.473 59.207 268.559 59.6523C268.645 60.0898 268.77 60.4727 268.934 60.8008V61H265.523C265.359 60.6562 265.234 60.2266 265.148 59.7109C265.07 59.1875 265.031 58.6641 265.031 58.1406ZM265.477 53.2773L265.5 55.1875H263.613C263.168 55.1875 262.781 55.2383 262.453 55.3398C262.125 55.4414 261.855 55.5859 261.645 55.7734C261.434 55.9531 261.277 56.1641 261.176 56.4062C261.082 56.6484 261.035 56.9141 261.035 57.2031C261.035 57.4922 261.102 57.7539 261.234 57.9883C261.367 58.2148 261.559 58.3945 261.809 58.5273C262.059 58.6523 262.352 58.7148 262.688 58.7148C263.195 58.7148 263.637 58.6133 264.012 58.4102C264.387 58.207 264.676 57.957 264.879 57.6602C265.09 57.3633 265.199 57.082 265.207 56.8164L266.098 58.2461C265.973 58.5664 265.801 58.8984 265.582 59.2422C265.371 59.5859 265.102 59.9102 264.773 60.2148C264.445 60.5117 264.051 60.7578 263.59 60.9531C263.129 61.1406 262.582 61.2344 261.949 61.2344C261.145 61.2344 260.414 61.0742 259.758 60.7539C259.109 60.4258 258.594 59.9766 258.211 59.4062C257.836 58.8281 257.648 58.1719 257.648 57.4375C257.648 56.7734 257.773 56.1836 258.023 55.668C258.273 55.1523 258.641 54.7188 259.125 54.3672C259.617 54.0078 260.23 53.7383 260.965 53.5586C261.699 53.3711 262.551 53.2773 263.52 53.2773H265.477ZM274.336 51.0273V61H270.961V48.3203H274.125L274.336 51.0273ZM273.844 54.2148H272.93C272.93 53.2773 273.051 52.4336 273.293 51.6836C273.535 50.9258 273.875 50.2812 274.312 49.75C274.75 49.2109 275.27 48.8008 275.871 48.5195C276.48 48.2305 277.16 48.0859 277.91 48.0859C278.504 48.0859 279.047 48.1719 279.539 48.3438C280.031 48.5156 280.453 48.7891 280.805 49.1641C281.164 49.5391 281.438 50.0352 281.625 50.6523C281.82 51.2695 281.918 52.0234 281.918 52.9141V61H278.52V52.9023C278.52 52.3398 278.441 51.9023 278.285 51.5898C278.129 51.2773 277.898 51.0586 277.594 50.9336C277.297 50.8008 276.93 50.7344 276.492 50.7344C276.039 50.7344 275.645 50.8242 275.309 51.0039C274.98 51.1836 274.707 51.4336 274.488 51.7539C274.277 52.0664 274.117 52.4336 274.008 52.8555C273.898 53.2773 273.844 53.7305 273.844 54.2148Z" fill="#888888"/>
<path d="M112.125 84.875V119H103.898V84.875H112.125ZM122.391 84.875V91.2266H93.8672V84.875H122.391ZM135.68 119.469C133.617 119.469 131.773 119.148 130.148 118.508C128.523 117.852 127.148 116.953 126.023 115.812C124.914 114.672 124.062 113.359 123.469 111.875C122.891 110.391 122.602 108.82 122.602 107.164V106.273C122.602 104.414 122.859 102.695 123.375 101.117C123.891 99.5234 124.656 98.1328 125.672 96.9453C126.688 95.7578 127.961 94.8359 129.492 94.1797C131.023 93.5078 132.805 93.1719 134.836 93.1719C136.633 93.1719 138.242 93.4609 139.664 94.0391C141.086 94.6172 142.289 95.4453 143.273 96.5234C144.273 97.6016 145.031 98.9062 145.547 100.438C146.078 101.969 146.344 103.688 146.344 105.594V108.805H125.625V103.859H138.633V103.25C138.648 102.406 138.5 101.688 138.188 101.094C137.891 100.5 137.453 100.047 136.875 99.7344C136.297 99.4219 135.594 99.2656 134.766 99.2656C133.906 99.2656 133.195 99.4531 132.633 99.8281C132.086 100.203 131.656 100.719 131.344 101.375C131.047 102.016 130.836 102.758 130.711 103.602C130.586 104.445 130.523 105.336 130.523 106.273V107.164C130.523 108.102 130.648 108.953 130.898 109.719C131.164 110.484 131.539 111.141 132.023 111.688C132.523 112.219 133.117 112.633 133.805 112.93C134.508 113.227 135.305 113.375 136.195 113.375C137.273 113.375 138.336 113.172 139.383 112.766C140.43 112.359 141.328 111.688 142.078 110.75L145.664 115.016C145.148 115.75 144.414 116.461 143.461 117.148C142.523 117.836 141.398 118.398 140.086 118.836C138.773 119.258 137.305 119.469 135.68 119.469ZM160.266 113.375C161 113.375 161.625 113.242 162.141 112.977C162.672 112.695 163.07 112.305 163.336 111.805C163.617 111.289 163.75 110.672 163.734 109.953H171.164C171.18 111.859 170.711 113.531 169.758 114.969C168.82 116.391 167.539 117.5 165.914 118.297C164.305 119.078 162.484 119.469 160.453 119.469C158.469 119.469 156.734 119.148 155.25 118.508C153.766 117.852 152.523 116.945 151.523 115.789C150.539 114.617 149.797 113.25 149.297 111.688C148.812 110.125 148.57 108.43 148.57 106.602V106.062C148.57 104.234 148.812 102.539 149.297 100.977C149.797 99.3984 150.539 98.0312 151.523 96.875C152.523 95.7031 153.758 94.7969 155.227 94.1562C156.711 93.5 158.438 93.1719 160.406 93.1719C162.516 93.1719 164.375 93.5703 165.984 94.3672C167.609 95.1641 168.883 96.3203 169.805 97.8359C170.727 99.3516 171.18 101.188 171.164 103.344H163.734C163.75 102.578 163.633 101.891 163.383 101.281C163.133 100.672 162.742 100.188 162.211 99.8281C161.695 99.4531 161.031 99.2656 160.219 99.2656C159.406 99.2656 158.75 99.4453 158.25 99.8047C157.75 100.164 157.367 100.664 157.102 101.305C156.852 101.93 156.68 102.648 156.586 103.461C156.508 104.273 156.469 105.141 156.469 106.062V106.602C156.469 107.539 156.508 108.422 156.586 109.25C156.68 110.062 156.859 110.781 157.125 111.406C157.391 112.016 157.773 112.5 158.273 112.859C158.773 113.203 159.438 113.375 160.266 113.375ZM182.273 83V119H174.375V83H182.273ZM181.336 105.453L179.484 105.5C179.484 103.719 179.703 102.078 180.141 100.578C180.578 99.0781 181.203 97.7734 182.016 96.6641C182.828 95.5547 183.805 94.6953 184.945 94.0859C186.086 93.4766 187.352 93.1719 188.742 93.1719C189.992 93.1719 191.133 93.3516 192.164 93.7109C193.211 94.0703 194.109 94.6484 194.859 95.4453C195.625 96.2422 196.211 97.2812 196.617 98.5625C197.039 99.8438 197.25 101.406 197.25 103.25V119H189.305V103.203C189.305 102.172 189.156 101.375 188.859 100.812C188.578 100.234 188.172 99.8359 187.641 99.6172C187.109 99.3828 186.461 99.2656 185.695 99.2656C184.773 99.2656 184.023 99.4219 183.445 99.7344C182.867 100.047 182.422 100.484 182.109 101.047C181.812 101.594 181.609 102.242 181.5 102.992C181.391 103.742 181.336 104.562 181.336 105.453ZM231.539 109.93C231.539 109.398 231.461 108.922 231.305 108.5C231.148 108.062 230.859 107.656 230.438 107.281C230.016 106.906 229.406 106.531 228.609 106.156C227.828 105.766 226.797 105.359 225.516 104.938C224.016 104.438 222.57 103.875 221.18 103.25C219.789 102.609 218.547 101.867 217.453 101.023C216.359 100.164 215.492 99.1641 214.852 98.0234C214.211 96.8672 213.891 95.5234 213.891 93.9922C213.891 92.5234 214.219 91.2031 214.875 90.0312C215.531 88.8438 216.445 87.8359 217.617 87.0078C218.805 86.1641 220.195 85.5234 221.789 85.0859C223.383 84.6328 225.125 84.4062 227.016 84.4062C229.516 84.4062 231.719 84.8438 233.625 85.7188C235.547 86.5781 237.047 87.8047 238.125 89.3984C239.219 90.9766 239.766 92.8438 239.766 95H231.586C231.586 94.1406 231.406 93.3828 231.047 92.7266C230.703 92.0703 230.18 91.5547 229.477 91.1797C228.773 90.8047 227.891 90.6172 226.828 90.6172C225.797 90.6172 224.93 90.7734 224.227 91.0859C223.523 91.3984 222.992 91.8203 222.633 92.3516C222.273 92.8672 222.094 93.4375 222.094 94.0625C222.094 94.5781 222.234 95.0469 222.516 95.4688C222.812 95.875 223.227 96.2578 223.758 96.6172C224.305 96.9766 224.961 97.3203 225.727 97.6484C226.508 97.9766 227.383 98.2969 228.352 98.6094C230.164 99.1875 231.773 99.8359 233.18 100.555C234.602 101.258 235.797 102.062 236.766 102.969C237.75 103.859 238.492 104.875 238.992 106.016C239.508 107.156 239.766 108.445 239.766 109.883C239.766 111.414 239.469 112.773 238.875 113.961C238.281 115.148 237.43 116.156 236.32 116.984C235.211 117.797 233.883 118.414 232.336 118.836C230.789 119.258 229.062 119.469 227.156 119.469C225.406 119.469 223.68 119.25 221.977 118.812C220.289 118.359 218.758 117.672 217.383 116.75C216.008 115.812 214.906 114.617 214.078 113.164C213.266 111.695 212.859 109.953 212.859 107.938H221.109C221.109 108.938 221.242 109.781 221.508 110.469C221.773 111.156 222.164 111.711 222.68 112.133C223.195 112.539 223.828 112.836 224.578 113.023C225.328 113.195 226.188 113.281 227.156 113.281C228.203 113.281 229.047 113.133 229.688 112.836C230.328 112.523 230.797 112.117 231.094 111.617C231.391 111.102 231.539 110.539 231.539 109.93ZM256.992 93.6406V99.125H241.711V93.6406H256.992ZM244.922 87.3359H252.82V110.727C252.82 111.398 252.898 111.922 253.055 112.297C253.211 112.656 253.477 112.914 253.852 113.07C254.242 113.211 254.758 113.281 255.398 113.281C255.852 113.281 256.227 113.273 256.523 113.258C256.82 113.227 257.102 113.188 257.367 113.141V118.789C256.695 119.008 255.992 119.172 255.258 119.281C254.523 119.406 253.742 119.469 252.914 119.469C251.227 119.469 249.781 119.203 248.578 118.672C247.391 118.141 246.484 117.305 245.859 116.164C245.234 115.023 244.922 113.539 244.922 111.711V87.3359ZM273.305 112.625V102.172C273.305 101.453 273.203 100.836 273 100.32C272.797 99.8047 272.477 99.4062 272.039 99.125C271.602 98.8281 271.016 98.6797 270.281 98.6797C269.688 98.6797 269.18 98.7812 268.758 98.9844C268.336 99.1875 268.016 99.4922 267.797 99.8984C267.578 100.305 267.469 100.82 267.469 101.445H259.57C259.57 100.273 259.828 99.1875 260.344 98.1875C260.875 97.1719 261.625 96.2891 262.594 95.5391C263.578 94.7891 264.75 94.2109 266.109 93.8047C267.484 93.3828 269.016 93.1719 270.703 93.1719C272.719 93.1719 274.516 93.5078 276.094 94.1797C277.688 94.8516 278.945 95.8594 279.867 97.2031C280.789 98.5312 281.25 100.203 281.25 102.219V112.602C281.25 114.258 281.344 115.516 281.531 116.375C281.719 117.219 281.984 117.961 282.328 118.602V119H274.406C274.031 118.219 273.75 117.266 273.562 116.141C273.391 115 273.305 113.828 273.305 112.625ZM274.266 103.508L274.312 107.727H270.82C270.086 107.727 269.461 107.828 268.945 108.031C268.445 108.234 268.039 108.516 267.727 108.875C267.43 109.219 267.211 109.609 267.07 110.047C266.945 110.484 266.883 110.945 266.883 111.43C266.883 111.898 266.992 112.32 267.211 112.695C267.445 113.055 267.758 113.336 268.148 113.539C268.539 113.742 268.977 113.844 269.461 113.844C270.336 113.844 271.078 113.68 271.688 113.352C272.312 113.008 272.789 112.594 273.117 112.109C273.445 111.625 273.609 111.172 273.609 110.75L275.344 113.984C275.031 114.609 274.672 115.242 274.266 115.883C273.875 116.523 273.383 117.117 272.789 117.664C272.211 118.195 271.5 118.633 270.656 118.977C269.812 119.305 268.789 119.469 267.586 119.469C266.023 119.469 264.586 119.148 263.273 118.508C261.977 117.867 260.938 116.977 260.156 115.836C259.375 114.68 258.984 113.352 258.984 111.852C258.984 110.539 259.219 109.367 259.688 108.336C260.172 107.305 260.898 106.43 261.867 105.711C262.836 104.992 264.07 104.445 265.57 104.07C267.07 103.695 268.836 103.508 270.867 103.508H274.266ZM296.344 113.375C297.078 113.375 297.703 113.242 298.219 112.977C298.75 112.695 299.148 112.305 299.414 111.805C299.695 111.289 299.828 110.672 299.812 109.953H307.242C307.258 111.859 306.789 113.531 305.836 114.969C304.898 116.391 303.617 117.5 301.992 118.297C300.383 119.078 298.562 119.469 296.531 119.469C294.547 119.469 292.812 119.148 291.328 118.508C289.844 117.852 288.602 116.945 287.602 115.789C286.617 114.617 285.875 113.25 285.375 111.688C284.891 110.125 284.648 108.43 284.648 106.602V106.062C284.648 104.234 284.891 102.539 285.375 100.977C285.875 99.3984 286.617 98.0312 287.602 96.875C288.602 95.7031 289.836 94.7969 291.305 94.1562C292.789 93.5 294.516 93.1719 296.484 93.1719C298.594 93.1719 300.453 93.5703 302.062 94.3672C303.688 95.1641 304.961 96.3203 305.883 97.8359C306.805 99.3516 307.258 101.188 307.242 103.344H299.812C299.828 102.578 299.711 101.891 299.461 101.281C299.211 100.672 298.82 100.188 298.289 99.8281C297.773 99.4531 297.109 99.2656 296.297 99.2656C295.484 99.2656 294.828 99.4453 294.328 99.8047C293.828 100.164 293.445 100.664 293.18 101.305C292.93 101.93 292.758 102.648 292.664 103.461C292.586 104.273 292.547 105.141 292.547 106.062V106.602C292.547 107.539 292.586 108.422 292.664 109.25C292.758 110.062 292.938 110.781 293.203 111.406C293.469 112.016 293.852 112.5 294.352 112.859C294.852 113.203 295.516 113.375 296.344 113.375ZM318.586 82.9766V119H310.688V82.9766H318.586ZM334.805 93.6406L323.789 106.555L318.023 112.32L314.578 107.305L319.383 101.047L325.336 93.6406H334.805ZM326.344 119L319.57 107.445L325.406 103.297L335.391 119H326.344Z" fill="black"/>
<path d="M1134 0H1348C1356.28 0 1363 6.71573 1363 15V148C1363 156.284 1356.28 163 1348 163H1134V0Z" fill="#3E6751"/>
<path fill-rule="evenodd" clip-rule="evenodd" d="M1218.75 53C1218.62 53 1218.49 53.0527 1218.4 53.1464C1218.3 53.2402 1218.25 53.3674 1218.25 53.5V109.5C1218.25 109.633 1218.3 109.76 1218.4 109.854C1218.49 109.947 1218.62 110 1218.75 110H1278.25C1278.38 110 1278.51 109.947 1278.6 109.854C1278.7 109.76 1278.75 109.633 1278.75 109.5V64C1278.75 63.8674 1278.7 63.7402 1278.6 63.6464C1278.51 63.5527 1278.38 63.5 1278.25 63.5H1248.5C1247.61 63.5 1246.77 63.1045 1246.2 62.4206L1238.34 53H1218.75ZM1214.15 48.9038C1215.37 47.6848 1217.03 47 1218.75 47H1239.75C1240.64 47 1241.48 47.3955 1242.05 48.0794L1249.91 57.5H1278.25C1279.97 57.5 1281.63 58.1848 1282.85 59.4038C1284.07 60.6228 1284.75 62.2761 1284.75 64V109.5C1284.75 111.224 1284.07 112.877 1282.85 114.096C1281.63 115.315 1279.97 116 1278.25 116H1218.75C1217.03 116 1215.37 115.315 1214.15 114.096C1212.93 112.877 1212.25 111.224 1212.25 109.5V53.5C1212.25 51.7761 1212.93 50.1228 1214.15 48.9038Z" fill="white"/>
<path fill-rule="evenodd" clip-rule="evenodd" d="M1243.97 75.5251C1245.34 76.892 1245.34 79.108 1243.97 80.4749L1237.7 86.75L1243.97 93.0251C1245.34 94.392 1245.34 96.608 1243.97 97.9749C1242.61 99.3417 1240.39 99.3417 1239.03 97.9749L1230.28 89.2249C1228.91 87.858 1228.91 85.642 1230.28 84.2751L1239.03 75.5251C1240.39 74.1583 1242.61 74.1583 1243.97 75.5251Z" fill="white"/>
<path fill-rule="evenodd" clip-rule="evenodd" d="M1252.28 97.9749C1250.91 96.608 1250.91 94.392 1252.28 93.0251L1258.55 86.75L1252.28 80.4749C1250.91 79.108 1250.91 76.892 1252.28 75.5251C1253.64 74.1583 1255.86 74.1583 1257.22 75.5251L1265.97 84.2751C1267.34 85.642 1267.34 87.858 1265.97 89.2249L1257.22 97.9749C1255.86 99.3417 1253.64 99.3417 1252.28 97.9749Z" fill="white"/>
</svg>
