<svg width="1363" height="297" viewBox="0 0 1363 297" fill="none" xmlns="http://www.w3.org/2000/svg">
<path d="M0 15C0 6.71573 6.71573 0 15 0H37V297H15C6.71573 297 0 290.284 0 282V15Z" fill="#3E6751"/>
<path d="M37 0H1066V297H37V0Z" fill="#F0F0F0"/>
<path d="M112.354 59.8301V63.9434H98.9941V59.8301H112.354ZM100.559 49.4062V75H95.2852V49.4062H100.559ZM116.115 49.4062V75H110.859V49.4062H116.115ZM125.73 55.9805V75H120.65V55.9805H125.73ZM120.334 51.0234C120.334 50.2852 120.592 49.6758 121.107 49.1953C121.623 48.7148 122.314 48.4746 123.182 48.4746C124.037 48.4746 124.723 48.7148 125.238 49.1953C125.766 49.6758 126.029 50.2852 126.029 51.0234C126.029 51.7617 125.766 52.3711 125.238 52.8516C124.723 53.332 124.037 53.5723 123.182 53.5723C122.314 53.5723 121.623 53.332 121.107 52.8516C120.592 52.3711 120.334 51.7617 120.334 51.0234ZM135.258 48V75H130.178V48H135.258ZM149.707 70.7109V62.2383C149.707 61.6289 149.607 61.1074 149.408 60.6738C149.209 60.2285 148.898 59.8828 148.477 59.6367C148.066 59.3906 147.533 59.2676 146.877 59.2676C146.314 59.2676 145.828 59.3672 145.418 59.5664C145.008 59.7539 144.691 60.0293 144.469 60.3926C144.246 60.7441 144.135 61.1602 144.135 61.6406H139.072C139.072 60.832 139.26 60.0645 139.635 59.3379C140.01 58.6113 140.555 57.9727 141.27 57.4219C141.984 56.8594 142.834 56.4199 143.818 56.1035C144.814 55.7871 145.928 55.6289 147.158 55.6289C148.635 55.6289 149.947 55.875 151.096 56.3672C152.244 56.8594 153.146 57.5977 153.803 58.582C154.471 59.5664 154.805 60.7969 154.805 62.2734V70.4121C154.805 71.4551 154.869 72.3105 154.998 72.9785C155.127 73.6348 155.314 74.209 155.561 74.7012V75H150.445C150.199 74.4844 150.012 73.8398 149.883 73.0664C149.766 72.2812 149.707 71.4961 149.707 70.7109ZM150.375 63.416L150.41 66.2812H147.58C146.912 66.2812 146.332 66.3574 145.84 66.5098C145.348 66.6621 144.943 66.8789 144.627 67.1602C144.311 67.4297 144.076 67.7461 143.924 68.1094C143.783 68.4727 143.713 68.8711 143.713 69.3047C143.713 69.7383 143.812 70.1309 144.012 70.4824C144.211 70.8223 144.498 71.0918 144.873 71.291C145.248 71.4785 145.688 71.5723 146.191 71.5723C146.953 71.5723 147.615 71.4199 148.178 71.1152C148.74 70.8105 149.174 70.4355 149.479 69.9902C149.795 69.5449 149.959 69.123 149.971 68.7246L151.307 70.8691C151.119 71.3496 150.861 71.8477 150.533 72.3633C150.217 72.8789 149.812 73.3652 149.32 73.8223C148.828 74.2676 148.236 74.6367 147.545 74.9297C146.854 75.2109 146.033 75.3516 145.084 75.3516C143.877 75.3516 142.781 75.1113 141.797 74.6309C140.824 74.1387 140.051 73.4648 139.477 72.6094C138.914 71.7422 138.633 70.7578 138.633 69.6562C138.633 68.6602 138.82 67.7754 139.195 67.002C139.57 66.2285 140.121 65.5781 140.848 65.0508C141.586 64.5117 142.506 64.1074 143.607 63.8379C144.709 63.5566 145.986 63.416 147.439 63.416H150.375ZM164.051 48V75H158.971V48H164.051ZM187.535 63.7676H180.961L180.926 60.1465H186.445C187.418 60.1465 188.215 60.0234 188.836 59.7773C189.457 59.5195 189.92 59.1504 190.225 58.6699C190.541 58.1777 190.699 57.5801 190.699 56.877C190.699 56.0801 190.547 55.4355 190.242 54.9434C189.949 54.4512 189.486 54.0938 188.854 53.8711C188.232 53.6484 187.43 53.5371 186.445 53.5371H182.789V75H177.516V49.4062H186.445C187.934 49.4062 189.264 49.5469 190.436 49.8281C191.619 50.1094 192.621 50.5371 193.441 51.1113C194.262 51.6855 194.889 52.4121 195.322 53.291C195.756 54.1582 195.973 55.1895 195.973 56.3848C195.973 57.4395 195.732 58.4121 195.252 59.3027C194.783 60.1934 194.039 60.9199 193.02 61.4824C192.012 62.0449 190.693 62.3555 189.064 62.4141L187.535 63.7676ZM187.307 75H179.52L181.576 70.8867H187.307C188.232 70.8867 188.988 70.7402 189.574 70.4473C190.16 70.1426 190.594 69.7324 190.875 69.2168C191.156 68.7012 191.297 68.1094 191.297 67.4414C191.297 66.6914 191.168 66.041 190.91 65.4902C190.664 64.9395 190.266 64.5176 189.715 64.2246C189.164 63.9199 188.438 63.7676 187.535 63.7676H182.455L182.49 60.1465H188.818L190.031 61.5703C191.59 61.5469 192.844 61.8223 193.793 62.3965C194.754 62.959 195.451 63.6914 195.885 64.5938C196.33 65.4961 196.553 66.4629 196.553 67.4941C196.553 69.1348 196.195 70.5176 195.48 71.6426C194.766 72.7559 193.717 73.5938 192.334 74.1562C190.963 74.7188 189.287 75 187.307 75ZM199.383 65.6836V65.3145C199.383 63.9199 199.582 62.6367 199.98 61.4648C200.379 60.2812 200.959 59.2559 201.721 58.3887C202.482 57.5215 203.42 56.8477 204.533 56.3672C205.646 55.875 206.924 55.6289 208.365 55.6289C209.807 55.6289 211.09 55.875 212.215 56.3672C213.34 56.8477 214.283 57.5215 215.045 58.3887C215.818 59.2559 216.404 60.2812 216.803 61.4648C217.201 62.6367 217.4 63.9199 217.4 65.3145V65.6836C217.4 67.0664 217.201 68.3496 216.803 69.5332C216.404 70.7051 215.818 71.7305 215.045 72.6094C214.283 73.4766 213.346 74.1504 212.232 74.6309C211.119 75.1113 209.842 75.3516 208.4 75.3516C206.959 75.3516 205.676 75.1113 204.551 74.6309C203.438 74.1504 202.494 73.4766 201.721 72.6094C200.959 71.7305 200.379 70.7051 199.98 69.5332C199.582 68.3496 199.383 67.0664 199.383 65.6836ZM204.445 65.3145V65.6836C204.445 66.4805 204.516 67.2246 204.656 67.916C204.797 68.6074 205.02 69.2168 205.324 69.7441C205.641 70.2598 206.051 70.6641 206.555 70.957C207.059 71.25 207.674 71.3965 208.4 71.3965C209.104 71.3965 209.707 71.25 210.211 70.957C210.715 70.6641 211.119 70.2598 211.424 69.7441C211.729 69.2168 211.951 68.6074 212.092 67.916C212.244 67.2246 212.32 66.4805 212.32 65.6836V65.3145C212.32 64.541 212.244 63.8145 212.092 63.1348C211.951 62.4434 211.723 61.834 211.406 61.3066C211.102 60.7676 210.697 60.3457 210.193 60.041C209.689 59.7363 209.08 59.584 208.365 59.584C207.65 59.584 207.041 59.7363 206.537 60.041C206.045 60.3457 205.641 60.7676 205.324 61.3066C205.02 61.834 204.797 62.4434 204.656 63.1348C204.516 63.8145 204.445 64.541 204.445 65.3145ZM231.744 70.8516V48H236.842V75H232.254L231.744 70.8516ZM219.721 65.7188V65.3496C219.721 63.8965 219.885 62.5781 220.213 61.3945C220.541 60.1992 221.021 59.1738 221.654 58.3184C222.287 57.4629 223.066 56.8008 223.992 56.332C224.918 55.8633 225.973 55.6289 227.156 55.6289C228.27 55.6289 229.242 55.8633 230.074 56.332C230.918 56.8008 231.633 57.4688 232.219 58.3359C232.816 59.1914 233.297 60.2051 233.66 61.377C234.023 62.5371 234.287 63.8086 234.451 65.1914V66C234.287 67.3242 234.023 68.5547 233.66 69.6914C233.297 70.8281 232.816 71.8242 232.219 72.6797C231.633 73.5234 230.918 74.1797 230.074 74.6484C229.23 75.1172 228.246 75.3516 227.121 75.3516C225.938 75.3516 224.883 75.1113 223.957 74.6309C223.043 74.1504 222.27 73.4766 221.637 72.6094C221.016 71.7422 220.541 70.7227 220.213 69.5508C219.885 68.3789 219.721 67.1016 219.721 65.7188ZM224.783 65.3496V65.7188C224.783 66.5039 224.842 67.2363 224.959 67.916C225.088 68.5957 225.293 69.1992 225.574 69.7266C225.867 70.2422 226.242 70.6465 226.699 70.9395C227.168 71.2207 227.736 71.3613 228.404 71.3613C229.271 71.3613 229.986 71.168 230.549 70.7812C231.111 70.3828 231.539 69.8379 231.832 69.1465C232.137 68.4551 232.312 67.6582 232.359 66.7559V64.4531C232.324 63.7148 232.219 63.0527 232.043 62.4668C231.879 61.8691 231.633 61.3594 231.305 60.9375C230.988 60.5156 230.59 60.1875 230.109 59.9531C229.641 59.7188 229.084 59.6016 228.439 59.6016C227.783 59.6016 227.221 59.7539 226.752 60.0586C226.283 60.3516 225.902 60.7559 225.609 61.2715C225.328 61.7871 225.117 62.3965 224.977 63.0996C224.848 63.791 224.783 64.541 224.783 65.3496ZM239.988 65.6836V65.3145C239.988 63.9199 240.188 62.6367 240.586 61.4648C240.984 60.2812 241.564 59.2559 242.326 58.3887C243.088 57.5215 244.025 56.8477 245.139 56.3672C246.252 55.875 247.529 55.6289 248.971 55.6289C250.412 55.6289 251.695 55.875 252.82 56.3672C253.945 56.8477 254.889 57.5215 255.65 58.3887C256.424 59.2559 257.01 60.2812 257.408 61.4648C257.807 62.6367 258.006 63.9199 258.006 65.3145V65.6836C258.006 67.0664 257.807 68.3496 257.408 69.5332C257.01 70.7051 256.424 71.7305 255.65 72.6094C254.889 73.4766 253.951 74.1504 252.838 74.6309C251.725 75.1113 250.447 75.3516 249.006 75.3516C247.564 75.3516 246.281 75.1113 245.156 74.6309C244.043 74.1504 243.1 73.4766 242.326 72.6094C241.564 71.7305 240.984 70.7051 240.586 69.5332C240.188 68.3496 239.988 67.0664 239.988 65.6836ZM245.051 65.3145V65.6836C245.051 66.4805 245.121 67.2246 245.262 67.916C245.402 68.6074 245.625 69.2168 245.93 69.7441C246.246 70.2598 246.656 70.6641 247.16 70.957C247.664 71.25 248.279 71.3965 249.006 71.3965C249.709 71.3965 250.312 71.25 250.816 70.957C251.32 70.6641 251.725 70.2598 252.029 69.7441C252.334 69.2168 252.557 68.6074 252.697 67.916C252.85 67.2246 252.926 66.4805 252.926 65.6836V65.3145C252.926 64.541 252.85 63.8145 252.697 63.1348C252.557 62.4434 252.328 61.834 252.012 61.3066C251.707 60.7676 251.303 60.3457 250.799 60.041C250.295 59.7363 249.686 59.584 248.971 59.584C248.256 59.584 247.646 59.7363 247.143 60.041C246.65 60.3457 246.246 60.7676 245.93 61.3066C245.625 61.834 245.402 62.4434 245.262 63.1348C245.121 63.8145 245.051 64.541 245.051 65.3145ZM266.074 60.041V75H261.012V55.9805H265.758L266.074 60.041ZM265.336 64.8223H263.965C263.965 63.416 264.146 62.1504 264.51 61.0254C264.873 59.8887 265.383 58.9219 266.039 58.125C266.695 57.3164 267.475 56.7012 268.377 56.2793C269.291 55.8457 270.311 55.6289 271.436 55.6289C272.326 55.6289 273.141 55.7578 273.879 56.0156C274.617 56.2734 275.25 56.6836 275.777 57.2461C276.316 57.8086 276.727 58.5527 277.008 59.4785C277.301 60.4043 277.447 61.5352 277.447 62.8711V75H272.35V62.8535C272.35 62.0098 272.232 61.3535 271.998 60.8848C271.764 60.416 271.418 60.0879 270.961 59.9004C270.516 59.7012 269.965 59.6016 269.309 59.6016C268.629 59.6016 268.037 59.7363 267.533 60.0059C267.041 60.2754 266.631 60.6504 266.303 61.1309C265.986 61.5996 265.746 62.1504 265.582 62.7832C265.418 63.416 265.336 64.0957 265.336 64.8223Z" fill="#888888"/>
<path d="M105.633 100.188V140H96.0352V100.188H105.633ZM121.109 116.758V124.141H102.898V116.758H121.109ZM122.668 100.188V107.598H102.898V100.188H122.668ZM124.473 125.508V124.934C124.473 122.764 124.783 120.768 125.402 118.945C126.022 117.104 126.934 115.509 128.137 114.16C129.34 112.811 130.826 111.763 132.594 111.016C134.362 110.25 136.404 109.867 138.719 109.867C141.052 109.867 143.103 110.25 144.871 111.016C146.658 111.763 148.152 112.811 149.355 114.16C150.559 115.509 151.47 117.104 152.09 118.945C152.71 120.768 153.02 122.764 153.02 124.934V125.508C153.02 127.659 152.71 129.655 152.09 131.496C151.47 133.319 150.559 134.914 149.355 136.281C148.152 137.63 146.667 138.678 144.898 139.426C143.13 140.173 141.089 140.547 138.773 140.547C136.458 140.547 134.408 140.173 132.621 139.426C130.835 138.678 129.34 137.63 128.137 136.281C126.934 134.914 126.022 133.319 125.402 131.496C124.783 129.655 124.473 127.659 124.473 125.508ZM133.688 124.934V125.508C133.688 126.62 133.77 127.659 133.934 128.625C134.098 129.591 134.371 130.439 134.754 131.168C135.137 131.879 135.656 132.435 136.312 132.836C136.969 133.237 137.789 133.438 138.773 133.438C139.74 133.438 140.542 133.237 141.18 132.836C141.836 132.435 142.355 131.879 142.738 131.168C143.121 130.439 143.395 129.591 143.559 128.625C143.723 127.659 143.805 126.62 143.805 125.508V124.934C143.805 123.858 143.723 122.846 143.559 121.898C143.395 120.932 143.121 120.085 142.738 119.355C142.355 118.608 141.836 118.025 141.18 117.605C140.523 117.186 139.703 116.977 138.719 116.977C137.753 116.977 136.941 117.186 136.285 117.605C135.647 118.025 135.137 118.608 134.754 119.355C134.371 120.085 134.098 120.932 133.934 121.898C133.77 122.846 133.688 123.858 133.688 124.934ZM166.418 117.742V140H157.203V110.414H165.816L166.418 117.742ZM175.168 110.195L175.004 118.754C174.639 118.717 174.147 118.672 173.527 118.617C172.908 118.562 172.388 118.535 171.969 118.535C170.893 118.535 169.964 118.663 169.18 118.918C168.414 119.155 167.776 119.52 167.266 120.012C166.773 120.486 166.409 121.087 166.172 121.816C165.953 122.546 165.853 123.393 165.871 124.359L164.203 123.266C164.203 121.279 164.395 119.474 164.777 117.852C165.178 116.211 165.743 114.798 166.473 113.613C167.202 112.41 168.086 111.49 169.125 110.852C170.164 110.195 171.331 109.867 172.625 109.867C173.081 109.867 173.527 109.895 173.965 109.949C174.421 110.004 174.822 110.086 175.168 110.195ZM192.121 140.547C189.715 140.547 187.564 140.173 185.668 139.426C183.772 138.66 182.168 137.612 180.855 136.281C179.561 134.951 178.568 133.419 177.875 131.688C177.201 129.956 176.863 128.124 176.863 126.191V125.152C176.863 122.983 177.164 120.978 177.766 119.137C178.367 117.277 179.26 115.655 180.445 114.27C181.63 112.884 183.116 111.809 184.902 111.043C186.689 110.259 188.767 109.867 191.137 109.867C193.233 109.867 195.111 110.204 196.77 110.879C198.428 111.553 199.832 112.52 200.98 113.777C202.147 115.035 203.031 116.557 203.633 118.344C204.253 120.13 204.562 122.135 204.562 124.359V128.105H180.391V122.336H195.566V121.625C195.585 120.641 195.411 119.802 195.047 119.109C194.701 118.417 194.19 117.888 193.516 117.523C192.841 117.159 192.021 116.977 191.055 116.977C190.052 116.977 189.223 117.195 188.566 117.633C187.928 118.07 187.427 118.672 187.062 119.438C186.716 120.185 186.47 121.051 186.324 122.035C186.178 123.02 186.105 124.059 186.105 125.152V126.191C186.105 127.285 186.251 128.279 186.543 129.172C186.853 130.065 187.29 130.831 187.855 131.469C188.439 132.089 189.132 132.572 189.934 132.918C190.754 133.264 191.684 133.438 192.723 133.438C193.98 133.438 195.22 133.201 196.441 132.727C197.663 132.253 198.711 131.469 199.586 130.375L203.77 135.352C203.168 136.208 202.311 137.038 201.199 137.84C200.105 138.642 198.793 139.298 197.262 139.809C195.73 140.301 194.017 140.547 192.121 140.547ZM223.812 131.688C223.812 131.177 223.639 130.74 223.293 130.375C222.965 129.992 222.382 129.646 221.543 129.336C220.704 129.008 219.529 128.68 218.016 128.352C216.576 128.042 215.217 127.632 213.941 127.121C212.684 126.611 211.581 125.991 210.633 125.262C209.685 124.533 208.938 123.667 208.391 122.664C207.862 121.661 207.598 120.513 207.598 119.219C207.598 117.961 207.862 116.776 208.391 115.664C208.938 114.534 209.73 113.54 210.77 112.684C211.827 111.809 213.112 111.125 214.625 110.633C216.138 110.122 217.861 109.867 219.793 109.867C222.454 109.867 224.751 110.277 226.684 111.098C228.616 111.9 230.102 113.03 231.141 114.488C232.198 115.928 232.727 117.596 232.727 119.492H223.512C223.512 118.745 223.384 118.107 223.129 117.578C222.892 117.049 222.5 116.648 221.953 116.375C221.406 116.083 220.677 115.938 219.766 115.938C219.128 115.938 218.544 116.056 218.016 116.293C217.505 116.53 217.095 116.858 216.785 117.277C216.475 117.697 216.32 118.189 216.32 118.754C216.32 119.155 216.411 119.52 216.594 119.848C216.794 120.158 217.095 120.449 217.496 120.723C217.897 120.978 218.408 121.215 219.027 121.434C219.647 121.634 220.395 121.816 221.27 121.98C223.257 122.345 225.116 122.865 226.848 123.539C228.579 124.214 229.983 125.171 231.059 126.41C232.152 127.65 232.699 129.318 232.699 131.414C232.699 132.727 232.398 133.939 231.797 135.051C231.195 136.145 230.329 137.111 229.199 137.949C228.069 138.77 226.711 139.408 225.125 139.863C223.539 140.319 221.753 140.547 219.766 140.547C216.94 140.547 214.552 140.046 212.602 139.043C210.651 138.022 209.174 136.746 208.172 135.215C207.188 133.665 206.695 132.098 206.695 130.512H215.281C215.318 131.423 215.536 132.171 215.938 132.754C216.357 133.337 216.913 133.766 217.605 134.039C218.298 134.312 219.1 134.449 220.012 134.449C220.85 134.449 221.543 134.331 222.09 134.094C222.655 133.857 223.083 133.538 223.375 133.137C223.667 132.717 223.812 132.234 223.812 131.688ZM252.605 110.414V116.812H234.777V110.414H252.605ZM238.523 103.059H247.738V130.348C247.738 131.132 247.829 131.742 248.012 132.18C248.194 132.599 248.504 132.9 248.941 133.082C249.397 133.246 249.999 133.328 250.746 133.328C251.275 133.328 251.712 133.319 252.059 133.301C252.405 133.264 252.733 133.219 253.043 133.164V139.754C252.259 140.009 251.439 140.201 250.582 140.328C249.725 140.474 248.814 140.547 247.848 140.547C245.879 140.547 244.193 140.237 242.789 139.617C241.404 138.997 240.346 138.022 239.617 136.691C238.888 135.361 238.523 133.629 238.523 131.496V103.059ZM303.219 118.727V135.078C302.544 135.826 301.505 136.628 300.102 137.484C298.716 138.323 296.966 139.043 294.852 139.645C292.737 140.246 290.249 140.547 287.387 140.547C284.743 140.547 282.346 140.128 280.195 139.289C278.044 138.432 276.194 137.184 274.645 135.543C273.113 133.884 271.928 131.861 271.09 129.473C270.27 127.066 269.859 124.314 269.859 121.215V119C269.859 115.901 270.279 113.148 271.117 110.742C271.956 108.336 273.132 106.312 274.645 104.672C276.176 103.013 277.971 101.755 280.031 100.898C282.109 100.042 284.388 99.6133 286.867 99.6133C290.531 99.6133 293.512 100.197 295.809 101.363C298.105 102.512 299.846 104.107 301.031 106.148C302.216 108.172 302.936 110.514 303.191 113.176H293.977C293.794 111.863 293.448 110.751 292.938 109.84C292.445 108.91 291.734 108.208 290.805 107.734C289.875 107.242 288.672 106.996 287.195 106.996C286.047 106.996 284.999 107.242 284.051 107.734C283.121 108.227 282.328 108.974 281.672 109.977C281.016 110.961 280.505 112.201 280.141 113.695C279.794 115.19 279.621 116.94 279.621 118.945V121.215C279.621 123.202 279.785 124.943 280.113 126.438C280.46 127.932 280.97 129.181 281.645 130.184C282.337 131.168 283.212 131.915 284.27 132.426C285.345 132.918 286.612 133.164 288.07 133.164C289.091 133.164 289.966 133.082 290.695 132.918C291.424 132.736 292.026 132.517 292.5 132.262C292.992 131.988 293.366 131.733 293.621 131.496V125.316H286.949V118.727H303.219ZM325.668 132.809V110.414H334.91V140H326.27L325.668 132.809ZM326.543 126.793L328.949 126.738C328.949 128.725 328.712 130.566 328.238 132.262C327.764 133.939 327.062 135.397 326.133 136.637C325.221 137.876 324.091 138.842 322.742 139.535C321.411 140.21 319.871 140.547 318.121 140.547C316.663 140.547 315.323 140.346 314.102 139.945C312.898 139.526 311.859 138.879 310.984 138.004C310.109 137.111 309.426 135.971 308.934 134.586C308.46 133.182 308.223 131.505 308.223 129.555V110.414H317.438V129.609C317.438 130.266 317.52 130.831 317.684 131.305C317.848 131.779 318.085 132.18 318.395 132.508C318.704 132.818 319.087 133.055 319.543 133.219C320.017 133.365 320.555 133.438 321.156 133.438C322.542 133.438 323.626 133.146 324.41 132.562C325.194 131.979 325.741 131.186 326.051 130.184C326.379 129.181 326.543 128.051 326.543 126.793ZM355.363 132.562V120.367C355.363 119.529 355.245 118.809 355.008 118.207C354.771 117.605 354.397 117.141 353.887 116.812C353.376 116.466 352.693 116.293 351.836 116.293C351.143 116.293 350.551 116.411 350.059 116.648C349.566 116.885 349.193 117.241 348.938 117.715C348.682 118.189 348.555 118.79 348.555 119.52H339.34C339.34 118.152 339.641 116.885 340.242 115.719C340.862 114.534 341.737 113.504 342.867 112.629C344.016 111.754 345.383 111.079 346.969 110.605C348.573 110.113 350.359 109.867 352.328 109.867C354.68 109.867 356.776 110.259 358.617 111.043C360.477 111.827 361.944 113.003 363.02 114.57C364.095 116.12 364.633 118.07 364.633 120.422V132.535C364.633 134.467 364.742 135.935 364.961 136.938C365.18 137.922 365.49 138.788 365.891 139.535V140H356.648C356.211 139.089 355.883 137.977 355.664 136.664C355.464 135.333 355.363 133.966 355.363 132.562ZM356.484 121.926L356.539 126.848H352.465C351.608 126.848 350.879 126.966 350.277 127.203C349.694 127.44 349.22 127.768 348.855 128.188C348.509 128.589 348.254 129.044 348.09 129.555C347.944 130.065 347.871 130.603 347.871 131.168C347.871 131.715 347.999 132.207 348.254 132.645C348.527 133.064 348.892 133.392 349.348 133.629C349.803 133.866 350.314 133.984 350.879 133.984C351.9 133.984 352.766 133.793 353.477 133.41C354.206 133.009 354.762 132.526 355.145 131.961C355.527 131.396 355.719 130.867 355.719 130.375L357.742 134.148C357.378 134.878 356.958 135.616 356.484 136.363C356.029 137.111 355.454 137.803 354.762 138.441C354.087 139.061 353.258 139.572 352.273 139.973C351.289 140.355 350.095 140.547 348.691 140.547C346.868 140.547 345.191 140.173 343.66 139.426C342.147 138.678 340.935 137.639 340.023 136.309C339.112 134.96 338.656 133.41 338.656 131.66C338.656 130.129 338.93 128.762 339.477 127.559C340.042 126.355 340.889 125.335 342.02 124.496C343.15 123.658 344.59 123.02 346.34 122.582C348.09 122.145 350.15 121.926 352.52 121.926H356.484ZM379.043 117.742V140H369.828V110.414H378.441L379.043 117.742ZM387.793 110.195L387.629 118.754C387.264 118.717 386.772 118.672 386.152 118.617C385.533 118.562 385.013 118.535 384.594 118.535C383.518 118.535 382.589 118.663 381.805 118.918C381.039 119.155 380.401 119.52 379.891 120.012C379.398 120.486 379.034 121.087 378.797 121.816C378.578 122.546 378.478 123.393 378.496 124.359L376.828 123.266C376.828 121.279 377.02 119.474 377.402 117.852C377.803 116.211 378.368 114.798 379.098 113.613C379.827 112.41 380.711 111.49 381.75 110.852C382.789 110.195 383.956 109.867 385.25 109.867C385.706 109.867 386.152 109.895 386.59 109.949C387.046 110.004 387.447 110.086 387.793 110.195ZM407.426 133.219V98H416.695V140H408.383L407.426 133.219ZM389.27 125.562V124.988C389.27 122.746 389.516 120.704 390.008 118.863C390.5 117.004 391.229 115.409 392.195 114.078C393.161 112.729 394.365 111.69 395.805 110.961C397.245 110.232 398.904 109.867 400.781 109.867C402.458 109.867 403.926 110.259 405.184 111.043C406.441 111.809 407.517 112.884 408.41 114.27C409.303 115.655 410.033 117.277 410.598 119.137C411.163 120.978 411.591 122.965 411.883 125.098V125.781C411.591 127.786 411.163 129.682 410.598 131.469C410.033 133.237 409.303 134.805 408.41 136.172C407.517 137.539 406.432 138.615 405.156 139.398C403.898 140.164 402.422 140.547 400.727 140.547C398.849 140.547 397.19 140.173 395.75 139.426C394.328 138.678 393.134 137.63 392.168 136.281C391.22 134.932 390.5 133.346 390.008 131.523C389.516 129.701 389.27 127.714 389.27 125.562ZM398.484 124.988V125.562C398.484 126.674 398.557 127.704 398.703 128.652C398.849 129.6 399.095 130.439 399.441 131.168C399.806 131.879 400.28 132.435 400.863 132.836C401.465 133.237 402.203 133.438 403.078 133.438C404.263 133.438 405.238 133.155 406.004 132.59C406.788 132.025 407.362 131.223 407.727 130.184C408.109 129.145 408.273 127.923 408.219 126.52V124.359C408.255 123.156 408.173 122.099 407.973 121.188C407.772 120.258 407.453 119.483 407.016 118.863C406.596 118.243 406.059 117.779 405.402 117.469C404.764 117.141 404.008 116.977 403.133 116.977C402.276 116.977 401.547 117.177 400.945 117.578C400.362 117.979 399.888 118.544 399.523 119.273C399.159 119.984 398.895 120.832 398.73 121.816C398.566 122.783 398.484 123.84 398.484 124.988ZM431.652 110.414V140H422.41V110.414H431.652ZM421.863 102.785C421.863 101.473 422.337 100.397 423.285 99.5586C424.233 98.7201 425.464 98.3008 426.977 98.3008C428.49 98.3008 429.72 98.7201 430.668 99.5586C431.616 100.397 432.09 101.473 432.09 102.785C432.09 104.098 431.616 105.173 430.668 106.012C429.72 106.85 428.49 107.27 426.977 107.27C425.464 107.27 424.233 106.85 423.285 106.012C422.337 105.173 421.863 104.098 421.863 102.785ZM452.707 132.562V120.367C452.707 119.529 452.589 118.809 452.352 118.207C452.115 117.605 451.741 117.141 451.23 116.812C450.72 116.466 450.036 116.293 449.18 116.293C448.487 116.293 447.895 116.411 447.402 116.648C446.91 116.885 446.536 117.241 446.281 117.715C446.026 118.189 445.898 118.79 445.898 119.52H436.684C436.684 118.152 436.984 116.885 437.586 115.719C438.206 114.534 439.081 113.504 440.211 112.629C441.359 111.754 442.727 111.079 444.312 110.605C445.917 110.113 447.703 109.867 449.672 109.867C452.023 109.867 454.12 110.259 455.961 111.043C457.82 111.827 459.288 113.003 460.363 114.57C461.439 116.12 461.977 118.07 461.977 120.422V132.535C461.977 134.467 462.086 135.935 462.305 136.938C462.523 137.922 462.833 138.788 463.234 139.535V140H453.992C453.555 139.089 453.227 137.977 453.008 136.664C452.807 135.333 452.707 133.966 452.707 132.562ZM453.828 121.926L453.883 126.848H449.809C448.952 126.848 448.223 126.966 447.621 127.203C447.038 127.44 446.564 127.768 446.199 128.188C445.853 128.589 445.598 129.044 445.434 129.555C445.288 130.065 445.215 130.603 445.215 131.168C445.215 131.715 445.342 132.207 445.598 132.645C445.871 133.064 446.236 133.392 446.691 133.629C447.147 133.866 447.658 133.984 448.223 133.984C449.243 133.984 450.109 133.793 450.82 133.41C451.549 133.009 452.105 132.526 452.488 131.961C452.871 131.396 453.062 130.867 453.062 130.375L455.086 134.148C454.721 134.878 454.302 135.616 453.828 136.363C453.372 137.111 452.798 137.803 452.105 138.441C451.431 139.061 450.602 139.572 449.617 139.973C448.633 140.355 447.439 140.547 446.035 140.547C444.212 140.547 442.535 140.173 441.004 139.426C439.491 138.678 438.279 137.639 437.367 136.309C436.456 134.96 436 133.41 436 131.66C436 130.129 436.273 128.762 436.82 127.559C437.385 126.355 438.233 125.335 439.363 124.496C440.493 123.658 441.934 123.02 443.684 122.582C445.434 122.145 447.493 121.926 449.863 121.926H453.828ZM476.141 116.73V140H466.926V110.414H475.566L476.141 116.73ZM475.047 124.195L472.887 124.25C472.887 121.99 473.16 119.975 473.707 118.207C474.254 116.421 475.029 114.908 476.031 113.668C477.034 112.428 478.228 111.49 479.613 110.852C481.017 110.195 482.576 109.867 484.289 109.867C485.656 109.867 486.905 110.068 488.035 110.469C489.184 110.87 490.168 111.517 490.988 112.41C491.827 113.303 492.465 114.488 492.902 115.965C493.358 117.423 493.586 119.228 493.586 121.379V140H484.316V121.352C484.316 120.167 484.152 119.264 483.824 118.645C483.496 118.007 483.022 117.569 482.402 117.332C481.783 117.095 481.026 116.977 480.133 116.977C479.185 116.977 478.383 117.159 477.727 117.523C477.07 117.888 476.542 118.398 476.141 119.055C475.758 119.693 475.475 120.449 475.293 121.324C475.129 122.199 475.047 123.156 475.047 124.195Z" fill="black"/>
<rect x="93" y="178" width="917" height="77" rx="10" fill="#D3D3D3"/>
<rect x="111" y="196" width="124" height="41" rx="3" fill="#424242"/>
<path d="M135.585 210.203H138.099L140.955 219.106L143.812 210.203H146.325L141.975 223H139.936L135.585 210.203ZM134.056 210.203H136.657L137.141 220.012V223H134.056V210.203ZM145.253 210.203H147.863V223H144.77V220.012L145.253 210.203ZM149.331 218.342V218.157C149.331 217.46 149.431 216.818 149.63 216.232C149.829 215.641 150.122 215.128 150.509 214.694C150.896 214.261 151.373 213.924 151.941 213.684C152.51 213.438 153.166 213.314 153.91 213.314C154.66 213.314 155.319 213.438 155.888 213.684C156.462 213.924 156.942 214.261 157.329 214.694C157.716 215.128 158.009 215.641 158.208 216.232C158.407 216.818 158.507 217.46 158.507 218.157V218.342C158.507 219.033 158.407 219.675 158.208 220.267C158.009 220.853 157.716 221.365 157.329 221.805C156.942 222.238 156.465 222.575 155.896 222.815C155.328 223.056 154.672 223.176 153.928 223.176C153.184 223.176 152.524 223.056 151.95 222.815C151.376 222.575 150.896 222.238 150.509 221.805C150.122 221.365 149.829 220.853 149.63 220.267C149.431 219.675 149.331 219.033 149.331 218.342ZM152.293 218.157V218.342C152.293 218.699 152.319 219.033 152.372 219.344C152.425 219.654 152.513 219.927 152.636 220.161C152.759 220.39 152.926 220.568 153.137 220.697C153.348 220.826 153.611 220.891 153.928 220.891C154.238 220.891 154.496 220.826 154.701 220.697C154.912 220.568 155.079 220.39 155.202 220.161C155.325 219.927 155.413 219.654 155.466 219.344C155.519 219.033 155.545 218.699 155.545 218.342V218.157C155.545 217.812 155.519 217.486 155.466 217.182C155.413 216.871 155.325 216.599 155.202 216.364C155.079 216.124 154.912 215.937 154.701 215.802C154.49 215.667 154.227 215.6 153.91 215.6C153.6 215.6 153.339 215.667 153.128 215.802C152.923 215.937 152.759 216.124 152.636 216.364C152.513 216.599 152.425 216.871 152.372 217.182C152.319 217.486 152.293 217.812 152.293 218.157ZM162.734 215.521V223H159.772V213.49H162.55L162.734 215.521ZM162.383 217.92L161.688 217.938C161.688 217.211 161.776 216.563 161.952 215.995C162.128 215.421 162.377 214.935 162.699 214.536C163.021 214.138 163.405 213.836 163.851 213.631C164.302 213.42 164.803 213.314 165.354 213.314C165.793 213.314 166.194 213.379 166.558 213.508C166.927 213.637 167.243 213.845 167.507 214.132C167.776 214.419 167.981 214.8 168.122 215.274C168.269 215.743 168.342 216.323 168.342 217.015V223H165.362V217.006C165.362 216.625 165.31 216.335 165.204 216.136C165.099 215.931 164.946 215.79 164.747 215.714C164.548 215.638 164.305 215.6 164.018 215.6C163.713 215.6 163.455 215.658 163.244 215.775C163.033 215.893 162.863 216.057 162.734 216.268C162.611 216.473 162.521 216.716 162.462 216.997C162.409 217.278 162.383 217.586 162.383 217.92ZM175.962 213.49H178.651V222.631C178.651 223.51 178.449 224.254 178.045 224.863C177.641 225.479 177.075 225.944 176.349 226.261C175.628 226.583 174.784 226.744 173.817 226.744C173.39 226.744 172.953 226.688 172.508 226.577C172.062 226.472 171.646 226.313 171.26 226.103C170.873 225.892 170.548 225.631 170.284 225.32L171.523 223.58C171.764 223.85 172.065 224.078 172.429 224.266C172.792 224.459 173.22 224.556 173.712 224.556C174.14 224.556 174.497 224.479 174.784 224.327C175.077 224.175 175.3 223.952 175.452 223.659C175.604 223.372 175.681 223.023 175.681 222.613V215.74L175.962 213.49ZM169.643 218.359V218.175C169.643 217.454 169.73 216.798 169.906 216.206C170.088 215.608 170.346 215.096 170.68 214.668C171.02 214.234 171.43 213.9 171.91 213.666C172.391 213.432 172.933 213.314 173.536 213.314C174.187 213.314 174.72 213.44 175.136 213.692C175.558 213.938 175.895 214.284 176.146 214.729C176.404 215.175 176.604 215.696 176.744 216.294C176.891 216.886 177.014 217.524 177.113 218.21V218.43C177.014 219.074 176.876 219.684 176.7 220.258C176.53 220.826 176.308 221.33 176.032 221.77C175.757 222.209 175.411 222.555 174.995 222.807C174.585 223.053 174.093 223.176 173.519 223.176C172.921 223.176 172.382 223.056 171.901 222.815C171.427 222.575 171.02 222.238 170.68 221.805C170.346 221.371 170.088 220.861 169.906 220.275C169.73 219.689 169.643 219.051 169.643 218.359ZM172.604 218.175V218.359C172.604 218.717 172.637 219.048 172.701 219.353C172.771 219.657 172.877 219.927 173.018 220.161C173.158 220.39 173.331 220.568 173.536 220.697C173.747 220.826 173.993 220.891 174.274 220.891C174.702 220.891 175.048 220.8 175.312 220.618C175.575 220.437 175.766 220.179 175.883 219.845C176 219.511 176.05 219.118 176.032 218.667V217.973C176.044 217.586 176.018 217.246 175.953 216.953C175.889 216.654 175.786 216.405 175.646 216.206C175.511 216.007 175.329 215.857 175.101 215.758C174.878 215.652 174.608 215.6 174.292 215.6C174.017 215.6 173.773 215.664 173.562 215.793C173.352 215.922 173.176 216.104 173.035 216.338C172.895 216.566 172.786 216.839 172.71 217.155C172.64 217.466 172.604 217.806 172.604 218.175ZM179.987 218.342V218.157C179.987 217.46 180.087 216.818 180.286 216.232C180.485 215.641 180.778 215.128 181.165 214.694C181.552 214.261 182.029 213.924 182.598 213.684C183.166 213.438 183.822 213.314 184.566 213.314C185.316 213.314 185.976 213.438 186.544 213.684C187.118 213.924 187.599 214.261 187.985 214.694C188.372 215.128 188.665 215.641 188.864 216.232C189.063 216.818 189.163 217.46 189.163 218.157V218.342C189.163 219.033 189.063 219.675 188.864 220.267C188.665 220.853 188.372 221.365 187.985 221.805C187.599 222.238 187.121 222.575 186.553 222.815C185.984 223.056 185.328 223.176 184.584 223.176C183.84 223.176 183.181 223.056 182.606 222.815C182.032 222.575 181.552 222.238 181.165 221.805C180.778 221.365 180.485 220.853 180.286 220.267C180.087 219.675 179.987 219.033 179.987 218.342ZM182.949 218.157V218.342C182.949 218.699 182.976 219.033 183.028 219.344C183.081 219.654 183.169 219.927 183.292 220.161C183.415 220.39 183.582 220.568 183.793 220.697C184.004 220.826 184.268 220.891 184.584 220.891C184.895 220.891 185.152 220.826 185.357 220.697C185.568 220.568 185.735 220.39 185.858 220.161C185.981 219.927 186.069 219.654 186.122 219.344C186.175 219.033 186.201 218.699 186.201 218.342V218.157C186.201 217.812 186.175 217.486 186.122 217.182C186.069 216.871 185.981 216.599 185.858 216.364C185.735 216.124 185.568 215.937 185.357 215.802C185.146 215.667 184.883 215.6 184.566 215.6C184.256 215.6 183.995 215.667 183.784 215.802C183.579 215.937 183.415 216.124 183.292 216.364C183.169 216.599 183.081 216.871 183.028 217.182C182.976 217.486 182.949 217.812 182.949 218.157ZM194.779 223H191.94L191.958 220.627H194.779C195.365 220.627 195.86 220.486 196.265 220.205C196.675 219.924 196.985 219.505 197.196 218.948C197.413 218.386 197.521 217.694 197.521 216.874V216.32C197.521 215.705 197.46 215.166 197.337 214.703C197.22 214.234 197.044 213.845 196.81 213.534C196.575 213.218 196.282 212.98 195.931 212.822C195.585 212.664 195.187 212.585 194.735 212.585H191.888V210.203H194.735C195.603 210.203 196.396 210.353 197.117 210.651C197.844 210.944 198.471 211.366 198.998 211.917C199.531 212.462 199.941 213.109 200.229 213.859C200.521 214.604 200.668 215.43 200.668 216.338V216.874C200.668 217.776 200.521 218.603 200.229 219.353C199.941 220.103 199.534 220.75 199.007 221.295C198.479 221.84 197.855 222.262 197.135 222.561C196.42 222.854 195.635 223 194.779 223ZM193.707 210.203V223H190.622V210.203H193.707ZM207.497 217.56H204.201L204.184 215.538H206.855C207.336 215.538 207.72 215.485 208.007 215.38C208.294 215.269 208.502 215.107 208.631 214.896C208.766 214.686 208.833 214.422 208.833 214.105C208.833 213.742 208.766 213.449 208.631 213.227C208.496 213.004 208.282 212.843 207.989 212.743C207.702 212.638 207.33 212.585 206.873 212.585H205.361V223H202.276V210.203H206.873C207.664 210.203 208.37 210.276 208.991 210.423C209.612 210.563 210.14 210.78 210.573 211.073C211.013 211.366 211.347 211.735 211.575 212.181C211.804 212.62 211.918 213.139 211.918 213.736C211.918 214.258 211.807 214.747 211.584 215.204C211.361 215.661 210.989 216.033 210.468 216.32C209.952 216.602 209.246 216.748 208.35 216.76L207.497 217.56ZM207.374 223H203.454L204.509 220.627H207.374C207.796 220.627 208.133 220.562 208.385 220.434C208.643 220.299 208.827 220.123 208.938 219.906C209.056 219.684 209.114 219.438 209.114 219.168C209.114 218.84 209.059 218.556 208.947 218.315C208.842 218.075 208.672 217.891 208.438 217.762C208.203 217.627 207.89 217.56 207.497 217.56H204.904L204.922 215.538H208.024L208.745 216.347C209.601 216.312 210.277 216.432 210.775 216.707C211.279 216.982 211.64 217.346 211.856 217.797C212.073 218.248 212.182 218.72 212.182 219.212C212.182 220.05 212 220.75 211.637 221.312C211.279 221.875 210.743 222.297 210.028 222.578C209.313 222.859 208.429 223 207.374 223Z" fill="white"/>
<rect x="111" y="196" width="124" height="41" rx="3" stroke="#424242" stroke-width="4"/>
<rect x="255" y="196" width="130" height="41" rx="3" fill="#424242"/>
<path d="M286.883 220.627V223H280.062V220.627H286.883ZM281.161 210.203V223H278.076V210.203H281.161ZM286.004 215.283V217.577H280.062V215.283H286.004ZM286.909 210.203V212.585H280.062V210.203H286.909ZM290.521 213.49L291.857 216.109L293.237 213.49H296.313L293.817 218.122L296.445 223H293.343L291.857 220.188L290.381 223H287.278L289.906 218.122L287.419 213.49H290.521ZM300.277 215.318V226.656H297.315V213.49H300.075L300.277 215.318ZM306.113 218.131V218.315C306.113 219.007 306.034 219.648 305.876 220.24C305.718 220.832 305.483 221.348 305.173 221.787C304.862 222.227 304.476 222.569 304.013 222.815C303.556 223.056 303.025 223.176 302.422 223.176C301.854 223.176 301.364 223.05 300.954 222.798C300.544 222.546 300.201 222.197 299.926 221.752C299.65 221.307 299.428 220.797 299.258 220.223C299.088 219.648 298.953 219.042 298.854 218.403V218.166C298.953 217.48 299.088 216.845 299.258 216.259C299.428 215.667 299.65 215.151 299.926 214.712C300.201 214.272 300.541 213.93 300.945 213.684C301.355 213.438 301.845 213.314 302.413 213.314C303.017 213.314 303.547 213.429 304.004 213.657C304.467 213.886 304.854 214.214 305.164 214.642C305.48 215.063 305.718 215.57 305.876 216.162C306.034 216.754 306.113 217.41 306.113 218.131ZM303.151 218.315V218.131C303.151 217.762 303.125 217.425 303.072 217.12C303.02 216.81 302.935 216.54 302.817 216.312C302.706 216.083 302.557 215.907 302.369 215.784C302.182 215.661 301.95 215.6 301.675 215.6C301.358 215.6 301.092 215.649 300.875 215.749C300.664 215.843 300.494 215.989 300.365 216.188C300.242 216.382 300.154 216.625 300.102 216.918C300.055 217.205 300.034 217.542 300.04 217.929V218.649C300.028 219.095 300.072 219.487 300.172 219.827C300.271 220.161 300.444 220.422 300.69 220.609C300.937 220.797 301.271 220.891 301.692 220.891C301.974 220.891 302.208 220.826 302.396 220.697C302.583 220.562 302.732 220.378 302.844 220.144C302.955 219.903 303.034 219.628 303.081 219.317C303.128 219.007 303.151 218.673 303.151 218.315ZM310.42 215.846V223H307.458V213.49H310.227L310.42 215.846ZM313.232 213.42L313.18 216.171C313.062 216.159 312.904 216.145 312.705 216.127C312.506 216.109 312.339 216.101 312.204 216.101C311.858 216.101 311.56 216.142 311.308 216.224C311.062 216.3 310.856 216.417 310.692 216.575C310.534 216.728 310.417 216.921 310.341 217.155C310.271 217.39 310.238 217.662 310.244 217.973L309.708 217.621C309.708 216.982 309.77 216.402 309.893 215.881C310.021 215.354 310.203 214.899 310.438 214.519C310.672 214.132 310.956 213.836 311.29 213.631C311.624 213.42 311.999 213.314 312.415 213.314C312.562 213.314 312.705 213.323 312.846 213.341C312.992 213.358 313.121 213.385 313.232 213.42ZM318.682 223.176C317.908 223.176 317.217 223.056 316.607 222.815C315.998 222.569 315.482 222.232 315.061 221.805C314.645 221.377 314.325 220.885 314.103 220.328C313.886 219.771 313.777 219.183 313.777 218.562V218.228C313.777 217.53 313.874 216.886 314.067 216.294C314.261 215.696 314.548 215.175 314.929 214.729C315.31 214.284 315.787 213.938 316.361 213.692C316.936 213.44 317.604 213.314 318.365 213.314C319.039 213.314 319.643 213.423 320.176 213.64C320.709 213.856 321.16 214.167 321.529 214.571C321.904 214.976 322.188 215.465 322.382 216.039C322.581 216.613 322.681 217.258 322.681 217.973V219.177H314.911V217.322H319.789V217.094C319.795 216.777 319.739 216.508 319.622 216.285C319.511 216.062 319.347 215.893 319.13 215.775C318.913 215.658 318.649 215.6 318.339 215.6C318.017 215.6 317.75 215.67 317.539 215.811C317.334 215.951 317.173 216.145 317.056 216.391C316.944 216.631 316.865 216.909 316.818 217.226C316.771 217.542 316.748 217.876 316.748 218.228V218.562C316.748 218.913 316.795 219.232 316.889 219.52C316.988 219.807 317.129 220.053 317.311 220.258C317.498 220.457 317.721 220.612 317.979 220.724C318.242 220.835 318.541 220.891 318.875 220.891C319.279 220.891 319.678 220.814 320.07 220.662C320.463 220.51 320.8 220.258 321.081 219.906L322.426 221.506C322.232 221.781 321.957 222.048 321.6 222.306C321.248 222.563 320.826 222.774 320.334 222.938C319.842 223.097 319.291 223.176 318.682 223.176ZM328.868 220.328C328.868 220.164 328.812 220.023 328.701 219.906C328.596 219.783 328.408 219.672 328.139 219.572C327.869 219.467 327.491 219.361 327.005 219.256C326.542 219.156 326.105 219.024 325.695 218.86C325.291 218.696 324.937 218.497 324.632 218.263C324.327 218.028 324.087 217.75 323.911 217.428C323.741 217.105 323.656 216.736 323.656 216.32C323.656 215.916 323.741 215.535 323.911 215.178C324.087 214.814 324.342 214.495 324.676 214.22C325.016 213.938 325.429 213.719 325.915 213.561C326.401 213.396 326.955 213.314 327.576 213.314C328.432 213.314 329.17 213.446 329.791 213.71C330.412 213.968 330.89 214.331 331.224 214.8C331.563 215.263 331.733 215.799 331.733 216.408H328.771C328.771 216.168 328.73 215.963 328.648 215.793C328.572 215.623 328.446 215.494 328.271 215.406C328.095 215.312 327.86 215.266 327.567 215.266C327.362 215.266 327.175 215.304 327.005 215.38C326.841 215.456 326.709 215.562 326.609 215.696C326.51 215.831 326.46 215.989 326.46 216.171C326.46 216.3 326.489 216.417 326.548 216.522C326.612 216.622 326.709 216.716 326.838 216.804C326.967 216.886 327.131 216.962 327.33 217.032C327.529 217.097 327.77 217.155 328.051 217.208C328.689 217.325 329.287 217.492 329.844 217.709C330.4 217.926 330.852 218.233 331.197 218.632C331.549 219.03 331.725 219.566 331.725 220.24C331.725 220.662 331.628 221.052 331.435 221.409C331.241 221.761 330.963 222.071 330.6 222.341C330.236 222.604 329.8 222.81 329.29 222.956C328.78 223.103 328.206 223.176 327.567 223.176C326.659 223.176 325.892 223.015 325.265 222.692C324.638 222.364 324.163 221.954 323.841 221.462C323.524 220.964 323.366 220.46 323.366 219.95H326.126C326.138 220.243 326.208 220.483 326.337 220.671C326.472 220.858 326.65 220.996 326.873 221.084C327.096 221.172 327.354 221.216 327.646 221.216C327.916 221.216 328.139 221.178 328.314 221.102C328.496 221.025 328.634 220.923 328.728 220.794C328.821 220.659 328.868 220.504 328.868 220.328ZM338.097 220.328C338.097 220.164 338.041 220.023 337.93 219.906C337.824 219.783 337.637 219.672 337.367 219.572C337.098 219.467 336.72 219.361 336.233 219.256C335.771 219.156 335.334 219.024 334.924 218.86C334.52 218.696 334.165 218.497 333.86 218.263C333.556 218.028 333.315 217.75 333.14 217.428C332.97 217.105 332.885 216.736 332.885 216.32C332.885 215.916 332.97 215.535 333.14 215.178C333.315 214.814 333.57 214.495 333.904 214.22C334.244 213.938 334.657 213.719 335.144 213.561C335.63 213.396 336.184 213.314 336.805 213.314C337.66 213.314 338.398 213.446 339.02 213.71C339.641 213.968 340.118 214.331 340.452 214.8C340.792 215.263 340.962 215.799 340.962 216.408H338C338 216.168 337.959 215.963 337.877 215.793C337.801 215.623 337.675 215.494 337.499 215.406C337.323 215.312 337.089 215.266 336.796 215.266C336.591 215.266 336.403 215.304 336.233 215.38C336.069 215.456 335.938 215.562 335.838 215.696C335.738 215.831 335.688 215.989 335.688 216.171C335.688 216.3 335.718 216.417 335.776 216.522C335.841 216.622 335.938 216.716 336.066 216.804C336.195 216.886 336.359 216.962 336.559 217.032C336.758 217.097 336.998 217.155 337.279 217.208C337.918 217.325 338.516 217.492 339.072 217.709C339.629 217.926 340.08 218.233 340.426 218.632C340.777 219.03 340.953 219.566 340.953 220.24C340.953 220.662 340.856 221.052 340.663 221.409C340.47 221.761 340.191 222.071 339.828 222.341C339.465 222.604 339.028 222.81 338.519 222.956C338.009 223.103 337.435 223.176 336.796 223.176C335.888 223.176 335.12 223.015 334.493 222.692C333.866 222.364 333.392 221.954 333.069 221.462C332.753 220.964 332.595 220.46 332.595 219.95H335.354C335.366 220.243 335.437 220.483 335.565 220.671C335.7 220.858 335.879 220.996 336.102 221.084C336.324 221.172 336.582 221.216 336.875 221.216C337.145 221.216 337.367 221.178 337.543 221.102C337.725 221.025 337.862 220.923 337.956 220.794C338.05 220.659 338.097 220.504 338.097 220.328ZM347.571 218.983V210.203H350.647V218.983C350.647 219.839 350.451 220.58 350.059 221.207C349.672 221.834 349.145 222.32 348.477 222.666C347.814 223.006 347.07 223.176 346.244 223.176C345.389 223.176 344.627 223.032 343.959 222.745C343.297 222.458 342.775 222.016 342.395 221.418C342.02 220.82 341.832 220.059 341.832 219.133H344.926C344.926 219.566 344.976 219.906 345.075 220.152C345.175 220.393 345.321 220.562 345.515 220.662C345.714 220.756 345.957 220.803 346.244 220.803C346.525 220.803 346.763 220.732 346.956 220.592C347.155 220.445 347.308 220.237 347.413 219.968C347.519 219.692 347.571 219.364 347.571 218.983ZM359.199 219.599C359.199 219.399 359.17 219.221 359.111 219.062C359.053 218.898 358.944 218.746 358.786 218.605C358.628 218.465 358.399 218.324 358.101 218.184C357.808 218.037 357.421 217.885 356.94 217.727C356.378 217.539 355.836 217.328 355.314 217.094C354.793 216.854 354.327 216.575 353.917 216.259C353.507 215.937 353.182 215.562 352.941 215.134C352.701 214.7 352.581 214.196 352.581 213.622C352.581 213.071 352.704 212.576 352.95 212.137C353.196 211.691 353.539 211.313 353.979 211.003C354.424 210.687 354.945 210.446 355.543 210.282C356.141 210.112 356.794 210.027 357.503 210.027C358.44 210.027 359.267 210.191 359.981 210.52C360.702 210.842 361.265 211.302 361.669 211.899C362.079 212.491 362.284 213.191 362.284 214H359.217C359.217 213.678 359.149 213.394 359.015 213.147C358.886 212.901 358.689 212.708 358.426 212.567C358.162 212.427 357.831 212.356 357.433 212.356C357.046 212.356 356.721 212.415 356.457 212.532C356.193 212.649 355.994 212.808 355.859 213.007C355.725 213.2 355.657 213.414 355.657 213.648C355.657 213.842 355.71 214.018 355.815 214.176C355.927 214.328 356.082 214.472 356.281 214.606C356.486 214.741 356.732 214.87 357.02 214.993C357.312 215.116 357.641 215.236 358.004 215.354C358.684 215.57 359.287 215.813 359.814 216.083C360.348 216.347 360.796 216.648 361.159 216.988C361.528 217.322 361.807 217.703 361.994 218.131C362.188 218.559 362.284 219.042 362.284 219.581C362.284 220.155 362.173 220.665 361.95 221.11C361.728 221.556 361.408 221.934 360.992 222.244C360.576 222.549 360.078 222.78 359.498 222.938C358.918 223.097 358.271 223.176 357.556 223.176C356.899 223.176 356.252 223.094 355.613 222.93C354.98 222.76 354.406 222.502 353.891 222.156C353.375 221.805 352.962 221.356 352.651 220.812C352.347 220.261 352.194 219.607 352.194 218.852H355.288C355.288 219.227 355.338 219.543 355.438 219.801C355.537 220.059 355.684 220.267 355.877 220.425C356.07 220.577 356.308 220.688 356.589 220.759C356.87 220.823 357.192 220.855 357.556 220.855C357.948 220.855 358.265 220.8 358.505 220.688C358.745 220.571 358.921 220.419 359.032 220.231C359.144 220.038 359.199 219.827 359.199 219.599Z" fill="white"/>
<rect x="255" y="196" width="130" height="41" rx="3" stroke="#424242" stroke-width="4"/>
<rect x="405" y="196" width="91" height="41" rx="3" fill="#424242"/>
<path d="M428.141 210.203H433.177C434.161 210.203 435.017 210.35 435.743 210.643C436.47 210.936 437.029 211.369 437.422 211.943C437.82 212.518 438.02 213.227 438.02 214.07C438.02 214.803 437.905 215.415 437.677 215.907C437.448 216.399 437.129 216.807 436.719 217.129C436.314 217.445 435.843 217.706 435.304 217.911L434.293 218.482H430.065L430.048 216.101H433.177C433.569 216.101 433.895 216.03 434.152 215.89C434.41 215.749 434.604 215.55 434.732 215.292C434.867 215.028 434.935 214.715 434.935 214.352C434.935 213.982 434.867 213.666 434.732 213.402C434.598 213.139 434.398 212.937 434.135 212.796C433.877 212.655 433.558 212.585 433.177 212.585H431.226V223H428.141V210.203ZM435.146 223L432.315 217.34L435.585 217.322L438.45 222.868V223H435.146ZM444.348 223.176C443.574 223.176 442.883 223.056 442.273 222.815C441.664 222.569 441.148 222.232 440.727 221.805C440.311 221.377 439.991 220.885 439.769 220.328C439.552 219.771 439.443 219.183 439.443 218.562V218.228C439.443 217.53 439.54 216.886 439.733 216.294C439.927 215.696 440.214 215.175 440.595 214.729C440.976 214.284 441.453 213.938 442.027 213.692C442.602 213.44 443.27 213.314 444.031 213.314C444.705 213.314 445.309 213.423 445.842 213.64C446.375 213.856 446.826 214.167 447.195 214.571C447.57 214.976 447.854 215.465 448.048 216.039C448.247 216.613 448.347 217.258 448.347 217.973V219.177H440.577V217.322H445.455V217.094C445.461 216.777 445.405 216.508 445.288 216.285C445.177 216.062 445.013 215.893 444.796 215.775C444.579 215.658 444.315 215.6 444.005 215.6C443.683 215.6 443.416 215.67 443.205 215.811C443 215.951 442.839 216.145 442.722 216.391C442.61 216.631 442.531 216.909 442.484 217.226C442.438 217.542 442.414 217.876 442.414 218.228V218.562C442.414 218.913 442.461 219.232 442.555 219.52C442.654 219.807 442.795 220.053 442.977 220.258C443.164 220.457 443.387 220.612 443.645 220.724C443.908 220.835 444.207 220.891 444.541 220.891C444.945 220.891 445.344 220.814 445.736 220.662C446.129 220.51 446.466 220.258 446.747 219.906L448.092 221.506C447.898 221.781 447.623 222.048 447.266 222.306C446.914 222.563 446.492 222.774 446 222.938C445.508 223.097 444.957 223.176 444.348 223.176ZM454.49 220.609V216.689C454.49 216.42 454.452 216.188 454.376 215.995C454.3 215.802 454.18 215.652 454.016 215.547C453.852 215.436 453.632 215.38 453.356 215.38C453.134 215.38 452.943 215.418 452.785 215.494C452.627 215.57 452.507 215.685 452.425 215.837C452.343 215.989 452.302 216.183 452.302 216.417H449.34C449.34 215.978 449.437 215.57 449.63 215.195C449.829 214.814 450.11 214.483 450.474 214.202C450.843 213.921 451.282 213.704 451.792 213.552C452.308 213.394 452.882 213.314 453.515 213.314C454.271 213.314 454.944 213.44 455.536 213.692C456.134 213.944 456.605 214.322 456.951 214.826C457.297 215.324 457.47 215.951 457.47 216.707V220.601C457.47 221.222 457.505 221.693 457.575 222.016C457.646 222.332 457.745 222.61 457.874 222.851V223H454.903C454.763 222.707 454.657 222.35 454.587 221.928C454.522 221.5 454.49 221.061 454.49 220.609ZM454.851 217.19L454.868 218.772H453.559C453.283 218.772 453.049 218.811 452.855 218.887C452.668 218.963 452.516 219.068 452.398 219.203C452.287 219.332 452.205 219.479 452.152 219.643C452.105 219.807 452.082 219.979 452.082 220.161C452.082 220.337 452.123 220.495 452.205 220.636C452.293 220.771 452.41 220.876 452.557 220.952C452.703 221.028 452.867 221.066 453.049 221.066C453.377 221.066 453.655 221.005 453.884 220.882C454.118 220.753 454.297 220.598 454.42 220.416C454.543 220.234 454.604 220.064 454.604 219.906L455.255 221.119C455.138 221.354 455.003 221.591 454.851 221.831C454.704 222.071 454.52 222.294 454.297 222.499C454.08 222.698 453.813 222.862 453.497 222.991C453.181 223.114 452.797 223.176 452.346 223.176C451.76 223.176 451.221 223.056 450.729 222.815C450.242 222.575 449.853 222.241 449.56 221.813C449.267 221.38 449.12 220.882 449.12 220.319C449.12 219.827 449.208 219.388 449.384 219.001C449.565 218.614 449.838 218.286 450.201 218.017C450.564 217.747 451.027 217.542 451.59 217.401C452.152 217.261 452.814 217.19 453.576 217.19H454.851ZM463.13 220.891C463.405 220.891 463.64 220.841 463.833 220.741C464.032 220.636 464.182 220.489 464.281 220.302C464.387 220.108 464.437 219.877 464.431 219.607H467.217C467.223 220.322 467.047 220.949 466.689 221.488C466.338 222.021 465.857 222.438 465.248 222.736C464.645 223.029 463.962 223.176 463.2 223.176C462.456 223.176 461.806 223.056 461.249 222.815C460.692 222.569 460.227 222.229 459.852 221.796C459.482 221.356 459.204 220.844 459.017 220.258C458.835 219.672 458.744 219.036 458.744 218.351V218.148C458.744 217.463 458.835 216.827 459.017 216.241C459.204 215.649 459.482 215.137 459.852 214.703C460.227 214.264 460.689 213.924 461.24 213.684C461.797 213.438 462.444 213.314 463.183 213.314C463.974 213.314 464.671 213.464 465.274 213.763C465.884 214.062 466.361 214.495 466.707 215.063C467.053 215.632 467.223 216.32 467.217 217.129H464.431C464.437 216.842 464.393 216.584 464.299 216.355C464.205 216.127 464.059 215.945 463.859 215.811C463.666 215.67 463.417 215.6 463.112 215.6C462.808 215.6 462.562 215.667 462.374 215.802C462.187 215.937 462.043 216.124 461.943 216.364C461.85 216.599 461.785 216.868 461.75 217.173C461.721 217.478 461.706 217.803 461.706 218.148V218.351C461.706 218.702 461.721 219.033 461.75 219.344C461.785 219.648 461.853 219.918 461.952 220.152C462.052 220.381 462.195 220.562 462.383 220.697C462.57 220.826 462.819 220.891 463.13 220.891ZM473.492 213.49V215.547H467.762V213.49H473.492ZM468.966 211.126H471.928V219.897C471.928 220.149 471.957 220.346 472.016 220.486C472.074 220.621 472.174 220.718 472.314 220.776C472.461 220.829 472.654 220.855 472.895 220.855C473.064 220.855 473.205 220.853 473.316 220.847C473.428 220.835 473.533 220.82 473.633 220.803V222.921C473.381 223.003 473.117 223.064 472.842 223.105C472.566 223.152 472.273 223.176 471.963 223.176C471.33 223.176 470.788 223.076 470.337 222.877C469.892 222.678 469.552 222.364 469.317 221.937C469.083 221.509 468.966 220.952 468.966 220.267V211.126Z" fill="white"/>
<rect x="405" y="196" width="91" height="41" rx="3" stroke="#424242" stroke-width="4"/>
<rect x="516" y="196" width="109" height="41" rx="3" fill="#424242"/>
<path d="M550.118 210.203V223H547.042L542.516 215.037V223H539.431V210.203H542.516L547.042 218.166V210.203H550.118ZM551.56 218.342V218.157C551.56 217.46 551.659 216.818 551.858 216.232C552.058 215.641 552.351 215.128 552.737 214.694C553.124 214.261 553.602 213.924 554.17 213.684C554.738 213.438 555.395 213.314 556.139 213.314C556.889 213.314 557.548 213.438 558.116 213.684C558.69 213.924 559.171 214.261 559.558 214.694C559.944 215.128 560.237 215.641 560.437 216.232C560.636 216.818 560.735 217.46 560.735 218.157V218.342C560.735 219.033 560.636 219.675 560.437 220.267C560.237 220.853 559.944 221.365 559.558 221.805C559.171 222.238 558.693 222.575 558.125 222.815C557.557 223.056 556.9 223.176 556.156 223.176C555.412 223.176 554.753 223.056 554.179 222.815C553.604 222.575 553.124 222.238 552.737 221.805C552.351 221.365 552.058 220.853 551.858 220.267C551.659 219.675 551.56 219.033 551.56 218.342ZM554.521 218.157V218.342C554.521 218.699 554.548 219.033 554.601 219.344C554.653 219.654 554.741 219.927 554.864 220.161C554.987 220.39 555.154 220.568 555.365 220.697C555.576 220.826 555.84 220.891 556.156 220.891C556.467 220.891 556.725 220.826 556.93 220.697C557.141 220.568 557.308 220.39 557.431 220.161C557.554 219.927 557.642 219.654 557.694 219.344C557.747 219.033 557.773 218.699 557.773 218.342V218.157C557.773 217.812 557.747 217.486 557.694 217.182C557.642 216.871 557.554 216.599 557.431 216.364C557.308 216.124 557.141 215.937 556.93 215.802C556.719 215.667 556.455 215.6 556.139 215.6C555.828 215.6 555.567 215.667 555.356 215.802C555.151 215.937 554.987 216.124 554.864 216.364C554.741 216.599 554.653 216.871 554.601 217.182C554.548 217.486 554.521 217.812 554.521 218.157ZM567.521 220.82V209.5H570.5V223H567.828L567.521 220.82ZM561.685 218.359V218.175C561.685 217.454 561.764 216.798 561.922 216.206C562.08 215.608 562.314 215.096 562.625 214.668C562.936 214.234 563.322 213.9 563.785 213.666C564.248 213.432 564.781 213.314 565.385 213.314C565.924 213.314 566.396 213.44 566.8 213.692C567.204 213.938 567.55 214.284 567.837 214.729C568.124 215.175 568.358 215.696 568.54 216.294C568.722 216.886 568.859 217.524 568.953 218.21V218.43C568.859 219.074 568.722 219.684 568.54 220.258C568.358 220.826 568.124 221.33 567.837 221.77C567.55 222.209 567.201 222.555 566.791 222.807C566.387 223.053 565.912 223.176 565.367 223.176C564.764 223.176 564.23 223.056 563.768 222.815C563.311 222.575 562.927 222.238 562.616 221.805C562.312 221.371 562.08 220.861 561.922 220.275C561.764 219.689 561.685 219.051 561.685 218.359ZM564.646 218.175V218.359C564.646 218.717 564.67 219.048 564.717 219.353C564.764 219.657 564.843 219.927 564.954 220.161C565.071 220.39 565.224 220.568 565.411 220.697C565.604 220.826 565.842 220.891 566.123 220.891C566.504 220.891 566.817 220.8 567.063 220.618C567.315 220.437 567.5 220.179 567.617 219.845C567.74 219.511 567.793 219.118 567.775 218.667V217.973C567.787 217.586 567.761 217.246 567.696 216.953C567.632 216.654 567.529 216.405 567.389 216.206C567.254 216.007 567.081 215.857 566.87 215.758C566.665 215.652 566.422 215.6 566.141 215.6C565.865 215.6 565.631 215.664 565.438 215.793C565.25 215.922 565.098 216.104 564.98 216.338C564.863 216.566 564.778 216.839 564.726 217.155C564.673 217.466 564.646 217.806 564.646 218.175ZM576.784 223.176C576.011 223.176 575.319 223.056 574.71 222.815C574.101 222.569 573.585 222.232 573.163 221.805C572.747 221.377 572.428 220.885 572.205 220.328C571.988 219.771 571.88 219.183 571.88 218.562V218.228C571.88 217.53 571.977 216.886 572.17 216.294C572.363 215.696 572.65 215.175 573.031 214.729C573.412 214.284 573.89 213.938 574.464 213.692C575.038 213.44 575.706 213.314 576.468 213.314C577.142 213.314 577.745 213.423 578.278 213.64C578.812 213.856 579.263 214.167 579.632 214.571C580.007 214.976 580.291 215.465 580.484 216.039C580.684 216.613 580.783 217.258 580.783 217.973V219.177H573.014V217.322H577.892V217.094C577.897 216.777 577.842 216.508 577.725 216.285C577.613 216.062 577.449 215.893 577.232 215.775C577.016 215.658 576.752 215.6 576.441 215.6C576.119 215.6 575.853 215.67 575.642 215.811C575.437 215.951 575.275 216.145 575.158 216.391C575.047 216.631 574.968 216.909 574.921 217.226C574.874 217.542 574.851 217.876 574.851 218.228V218.562C574.851 218.913 574.897 219.232 574.991 219.52C575.091 219.807 575.231 220.053 575.413 220.258C575.601 220.457 575.823 220.612 576.081 220.724C576.345 220.835 576.644 220.891 576.978 220.891C577.382 220.891 577.78 220.814 578.173 220.662C578.565 220.51 578.902 220.258 579.184 219.906L580.528 221.506C580.335 221.781 580.06 222.048 579.702 222.306C579.351 222.563 578.929 222.774 578.437 222.938C577.944 223.097 577.394 223.176 576.784 223.176ZM587.217 218.983V210.203H590.293V218.983C590.293 219.839 590.097 220.58 589.704 221.207C589.317 221.834 588.79 222.32 588.122 222.666C587.46 223.006 586.716 223.176 585.89 223.176C585.034 223.176 584.272 223.032 583.604 222.745C582.942 222.458 582.421 222.016 582.04 221.418C581.665 220.82 581.478 220.059 581.478 219.133H584.571C584.571 219.566 584.621 219.906 584.721 220.152C584.82 220.393 584.967 220.562 585.16 220.662C585.359 220.756 585.603 220.803 585.89 220.803C586.171 220.803 586.408 220.732 586.602 220.592C586.801 220.445 586.953 220.237 587.059 219.968C587.164 219.692 587.217 219.364 587.217 218.983ZM598.845 219.599C598.845 219.399 598.815 219.221 598.757 219.062C598.698 218.898 598.59 218.746 598.432 218.605C598.273 218.465 598.045 218.324 597.746 218.184C597.453 218.037 597.066 217.885 596.586 217.727C596.023 217.539 595.481 217.328 594.96 217.094C594.438 216.854 593.973 216.575 593.562 216.259C593.152 215.937 592.827 215.562 592.587 215.134C592.347 214.7 592.227 214.196 592.227 213.622C592.227 213.071 592.35 212.576 592.596 212.137C592.842 211.691 593.185 211.313 593.624 211.003C594.069 210.687 594.591 210.446 595.188 210.282C595.786 210.112 596.439 210.027 597.148 210.027C598.086 210.027 598.912 210.191 599.627 210.52C600.348 210.842 600.91 211.302 601.314 211.899C601.725 212.491 601.93 213.191 601.93 214H598.862C598.862 213.678 598.795 213.394 598.66 213.147C598.531 212.901 598.335 212.708 598.071 212.567C597.808 212.427 597.477 212.356 597.078 212.356C596.691 212.356 596.366 212.415 596.103 212.532C595.839 212.649 595.64 212.808 595.505 213.007C595.37 213.2 595.303 213.414 595.303 213.648C595.303 213.842 595.355 214.018 595.461 214.176C595.572 214.328 595.728 214.472 595.927 214.606C596.132 214.741 596.378 214.87 596.665 214.993C596.958 215.116 597.286 215.236 597.649 215.354C598.329 215.57 598.933 215.813 599.46 216.083C599.993 216.347 600.441 216.648 600.805 216.988C601.174 217.322 601.452 217.703 601.64 218.131C601.833 218.559 601.93 219.042 601.93 219.581C601.93 220.155 601.818 220.665 601.596 221.11C601.373 221.556 601.054 221.934 600.638 222.244C600.222 222.549 599.724 222.78 599.144 222.938C598.563 223.097 597.916 223.176 597.201 223.176C596.545 223.176 595.897 223.094 595.259 222.93C594.626 222.76 594.052 222.502 593.536 222.156C593.021 221.805 592.607 221.356 592.297 220.812C591.992 220.261 591.84 219.607 591.84 218.852H594.934C594.934 219.227 594.983 219.543 595.083 219.801C595.183 220.059 595.329 220.267 595.522 220.425C595.716 220.577 595.953 220.688 596.234 220.759C596.516 220.823 596.838 220.855 597.201 220.855C597.594 220.855 597.91 220.8 598.15 220.688C598.391 220.571 598.566 220.419 598.678 220.231C598.789 220.038 598.845 219.827 598.845 219.599Z" fill="white"/>
<rect x="516" y="196" width="109" height="41" rx="3" stroke="#424242" stroke-width="4"/>
<path d="M1066 0H1348C1356.28 0 1363 6.71573 1363 15V282C1363 290.284 1356.28 297 1348 297H1066V0Z" fill="white"/>
<g clip-path="url(#clip0_3_61)" filter="url(#filter0_i_3_61)">
<path d="M1215 162.096C1204.44 168.566 1192.42 174.517 1179.18 179.827C1179.18 179.829 1179.18 179.83 1179.18 179.83L1179.18 179.832C1179.57 181.799 1180.04 183.834 1180.6 185.914C1180.6 185.923 1180.61 185.931 1180.61 185.94C1182.31 192.194 1184.92 198.874 1188.81 205.499C1188.82 205.51 1188.82 205.522 1188.83 205.533H1188.83C1194.44 215.061 1202.74 224.467 1215 232.307C1235.82 218.999 1245.26 201.207 1249.41 185.955C1249.41 185.938 1249.42 185.921 1249.42 185.904C1249.98 183.831 1250.46 181.803 1250.84 179.842C1237.6 174.532 1225.57 168.582 1215 162.096Z" fill="#6B4529" fill-opacity="0.7"/>
<path d="M1304.84 104.18C1306.93 97.7733 1307.71 91.2633 1307.24 83.7111C1305.36 53.4508 1278.44 28.6589 1247.19 28.4505H1246.72C1221.51 28.4505 1199.01 43.815 1190.16 66.1588C1180.89 58.8151 1168.96 55.2736 1156.77 56.367C1140 57.9814 1125.26 69.1792 1118.44 85.6376C1115 93.7626 1115.68 102.877 1116.46 108.086C1100.26 117.252 1090 134.648 1090 153.45C1090 181.961 1112.99 203.688 1144.06 205.369C1136.47 183.336 1136.61 164.142 1136.95 157.584L1137.32 150.356L1144.22 148.184C1182.31 136.176 1201.66 121.807 1208.22 116.182L1215 110.368L1221.78 116.182C1228.34 121.807 1247.69 136.176 1285.78 148.184L1292.68 150.356L1293.05 157.584C1293.39 164.144 1293.53 183.341 1285.94 205.38C1317.96 203.812 1340 182.898 1340 153.45C1340 131.159 1325.52 111.315 1304.84 104.18Z" fill="#2F4C1B"/>
<path d="M1282.65 158.119C1243.38 145.739 1222.86 130.831 1215 124.092C1207.14 130.831 1186.62 145.739 1147.36 158.119C1146.56 173.535 1147.65 236.824 1215 267.55C1282.36 236.809 1283.44 173.531 1282.65 158.119ZM1261.83 177.294C1258.95 196.978 1248.95 224.337 1217.66 242.902L1215 244.478L1212.34 242.902C1181.07 224.347 1171.07 196.978 1168.19 177.284L1167.58 173.164L1171.47 171.669C1186.85 165.754 1200.55 158.989 1212.2 151.563L1215 149.772L1217.8 151.563C1229.46 158.999 1243.17 165.768 1258.55 171.679L1262.44 173.175L1261.83 177.294Z" fill="#6B4529"/>
</g>
<defs>
<filter id="filter0_i_3_61" x="1090" y="23" width="250" height="254" filterUnits="userSpaceOnUse" color-interpolation-filters="sRGB">
<feFlood flood-opacity="0" result="BackgroundImageFix"/>
<feBlend mode="normal" in="SourceGraphic" in2="BackgroundImageFix" result="shape"/>
<feColorMatrix in="SourceAlpha" type="matrix" values="0 0 0 0 0 0 0 0 0 0 0 0 0 0 0 0 0 0 127 0" result="hardAlpha"/>
<feOffset dy="7"/>
<feGaussianBlur stdDeviation="2"/>
<feComposite in2="hardAlpha" operator="arithmetic" k2="-1" k3="1"/>
<feColorMatrix type="matrix" values="0 0 0 0 0 0 0 0 0 0 0 0 0 0 0 0 0 0 0.9 0"/>
<feBlend mode="normal" in2="shape" result="effect1_innerShadow_3_61"/>
</filter>
<clipPath id="clip0_3_61">
<rect width="250" height="250" fill="white" transform="translate(1090 23)"/>
</clipPath>
</defs>
</svg>
